<svg width="283" height="248" viewBox="0 0 283 248" fill="none" xmlns="http://www.w3.org/2000/svg">
<path fill-rule="evenodd" clip-rule="evenodd" d="M49.1218 160.247V162.677C49.1218 167.236 52.3114 171.048 56.5771 171.997C57.2453 172.145 57.9399 172.224 58.6528 172.224H93.1114V171.489C93.1114 170.835 93.3254 170.23 93.6871 169.741C94.0383 169.267 94.5288 168.902 95.098 168.708C95.2518 168.656 95.4113 168.616 95.5753 168.589C95.728 168.565 95.8845 168.552 96.044 168.552H107.775C109.394 168.552 110.707 169.867 110.707 171.489V177.364C110.707 178.987 109.394 180.302 107.775 180.302H96.044C94.4244 180.302 93.1114 178.987 93.1114 177.364V176.63H58.6528C50.9595 176.63 44.7228 170.383 44.7228 162.677V160.247H43.0676C40.8012 160.247 38.7658 159.232 37.3912 157.631C36.263 156.318 35.58 154.61 35.58 152.747V150.922C29.2609 150.74 24.1943 145.551 24.1943 139.178V133.609C23.7043 132.576 22.6517 131.859 21.4367 131.859H19.2182C15.0917 131.859 11.7306 128.492 11.7306 124.359V102.748C11.7306 98.6152 15.0917 95.2486 19.2182 95.2486H23.6553C25.3358 95.2486 26.7058 93.8764 26.7058 92.1932V89.4154C26.7058 85.2822 30.0669 81.9156 34.1934 81.9156H39.1851C39.3226 81.9156 39.4579 81.9065 39.5907 81.8887V58.3985C39.5907 51.9093 44.8426 46.6488 51.3212 46.6488H109.241C109.487 46.6488 109.732 46.6564 109.974 46.6714V29.7586C109.974 20.0248 117.852 12.134 127.57 12.134H253.674C263.391 12.134 271.269 20.0248 271.269 29.7586V107.6C271.269 117.334 263.391 125.225 253.674 125.225H201.619L175.959 148.724L175.959 125.225H160.373V128.998C160.373 133.075 157.062 136.392 152.991 136.392H150.007C148.382 136.392 147.062 137.714 147.062 139.342V141.742C147.062 145.82 143.751 149.136 139.68 149.136H132.492C130.867 149.136 129.547 150.458 129.547 152.086V152.853C129.547 155.024 128.608 156.979 127.116 158.333C126.193 159.17 125.058 159.777 123.803 160.063C123.276 160.184 122.727 160.247 122.164 160.247H95.098C93.0903 160.247 91.2674 159.44 89.9353 158.134C89.9243 158.123 89.9132 158.112 89.9022 158.101C89.8704 158.132 89.8382 158.163 89.8058 158.194C89.0448 158.915 88.1335 159.478 87.1248 159.831C86.354 160.1 85.5263 160.247 84.6653 160.247H49.1218ZM114.373 190.484C112.39 191.487 110.148 192.051 107.775 192.051H96.044C92.3253 192.051 88.9298 190.665 86.345 188.38H58.6528C46.9115 188.38 37.0119 180.481 33.9616 169.699C30.0971 167.61 27.026 164.234 25.3229 160.146C18.6221 156.74 13.7744 150.209 12.6918 142.468C5.29416 139.789 0 132.687 0 124.359V102.748C0 93.2919 6.8261 85.4168 15.8069 83.802C17.593 77.9351 22.1043 73.2526 27.8601 71.2378V58.3985C27.8601 45.4201 38.364 34.8991 51.3212 34.8991H98.2435V29.7586C98.2435 13.5356 111.373 0.384338 127.57 0.384338H253.674C269.87 0.384338 283 13.5356 283 29.7586V107.6C283 123.823 269.87 136.975 253.674 136.975H206.173L188.462 153.194C196.358 153.865 202.768 159.758 204.235 167.411C208.269 169.396 211.433 172.882 213.001 177.142C216.803 180.375 219.215 185.197 219.215 190.583C219.215 192.643 218.862 194.62 218.214 196.458C218.862 198.295 219.215 200.272 219.215 202.332C219.215 204.392 218.862 206.37 218.214 208.207C218.862 210.045 219.215 212.022 219.215 214.082C219.215 219.468 216.803 224.29 213.001 227.523C210.524 234.252 204.065 239.05 196.487 239.05H191.539C187.787 243.961 181.875 247.128 175.225 247.128H134.902C123.564 247.128 114.373 237.922 114.373 226.566V190.484ZM172.293 235.378H175.225C178.169 235.378 180.775 233.93 182.372 231.707C182.673 231.288 182.938 230.842 183.162 230.373C183.614 229.43 183.903 228.393 183.993 227.301C184.013 227.058 184.023 226.813 184.023 226.566V227.301H196.487C198.695 227.301 200.619 226.078 201.619 224.272C202.086 223.429 202.352 222.458 202.352 221.426V219.957H201.619C201.867 219.957 202.112 219.942 202.352 219.912C205.246 219.55 207.484 217.078 207.484 214.082C207.484 211.086 205.246 208.614 202.352 208.253C202.112 208.223 201.867 208.207 201.619 208.207C204.858 208.207 207.484 205.577 207.484 202.332C207.484 199.088 204.858 196.458 201.619 196.458C201.867 196.458 202.112 196.442 202.352 196.412C205.246 196.051 207.484 193.579 207.484 190.583C207.484 187.587 205.246 185.115 202.352 184.753C202.112 184.723 201.867 184.708 201.619 184.708H202.352V183.239C202.352 182.206 202.086 181.236 201.619 180.393C200.619 178.587 198.695 177.364 196.487 177.364H192.821V170.755M164.228 156.802L164.228 144.482C162.351 145.851 160.217 146.886 157.911 147.5C156.741 151.218 154.467 154.448 151.475 156.802H164.228ZM132.686 168.834C131.379 169.173 130.189 169.807 129.192 170.659C127.302 172.276 126.104 174.68 126.104 177.364V226.566C126.104 231.433 130.043 235.378 134.902 235.378H172.293M132.686 168.834C133.394 168.65 134.136 168.552 134.902 168.552H175.225C177.457 168.552 179.494 169.384 181.045 170.755C181.06 170.769 181.075 170.782 181.091 170.796V170.755C181.091 167.716 183.395 165.216 186.349 164.911M184.023 219.957H189.889C187.156 219.957 184.859 218.085 184.208 215.551C184.087 215.081 184.023 214.589 184.023 214.082C184.023 210.838 186.649 208.207 189.889 208.207C186.649 208.207 184.023 205.577 184.023 202.332C184.023 199.088 186.649 196.458 189.889 196.458C186.649 196.458 184.023 193.827 184.023 190.583C184.023 190.148 184.07 189.724 184.16 189.316C184.175 189.248 184.191 189.181 184.208 189.114C184.247 188.963 184.292 188.814 184.342 188.668C184.431 188.408 184.539 188.156 184.662 187.913C184.442 187.82 184.229 187.713 184.023 187.594V190.583V202.332V214.082V219.957ZM97.5104 71.7105C96.4854 71.1815 95.3237 70.8826 94.0941 70.8826H51.3212V58.3985H109.241V69.4139H109.974V70.8826H104.527C102.502 70.8826 100.666 71.7027 99.3311 73.0287C98.7958 72.5033 98.1825 72.0574 97.5104 71.7105Z" fill="white" fill-opacity="0.3"/>
<path fill-rule="evenodd" clip-rule="evenodd" d="M127.968 12.1347C118.25 12.1347 110.372 20.0255 110.372 29.7593V107.601C110.372 117.335 118.25 125.226 127.968 125.226H176.357L176.357 148.725L202.017 125.226H254.072C263.789 125.226 271.667 117.335 271.667 107.601V29.7593C271.667 20.0255 263.789 12.1347 254.072 12.1347H127.968Z" fill="white"/>
<path fill-rule="evenodd" clip-rule="evenodd" d="M178.43 123.149C178.98 123.699 179.289 124.447 179.289 125.226L179.289 142.059L200.038 123.058C200.579 122.563 201.285 122.288 202.017 122.288H254.072C262.17 122.288 268.735 115.713 268.735 107.601V29.7593C268.735 21.6478 262.17 15.0721 254.072 15.0721H127.968C119.87 15.0721 113.305 21.6478 113.305 29.7593V107.601C113.305 115.713 119.87 122.288 127.968 122.288H176.357C177.134 122.288 177.88 122.598 178.43 123.149ZM176.357 148.725L176.357 125.226H127.968C118.25 125.226 110.372 117.335 110.372 107.601V29.7593C110.372 20.0255 118.25 12.1347 127.968 12.1347H254.072C263.789 12.1347 271.667 20.0255 271.667 29.7593V107.601C271.667 117.335 263.789 125.226 254.072 125.226H202.017L176.357 148.725Z" fill="#0D47A1"/>
<path d="M138.965 36.3681C138.965 34.7458 140.278 33.4307 141.898 33.4307H240.141C241.761 33.4307 243.074 34.7458 243.074 36.3681C243.074 37.9904 241.761 39.3055 240.141 39.3055H141.898C140.278 39.3055 138.965 37.9904 138.965 36.3681Z" fill="#C5CAE9"/>
<path d="M138.965 52.5234C138.965 50.9011 140.278 49.5859 141.898 49.5859H240.141C241.761 49.5859 243.074 50.9011 243.074 52.5234C243.074 54.1457 241.761 55.4608 240.141 55.4608H141.898C140.278 55.4608 138.965 54.1457 138.965 52.5234Z" fill="#C5CAE9"/>
<path d="M138.965 68.6796C138.965 67.0573 140.278 65.7422 141.898 65.7422H240.141C241.761 65.7422 243.074 67.0573 243.074 68.6796C243.074 70.3019 241.761 71.6171 240.141 71.6171H141.898C140.278 71.6171 138.965 70.3019 138.965 68.6796Z" fill="#C5CAE9"/>
<path d="M138.965 84.8354C138.965 83.2131 140.278 81.898 141.898 81.898H240.141C241.761 81.898 243.074 83.2131 243.074 84.8354C243.074 86.4577 241.761 87.7729 240.141 87.7729H141.898C140.278 87.7729 138.965 86.4577 138.965 84.8354Z" fill="#C5CAE9"/>
<path d="M138.965 100.991C138.965 99.3689 140.278 98.0538 141.898 98.0538H188.82C190.44 98.0538 191.753 99.3689 191.753 100.991C191.753 102.614 190.44 103.929 188.82 103.929H141.898C140.278 103.929 138.965 102.614 138.965 100.991Z" fill="#C5CAE9"/>
<path d="M153.389 100.803C150.538 100.803 148.225 98.4861 148.225 95.6306V89.4752C148.225 86.6198 145.912 84.3031 143.062 84.3031H131.547C128.697 84.3031 126.384 81.9865 126.384 79.1311V78.2755C126.384 75.42 124.071 73.1034 121.22 73.1034H104.925C102.074 73.1034 99.7611 75.42 99.7611 78.2755V78.3811V82.0532V82.2254C99.7611 85.142 102.118 87.5031 105.03 87.5031H110.477C113.389 87.5031 115.746 89.8641 115.746 92.7807V96.6362C115.746 99.5528 118.103 101.914 121.015 101.914H122.457C125.369 101.914 127.726 104.275 127.726 107.191V128.891C127.726 131.808 125.369 134.169 122.457 134.169H121.281C118.369 134.169 116.012 136.53 116.012 139.446V142.191C116.012 145.107 113.655 147.468 110.743 147.468H95.6013C92.6895 147.468 90.3323 149.829 90.3323 152.746V152.851C90.3323 155.707 92.6451 158.024 95.4959 158.024H122.562C125.413 158.024 127.726 155.707 127.726 152.851V152.085C127.726 149.229 130.039 146.913 132.89 146.913H140.078C142.928 146.913 145.241 144.596 145.241 141.741V139.341C145.241 136.485 147.554 134.169 150.405 134.169H153.389C156.24 134.169 158.553 131.852 158.553 128.996V105.975C158.553 103.119 156.24 100.803 153.389 100.803Z" fill="#F48FB1"/>
<path fill-rule="evenodd" clip-rule="evenodd" d="M99.0279 78.2753C99.0279 75.0143 101.669 72.3689 104.925 72.3689H121.22C124.476 72.3689 127.117 75.0143 127.117 78.2753V79.1309C127.117 81.5808 129.101 83.5686 131.547 83.5686H143.062C146.317 83.5686 148.958 86.214 148.958 89.475V95.6304C148.958 98.0803 150.943 100.068 153.389 100.068C156.645 100.068 159.286 102.714 159.286 105.975V128.996C159.286 132.257 156.645 134.903 153.389 134.903H150.405C147.959 134.903 145.974 136.891 145.974 139.34V141.74C145.974 145.001 143.333 147.647 140.078 147.647H132.89C130.444 147.647 128.459 149.635 128.459 152.085V152.851C128.459 156.112 125.818 158.758 122.562 158.758H95.496C92.2402 158.758 89.5991 156.112 89.5991 152.851V152.746C89.5991 149.424 92.2846 146.734 95.6013 146.734H110.743C113.25 146.734 115.279 144.701 115.279 142.19V139.446C115.279 136.124 117.964 133.434 121.281 133.434H122.457C124.964 133.434 126.993 131.402 126.993 128.891V107.191C126.993 104.68 124.964 102.648 122.457 102.648H121.015C117.698 102.648 115.013 99.9581 115.013 96.636V92.7805C115.013 90.2695 112.984 88.2372 110.477 88.2372H105.03C101.713 88.2372 99.0279 85.5474 99.0279 82.2252V78.2753ZM104.925 73.8376C102.479 73.8376 100.494 75.8254 100.494 78.2753V82.2252C100.494 84.7362 102.523 86.7685 105.03 86.7685H110.477C113.793 86.7685 116.479 89.4583 116.479 92.7805V96.636C116.479 99.147 118.508 101.179 121.015 101.179H122.457C125.774 101.179 128.459 103.869 128.459 107.191V128.891C128.459 132.213 125.774 134.903 122.457 134.903H121.281C118.774 134.903 116.745 136.935 116.745 139.446V142.19C116.745 145.513 114.06 148.202 110.743 148.202H95.6013C93.0944 148.202 91.0654 150.235 91.0654 152.746V152.851C91.0654 155.301 93.05 157.289 95.496 157.289H122.562C125.008 157.289 126.993 155.301 126.993 152.851V152.085C126.993 148.824 129.634 146.178 132.89 146.178H140.078C142.524 146.178 144.508 144.19 144.508 141.74V139.34C144.508 136.079 147.149 133.434 150.405 133.434H153.389C155.835 133.434 157.819 131.446 157.819 128.996V105.975C157.819 103.525 155.835 101.537 153.389 101.537C150.133 101.537 147.492 98.8915 147.492 95.6304V89.475C147.492 87.0251 145.508 85.0373 143.062 85.0373H131.547C128.292 85.0373 125.651 82.3919 125.651 79.1309V78.2753C125.651 75.8254 123.666 73.8376 121.22 73.8376H104.925Z" fill="#D81B60"/>
<path fill-rule="evenodd" clip-rule="evenodd" d="M118.995 86.3598C118.995 85.9543 119.323 85.6255 119.728 85.6255H128.347C131.204 85.6255 133.518 87.9431 133.518 90.8042V96.9151C133.518 98.9651 135.175 100.625 137.222 100.625H140.327C143.184 100.625 145.498 102.943 145.498 105.804V112.787C145.498 113.193 145.17 113.521 144.765 113.521C144.36 113.521 144.031 113.193 144.031 112.787V105.804C144.031 103.754 142.374 102.094 140.327 102.094H137.222C134.365 102.094 132.051 99.7762 132.051 96.9151V90.8042C132.051 88.7543 130.394 87.0942 128.347 87.0942H119.728C119.323 87.0942 118.995 86.7654 118.995 86.3598Z" fill="#D81B60"/>
<path fill-rule="evenodd" clip-rule="evenodd" d="M137.843 127.29C138.248 127.29 138.576 127.619 138.576 128.024V136.913C138.576 139.774 136.262 142.092 133.406 142.092H124.443C124.038 142.092 123.709 141.763 123.709 141.357C123.709 140.952 124.038 140.623 124.443 140.623H133.406C135.452 140.623 137.11 138.963 137.11 136.913V128.024C137.11 127.619 137.438 127.29 137.843 127.29Z" fill="#D81B60"/>
<path d="M121.22 73.1044C124.071 73.1044 126.384 75.421 126.384 78.2765V79.132C126.384 81.9875 128.697 84.3041 131.547 84.3041H143.062C145.912 84.3041 148.225 86.6207 148.225 89.4762V95.6316C148.225 98.4871 150.538 100.804 153.389 100.804C156.24 100.804 158.553 103.12 158.553 105.976V128.997C158.553 131.853 156.24 134.17 153.389 134.17H150.405C147.554 134.17 145.241 136.486 145.241 139.342V141.742C145.241 144.597 142.929 146.914 140.078 146.914H132.89C130.039 146.914 127.726 149.23 127.726 152.086V152.852C127.726 155.708 125.413 158.024 122.562 158.024H95.496C92.6452 158.024 90.3323 155.708 90.3323 152.852V152.747C90.3323 149.83 92.6895 147.469 95.6014 147.469H110.743C113.655 147.469 116.012 145.108 116.012 142.192V139.447C116.012 136.531 118.369 134.17 121.281 134.17H122.457C125.369 134.17 127.726 131.808 127.726 128.892V107.192C127.726 104.276 125.369 101.915 122.457 101.915H121.015C118.103 101.915 115.746 99.5537 115.746 96.6371V92.7817C115.746 89.8651 113.389 87.504 110.477 87.504H105.03C102.118 87.504 99.7611 85.143 99.7611 82.2264V82.0542V78.382V78.2765C99.7611 75.421 102.074 73.1044 104.925 73.1044H121.22ZM121.22 70.8822H104.925C100.854 70.8822 97.5426 74.1988 97.5426 78.2765V78.382V82.0542V82.2264C97.5426 86.3596 100.904 89.7262 105.03 89.7262H110.477C112.157 89.7262 113.527 91.0984 113.527 92.7817V96.6371C113.527 100.77 116.888 104.137 121.015 104.137H122.457C124.137 104.137 125.507 105.509 125.507 107.192V128.892C125.507 130.575 124.137 131.947 122.457 131.947H121.281C117.155 131.947 113.793 135.314 113.793 139.447V142.192C113.793 143.875 112.424 145.247 110.743 145.247H95.6014C91.4749 145.247 88.1138 148.614 88.1138 152.747V152.852C88.1138 156.93 91.4249 160.247 95.496 160.247H122.562C126.633 160.247 129.944 156.93 129.944 152.852V152.086C129.944 150.458 131.265 149.136 132.89 149.136H140.078C144.149 149.136 147.46 145.819 147.46 141.742V139.342C147.46 137.714 148.78 136.392 150.405 136.392H153.389C157.46 136.392 160.771 133.075 160.771 128.997V105.976C160.771 101.898 157.46 98.5815 153.389 98.5815C151.764 98.5815 150.444 97.2594 150.444 95.6316V89.4762C150.444 85.3985 147.133 82.082 143.062 82.082H131.547C129.922 82.082 128.602 80.7598 128.602 79.132V78.2765C128.602 74.1988 125.291 70.8822 121.22 70.8822Z" fill="#D81B60"/>
<path d="M44.8524 78.8597V78.3819C44.8524 75.4653 47.2096 73.1043 50.1215 73.1043H94.4924C97.4043 73.1043 99.7615 75.4653 99.7615 78.3819V82.2263C99.7615 85.1429 102.119 87.5039 105.031 87.5039H110.477C113.389 87.5039 115.746 89.865 115.746 92.7816V96.637C115.746 99.5536 118.103 101.915 121.015 101.915H122.457C125.369 101.915 127.726 104.276 127.726 107.192V128.892C127.726 131.808 125.369 134.169 122.457 134.169H121.281C118.37 134.169 116.012 136.53 116.012 139.447V142.191C116.012 145.108 113.655 147.469 110.743 147.469H95.6017C92.6899 147.469 90.3327 149.83 90.3327 152.747C90.3327 155.663 87.9755 158.024 85.0636 158.024H43.4658C40.554 158.024 38.1968 155.663 38.1968 152.747V150.802C38.1968 147.886 35.8396 145.525 32.9277 145.525H32.3731C29.4613 145.525 27.1041 143.164 27.1041 140.247V134.914C27.1041 131.997 24.7469 129.636 21.835 129.636H19.6165C16.7046 129.636 14.3474 127.275 14.3474 124.359V102.748C14.3474 99.8314 16.7046 97.4703 19.6165 97.4703H24.0536C26.9654 97.4703 29.3226 95.1093 29.3226 92.1927V89.415C29.3226 86.4984 31.6798 84.1373 34.5917 84.1373H39.5834C42.4952 84.1373 44.8524 81.7763 44.8524 78.8597Z" fill="#F8BBD0"/>
<path fill-rule="evenodd" clip-rule="evenodd" d="M50.1215 73.8383C47.6146 73.8383 45.5856 75.8705 45.5856 78.3815V78.8593C45.5856 82.1815 42.9002 84.8713 39.5834 84.8713H34.5917C32.0847 84.8713 30.0558 86.9036 30.0558 89.4146V92.1923C30.0558 95.5145 27.3703 98.2043 24.0536 98.2043H19.6165C17.1095 98.2043 15.0806 100.237 15.0806 102.748V124.358C15.0806 126.869 17.1095 128.901 19.6165 128.901H21.835C25.1518 128.901 27.8372 131.591 27.8372 134.913V140.247C27.8372 142.758 29.8662 144.79 32.3731 144.79H32.9278C36.2445 144.79 38.93 147.48 38.93 150.802V152.746C38.93 155.257 40.9589 157.29 43.4659 157.29H85.0636C87.5705 157.29 89.5995 155.257 89.5995 152.746C89.5995 149.424 92.285 146.734 95.6017 146.734H110.743C113.25 146.734 115.279 144.702 115.279 142.191V139.447C115.279 136.125 117.965 133.435 121.281 133.435H122.457C124.964 133.435 126.993 131.402 126.993 128.891V107.192C126.993 104.681 124.964 102.649 122.457 102.649H121.015C117.698 102.649 115.013 99.9588 115.013 96.6366V92.7812C115.013 90.2702 112.984 88.2379 110.477 88.2379H105.031C101.714 88.2379 99.0283 85.5481 99.0283 82.2259V78.3815C99.0283 75.8705 96.9994 73.8383 94.4924 73.8383H50.1215ZM44.1193 78.3815C44.1193 75.0594 46.8047 72.3695 50.1215 72.3695H94.4924C97.8092 72.3695 100.495 75.0594 100.495 78.3815V82.2259C100.495 84.7369 102.524 86.7692 105.031 86.7692H110.477C113.794 86.7692 116.479 89.459 116.479 92.7812V96.6366C116.479 99.1477 118.508 101.18 121.015 101.18H122.457C125.774 101.18 128.459 103.87 128.459 107.192V128.891C128.459 132.214 125.774 134.903 122.457 134.903H121.281C118.774 134.903 116.746 136.936 116.746 139.447V142.191C116.746 145.513 114.06 148.203 110.743 148.203H95.6017C93.0948 148.203 91.0658 150.235 91.0658 152.746C91.0658 156.069 88.3804 158.758 85.0636 158.758H43.4659C40.1491 158.758 37.4636 156.069 37.4636 152.746V150.802C37.4636 148.291 35.4347 146.259 32.9278 146.259H32.3731C29.0564 146.259 26.3709 143.569 26.3709 140.247V134.913C26.3709 132.402 24.3419 130.37 21.835 130.37H19.6165C16.2997 130.37 13.6143 127.68 13.6143 124.358V102.748C13.6143 99.4254 16.2997 96.7356 19.6165 96.7356H24.0536C26.5605 96.7356 28.5895 94.7033 28.5895 92.1923V89.4146C28.5895 86.0924 31.2749 83.4026 34.5917 83.4026H39.5834C42.0903 83.4026 44.1193 81.3703 44.1193 78.8593V78.3815Z" fill="#D81B60"/>
<path fill-rule="evenodd" clip-rule="evenodd" d="M45.4069 91.7362C45.8118 91.7362 46.1401 92.065 46.1401 92.4705V108.126C46.1401 110.987 43.8262 113.304 40.9698 113.304H25.9946C25.5897 113.304 25.2615 112.976 25.2615 112.57C25.2615 112.164 25.5897 111.836 25.9946 111.836H40.9698C43.0164 111.836 44.6738 110.176 44.6738 108.126V92.4705C44.6738 92.065 45.002 91.7362 45.4069 91.7362Z" fill="#D81B60"/>
<path fill-rule="evenodd" clip-rule="evenodd" d="M25.2615 112.786C25.2615 112.381 25.5897 112.052 25.9946 112.052H40.9698C43.8262 112.052 46.1401 114.37 46.1401 117.231V133.58C46.1401 133.986 45.8118 134.315 45.4069 134.315C45.002 134.315 44.6738 133.986 44.6738 133.58V117.231C44.6738 115.181 43.0164 113.521 40.9698 113.521H25.9946C25.5897 113.521 25.2615 113.192 25.2615 112.786Z" fill="#D81B60"/>
<path fill-rule="evenodd" clip-rule="evenodd" d="M61.2694 95.626C61.6743 95.626 62.0025 95.9548 62.0025 96.3603V123.582C62.0025 126.443 59.6887 128.761 56.8323 128.761H45.4067C45.0018 128.761 44.6736 128.432 44.6736 128.026C44.6736 127.621 45.0018 127.292 45.4067 127.292H56.8323C58.8788 127.292 60.5362 125.632 60.5362 123.582V96.3603C60.5362 95.9548 60.8644 95.626 61.2694 95.626Z" fill="#D81B60"/>
<path fill-rule="evenodd" clip-rule="evenodd" d="M71.0365 127.291C71.4414 127.291 71.7696 127.62 71.7696 128.026V141.081C71.7696 143.942 69.4558 146.26 66.5994 146.26H34.314C33.9091 146.26 33.5808 145.931 33.5808 145.525C33.5808 145.12 33.9091 144.791 34.314 144.791H66.5994C68.646 144.791 70.3033 143.131 70.3033 141.081V128.026C70.3033 127.62 70.6316 127.291 71.0365 127.291Z" fill="#D81B60"/>
<path fill-rule="evenodd" clip-rule="evenodd" d="M79.0613 148.025C79.0613 147.619 79.3895 147.291 79.7944 147.291H95.6016C96.0065 147.291 96.3348 147.619 96.3348 148.025C96.3348 148.431 96.0065 148.759 95.6016 148.759H79.7944C79.3895 148.759 79.0613 148.431 79.0613 148.025Z" fill="#D81B60"/>
<path fill-rule="evenodd" clip-rule="evenodd" d="M70.3037 133.581C70.3037 133.175 70.632 132.847 71.0369 132.847H105.097C105.502 132.847 105.83 133.175 105.83 133.581C105.83 133.987 105.502 134.315 105.097 134.315H71.0369C70.632 134.315 70.3037 133.987 70.3037 133.581Z" fill="#D81B60"/>
<path fill-rule="evenodd" clip-rule="evenodd" d="M60.5364 115.565C60.5364 115.159 60.8646 114.83 61.2695 114.83H111.409C114.265 114.83 116.579 117.148 116.579 120.009V139.503C116.579 139.908 116.251 140.237 115.846 140.237C115.441 140.237 115.113 139.908 115.113 139.503V120.009C115.113 117.959 113.455 116.299 111.409 116.299H61.2695C60.8646 116.299 60.5364 115.97 60.5364 115.565Z" fill="#D81B60"/>
<path fill-rule="evenodd" clip-rule="evenodd" d="M55.0063 84.8377C55.0063 84.4321 55.3346 84.1034 55.7395 84.1034H86.8657C87.2706 84.1034 87.5989 84.4321 87.5989 84.8377C87.5989 85.2433 87.2706 85.5721 86.8657 85.5721H55.7395C55.3346 85.5721 55.0063 85.2433 55.0063 84.8377Z" fill="#D81B60"/>
<path fill-rule="evenodd" clip-rule="evenodd" d="M74.2483 84.1034C74.6532 84.1034 74.9815 84.4321 74.9815 84.8377V96.9152C74.9815 98.9651 76.6388 100.625 78.6854 100.625H105.097C105.502 100.625 105.83 100.954 105.83 101.36C105.83 101.765 105.502 102.094 105.097 102.094H78.6854C75.829 102.094 73.5151 99.7763 73.5151 96.9152V84.8377C73.5151 84.4321 73.8434 84.1034 74.2483 84.1034Z" fill="#D81B60"/>
<path d="M94.4922 73.105C97.4041 73.105 99.7613 75.4661 99.7613 78.3827V82.227C99.7613 85.1436 102.118 87.5047 105.03 87.5047H110.477C113.389 87.5047 115.746 89.8657 115.746 92.7823V96.6378C115.746 99.5544 118.103 101.915 121.015 101.915H122.457C125.369 101.915 127.726 104.276 127.726 107.193V128.893C127.726 131.809 125.369 134.17 122.457 134.17H121.281C118.369 134.17 116.012 136.531 116.012 139.448V142.192C116.012 145.109 113.655 147.47 110.743 147.47H95.6015C92.6897 147.47 90.3325 149.831 90.3325 152.747C90.3325 155.664 87.9753 158.025 85.0634 158.025H43.4656C40.5538 158.025 38.1966 155.664 38.1966 152.747V150.803C38.1966 147.886 35.8394 145.525 32.9275 145.525H32.3729C29.4611 145.525 27.1039 143.164 27.1039 140.248V134.915C27.1039 131.998 24.7466 129.637 21.8348 129.637H19.6163C16.7044 129.637 14.3472 127.276 14.3472 124.359V102.749C14.3472 99.8321 16.7044 97.4711 19.6163 97.4711H24.0534C26.9652 97.4711 29.3224 95.11 29.3224 92.1935V89.4157C29.3224 86.4992 31.6796 84.1381 34.5915 84.1381H39.5832C42.495 84.1381 44.8522 81.777 44.8522 78.8605V78.3827C44.8522 75.4661 47.2094 73.105 50.1213 73.105H94.4922ZM94.4922 70.8829H50.1213C45.9948 70.8829 42.6337 74.2495 42.6337 78.3827V78.8605C42.6337 80.5437 41.2637 81.9159 39.5832 81.9159H34.5915C30.465 81.9159 27.1039 85.2825 27.1039 89.4157V92.1935C27.1039 93.8767 25.7339 95.2489 24.0534 95.2489H19.6163C15.4898 95.2489 12.1287 98.6155 12.1287 102.749V124.359C12.1287 128.493 15.4898 131.859 19.6163 131.859H21.8348C23.5154 131.859 24.8853 133.231 24.8853 134.915V140.248C24.8853 144.381 28.2464 147.748 32.3729 147.748H32.9275C34.6081 147.748 35.978 149.12 35.978 150.803V152.747C35.978 156.881 39.3391 160.247 43.4656 160.247H85.0634C89.1899 160.247 92.551 156.881 92.551 152.747C92.551 151.064 93.921 149.692 95.6015 149.692H110.743C114.87 149.692 118.231 146.325 118.231 142.192V139.448C118.231 137.765 119.601 136.392 121.281 136.392H122.457C126.584 136.392 129.945 133.026 129.945 128.893V107.193C129.945 103.06 126.584 99.6933 122.457 99.6933H121.015C119.334 99.6933 117.964 98.3211 117.964 96.6378V92.7823C117.964 88.6491 114.603 85.2825 110.477 85.2825H105.03C103.35 85.2825 101.98 83.9103 101.98 82.227V78.3827C101.98 74.2495 98.6187 70.8829 94.4922 70.8829Z" fill="#D81B60"/>
<path d="M24.5925 100.992C24.5925 94.5029 29.8445 89.2424 36.3231 89.2424H58.3179C64.7965 89.2424 70.0485 94.5029 70.0485 100.992V139.179C70.0485 145.668 64.7965 150.928 58.3179 150.928H36.3231C29.8445 150.928 24.5925 145.668 24.5925 139.179V100.992Z" fill="#2E73E1"/>
<path fill-rule="evenodd" clip-rule="evenodd" d="M58.3179 90.7111H36.3231C30.6543 90.7111 26.0589 95.3141 26.0589 100.992V139.179C26.0589 144.857 30.6543 149.46 36.3231 149.46H58.3179C63.9867 149.46 68.5822 144.857 68.5822 139.179V100.992C68.5822 95.3141 63.9867 90.7111 58.3179 90.7111ZM36.3231 89.2424C29.8445 89.2424 24.5925 94.5029 24.5925 100.992V139.179C24.5925 145.668 29.8445 150.928 36.3231 150.928H58.3179C64.7965 150.928 70.0485 145.668 70.0485 139.179V100.992C70.0485 94.5029 64.7965 89.2424 58.3179 89.2424H36.3231Z" fill="#0D47A1"/>
<path d="M24.5925 100.992C24.5925 94.5029 29.8445 89.2424 36.3231 89.2424H48.0537C54.5323 89.2424 59.7842 94.5029 59.7842 100.992V139.179C59.7842 145.668 54.5323 150.928 48.0537 150.928H36.3231C29.8445 150.928 24.5925 145.668 24.5925 139.179V100.992Z" fill="#4A8CE5"/>
<path fill-rule="evenodd" clip-rule="evenodd" d="M48.0537 90.7111H36.3231C30.6543 90.7111 26.0589 95.3141 26.0589 100.992V139.179C26.0589 144.857 30.6543 149.46 36.3231 149.46H48.0537C53.7225 149.46 58.3179 144.857 58.3179 139.179V100.992C58.3179 95.3141 53.7225 90.7111 48.0537 90.7111ZM36.3231 89.2424C29.8445 89.2424 24.5925 94.5029 24.5925 100.992V139.179C24.5925 145.668 29.8445 150.928 36.3231 150.928H48.0537C54.5323 150.928 59.7842 145.668 59.7842 139.179V100.992C59.7842 94.5029 54.5323 89.2424 48.0537 89.2424H36.3231Z" fill="#0D47A1"/>
<path d="M28.2583 109.804C28.2583 104.937 32.1973 100.992 37.0562 100.992H43.6547C48.5136 100.992 52.4526 104.937 52.4526 109.804V130.366C52.4526 135.233 48.5136 139.178 43.6547 139.178H37.0562C32.1973 139.178 28.2583 135.233 28.2583 130.366V109.804Z" fill="#2E73E1"/>
<path fill-rule="evenodd" clip-rule="evenodd" d="M43.6547 102.461H37.0562C33.0071 102.461 29.7246 105.748 29.7246 109.804V130.366C29.7246 134.422 33.0071 137.71 37.0562 137.71H43.6547C47.7038 137.71 50.9863 134.422 50.9863 130.366V109.804C50.9863 105.748 47.7038 102.461 43.6547 102.461ZM37.0562 100.992C32.1973 100.992 28.2583 104.937 28.2583 109.804V130.366C28.2583 135.233 32.1973 139.178 37.0562 139.178H43.6547C48.5136 139.178 52.4526 135.233 52.4526 130.366V109.804C52.4526 104.937 48.5136 100.992 43.6547 100.992H37.0562Z" fill="#0D47A1"/>
<path d="M28.2583 109.804C28.2583 104.937 32.1973 100.992 37.0562 100.992C41.9152 100.992 45.8542 104.937 45.8542 109.804V130.366C45.8542 135.233 41.9152 139.178 37.0562 139.178C32.1973 139.178 28.2583 135.233 28.2583 130.366V109.804Z" fill="#4A8CE5"/>
<path fill-rule="evenodd" clip-rule="evenodd" d="M44.3878 130.366V109.804C44.3878 105.748 41.1054 102.461 37.0562 102.461C33.0071 102.461 29.7246 105.748 29.7246 109.804V130.366C29.7246 134.422 33.0071 137.71 37.0562 137.71C41.1054 137.71 44.3878 134.422 44.3878 130.366ZM37.0562 100.992C32.1973 100.992 28.2583 104.937 28.2583 109.804V130.366C28.2583 135.233 32.1973 139.178 37.0562 139.178C41.9152 139.178 45.8542 135.233 45.8542 130.366V109.804C45.8542 104.937 41.9152 100.992 37.0562 100.992Z" fill="#0D47A1"/>
<path fill-rule="evenodd" clip-rule="evenodd" d="M39.9888 58.3995C39.9888 51.9103 45.2407 46.6497 51.7193 46.6497H109.639C116.118 46.6497 121.37 51.9103 121.37 58.3995V70.8835H109.639V58.3995H51.7193V89.2424H39.9888V58.3995Z" fill="#2E73E1"/>
<path fill-rule="evenodd" clip-rule="evenodd" d="M109.639 56.9307C110.449 56.9307 111.105 57.5883 111.105 58.3995V69.4148H119.903V58.3995C119.903 52.7214 115.308 48.1185 109.639 48.1185H51.7193C46.0506 48.1185 41.4551 52.7214 41.4551 58.3995V87.7737H50.253V58.3995C50.253 57.5883 50.9095 56.9307 51.7193 56.9307H109.639ZM51.7193 89.2424H39.9888V58.3995C39.9888 51.9103 45.2407 46.6497 51.7193 46.6497H109.639C116.118 46.6497 121.37 51.9103 121.37 58.3995V70.8835H109.639V58.3995H51.7193V89.2424Z" fill="#0D47A1"/>
<path fill-rule="evenodd" clip-rule="evenodd" d="M45.1208 162.678V150.928H49.5198V162.678C49.5198 167.951 53.787 172.225 59.0509 172.225H110.372V176.631H59.0509C51.3575 176.631 45.1208 170.384 45.1208 162.678Z" fill="#2E73E1"/>
<path fill-rule="evenodd" clip-rule="evenodd" d="M44.3877 150.194H50.253V162.678C50.253 167.545 54.1919 171.49 59.0509 171.49H111.105V177.365H59.0509C50.9526 177.365 44.3877 170.789 44.3877 162.678V150.194ZM45.854 151.662V162.678C45.854 169.978 51.7625 175.896 59.0509 175.896H109.639V172.959H59.0509C53.3821 172.959 48.7867 168.356 48.7867 162.678V151.662H45.854Z" fill="#0D47A1"/>
<path d="M93.5095 171.49C93.5095 169.868 94.8225 168.553 96.4422 168.553H108.173C109.792 168.553 111.105 169.868 111.105 171.49V177.365C111.105 178.987 109.792 180.302 108.173 180.302H96.4422C94.8225 180.302 93.5095 178.987 93.5095 177.365V171.49Z" fill="#2E73E1"/>
<path fill-rule="evenodd" clip-rule="evenodd" d="M108.173 170.021H96.4422C95.6323 170.021 94.9758 170.679 94.9758 171.49V177.365C94.9758 178.176 95.6323 178.834 96.4422 178.834H108.173C108.983 178.834 109.639 178.176 109.639 177.365V171.49C109.639 170.679 108.983 170.021 108.173 170.021ZM96.4422 168.553C94.8225 168.553 93.5095 169.868 93.5095 171.49V177.365C93.5095 178.987 94.8225 180.302 96.4422 180.302H108.173C109.792 180.302 111.105 178.987 111.105 177.365V171.49C111.105 169.868 109.792 168.553 108.173 168.553H96.4422Z" fill="#0D47A1"/>
<path fill-rule="evenodd" clip-rule="evenodd" d="M108.173 70.8831V59.8678H53.1856V87.7733H58.3177C65.6061 87.7733 71.5146 93.6914 71.5146 100.992V139.178C71.5146 146.479 65.6061 152.397 58.3177 152.397H50.9861V162.678C50.9861 167.139 54.5968 170.756 59.0508 170.756H92.1039C92.4529 168.672 94.2624 167.084 96.442 167.084H108.173C110.602 167.084 112.572 169.057 112.572 171.49V177.365C112.572 179.798 110.602 181.771 108.173 181.771H96.442C94.2624 181.771 92.4529 180.183 92.1039 178.099H59.0508C50.5477 178.099 43.6545 171.195 43.6545 162.678V152.397H36.3229C29.0344 152.397 23.126 146.479 23.126 139.178V100.992C23.126 93.6914 29.0344 87.7733 36.3229 87.7733H38.5223V58.3991C38.5223 51.0987 44.4308 45.1806 51.7192 45.1806H109.639C116.927 45.1806 122.836 51.0987 122.836 58.3991V70.8831H108.173ZM39.9887 58.3991C39.9887 51.9099 45.2406 46.6493 51.7192 46.6493H109.639C116.118 46.6493 121.369 51.9099 121.369 58.3991V69.4144H109.639V58.3991H51.7192V89.242H58.3177C64.7963 89.242 70.0483 94.5026 70.0483 100.992V139.178C70.0483 145.667 64.7963 150.928 58.3177 150.928H49.5198V162.678C49.5198 167.95 53.787 172.224 59.0508 172.224H93.5094V171.49C93.5094 169.868 94.8224 168.553 96.442 168.553H108.173C109.792 168.553 111.105 169.868 111.105 171.49V177.365C111.105 178.987 109.792 180.302 108.173 180.302H96.442C94.8224 180.302 93.5094 178.987 93.5094 177.365V176.63H59.0508C51.3575 176.63 45.1208 170.384 45.1208 162.678V150.928H36.3229C29.8443 150.928 24.5923 145.667 24.5923 139.178V100.992C24.5923 94.5026 29.8443 89.242 36.3229 89.242H39.9887V58.3991Z" fill="#0D47A1"/>
<path d="M187.354 188.38C184.115 188.38 181.489 185.75 181.489 182.505L181.489 170.756C181.489 167.511 184.115 164.881 187.354 164.881C190.593 164.881 193.219 167.511 193.219 170.756L193.219 182.505C193.219 185.75 190.593 188.38 187.354 188.38Z" fill="white"/>
<path fill-rule="evenodd" clip-rule="evenodd" d="M187.354 189.114C183.71 189.114 180.755 186.155 180.755 182.505L180.755 170.755C180.755 167.105 183.71 164.146 187.354 164.146C190.998 164.146 193.952 167.105 193.952 170.755L193.952 182.505C193.952 186.155 190.998 189.114 187.354 189.114ZM182.222 182.505C182.222 185.344 184.519 187.646 187.354 187.646C190.188 187.646 192.486 185.344 192.486 182.505L192.486 170.755C192.486 167.916 190.188 165.615 187.354 165.615C184.519 165.615 182.222 167.916 182.222 170.755L182.222 182.505Z" fill="#0D47A1"/>
<path d="M130.167 177.364C130.167 172.498 134.106 168.552 138.965 168.552H175.623C180.482 168.552 184.421 172.498 184.421 177.364V226.566C184.421 231.433 180.482 235.379 175.623 235.379H138.965C134.106 235.379 130.167 231.433 130.167 226.566V177.364Z" fill="#7986CB"/>
<path fill-rule="evenodd" clip-rule="evenodd" d="M175.623 170.021H138.965C134.916 170.021 131.634 173.309 131.634 177.364V226.566C131.634 230.622 134.916 233.91 138.965 233.91H175.623C179.673 233.91 182.955 230.622 182.955 226.566V177.364C182.955 173.309 179.673 170.021 175.623 170.021ZM138.965 168.552C134.106 168.552 130.167 172.498 130.167 177.364V226.566C130.167 231.433 134.106 235.379 138.965 235.379H175.623C180.482 235.379 184.421 231.433 184.421 226.566V177.364C184.421 172.498 180.482 168.552 175.623 168.552H138.965Z" fill="#0D47A1"/>
<path d="M135.3 176.997C135.3 174.767 137.105 172.958 139.332 172.958H175.257C177.484 172.958 179.289 174.767 179.289 176.997C179.289 179.228 177.484 181.036 175.257 181.036H139.332C137.105 181.036 135.3 179.228 135.3 176.997Z" fill="#0D47A1"/>
<path d="M126.502 177.365C126.502 172.498 130.441 168.552 135.3 168.552H175.623C180.482 168.552 184.421 172.498 184.421 177.365V226.567C184.421 231.433 180.482 235.379 175.623 235.379H135.3C130.441 235.379 126.502 231.433 126.502 226.567V177.365Z" fill="#4A8CE5"/>
<path fill-rule="evenodd" clip-rule="evenodd" d="M125.769 177.365C125.769 172.092 130.036 167.818 135.3 167.818H175.623C180.887 167.818 185.155 172.092 185.155 177.365V226.567C185.155 231.839 180.887 236.113 175.623 236.113H135.3C130.036 236.113 125.769 231.839 125.769 226.567V177.365ZM135.3 169.287C130.846 169.287 127.235 172.903 127.235 177.365V226.567C127.235 231.028 130.846 234.645 135.3 234.645H175.623C180.078 234.645 183.688 231.028 183.688 226.567V177.365C183.688 172.903 180.078 169.287 175.623 169.287H135.3Z" fill="#0D47A1"/>
<path d="M131.634 178.834C131.634 175.589 134.26 172.959 137.499 172.959H173.424C176.663 172.959 179.289 175.589 179.289 178.834C179.289 182.078 176.663 184.708 173.424 184.708H137.499C134.26 184.708 131.634 182.078 131.634 178.834Z" fill="#2E73E1"/>
<path fill-rule="evenodd" clip-rule="evenodd" d="M173.424 174.427H137.499C135.07 174.427 133.1 176.4 133.1 178.834C133.1 181.267 135.07 183.24 137.499 183.24H173.424C175.853 183.24 177.823 181.267 177.823 178.834C177.823 176.4 175.853 174.427 173.424 174.427ZM137.499 172.959C134.26 172.959 131.634 175.589 131.634 178.834C131.634 182.078 134.26 184.708 137.499 184.708H173.424C176.663 184.708 179.289 182.078 179.289 178.834C179.289 175.589 176.663 172.959 173.424 172.959H137.499Z" fill="#0D47A1"/>
<path d="M184.421 190.583C184.421 187.339 187.047 184.708 190.287 184.708H202.017C205.257 184.708 207.883 187.339 207.883 190.583C207.883 193.828 205.257 196.458 202.017 196.458H190.287C187.047 196.458 184.421 193.828 184.421 190.583Z" fill="white"/>
<path fill-rule="evenodd" clip-rule="evenodd" d="M183.688 190.583C183.688 186.933 186.642 183.974 190.287 183.974H202.017C205.661 183.974 208.616 186.933 208.616 190.583C208.616 194.233 205.661 197.192 202.017 197.192H190.287C186.642 197.192 183.688 194.233 183.688 190.583ZM190.287 185.443C187.452 185.443 185.155 187.744 185.155 190.583C185.155 193.422 187.452 195.724 190.287 195.724H202.017C204.852 195.724 207.149 193.422 207.149 190.583C207.149 187.744 204.852 185.443 202.017 185.443H190.287Z" fill="#0D47A1"/>
<path d="M184.421 202.333C184.421 199.088 187.047 196.458 190.287 196.458H202.017C205.257 196.458 207.883 199.088 207.883 202.333C207.883 205.577 205.257 208.208 202.017 208.208H190.287C187.047 208.208 184.421 205.577 184.421 202.333Z" fill="white"/>
<path fill-rule="evenodd" clip-rule="evenodd" d="M183.688 202.333C183.688 198.682 186.642 195.723 190.287 195.723H202.017C205.661 195.723 208.616 198.682 208.616 202.333C208.616 205.983 205.661 208.942 202.017 208.942H190.287C186.642 208.942 183.688 205.983 183.688 202.333ZM190.287 197.192C187.452 197.192 185.155 199.493 185.155 202.333C185.155 205.172 187.452 207.473 190.287 207.473H202.017C204.852 207.473 207.149 205.172 207.149 202.333C207.149 199.493 204.852 197.192 202.017 197.192H190.287Z" fill="#0D47A1"/>
<path d="M184.421 214.083C184.421 210.838 187.047 208.208 190.287 208.208H202.017C205.257 208.208 207.883 210.838 207.883 214.083C207.883 217.327 205.257 219.958 202.017 219.958H190.287C187.047 219.958 184.421 217.327 184.421 214.083Z" fill="white"/>
<path fill-rule="evenodd" clip-rule="evenodd" d="M183.688 214.082C183.688 210.432 186.642 207.473 190.287 207.473H202.017C205.661 207.473 208.616 210.432 208.616 214.082C208.616 217.733 205.661 220.692 202.017 220.692H190.287C186.642 220.692 183.688 217.733 183.688 214.082ZM190.287 208.942C187.452 208.942 185.155 211.243 185.155 214.082C185.155 216.921 187.452 219.223 190.287 219.223H202.017C204.852 219.223 207.149 216.921 207.149 214.082C207.149 211.243 204.852 208.942 202.017 208.942H190.287Z" fill="#0D47A1"/>
<path d="M184.421 177.365H196.885C200.124 177.365 202.75 179.995 202.75 183.24V184.708H184.421V177.365Z" fill="#4A8CE5"/>
<path fill-rule="evenodd" clip-rule="evenodd" d="M183.688 176.63H196.885C200.529 176.63 203.484 179.589 203.484 183.239V185.443H183.688V176.63ZM185.155 178.099V183.974H202.017V183.239C202.017 180.4 199.72 178.099 196.885 178.099H185.155Z" fill="#0D47A1"/>
<path d="M184.421 219.957H202.75V221.426C202.75 224.671 200.124 227.301 196.885 227.301H184.421V219.957Z" fill="#4A8CE5"/>
<path fill-rule="evenodd" clip-rule="evenodd" d="M183.688 219.223H203.484V221.426C203.484 225.076 200.529 228.035 196.885 228.035H183.688V219.223ZM185.155 220.692V226.567H196.885C199.72 226.567 202.017 224.265 202.017 221.426V220.692H185.155Z" fill="#0D47A1"/>
<path fill-rule="evenodd" clip-rule="evenodd" d="M185.06 187.914C184.84 187.82 184.627 187.713 184.421 187.594V190.583V202.333V214.083V219.958H190.286C189.218 219.958 188.217 219.672 187.354 219.172C186.463 218.656 185.721 217.912 185.206 217.02C184.707 216.156 184.421 215.153 184.421 214.083C184.421 212.519 185.031 211.098 186.026 210.045C186.414 209.634 186.862 209.279 187.354 208.994C188.217 208.494 189.218 208.208 190.286 208.208C189.218 208.208 188.217 207.922 187.354 207.422C186.862 207.137 186.414 206.782 186.026 206.371C185.031 205.318 184.421 203.897 184.421 202.333C184.421 200.769 185.031 199.348 186.026 198.295C186.414 197.884 186.862 197.529 187.354 197.244C188.217 196.744 189.218 196.458 190.286 196.458C189.218 196.458 188.217 196.172 187.354 195.672C186.862 195.387 186.414 195.032 186.026 194.621C185.031 193.568 184.421 192.147 184.421 190.583C184.421 189.913 184.533 189.269 184.74 188.669C184.829 188.409 184.937 188.156 185.06 187.914ZM202.017 184.709C202.265 184.709 202.51 184.724 202.75 184.754C203.852 184.892 204.858 185.335 205.683 185.997C207.024 187.074 207.882 188.728 207.882 190.583C207.882 192.147 207.272 193.568 206.277 194.621C205.208 195.752 203.695 196.458 202.017 196.458C203.695 196.458 205.208 197.164 206.277 198.295C207.272 199.348 207.882 200.769 207.882 202.333C207.882 203.897 207.272 205.318 206.277 206.371C205.208 207.502 203.695 208.208 202.017 208.208C203.695 208.208 205.208 208.914 206.277 210.045C207.272 211.098 207.882 212.519 207.882 214.083C207.882 215.938 207.024 217.592 205.683 218.669C204.858 219.331 203.852 219.775 202.75 219.912C202.51 219.942 202.265 219.958 202.017 219.958H202.75V221.426C202.75 221.927 202.688 222.414 202.57 222.878C202.568 222.884 202.567 222.889 202.565 222.895C201.914 225.429 199.618 227.301 196.885 227.301H184.421V226.567C184.421 226.814 184.411 227.059 184.391 227.301C184.305 228.342 184.039 229.332 183.623 230.239C182.233 233.272 179.174 235.379 175.623 235.379H135.299C130.44 235.379 126.501 231.434 126.501 226.567V177.365C126.501 172.498 130.44 168.553 135.299 168.553H175.623C176.709 168.553 177.749 168.75 178.709 169.11C179.722 169.49 180.646 170.052 181.443 170.756C181.458 170.769 181.473 170.783 181.489 170.797V170.756C181.489 169.646 181.796 168.609 182.329 167.724C183.356 166.02 185.222 164.881 187.354 164.881C190.593 164.881 193.219 167.511 193.219 170.756V177.365H196.885C199.618 177.365 201.914 179.237 202.565 181.771C202.567 181.777 202.568 181.783 202.57 181.788C202.688 182.252 202.75 182.739 202.75 183.24V184.709H202.017ZM205.657 182.558C205.31 178.01 201.515 174.428 196.885 174.428H196.152V170.756C196.152 165.889 192.213 161.943 187.354 161.943C184.095 161.943 181.25 163.718 179.729 166.356C178.451 165.877 177.067 165.615 175.623 165.615H135.299C128.821 165.615 123.569 170.876 123.569 177.365V226.567C123.569 233.056 128.821 238.317 135.299 238.317H175.623C180.822 238.317 185.23 234.93 186.77 230.239H196.885C201.515 230.239 205.31 226.656 205.657 222.108C208.7 220.721 210.815 217.649 210.815 214.083C210.815 211.826 209.968 209.767 208.575 208.208C209.968 206.649 210.815 204.59 210.815 202.333C210.815 200.076 209.968 198.017 208.575 196.458C209.968 194.899 210.815 192.84 210.815 190.583C210.815 187.017 208.7 183.945 205.657 182.558Z" fill="#0D47A1"/>
</svg>
