<svg width="33" height="32" viewBox="0 0 33 32" fill="none" xmlns="http://www.w3.org/2000/svg">
<mask id="path-1-inside-1" fill="white">
<path fill-rule="evenodd" clip-rule="evenodd" d="M28.0557 31.9989L22.0306 31.9989L32.0303 21.9993L32.0303 4.00069C32.0303 1.79155 30.2394 0.000692211 28.0303 0.000692018L12.0315 0.000690619C9.82239 0.000690426 8.03153 1.79155 8.03153 4.00069L8.03152 27.999C8.03152 30.2082 9.82238 31.999 12.0315 31.999L28.0303 31.999C28.0388 31.999 28.0472 31.999 28.0557 31.9989Z"/>
</mask>
<path fill-rule="evenodd" clip-rule="evenodd" d="M28.0557 31.9989L22.0306 31.9989L32.0303 21.9993L32.0303 4.00069C32.0303 1.79155 30.2394 0.000692211 28.0303 0.000692018L12.0315 0.000690619C9.82239 0.000690426 8.03153 1.79155 8.03153 4.00069L8.03152 27.999C8.03152 30.2082 9.82238 31.999 12.0315 31.999L28.0303 31.999C28.0388 31.999 28.0472 31.999 28.0557 31.9989Z" fill="#ABCEF6"/>
<path d="M28.0557 31.9989L28.0619 32.9989L28.0557 30.9989L28.0557 31.9989ZM22.0306 31.9989L21.3235 31.2918L19.6164 32.9989L22.0306 32.9989L22.0306 31.9989ZM32.0303 21.9993L32.7374 22.7064L33.0303 22.4135L33.0303 21.9993L32.0303 21.9993ZM28.0557 30.9989L22.0306 30.9989L22.0306 32.9989L28.0557 32.9989L28.0557 30.9989ZM22.7377 32.706L32.7374 22.7064L31.3232 21.2922L21.3235 31.2918L22.7377 32.706ZM31.0303 4.00069L31.0303 21.9993L33.0303 21.9993L33.0303 4.00069L31.0303 4.00069ZM28.0303 1.00069C29.6871 1.00069 31.0303 2.34384 31.0303 4.00069L33.0303 4.00069C33.0303 1.23927 30.7917 -0.999306 28.0303 -0.999306L28.0303 1.00069ZM12.0315 1.00069L28.0303 1.00069L28.0303 -0.999306L12.0315 -0.999307L12.0315 1.00069ZM9.03153 4.00069C9.03153 2.34384 10.3747 1.00069 12.0315 1.00069L12.0315 -0.999307C9.2701 -0.999308 7.03153 1.23926 7.03153 4.00069L9.03153 4.00069ZM9.03152 27.999L9.03153 4.00069L7.03153 4.00069L7.03152 27.999L9.03152 27.999ZM12.0315 30.999C10.3747 30.999 9.03152 29.6559 9.03152 27.999L7.03152 27.999C7.03152 30.7604 9.27009 32.999 12.0315 32.999L12.0315 30.999ZM28.0303 30.999L12.0315 30.999L12.0315 32.999L28.0303 32.999L28.0303 30.999ZM28.0495 30.999C28.0431 30.999 28.0367 30.999 28.0303 30.999L28.0303 32.999C28.0408 32.999 28.0514 32.999 28.0619 32.9989L28.0495 30.999Z" fill="#104D92" mask="url(#path-1-inside-1)"/>
<rect x="12.5317" y="13.5" width="4.99969" height="4.99969" rx="0.5" fill="#ABCEF6" stroke="#104D92"/>
<rect x="12.5317" y="22.4995" width="4.99969" height="4.99969" rx="0.5" fill="#ABCEF6" stroke="#104D92"/>
<path d="M12.5317 6.99992L14.1983 8.49984L17.5315 5.5" stroke="#104D92" stroke-linecap="round" stroke-linejoin="round"/>
<path d="M20.5312 14H28.0309" stroke="#104D92" stroke-linecap="round"/>
<path d="M20.5312 22.9995H28.0309" stroke="#104D92" stroke-linecap="round"/>
<path d="M20.5312 5H28.0309" stroke="#104D92" stroke-linecap="round"/>
<path d="M20.5312 17.9995H28.0309" stroke="#104D92" stroke-linecap="round"/>
<path d="M20.5312 26.999H23.0311" stroke="#104D92" stroke-linecap="round"/>
<path d="M20.5312 9H28.0309" stroke="#104D92" stroke-linecap="round"/>
<path d="M30.8232 22.4995L22.5308 30.7919L22.5308 25.9995C22.5308 24.0665 24.0978 22.4995 26.0308 22.4995L30.8232 22.4995Z" fill="#ABCEF6" stroke="#104D92"/>
<mask id="path-13-inside-2" fill="white">
<path fill-rule="evenodd" clip-rule="evenodd" d="M4.03093 31.9985C5.1355 31.9985 6.03093 31.1031 6.03093 29.9985L6.03093 5.99989L6.06201 5.99989L3.03108 0.000201914L0.000151046 5.99989L0.0312423 5.99989L0.0312402 29.9985C0.0312401 31.1031 0.926673 31.9985 2.03124 31.9985L4.03093 31.9985Z"/>
</mask>
<path fill-rule="evenodd" clip-rule="evenodd" d="M4.03093 31.9985C5.1355 31.9985 6.03093 31.1031 6.03093 29.9985L6.03093 5.99989L6.06201 5.99989L3.03108 0.000201914L0.000151046 5.99989L0.0312423 5.99989L0.0312402 29.9985C0.0312401 31.1031 0.926673 31.9985 2.03124 31.9985L4.03093 31.9985Z" fill="#ABCEF6"/>
<path d="M6.03093 29.9985L5.03093 29.9985L6.03093 29.9985ZM4.03093 31.9985L4.03093 30.9985L4.03093 31.9985ZM6.03093 5.99989L6.03093 4.99989L5.03093 4.99989L5.03093 5.99989L6.03093 5.99989ZM6.06201 5.99989L6.06201 6.99989L7.68756 6.99989L6.95458 5.54898L6.06201 5.99989ZM3.03108 0.000201914L3.92365 -0.450707L3.03108 -2.21754L2.13851 -0.450707L3.03108 0.000201914ZM0.000151046 5.99989L-0.892418 5.54898L-1.62539 6.99989L0.000150959 6.99989L0.000151046 5.99989ZM0.0312423 5.99989L1.03124 5.99989L1.03124 4.99989L0.0312423 4.99989L0.0312423 5.99989ZM0.0312402 29.9985L-0.96876 29.9985L0.0312402 29.9985ZM2.03124 31.9985L2.03124 32.9985L2.03124 31.9985ZM5.03093 29.9985C5.03093 30.5508 4.58321 30.9985 4.03093 30.9985L4.03093 32.9985C5.68778 32.9985 7.03093 31.6554 7.03093 29.9985L5.03093 29.9985ZM5.03093 5.99989L5.03093 29.9985L7.03093 29.9985L7.03093 5.99989L5.03093 5.99989ZM6.06201 4.99989L6.03093 4.99989L6.03093 6.99989L6.06201 6.99989L6.06201 4.99989ZM2.13851 0.451112L5.16944 6.4508L6.95458 5.54898L3.92365 -0.450707L2.13851 0.451112ZM0.892721 6.4508L3.92365 0.451113L2.13851 -0.450707L-0.892418 5.54898L0.892721 6.4508ZM0.0312423 4.99989L0.000151133 4.99989L0.000150959 6.99989L0.0312422 6.99989L0.0312423 4.99989ZM1.03124 29.9985L1.03124 5.99989L-0.968758 5.99989L-0.96876 29.9985L1.03124 29.9985ZM2.03124 30.9985C1.47896 30.9985 1.03124 30.5508 1.03124 29.9985L-0.96876 29.9985C-0.96876 31.6554 0.37439 32.9985 2.03124 32.9985L2.03124 30.9985ZM4.03093 30.9985L2.03124 30.9985L2.03124 32.9985L4.03093 32.9985L4.03093 30.9985Z" fill="#104D92" mask="url(#path-13-inside-2)"/>
<path d="M5.03076 6.5L1.03097 6.5" stroke="#104D92"/>
<path d="M5.03076 28.9985L1.03097 28.9985" stroke="#104D92"/>
<path d="M5.03076 26.499L1.03097 26.499" stroke="#104D92"/>
</svg>
