<svg width="36" height="28" viewBox="0 0 36 28" fill="none" xmlns="http://www.w3.org/2000/svg">
<rect x="10.5" y="0.5" width="25" height="19" rx="3.5" fill="#ABCEF6" stroke="#104D92"/>
<path d="M10.5 15.5H35.5V16C35.5 17.933 33.933 19.5 32 19.5H14C12.067 19.5 10.5 17.933 10.5 16V15.5Z" fill="#ABCEF6" stroke="#104D92"/>
<circle cx="23" cy="17.5" r="1" fill="#104D92"/>
<mask id="path-4-inside-1" fill="white">
<path fill-rule="evenodd" clip-rule="evenodd" d="M19.9877 28C19.9959 27.8344 20 27.6677 20 27.5C20 21.9772 15.5228 17.5 10 17.5C4.47715 17.5 0 21.9772 0 27.5C0 27.6677 0.00412617 27.8344 0.0122825 28H19.9877Z"/>
</mask>
<path fill-rule="evenodd" clip-rule="evenodd" d="M19.9877 28C19.9959 27.8344 20 27.6677 20 27.5C20 21.9772 15.5228 17.5 10 17.5C4.47715 17.5 0 21.9772 0 27.5C0 27.6677 0.00412617 27.8344 0.0122825 28H19.9877Z" fill="#ABCEF6"/>
<path d="M19.9877 28V29H20.9397L20.9865 28.0492L19.9877 28ZM0.0122825 28L-0.986507 28.0492L-0.939687 29H0.0122825V28ZM19 27.5C19 27.6512 18.9963 27.8015 18.9889 27.9508L20.9865 28.0492C20.9955 27.8672 21 27.6841 21 27.5H19ZM10 18.5C14.9706 18.5 19 22.5294 19 27.5H21C21 21.4249 16.0751 16.5 10 16.5V18.5ZM1 27.5C1 22.5294 5.02944 18.5 10 18.5V16.5C3.92487 16.5 -1 21.4249 -1 27.5H1ZM1.01107 27.9508C1.00372 27.8016 1 27.6513 1 27.5H-1C-1 27.6841 -0.99547 27.8672 -0.986507 28.0492L1.01107 27.9508ZM0.0122825 29H19.9877V27H0.0122825V29Z" fill="#104D92" mask="url(#path-4-inside-1)"/>
<circle cx="10" cy="14" r="5.5" fill="#ABCEF6" stroke="#104D92"/>
<mask id="path-7-inside-2" fill="white">
<path fill-rule="evenodd" clip-rule="evenodd" d="M24.8787 21.7H21.1213C21.7123 21.8947 22.3438 22 23 22C23.6562 22 24.2877 21.8947 24.8787 21.7ZM29 16C29 12.6863 26.3137 10 23 10C19.6863 10 17 12.6863 17 16H29Z"/>
</mask>
<path fill-rule="evenodd" clip-rule="evenodd" d="M24.8787 21.7H21.1213C21.7123 21.8947 22.3438 22 23 22C23.6562 22 24.2877 21.8947 24.8787 21.7ZM29 16C29 12.6863 26.3137 10 23 10C19.6863 10 17 12.6863 17 16H29Z" fill="#ABCEF6"/>
<path d="M24.8787 21.7L25.1916 22.6498L24.8787 20.7V21.7ZM21.1213 21.7V20.7L20.8084 22.6498L21.1213 21.7ZM29 16V17H30V16H29ZM17 16H16V17H17V16ZM24.8787 20.7H21.1213V22.7H24.8787V20.7ZM23 21C22.4515 21 21.9255 20.912 21.4342 20.7502L20.8084 22.6498C21.4991 22.8773 22.2362 23 23 23V21ZM24.5658 20.7502C24.0745 20.912 23.5485 21 23 21V23C23.7638 23 24.5009 22.8773 25.1916 22.6498L24.5658 20.7502ZM23 11C25.7614 11 28 13.2386 28 16H30C30 12.134 26.866 9 23 9V11ZM18 16C18 13.2386 20.2386 11 23 11V9C19.134 9 16 12.134 16 16H18ZM17 17H29V15H17V17Z" fill="#104D92" mask="url(#path-7-inside-2)"/>
<circle cx="23" cy="8" r="3.5" fill="#ABCEF6" stroke="#104D92"/>
<rect x="21.5" y="19.5" width="3" height="4" fill="#ABCEF6" stroke="#104D92"/>
<rect x="18.75" y="23.25" width="17" height="0.5" rx="0.25" fill="#ABCEF6" stroke="#104D92" stroke-width="0.5"/>
</svg>
