<svg width="71" height="70" viewBox="0 0 71 70" fill="none" xmlns="http://www.w3.org/2000/svg">
<path d="M31 2C31 1.44772 31.4477 1 32 1H40C40.5523 1 41 1.44772 41 2V69H31V2Z" fill="#C5CAE9" stroke="#1A237E" stroke-width="2"/>
<mask id="path-2-inside-1" fill="white">
<path fill-rule="evenodd" clip-rule="evenodd" d="M15 6C12.7909 6 11 7.79086 11 10V18C11 20.2091 12.7909 22 15 22H59L71 14L59 6H15Z"/>
</mask>
<path fill-rule="evenodd" clip-rule="evenodd" d="M15 6C12.7909 6 11 7.79086 11 10V18C11 20.2091 12.7909 22 15 22H59L71 14L59 6H15Z" fill="#C5CAE9"/>
<path d="M59 22V24C59.3949 24 59.7809 23.8831 60.1094 23.6641L59 22ZM71 14L72.1094 15.6641C72.6658 15.2932 73 14.6687 73 14C73 13.3313 72.6658 12.7068 72.1094 12.3359L71 14ZM59 6L60.1094 4.3359C59.7809 4.11688 59.3949 4 59 4V6ZM13 10C13 8.89543 13.8954 8 15 8V4C11.6863 4 9 6.68629 9 10H13ZM13 18V10H9V18H13ZM15 20C13.8954 20 13 19.1046 13 18H9C9 21.3137 11.6863 24 15 24V20ZM59 20H15V24H59V20ZM69.8906 12.3359L57.8906 20.3359L60.1094 23.6641L72.1094 15.6641L69.8906 12.3359ZM57.8906 7.6641L69.8906 15.6641L72.1094 12.3359L60.1094 4.3359L57.8906 7.6641ZM15 8H59V4H15V8Z" fill="#1A237E" mask="url(#path-2-inside-1)"/>
<mask id="path-4-inside-2" fill="white">
<path fill-rule="evenodd" clip-rule="evenodd" d="M15 46C12.7909 46 11 47.7909 11 50V58C11 60.2091 12.7909 62 15 62H59L71 54L59 46H15Z"/>
</mask>
<path fill-rule="evenodd" clip-rule="evenodd" d="M15 46C12.7909 46 11 47.7909 11 50V58C11 60.2091 12.7909 62 15 62H59L71 54L59 46H15Z" fill="#C5CAE9"/>
<path d="M59 62V64C59.3949 64 59.7809 63.8831 60.1094 63.6641L59 62ZM71 54L72.1094 55.6641C72.6658 55.2932 73 54.6687 73 54C73 53.3313 72.6658 52.7068 72.1094 52.3359L71 54ZM59 46L60.1094 44.3359C59.7809 44.1169 59.3949 44 59 44V46ZM13 50C13 48.8954 13.8954 48 15 48V44C11.6863 44 9 46.6863 9 50H13ZM13 58V50H9V58H13ZM15 60C13.8954 60 13 59.1046 13 58H9C9 61.3137 11.6863 64 15 64V60ZM59 60H15V64H59V60ZM69.8906 52.3359L57.8906 60.3359L60.1094 63.6641L72.1094 55.6641L69.8906 52.3359ZM57.8906 47.6641L69.8906 55.6641L72.1094 52.3359L60.1094 44.3359L57.8906 47.6641ZM15 48H59V44H15V48Z" fill="#1A237E" mask="url(#path-4-inside-2)"/>
<mask id="path-6-inside-3" fill="white">
<path fill-rule="evenodd" clip-rule="evenodd" d="M56 42C58.2091 42 60 40.2091 60 38L60 30C60 27.7909 58.2091 26 56 26L12 26L6.99382e-07 34L12 42L56 42Z"/>
</mask>
<path fill-rule="evenodd" clip-rule="evenodd" d="M56 42C58.2091 42 60 40.2091 60 38L60 30C60 27.7909 58.2091 26 56 26L12 26L6.99382e-07 34L12 42L56 42Z" fill="#C5CAE9"/>
<path d="M12 26L12 24C11.6051 24 11.2191 24.1169 10.8906 24.3359L12 26ZM6.99382e-07 34L-1.1094 32.3359C-1.6658 32.7068 -2 33.3313 -2 34C-2 34.6687 -1.6658 35.2932 -1.1094 35.6641L6.99382e-07 34ZM12 42L10.8906 43.6641C11.2191 43.8831 11.6051 44 12 44L12 42ZM58 38C58 39.1046 57.1046 40 56 40L56 44C59.3137 44 62 41.3137 62 38L58 38ZM58 30L58 38L62 38L62 30L58 30ZM56 28C57.1046 28 58 28.8954 58 30L62 30C62 26.6863 59.3137 24 56 24L56 28ZM12 28L56 28L56 24L12 24L12 28ZM1.1094 35.6641L13.1094 27.6641L10.8906 24.3359L-1.1094 32.3359L1.1094 35.6641ZM13.1094 40.3359L1.1094 32.3359L-1.1094 35.6641L10.8906 43.6641L13.1094 40.3359ZM56 40L12 40L12 44L56 44L56 40Z" fill="#1A237E" mask="url(#path-6-inside-3)"/>
<path d="M11 69H58.5" stroke="#1A237E" stroke-width="2"/>
</svg>
