<svg width="67" height="64" viewBox="0 0 67 64" fill="none" xmlns="http://www.w3.org/2000/svg">
<mask id="path-1-inside-1" fill="white">
<path fill-rule="evenodd" clip-rule="evenodd" d="M23.0872 0C19.7734 0 17.0872 2.6863 17.0872 6.00001V57.7929C17.0872 61.1066 19.7734 63.7929 23.0872 63.7929H45.7307L66.071 43.3611V6C66.071 2.68629 63.3847 0 60.071 0H23.0872Z"/>
</mask>
<path fill-rule="evenodd" clip-rule="evenodd" d="M23.0872 0C19.7734 0 17.0872 2.6863 17.0872 6.00001V57.7929C17.0872 61.1066 19.7734 63.7929 23.0872 63.7929H45.7307L66.071 43.3611V6C66.071 2.68629 63.3847 0 60.071 0H23.0872Z" fill="#C5CAE9"/>
<path d="M45.7307 63.7929V65.7929H46.5618L47.1481 65.2039L45.7307 63.7929ZM66.071 43.3611L67.4884 44.7722L68.071 44.1869V43.3611H66.071ZM19.0872 6.00001C19.0872 3.79086 20.878 2 23.0872 2V-2C18.6689 -2 15.0872 1.58173 15.0872 6.00001H19.0872ZM19.0872 57.7929V6.00001H15.0872V57.7929H19.0872ZM23.0872 61.7929C20.878 61.7929 19.0872 60.002 19.0872 57.7929H15.0872C15.0872 62.2112 18.6689 65.7929 23.0872 65.7929V61.7929ZM45.7307 61.7929H23.0872V65.7929H45.7307V61.7929ZM47.1481 65.2039L67.4884 44.7722L64.6536 41.9501L44.3134 62.3819L47.1481 65.2039ZM64.071 6V43.3611H68.071V6H64.071ZM60.071 2C62.2801 2 64.071 3.79086 64.071 6H68.071C68.071 1.58172 64.4893 -2 60.071 -2V2ZM23.0872 2H60.071V-2H23.0872V2Z" fill="#1A237E" mask="url(#path-1-inside-1)"/>
<rect x="26.061" y="27.2002" width="9.39159" height="9.39159" rx="1" fill="#C5CAE9" stroke="#1A237E" stroke-width="2"/>
<rect x="26.061" y="44.2873" width="9.39159" height="9.39159" rx="1" fill="#C5CAE9" stroke="#1A237E" stroke-width="2"/>
<path d="M43.2876 10.8217H58.0967" stroke="#1A237E" stroke-width="2" stroke-linecap="round"/>
<path d="M43.2876 27.9088H58.0967" stroke="#1A237E" stroke-width="2" stroke-linecap="round"/>
<path d="M43.2876 18.7958H58.0967" stroke="#1A237E" stroke-width="2" stroke-linecap="round"/>
<path d="M43.2876 35.8829H58.0967" stroke="#1A237E" stroke-width="2" stroke-linecap="round"/>
<path d="M49.5663 44.2879H63.6569L46.5663 61.3785V47.2879C46.5663 45.631 47.9094 44.2879 49.5663 44.2879Z" fill="#C5CAE9" stroke="#1A237E" stroke-width="2"/>
<path d="M26.2007 14.8089L29.2384 18.2264L35.314 11.3914" stroke="#1A237E" stroke-width="2" stroke-linecap="round" stroke-linejoin="round"/>
<mask id="path-11-inside-2" fill="white">
<path fill-rule="evenodd" clip-rule="evenodd" d="M11.3915 11.3914L5.69579 0L7.15256e-05 11.3914H0V11.3916V59.7928C0 62.0019 1.79086 63.7928 4 63.7928H7.39159C9.60073 63.7928 11.3916 62.0019 11.3916 59.7928V11.3916V11.3914H11.3915Z"/>
</mask>
<path fill-rule="evenodd" clip-rule="evenodd" d="M11.3915 11.3914L5.69579 0L7.15256e-05 11.3914H0V11.3916V59.7928C0 62.0019 1.79086 63.7928 4 63.7928H7.39159C9.60073 63.7928 11.3916 62.0019 11.3916 59.7928V11.3916V11.3914H11.3915Z" fill="#C5CAE9"/>
<path d="M5.69579 0L7.48465 -0.894427L5.69579 -4.47214L3.90694 -0.894427L5.69579 0ZM11.3915 11.3914L9.60266 12.2859L10.1554 13.3914H11.3915V11.3914ZM7.15256e-05 11.3914V13.3914H1.23614L1.78893 12.2859L7.15256e-05 11.3914ZM0 11.3914V9.39145H-2V11.3914H0ZM11.3916 11.3914H13.3916V9.39145H11.3916V11.3914ZM3.90694 0.894427L9.60266 12.2859L13.1804 10.497L7.48465 -0.894427L3.90694 0.894427ZM1.78893 12.2859L7.48465 0.894427L3.90694 -0.894427L-1.78878 10.497L1.78893 12.2859ZM0 13.3914H7.15256e-05V9.39145H0V13.3914ZM2 11.3916V11.3914H-2V11.3916H2ZM2 59.7928V11.3916H-2V59.7928H2ZM4 61.7928C2.89543 61.7928 2 60.8973 2 59.7928H-2C-2 63.1065 0.686285 65.7928 4 65.7928V61.7928ZM7.39159 61.7928H4V65.7928H7.39159V61.7928ZM9.39159 59.7928C9.39159 60.8973 8.49616 61.7928 7.39159 61.7928V65.7928C10.7053 65.7928 13.3916 63.1065 13.3916 59.7928H9.39159ZM9.39159 11.3916V59.7928H13.3916V11.3916H9.39159ZM9.39159 11.3914V11.3916H13.3916V11.3914H9.39159ZM11.3915 13.3914H11.3916V9.39145H11.3915V13.3914Z" fill="#1A237E" mask="url(#path-11-inside-2)"/>
<path d="M0 12.5309H11.3916" stroke="#1A237E" stroke-width="2"/>
<path d="M0 56.9577H11.3916" stroke="#1A237E" stroke-width="2"/>
<path d="M0 52.4015H11.3916" stroke="#1A237E" stroke-width="2"/>
</svg>
