<svg width="60" height="73" viewBox="0 0 60 73" fill="none" xmlns="http://www.w3.org/2000/svg">
<mask id="path-1-inside-1" fill="white">
<path fill-rule="evenodd" clip-rule="evenodd" d="M59.3707 26.4541V61.5816H59.3702V72.857H16.8702V72.8569H30.6153V69.5814C30.6153 65.1839 27.0672 61.6151 22.6776 61.5816H14.4625C10.0443 61.5816 6.46254 57.9999 6.46254 53.5816V44.8574H4.00726C0.711082 44.8574 -1.17045 41.0944 0.807262 38.4574L6.46254 30.9171V26.4541V26.0204H6.46602C6.69763 11.6102 18.4513 0 32.9166 0C47.382 0 59.1356 11.6102 59.3672 26.0204H59.3707V26.4541Z"/>
</mask>
<path fill-rule="evenodd" clip-rule="evenodd" d="M59.3707 26.4541V61.5816H59.3702V72.857H16.8702V72.8569H30.6153V69.5814C30.6153 65.1839 27.0672 61.6151 22.6776 61.5816H14.4625C10.0443 61.5816 6.46254 57.9999 6.46254 53.5816V44.8574H4.00726C0.711082 44.8574 -1.17045 41.0944 0.807262 38.4574L6.46254 30.9171V26.4541V26.0204H6.46602C6.69763 11.6102 18.4513 0 32.9166 0C47.382 0 59.1356 11.6102 59.3672 26.0204H59.3707V26.4541Z" fill="#C5CAE9"/>
<path d="M59.3707 61.5816V63.5816H61.3707V61.5816H59.3707ZM59.3702 61.5816V59.5816H57.3702V61.5816H59.3702ZM59.3702 72.857V74.857H61.3702V72.857H59.3702ZM16.8702 72.857H14.8702V74.857H16.8702V72.857ZM16.8702 72.8569V70.8569H14.8702V72.8569H16.8702ZM30.6153 72.8569V74.8569H32.6153V72.8569H30.6153ZM22.6776 61.5816L22.6929 59.5817L22.6852 59.5816H22.6776V61.5816ZM6.46254 44.8574H8.46254V42.8574H6.46254V44.8574ZM0.807262 38.4574L-0.792738 37.2574H-0.792738L0.807262 38.4574ZM6.46254 30.9171L8.06254 32.1171L8.46254 31.5837V30.9171H6.46254ZM6.46254 26.0204V24.0204H4.46254V26.0204H6.46254ZM6.46602 26.0204V28.0204H8.43413L8.46576 26.0525L6.46602 26.0204ZM59.3672 26.0204L57.3675 26.0525L57.3991 28.0204H59.3672V26.0204ZM59.3707 26.0204H61.3707V24.0204H59.3707V26.0204ZM57.3707 26.4541V61.5816H61.3707V26.4541H57.3707ZM59.3707 59.5816H59.3702V63.5816H59.3707V59.5816ZM57.3702 61.5816V72.857H61.3702V61.5816H57.3702ZM59.3702 70.857H16.8702V74.857H59.3702V70.857ZM18.8702 72.857V72.8569H14.8702V72.857H18.8702ZM16.8702 74.8569H30.6153V70.8569H16.8702V74.8569ZM32.6153 72.8569V69.5814H28.6153V72.8569H32.6153ZM32.6153 69.5814C32.6153 64.0844 28.1802 59.6235 22.6929 59.5817L22.6624 63.5816C25.9542 63.6067 28.6153 66.2833 28.6153 69.5814H32.6153ZM22.6776 59.5816H14.4625V63.5816H22.6776V59.5816ZM14.4625 59.5816C11.1488 59.5816 8.46254 56.8953 8.46254 53.5816H4.46254C4.46254 59.1045 8.93968 63.5816 14.4625 63.5816V59.5816ZM8.46254 53.5816V44.8574H4.46254V53.5816H8.46254ZM6.46254 42.8574H4.00726V46.8574H6.46254V42.8574ZM4.00726 42.8574C2.35917 42.8574 1.41841 40.9759 2.40726 39.6574L-0.792738 37.2574C-3.7593 41.2128 -0.937008 46.8574 4.00726 46.8574V42.8574ZM2.40726 39.6574L8.06254 32.1171L4.86254 29.7171L-0.792738 37.2574L2.40726 39.6574ZM8.46254 30.9171V26.4541H4.46254V30.9171H8.46254ZM8.46254 26.4541V26.0204H4.46254V26.4541H8.46254ZM6.46254 28.0204H6.46602V24.0204H6.46254V28.0204ZM8.46576 26.0525C8.67985 12.7325 19.5451 2 32.9166 2V-2C17.3575 -2 4.71541 10.488 4.46628 25.9883L8.46576 26.0525ZM32.9166 2C46.2882 2 57.1534 12.7325 57.3675 26.0525L61.367 25.9883C61.1178 10.488 48.4758 -2 32.9166 -2V2ZM59.3672 28.0204H59.3707V24.0204H59.3672V28.0204ZM57.3707 26.0204V26.4541H61.3707V26.0204H57.3707Z" fill="#1A237E" mask="url(#path-1-inside-1)"/>
<path d="M39.6133 37.1499C39.2602 37.3798 38.8974 37.5935 38.5249 37.7911L49.388 19.1027C49.9299 20.0337 49.6166 21.2305 48.684 21.7748L48.6839 21.7748L46.9662 22.7775C46.9658 22.7777 46.9654 22.7779 46.965 22.7782C46.0096 23.3328 45.4506 24.3776 45.5139 25.4754L45.5139 25.4754L45.5144 25.4835C45.5301 25.7212 45.5366 25.9663 45.5366 26.2168C45.5366 26.3376 45.5365 26.4444 45.5336 26.5453L45.5334 26.55C45.5069 27.6275 46.0795 28.6234 47.0041 29.1543C47.0042 29.1544 47.0043 29.1544 47.0044 29.1544C47.0046 29.1546 47.0048 29.1547 47.005 29.1548L48.7138 30.1375L48.714 30.1376C49.6507 30.676 49.9736 31.8717 49.4366 32.8055L49.4362 32.8063L46.8964 37.2316C46.3589 38.1662 45.1619 38.4933 44.2176 37.9559C44.2173 37.9558 44.217 37.9556 44.2168 37.9555L42.6655 37.0672L42.6631 37.0659C41.7188 36.5287 40.5414 36.5426 39.6133 37.1499ZM46.8131 14.6975L49.3874 19.1016L22.3905 37.128L20.8223 38.0438C20.8223 38.0438 20.8222 38.0438 20.8221 38.0439C19.8904 38.5865 18.6924 38.2731 18.1479 37.3405L18.1477 37.3401L15.5733 32.936C15.5733 32.9359 15.5733 32.9359 15.5733 32.9359C15.0307 32.0048 15.3438 30.8073 16.2767 30.2628C16.2767 30.2628 16.2768 30.2628 16.2768 30.2628L17.9789 29.2696C17.979 29.2695 17.9792 29.2694 17.9793 29.2694C17.9793 29.2693 17.9794 29.2693 17.9795 29.2692C18.8901 28.7383 19.4691 27.7506 19.4342 26.6685C19.4307 26.5126 19.4276 26.369 19.4276 26.2238C19.4276 26.0115 19.4339 25.7992 19.4438 25.5847C19.5002 24.4839 18.9384 23.4397 17.9758 22.8893C17.9755 22.8892 17.9753 22.889 17.975 22.8889L16.2502 21.9001C16.2501 21.9 16.2499 21.8999 16.2498 21.8998C15.3134 21.3612 14.9907 20.1658 15.5276 19.2321L15.5282 19.231L18.0678 14.8026C18.0679 14.8024 18.068 14.8023 18.0681 14.8021C18.6067 13.8661 19.8027 13.5431 20.737 14.0802L20.7378 14.0806L22.6212 15.1611L22.6228 15.1619C23.532 15.6814 24.6793 15.6981 25.602 15.1263L25.602 15.1263L25.606 15.1238C25.8704 14.9581 26.1463 14.8009 26.4305 14.6523C27.4098 14.1431 27.976 13.1252 27.976 12.0702V9.89193C27.976 8.81431 28.8493 7.93892 29.9297 7.93892H35.0345C36.1129 7.93892 36.9882 8.81237 36.9882 9.89193V12.0667C36.9882 13.1309 37.5624 14.1406 38.5342 14.6508C38.787 14.7836 39.0319 14.9222 39.2724 15.0697L39.2764 15.0721C40.201 15.6331 41.3475 15.6211 42.262 15.0882L42.2623 15.088L44.1384 13.9939C44.1385 13.9938 44.1387 13.9937 44.1388 13.9936C45.0705 13.4511 46.2684 13.7646 46.8128 14.6971L46.8131 14.6975ZM24.5582 26.2203C24.5582 30.5944 28.1058 34.1408 32.4804 34.1408L39.4025 26.2203H40.4025C40.4025 26.22 40.4025 26.2197 40.4025 26.2194C40.402 21.8458 36.8546 18.2999 32.4804 18.2999C28.1058 18.2999 24.5582 21.8463 24.5582 26.2203Z" fill="#3F51B5" stroke="#1A237E" stroke-width="2"/>
</svg>
