<svg width="56" height="74" viewBox="0 0 56 74" fill="none" xmlns="http://www.w3.org/2000/svg">
<path d="M27.134 42.4231C27.5189 41.7564 28.4812 41.7564 28.8661 42.4231L40.3243 62.2692C40.7092 62.9359 40.228 63.7693 39.4582 63.7693H16.5419C15.7721 63.7693 15.2909 62.9359 15.6758 62.2693L27.134 42.4231Z" fill="#B3E5FC" stroke="#01579B" stroke-width="2" stroke-linecap="round" stroke-linejoin="round"/>
<rect x="1" y="13" width="54" height="41.0769" rx="7" fill="#B3E5FC" stroke="#01579B" stroke-width="2"/>
<path d="M54.9231 43.2307H0.538452" stroke="#01579B" stroke-width="2"/>
<circle cx="28.0001" cy="48.6154" r="2.23077" fill="#B3E5FC" stroke="#01579B" stroke-width="2"/>
<mask id="path-5-inside-1" fill="white">
<path fill-rule="evenodd" clip-rule="evenodd" d="M12 0C9.79086 0 8 1.79086 8 4V24C8 26.2091 9.79086 28 12 28L28 28L38.2929 38.2929C38.9229 38.9229 40 38.4767 40 37.5858L40 28H44C46.2091 28 48 26.2091 48 24V4C48 1.79086 46.2091 0 44 0H12Z"/>
</mask>
<path fill-rule="evenodd" clip-rule="evenodd" d="M12 0C9.79086 0 8 1.79086 8 4V24C8 26.2091 9.79086 28 12 28L28 28L38.2929 38.2929C38.9229 38.9229 40 38.4767 40 37.5858L40 28H44C46.2091 28 48 26.2091 48 24V4C48 1.79086 46.2091 0 44 0H12Z" fill="#B3E5FC"/>
<path d="M12 28V30H12L12 28ZM28 28L29.4142 26.5858L28.8284 26H28V28ZM38.2929 38.2929L39.7071 36.8787L39.7071 36.8787L38.2929 38.2929ZM40 37.5858H38H40ZM40 28V26H38V28H40ZM10 4C10 2.89543 10.8954 2 12 2V-2C8.68629 -2 6 0.686291 6 4H10ZM10 24V4H6V24H10ZM12 26C10.8954 26 10 25.1046 10 24H6C6 27.3137 8.68629 30 12 30V26ZM28 26L12 26L12 30L28 30V26ZM39.7071 36.8787L29.4142 26.5858L26.5858 29.4142L36.8787 39.7071L39.7071 36.8787ZM38 37.5858C38 36.6949 39.0771 36.2487 39.7071 36.8787L36.8787 39.7071C38.7686 41.597 42 40.2585 42 37.5858H38ZM38 28L38 37.5858H42L42 28H38ZM44 26H40V30H44V26ZM46 24C46 25.1046 45.1046 26 44 26V30C47.3137 30 50 27.3137 50 24H46ZM46 4V24H50V4H46ZM44 2C45.1046 2 46 2.89543 46 4H50C50 0.686291 47.3137 -2 44 -2V2ZM12 2H44V-2H12V2Z" fill="#01579B" mask="url(#path-5-inside-1)"/>
<path d="M17 14H39" stroke="#01579B" stroke-width="2" stroke-linecap="round"/>
<path d="M17 8H39" stroke="#01579B" stroke-width="2" stroke-linecap="round"/>
<path d="M17 20H27.5" stroke="#01579B" stroke-width="2" stroke-linecap="round"/>
</svg>
