<svg width="65" height="78" viewBox="0 0 65 78" fill="none" xmlns="http://www.w3.org/2000/svg">
<rect x="5" y="1" width="46" height="58" rx="7" fill="#D1C4E9" stroke="#311B92" stroke-width="2"/>
<rect x="9" y="5" width="38" height="50" rx="3" fill="#D1C4E9" stroke="#311B92" stroke-width="2"/>
<rect x="17" y="13" width="22" height="14" rx="1" fill="#D1C4E9" stroke="#311B92" stroke-width="2"/>
<path d="M17 34H39" stroke="#311B92" stroke-width="2" stroke-linecap="round" stroke-linejoin="round"/>
<path d="M17 40H39" stroke="#311B92" stroke-width="2" stroke-linecap="round" stroke-linejoin="round"/>
<path d="M17 46H39" stroke="#311B92" stroke-width="2" stroke-linecap="round" stroke-linejoin="round"/>
<circle cx="32.5" cy="19.5" r="2.5" fill="#D1C4E9" stroke="#311B92" stroke-width="2"/>
<path d="M18 27L24 19.5L29.5 27" stroke="#311B92" stroke-width="2"/>
<rect x="1" y="31" width="26" height="18" rx="3" fill="#D1C4E9" stroke="#311B92" stroke-width="2"/>
<path d="M6.38 44C6.18667 44 6.03333 43.9467 5.92 43.84C5.81333 43.7333 5.76 43.5833 5.76 43.39V37.56C5.76 37.3667 5.81333 37.2167 5.92 37.11C6.03333 37.0033 6.18667 36.95 6.38 36.95H9.99C10.1833 36.95 10.3333 36.9933 10.44 37.08C10.5467 37.1667 10.6 37.29 10.6 37.45C10.6 37.6167 10.5467 37.7467 10.44 37.84C10.3333 37.9267 10.1833 37.97 9.99 37.97H7.02V39.91H9.79C9.98333 39.91 10.1333 39.9533 10.24 40.04C10.3467 40.1267 10.4 40.2533 10.4 40.42C10.4 40.58 10.3467 40.7033 10.24 40.79C10.1333 40.8767 9.98333 40.92 9.79 40.92H7.02V42.98H9.99C10.1833 42.98 10.3333 43.0267 10.44 43.12C10.5467 43.2067 10.6 43.3333 10.6 43.5C10.6 43.66 10.5467 43.7833 10.44 43.87C10.3333 43.9567 10.1833 44 9.99 44H6.38ZM12.2887 44.06C12.0953 44.06 11.9387 44 11.8187 43.88C11.7053 43.76 11.6487 43.6033 11.6487 43.41V37.56C11.6487 37.3667 11.702 37.2167 11.8087 37.11C11.922 37.0033 12.0753 36.95 12.2687 36.95H15.7787C16.1853 36.95 16.3887 37.1233 16.3887 37.47C16.3887 37.81 16.1853 37.98 15.7787 37.98H12.9187V39.9H15.5787C15.9853 39.9 16.1887 40.0733 16.1887 40.42C16.1887 40.76 15.9853 40.93 15.5787 40.93H12.9187V43.41C12.9187 43.6033 12.862 43.76 12.7487 43.88C12.6353 44 12.482 44.06 12.2887 44.06ZM21.5627 42.96C21.9627 42.96 22.1627 43.13 22.1627 43.47C22.1627 43.8233 21.9627 44 21.5627 44H18.1827C17.7761 44 17.5727 43.8233 17.5727 43.47C17.5727 43.13 17.7761 42.96 18.1827 42.96H19.2227V38.4L18.2627 38.99C18.1694 39.0433 18.0861 39.07 18.0127 39.07C17.8727 39.07 17.7527 39.01 17.6527 38.89C17.5594 38.77 17.5127 38.6367 17.5127 38.49C17.5127 38.2967 17.5994 38.1467 17.7727 38.04L19.3227 37.08C19.5227 36.96 19.7127 36.9 19.8927 36.9C20.0794 36.9 20.2294 36.9567 20.3427 37.07C20.4561 37.1833 20.5127 37.34 20.5127 37.54V42.96H21.5627Z" fill="#311B92"/>
<path fill-rule="evenodd" clip-rule="evenodd" d="M36 28C33.7909 28 32 29.7909 32 32V54H31.874C31.4299 52.2748 29.8638 51 28 51C26.1362 51 24.5701 52.2748 24.126 54H24V55V64V68C24 72.9706 28.0294 77 33 77H56C60.4183 77 64 73.4183 64 69V60V54V53C64 50.7909 62.2091 49 60 49C57.7909 49 56 50.7909 56 53V49C56 46.7909 54.2091 45 52 45C49.7909 45 48 46.7909 48 49V45C48 42.7909 46.2091 41 44 41C41.7909 41 40 42.7909 40 45V32C40 29.7909 38.2091 28 36 28Z" fill="#D1C4E9"/>
<path d="M32 54V55C32.5523 55 33 54.5523 33 54H32ZM31.874 54L30.9055 54.2493C31.0193 54.6911 31.4177 55 31.874 55V54ZM24.126 54V55C24.5823 55 24.9807 54.6911 25.0945 54.2493L24.126 54ZM24 54V53C23.4477 53 23 53.4477 23 54H24ZM55 53C55 53.5523 55.4477 54 56 54C56.5523 54 57 53.5523 57 53H55ZM47 49C47 49.5523 47.4477 50 48 50C48.5523 50 49 49.5523 49 49H47ZM39 45C39 45.5523 39.4477 46 40 46C40.5523 46 41 45.5523 41 45H39ZM33 32C33 30.3431 34.3431 29 36 29V27C33.2386 27 31 29.2386 31 32H33ZM33 54V32H31V54H33ZM31.874 55H32V53H31.874V55ZM32.8424 53.7507C32.2874 51.5944 30.3312 50 28 50V52C29.3965 52 30.5725 52.9551 30.9055 54.2493L32.8424 53.7507ZM28 50C25.6688 50 23.7126 51.5944 23.1576 53.7507L25.0945 54.2493C25.4275 52.9551 26.6035 52 28 52V50ZM24 55H24.126V53H24V55ZM25 55V54H23V55H25ZM23 55V64H25V55H23ZM25 68V64H23V68H25ZM33 76C28.5817 76 25 72.4183 25 68H23C23 73.5228 27.4772 78 33 78V76ZM56 76H33V78H56V76ZM63 69C63 72.866 59.866 76 56 76V78C60.9706 78 65 73.9706 65 69H63ZM63 60V69H65V60H63ZM63 54V60H65V54H63ZM63 53V54H65V53H63ZM60 50C61.6569 50 63 51.3431 63 53H65C65 50.2386 62.7614 48 60 48V50ZM57 53C57 51.3431 58.3431 50 60 50V48C57.2386 48 55 50.2386 55 53H57ZM55 49V53H57V49H55ZM52 46C53.6569 46 55 47.3431 55 49H57C57 46.2386 54.7614 44 52 44V46ZM49 49C49 47.3431 50.3431 46 52 46V44C49.2386 44 47 46.2386 47 49H49ZM47 45V49H49V45H47ZM44 42C45.6569 42 47 43.3431 47 45H49C49 42.2386 46.7614 40 44 40V42ZM41 45C41 43.3431 42.3431 42 44 42V40C41.2386 40 39 42.2386 39 45H41ZM39 32V45H41V32H39ZM36 29C37.6569 29 39 30.3431 39 32H41C41 29.2386 38.7614 27 36 27V29Z" fill="#311B92"/>
<path d="M39 53C39 53.5523 39.4477 54 40 54C40.5523 54 41 53.5523 41 53H39ZM39 44V53H41V44H39Z" fill="#311B92"/>
<path d="M31 62C31 62.5523 31.4477 63 32 63C32.5523 63 33 62.5523 33 62H31ZM31 53V62H33V53H31Z" fill="#311B92"/>
<path d="M47 53C47 53.5523 47.4477 54 48 54C48.5523 54 49 53.5523 49 53H47ZM47 44V53H49V44H47Z" fill="#311B92"/>
</svg>
