<svg width="61" height="78" viewBox="0 0 61 78" fill="none" xmlns="http://www.w3.org/2000/svg">
<rect x="1" y="1" width="46" height="58" rx="7" fill="#D1C4E9" stroke="#311B92" stroke-width="2"/>
<rect x="5" y="5" width="38" height="50" rx="3" fill="#D1C4E9" stroke="#311B92" stroke-width="2"/>
<path d="M13 14H35" stroke="#311B92" stroke-width="2" stroke-linecap="round" stroke-linejoin="round"/>
<path d="M13 20H35" stroke="#311B92" stroke-width="2" stroke-linecap="round" stroke-linejoin="round"/>
<path d="M13 26H35" stroke="#311B92" stroke-width="2" stroke-linecap="round" stroke-linejoin="round"/>
<rect x="13" y="33" width="22" height="14" rx="1" fill="#D1C4E9" stroke="#311B92" stroke-width="2"/>
<circle cx="28.5" cy="39.5" r="2.5" fill="#D1C4E9" stroke="#311B92" stroke-width="2"/>
<path d="M14 47L20 39.5L25.5 47" stroke="#311B92" stroke-width="2"/>
<rect x="21" y="9" width="38" height="18" rx="3" fill="#D1C4E9" stroke="#311B92" stroke-width="2"/>
<path d="M31.1 14.9C31.2867 14.9 31.4333 14.96 31.54 15.08C31.6533 15.1933 31.71 15.3467 31.71 15.54V21.41C31.71 21.6033 31.6533 21.76 31.54 21.88C31.4267 22 31.28 22.06 31.1 22.06C30.8867 22.06 30.7233 21.9833 30.61 21.83L26.96 17.08V21.41C26.96 21.6033 26.9067 21.76 26.8 21.88C26.6933 22 26.5467 22.06 26.36 22.06C26.1733 22.06 26.0267 22 25.92 21.88C25.8133 21.76 25.76 21.6033 25.76 21.41V15.54C25.76 15.3467 25.8167 15.1933 25.93 15.08C26.0433 14.96 26.1933 14.9 26.38 14.9C26.5867 14.9 26.7467 14.9767 26.86 15.13L30.5 19.86V15.54C30.5 15.3467 30.5533 15.1933 30.66 15.08C30.7733 14.96 30.92 14.9 31.1 14.9ZM36.3707 22.09C35.684 22.09 35.0874 21.9433 34.5807 21.65C34.0807 21.3567 33.694 20.9367 33.4207 20.39C33.1474 19.8433 33.0107 19.2033 33.0107 18.47C33.0107 17.7367 33.144 17.1 33.4107 16.56C33.684 16.0133 34.074 15.5933 34.5807 15.3C35.0874 15.0067 35.684 14.86 36.3707 14.86C37.0574 14.86 37.6507 15.0067 38.1507 15.3C38.6574 15.5933 39.044 16.0133 39.3107 16.56C39.584 17.1 39.7207 17.7367 39.7207 18.47C39.7207 19.2033 39.584 19.8433 39.3107 20.39C39.0374 20.9367 38.6474 21.3567 38.1407 21.65C37.6407 21.9433 37.0507 22.09 36.3707 22.09ZM36.3707 21.06C37.0174 21.06 37.5207 20.8367 37.8807 20.39C38.2474 19.9433 38.4307 19.3033 38.4307 18.47C38.4307 17.6367 38.2474 17 37.8807 16.56C37.5207 16.1133 37.0174 15.89 36.3707 15.89C35.7174 15.89 35.2074 16.1133 34.8407 16.56C34.4807 17 34.3007 17.6367 34.3007 18.47C34.3007 19.3033 34.4807 19.9433 34.8407 20.39C35.2074 20.8367 35.7174 21.06 36.3707 21.06ZM45.9779 15.23C46.0846 15.0033 46.2612 14.89 46.5079 14.89C46.6746 14.89 46.8246 14.9433 46.9579 15.05C47.0912 15.1567 47.1579 15.29 47.1579 15.45C47.1579 15.5233 47.1379 15.6067 47.0979 15.7L44.3279 21.66C44.2679 21.7867 44.1746 21.8867 44.0479 21.96C43.9279 22.0267 43.7979 22.06 43.6579 22.06C43.5179 22.06 43.3846 22.0267 43.2579 21.96C43.1379 21.8867 43.0479 21.7867 42.9879 21.66L40.2279 15.7C40.1879 15.6067 40.1679 15.5267 40.1679 15.46C40.1679 15.2933 40.2346 15.1567 40.3679 15.05C40.5079 14.9433 40.6646 14.89 40.8379 14.89C40.9512 14.89 41.0546 14.92 41.1479 14.98C41.2479 15.0333 41.3246 15.1167 41.3779 15.23L43.6779 20.34L45.9779 15.23ZM50.9508 22.09C50.2641 22.09 49.6674 21.9433 49.1608 21.65C48.6608 21.3567 48.2741 20.9367 48.0008 20.39C47.7274 19.8433 47.5908 19.2033 47.5908 18.47C47.5908 17.7367 47.7241 17.1 47.9908 16.56C48.2641 16.0133 48.6541 15.5933 49.1608 15.3C49.6674 15.0067 50.2641 14.86 50.9508 14.86C51.6374 14.86 52.2308 15.0067 52.7308 15.3C53.2374 15.5933 53.6241 16.0133 53.8908 16.56C54.1641 17.1 54.3008 17.7367 54.3008 18.47C54.3008 19.2033 54.1641 19.8433 53.8908 20.39C53.6174 20.9367 53.2274 21.3567 52.7208 21.65C52.2208 21.9433 51.6308 22.09 50.9508 22.09ZM50.9508 21.06C51.5974 21.06 52.1008 20.8367 52.4608 20.39C52.8274 19.9433 53.0108 19.3033 53.0108 18.47C53.0108 17.6367 52.8274 17 52.4608 16.56C52.1008 16.1133 51.5974 15.89 50.9508 15.89C50.2974 15.89 49.7874 16.1133 49.4208 16.56C49.0608 17 48.8808 17.6367 48.8808 18.47C48.8808 19.3033 49.0608 19.9433 49.4208 20.39C49.7874 20.8367 50.2974 21.06 50.9508 21.06Z" fill="#311B92"/>
<path fill-rule="evenodd" clip-rule="evenodd" d="M32 28C29.7909 28 28 29.7909 28 32V54H27.874C27.4299 52.2748 25.8638 51 24 51C22.1362 51 20.5701 52.2748 20.126 54H20V55V64V68C20 72.9706 24.0294 77 29 77H52C56.4183 77 60 73.4183 60 69V60V54V53C60 50.7909 58.2091 49 56 49C53.7909 49 52 50.7909 52 53V49C52 46.7909 50.2091 45 48 45C45.7909 45 44 46.7909 44 49V45C44 42.7909 42.2091 41 40 41C37.7909 41 36 42.7909 36 45V32C36 29.7909 34.2091 28 32 28Z" fill="#D1C4E9"/>
<path d="M28 54V55C28.5523 55 29 54.5523 29 54H28ZM27.874 54L26.9055 54.2493C27.0193 54.6911 27.4177 55 27.874 55V54ZM20.126 54V55C20.5823 55 20.9807 54.6911 21.0945 54.2493L20.126 54ZM20 54V53C19.4477 53 19 53.4477 19 54H20ZM51 53C51 53.5523 51.4477 54 52 54C52.5523 54 53 53.5523 53 53H51ZM43 49C43 49.5523 43.4477 50 44 50C44.5523 50 45 49.5523 45 49H43ZM35 45C35 45.5523 35.4477 46 36 46C36.5523 46 37 45.5523 37 45H35ZM29 32C29 30.3431 30.3431 29 32 29V27C29.2386 27 27 29.2386 27 32H29ZM29 54V32H27V54H29ZM27.874 55H28V53H27.874V55ZM28.8424 53.7507C28.2874 51.5944 26.3312 50 24 50V52C25.3965 52 26.5725 52.9551 26.9055 54.2493L28.8424 53.7507ZM24 50C21.6688 50 19.7126 51.5944 19.1576 53.7507L21.0945 54.2493C21.4275 52.9551 22.6035 52 24 52V50ZM20 55H20.126V53H20V55ZM21 55V54H19V55H21ZM19 55V64H21V55H19ZM21 68V64H19V68H21ZM29 76C24.5817 76 21 72.4183 21 68H19C19 73.5228 23.4772 78 29 78V76ZM52 76H29V78H52V76ZM59 69C59 72.866 55.866 76 52 76V78C56.9706 78 61 73.9706 61 69H59ZM59 60V69H61V60H59ZM59 54V60H61V54H59ZM59 53V54H61V53H59ZM56 50C57.6569 50 59 51.3431 59 53H61C61 50.2386 58.7614 48 56 48V50ZM53 53C53 51.3431 54.3431 50 56 50V48C53.2386 48 51 50.2386 51 53H53ZM51 49V53H53V49H51ZM48 46C49.6569 46 51 47.3431 51 49H53C53 46.2386 50.7614 44 48 44V46ZM45 49C45 47.3431 46.3431 46 48 46V44C45.2386 44 43 46.2386 43 49H45ZM43 45V49H45V45H43ZM40 42C41.6569 42 43 43.3431 43 45H45C45 42.2386 42.7614 40 40 40V42ZM37 45C37 43.3431 38.3431 42 40 42V40C37.2386 40 35 42.2386 35 45H37ZM35 32V45H37V32H35ZM32 29C33.6569 29 35 30.3431 35 32H37C37 29.2386 34.7614 27 32 27V29Z" fill="#311B92"/>
<path d="M35 53C35 53.5523 35.4477 54 36 54C36.5523 54 37 53.5523 37 53H35ZM35 44V53H37V44H35Z" fill="#311B92"/>
<path d="M27 62C27 62.5523 27.4477 63 28 63C28.5523 63 29 62.5523 29 62H27ZM27 53V62H29V53H27Z" fill="#311B92"/>
<path d="M43 53C43 53.5523 43.4477 54 44 54C44.5523 54 45 53.5523 45 53H43ZM43 44V53H45V44H43Z" fill="#311B92"/>
</svg>
