<svg width="65" height="54" viewBox="0 0 65 54" fill="none" xmlns="http://www.w3.org/2000/svg">
<rect x="5.59998" y="1" width="19.6" height="8.8" rx="1" fill="#D1C4E9" stroke="#311B92" stroke-width="2" stroke-linecap="round" stroke-linejoin="round"/>
<rect x="5.59998" y="22.6" width="19.6" height="8.8" rx="1" fill="#D1C4E9" stroke="#311B92" stroke-width="2" stroke-linecap="round" stroke-linejoin="round"/>
<rect x="5.59998" y="44.2" width="19.6" height="8.8" rx="1" fill="#D1C4E9" stroke="#311B92" stroke-width="2" stroke-linecap="round" stroke-linejoin="round"/>
<rect x="34.4" y="1" width="19.6" height="8.8" rx="1" fill="#D1C4E9" stroke="#311B92" stroke-width="2" stroke-linecap="round" stroke-linejoin="round"/>
<rect x="34.4" y="22.6" width="19.6" height="8.8" rx="1" fill="#D1C4E9" stroke="#311B92" stroke-width="2" stroke-linecap="round" stroke-linejoin="round"/>
<rect x="34.4" y="44.2" width="19.6" height="8.8" rx="1" fill="#D1C4E9" stroke="#311B92" stroke-width="2" stroke-linecap="round" stroke-linejoin="round"/>
<line x1="26" y1="5" x2="34" y2="5" stroke="#311B92" stroke-width="2" stroke-linecap="round" stroke-linejoin="round"/>
<line x1="26" y1="27" x2="34" y2="27" stroke="#311B92" stroke-width="2" stroke-linecap="round" stroke-linejoin="round"/>
<line x1="26" y1="49" x2="34" y2="49" stroke="#311B92" stroke-width="2" stroke-linecap="round" stroke-linejoin="round"/>
<path d="M55 49.05H62.5M59.5 44.9999L63.5 49.05L59.5 52.9999" stroke="#311B92" stroke-width="2" stroke-linecap="round" stroke-linejoin="round"/>
<path d="M55 5.39999H58.6V18H1V27H4.6" stroke="#311B92" stroke-width="2" stroke-linecap="round" stroke-linejoin="round"/>
<path d="M55 27H58.6V39.6H1V48.6H4.6" stroke="#311B92" stroke-width="2" stroke-linecap="round" stroke-linejoin="round"/>
</svg>
