<svg width="61" height="52" viewBox="0 0 61 52" fill="none" xmlns="http://www.w3.org/2000/svg">
<rect x="1.00024" y="1.00024" width="58.2727" height="41.052" rx="7" fill="#B2EBF2" stroke="#006064" stroke-width="2"/>
<path d="M17.2208 11.3011H43.052" stroke="#006064" stroke-width="2"/>
<path d="M12.9155 18.2971H47.3571" stroke="#006064" stroke-width="2"/>
<path d="M17.2208 25.8312H43.052" stroke="#006064" stroke-width="2"/>
<path d="M24.7788 50.5305C24.1862 51.1231 23.1712 50.7675 23.0779 49.9346L22.6961 46.5256L19.2857 46.1431C18.4529 46.0498 18.0975 45.0348 18.6901 44.4423L23.3092 39.8231L29.3977 45.9116L24.7788 50.5305Z" fill="#B2EBF2" stroke="#006064" stroke-width="2" stroke-miterlimit="10"/>
<path d="M41.9201 44.4418C42.5127 45.0344 42.1572 46.0494 41.3243 46.1427L37.9152 46.5245L37.5328 49.9349C37.4394 50.7677 36.4245 51.1231 35.8319 50.5305L31.2128 45.9114L37.3012 39.8229L41.9201 44.4418Z" fill="#B2EBF2" stroke="#006064" stroke-width="2" stroke-miterlimit="10"/>
<circle cx="30.1365" cy="38.7467" r="6.53409" fill="#B2EBF2" stroke="#006064" stroke-width="2"/>
<mask id="path-8-inside-1" fill="white">
<path fill-rule="evenodd" clip-rule="evenodd" d="M47.3572 0H52.2728C56.691 0 60.2728 3.58172 60.2728 8V12.9156C53.1397 12.9156 47.3572 7.13308 47.3572 0Z"/>
</mask>
<path fill-rule="evenodd" clip-rule="evenodd" d="M47.3572 0H52.2728C56.691 0 60.2728 3.58172 60.2728 8V12.9156C53.1397 12.9156 47.3572 7.13308 47.3572 0Z" fill="#B2EBF2"/>
<path d="M47.3572 0V-2H45.3572V0H47.3572ZM60.2728 12.9156V14.9156H62.2728V12.9156H60.2728ZM47.3572 2H52.2728V-2H47.3572V2ZM52.2728 2C55.5865 2 58.2728 4.68629 58.2728 8H62.2728C62.2728 2.47715 57.7956 -2 52.2728 -2V2ZM58.2728 8V12.9156H62.2728V8H58.2728ZM60.2728 10.9156C54.2443 10.9156 49.3572 6.02851 49.3572 0H45.3572C45.3572 8.23765 52.0351 14.9156 60.2728 14.9156V10.9156Z" fill="#006064" mask="url(#path-8-inside-1)"/>
<mask id="path-10-inside-2" fill="white">
<path fill-rule="evenodd" clip-rule="evenodd" d="M12.9155 43.052L7.99994 43.052C3.58167 43.052 -6.26294e-05 39.4703 -6.22431e-05 35.052L-5.9906e-05 30.1364C7.13302 30.1364 12.9155 35.9189 12.9155 43.052Z"/>
</mask>
<path fill-rule="evenodd" clip-rule="evenodd" d="M12.9155 43.052L7.99994 43.052C3.58167 43.052 -6.26294e-05 39.4703 -6.22431e-05 35.052L-5.9906e-05 30.1364C7.13302 30.1364 12.9155 35.9189 12.9155 43.052Z" fill="#B2EBF2"/>
<path d="M12.9155 43.052L12.9155 45.052L14.9155 45.052L14.9155 43.052L12.9155 43.052ZM-6.22431e-05 35.052L-2.00006 35.052L-2.00006 35.052L-6.22431e-05 35.052ZM-5.9906e-05 30.1364L-5.97312e-05 28.1364L-2.00006 28.1364L-2.00006 30.1364L-5.9906e-05 30.1364ZM12.9155 41.052L7.99994 41.052L7.99994 45.052L12.9155 45.052L12.9155 41.052ZM7.99994 41.052C4.68623 41.052 1.99994 38.3657 1.99994 35.052L-2.00006 35.052C-2.00006 40.5748 2.4771 45.052 7.99994 45.052L7.99994 41.052ZM1.99994 35.052L1.99994 30.1364L-2.00006 30.1364L-2.00006 35.052L1.99994 35.052ZM-6.00809e-05 32.1364C6.02845 32.1364 10.9155 37.0235 10.9155 43.052L14.9155 43.052C14.9155 34.8144 8.23759 28.1364 -5.97312e-05 28.1364L-6.00809e-05 32.1364Z" fill="#006064" mask="url(#path-10-inside-2)"/>
<mask id="path-12-inside-3" fill="white">
<path fill-rule="evenodd" clip-rule="evenodd" d="M0 12.9155L-2.12239e-07 7.99994C-4.05368e-07 3.58167 3.58172 -6.11917e-05 8 -6.13848e-05L12.9156 -6.15997e-05C12.9156 7.13302 7.13308 12.9155 2.07268e-06 12.9155"/>
</mask>
<path fill-rule="evenodd" clip-rule="evenodd" d="M0 12.9155L-2.12239e-07 7.99994C-4.05368e-07 3.58167 3.58172 -6.11917e-05 8 -6.13848e-05L12.9156 -6.15997e-05C12.9156 7.13302 7.13308 12.9155 2.07268e-06 12.9155" fill="#B2EBF2"/>
<path d="M2.02897e-06 11.9155L-4.37114e-08 11.9155L4.37114e-08 13.9155L2.11639e-06 13.9155L2.02897e-06 11.9155ZM-2.12239e-07 7.99994L2 7.99994L-2.12239e-07 7.99994ZM8 -6.13848e-05L8 1.99994L8 -6.13848e-05ZM12.9156 -6.15997e-05L14.9156 -6.16871e-05L14.9156 -2.00006L12.9156 -2.00006L12.9156 -6.15997e-05ZM2 12.9155L2 7.99994L-2 7.99994L-2 12.9155L2 12.9155ZM2 7.99994C2 4.68623 4.68629 1.99994 8 1.99994L8 -2.00006C2.47715 -2.00006 -2 2.4771 -2 7.99994L2 7.99994ZM8 1.99994L12.9156 1.99994L12.9156 -2.00006L8 -2.00006L8 1.99994ZM10.9156 -6.15123e-05C10.9156 6.02845 6.02851 10.9155 1.98526e-06 10.9155L2.1601e-06 14.9155C8.23765 14.9155 14.9156 8.23759 14.9156 -6.16871e-05L10.9156 -6.15123e-05Z" fill="#006064" mask="url(#path-12-inside-3)"/>
<mask id="path-14-inside-4" fill="white">
<path fill-rule="evenodd" clip-rule="evenodd" d="M60.2728 30.1362L60.2728 35.0518C60.2728 39.4701 56.6911 43.0518 52.2728 43.0518L47.3572 43.0518C47.3572 35.9187 53.1397 30.1362 60.2728 30.1362Z"/>
</mask>
<path fill-rule="evenodd" clip-rule="evenodd" d="M60.2728 30.1362L60.2728 35.0518C60.2728 39.4701 56.6911 43.0518 52.2728 43.0518L47.3572 43.0518C47.3572 35.9187 53.1397 30.1362 60.2728 30.1362Z" fill="#B2EBF2"/>
<path d="M60.2728 30.1362L62.2728 30.1362L62.2728 28.1362L60.2728 28.1362L60.2728 30.1362ZM52.2728 43.0518L52.2728 45.0518L52.2728 45.0518L52.2728 43.0518ZM47.3572 43.0518L45.3572 43.0518L45.3572 45.0518L47.3572 45.0518L47.3572 43.0518ZM58.2728 30.1362L58.2728 35.0518L62.2728 35.0518L62.2728 30.1362L58.2728 30.1362ZM58.2728 35.0518C58.2728 38.3655 55.5865 41.0518 52.2728 41.0518L52.2728 45.0518C57.7957 45.0518 62.2728 40.5747 62.2728 35.0518L58.2728 35.0518ZM52.2728 41.0518L47.3572 41.0518L47.3572 45.0518L52.2728 45.0518L52.2728 41.0518ZM49.3572 43.0518C49.3572 37.0233 54.2443 32.1362 60.2728 32.1362L60.2728 28.1362C52.0352 28.1362 45.3572 34.8142 45.3572 43.0518L49.3572 43.0518Z" fill="#006064" mask="url(#path-14-inside-4)"/>
</svg>
