<svg width="52" height="73" viewBox="0 0 52 73" fill="none" xmlns="http://www.w3.org/2000/svg">
<path d="M1 15C1 13.3431 2.34315 12 4 12H48C49.6569 12 51 13.3431 51 15V69C51 70.6569 49.6569 72 48 72H4C2.34315 72 1 70.6569 1 69V15Z" fill="#B2EBF2" stroke="#006064" stroke-width="2"/>
<rect x="10.2668" y="24" width="11.6" height="6.20001" rx="1" fill="#B2EBF2" stroke="#006064" stroke-width="2" stroke-linecap="round" stroke-linejoin="round"/>
<rect x="10.2668" y="40.4001" width="11.6" height="6.20001" rx="1" fill="#B2EBF2" stroke="#006064" stroke-width="2" stroke-linecap="round" stroke-linejoin="round"/>
<rect x="10.2668" y="56.7999" width="11.6" height="6.20001" rx="1" fill="#B2EBF2" stroke="#006064" stroke-width="2" stroke-linecap="round" stroke-linejoin="round"/>
<rect x="28.3999" y="24" width="11.6" height="6.20001" rx="1" fill="#B2EBF2" stroke="#006064" stroke-width="2" stroke-linecap="round" stroke-linejoin="round"/>
<rect x="28.3999" y="40.4001" width="11.6" height="6.20001" rx="1" fill="#B2EBF2" stroke="#006064" stroke-width="2" stroke-linecap="round" stroke-linejoin="round"/>
<rect x="28.3999" y="56.7999" width="11.6" height="6.20001" rx="1" fill="#B2EBF2" stroke="#006064" stroke-width="2" stroke-linecap="round" stroke-linejoin="round"/>
<line x1="23.1111" y1="26.5557" x2="27.4074" y2="26.5557" stroke="#006064" stroke-width="2" stroke-linecap="round" stroke-linejoin="round"/>
<line x1="23.1111" y1="43.2594" x2="27.4074" y2="43.2594" stroke="#006064" stroke-width="2" stroke-linecap="round" stroke-linejoin="round"/>
<line x1="23.1111" y1="59.9629" x2="27.4074" y2="59.9629" stroke="#006064" stroke-width="2" stroke-linecap="round" stroke-linejoin="round"/>
<path d="M41 60.2417H45.7222M43.8333 57.1666L46.3519 60.2417L43.8333 63.2407" stroke="#006064" stroke-width="2" stroke-linecap="round" stroke-linejoin="round"/>
<path d="M41 27.0999H43.2667V36.6665H7V43.4999H9.26667" stroke="#006064" stroke-width="2" stroke-linecap="round" stroke-linejoin="round"/>
<path d="M41 43.5H43.2667V53.0667H7V59.9H9.26667" stroke="#006064" stroke-width="2" stroke-linecap="round" stroke-linejoin="round"/>
<mask id="path-14-inside-1" fill="white">
<path fill-rule="evenodd" clip-rule="evenodd" d="M19.0709 6C19.5561 2.60771 22.4735 0 26 0C29.5265 0 32.4439 2.60771 32.9291 6H38C39.1046 6 40 6.89543 40 8V16C40 17.1046 39.1046 18 38 18H14C12.8954 18 12 17.1046 12 16V8C12 6.89543 12.8954 6 14 6H19.0709Z"/>
</mask>
<path fill-rule="evenodd" clip-rule="evenodd" d="M19.0709 6C19.5561 2.60771 22.4735 0 26 0C29.5265 0 32.4439 2.60771 32.9291 6H38C39.1046 6 40 6.89543 40 8V16C40 17.1046 39.1046 18 38 18H14C12.8954 18 12 17.1046 12 16V8C12 6.89543 12.8954 6 14 6H19.0709Z" fill="#B2EBF2"/>
<path d="M19.0709 6V8H20.8052L21.0507 6.2832L19.0709 6ZM32.9291 6L30.9493 6.2832L31.1948 8H32.9291V6ZM21.0507 6.2832C21.3971 3.862 23.4828 2 26 2V-2C21.4642 -2 17.7152 1.35341 17.091 5.7168L21.0507 6.2832ZM26 2C28.5172 2 30.6029 3.862 30.9493 6.2832L34.909 5.7168C34.2848 1.35341 30.5358 -2 26 -2V2ZM32.9291 8H38V4H32.9291V8ZM38 8H42C42 5.79086 40.2091 4 38 4V8ZM38 8V16H42V8H38ZM38 16V20C40.2091 20 42 18.2091 42 16H38ZM38 16H14V20H38V16ZM14 16H14H10C10 18.2091 11.7909 20 14 20V16ZM14 16V8H10V16H14ZM14 8V4C11.7909 4 10 5.79086 10 8H14ZM14 8H19.0709V4H14V8Z" fill="#006064" mask="url(#path-14-inside-1)"/>
<circle cx="26" cy="7" r="2" fill="#006064"/>
</svg>
