<svg width="57" height="64" viewBox="0 0 57 64" fill="none" xmlns="http://www.w3.org/2000/svg">
<mask id="path-1-inside-1" fill="white">
<path fill-rule="evenodd" clip-rule="evenodd" d="M43.0712 63.7929C46.3849 63.7929 49.0712 61.1066 49.0712 57.7929L49.0712 6.00001C49.0712 2.6863 46.3849 1.12092e-05 43.0712 1.09196e-05L20.3404 8.93237e-06L0.0873375 20.3442L0.0873342 57.7929C0.0873339 61.1066 2.77362 63.7929 6.08733 63.7929L43.0712 63.7929Z"/>
</mask>
<path fill-rule="evenodd" clip-rule="evenodd" d="M43.0712 63.7929C46.3849 63.7929 49.0712 61.1066 49.0712 57.7929L49.0712 6.00001C49.0712 2.6863 46.3849 1.12092e-05 43.0712 1.09196e-05L20.3404 8.93237e-06L0.0873375 20.3442L0.0873342 57.7929C0.0873339 61.1066 2.77362 63.7929 6.08733 63.7929L43.0712 63.7929Z" fill="#E1BEE7"/>
<path d="M43.0712 63.7929L43.0712 65.7929L43.0712 63.7929ZM20.3404 8.93237e-06L20.3404 -1.99999L19.5093 -1.99999L18.923 -1.41103L20.3404 8.93237e-06ZM0.0873375 20.3442L-1.33005 18.9332L-1.91266 19.5184L-1.91266 20.3442L0.0873375 20.3442ZM0.0873342 57.7929L2.08733 57.7929L0.0873342 57.7929ZM6.08733 63.7929L6.08733 61.7929L6.08733 63.7929ZM47.0712 57.7929C47.0712 60.002 45.2803 61.7929 43.0712 61.7929L43.0712 65.7929C47.4894 65.7929 51.0712 62.2112 51.0712 57.7929L47.0712 57.7929ZM47.0712 6.00001L47.0712 57.7929L51.0712 57.7929L51.0712 6.00001L47.0712 6.00001ZM43.0712 2.00001C45.2803 2.00001 47.0712 3.79087 47.0712 6.00001L51.0712 6.00001C51.0712 1.58173 47.4895 -1.99999 43.0712 -1.99999L43.0712 2.00001ZM20.3404 2.00001L43.0712 2.00001L43.0712 -1.99999L20.3404 -1.99999L20.3404 2.00001ZM18.923 -1.41103L-1.33005 18.9332L1.50472 21.7552L21.7578 1.41104L18.923 -1.41103ZM2.08733 57.7929L2.08734 20.3442L-1.91266 20.3442L-1.91267 57.7929L2.08733 57.7929ZM6.08733 61.7929C3.87819 61.7929 2.08733 60.002 2.08733 57.7929L-1.91267 57.7929C-1.91267 62.2112 1.66905 65.7929 6.08733 65.7929L6.08733 61.7929ZM43.0712 61.7929L6.08733 61.7929L6.08733 65.7929L43.0712 65.7929L43.0712 61.7929Z" fill="#4A148C" mask="url(#path-1-inside-1)"/>
<path d="M40.0712 52.793L8.07117 52.793" stroke="#4A148C" stroke-width="2" stroke-linecap="round"/>
<path d="M40.0712 18.793L8.07117 18.793" stroke="#4A148C" stroke-width="2" stroke-linecap="round"/>
<path d="M40.0712 35.793L8.07117 35.793" stroke="#4A148C" stroke-width="2" stroke-linecap="round"/>
<path d="M40.0712 44.793L8.07117 44.793" stroke="#4A148C" stroke-width="2" stroke-linecap="round"/>
<path d="M40 11.0001L19 11.0001" stroke="#4A148C" stroke-width="2" stroke-linecap="round"/>
<path d="M40.0712 27.793L8.07117 27.793" stroke="#4A148C" stroke-width="2" stroke-linecap="round"/>
<path d="M16.5049 19.505L2.41424 19.505L19.5049 2.41436L19.5049 16.505C19.5049 18.1619 18.1617 19.505 16.5049 19.505Z" fill="#E1BEE7" stroke="#4A148C" stroke-width="2"/>
<rect x="27" y="31" width="29" height="18" rx="3" fill="#E1BEE7" stroke="#4A148C" stroke-width="2"/>
<path d="M31.38 44C31.1867 44 31.0333 43.9467 30.92 43.84C30.8133 43.7333 30.76 43.5833 30.76 43.39V37.56C30.76 37.3667 30.8133 37.2167 30.92 37.11C31.0333 37.0033 31.1867 36.95 31.38 36.95H33.36C34.5133 36.95 35.4067 37.26 36.04 37.88C36.68 38.4933 37 39.3567 37 40.47C37 41.59 36.68 42.46 36.04 43.08C35.4067 43.6933 34.5133 44 33.36 44H31.38ZM33.28 42.95C34.9 42.95 35.71 42.1233 35.71 40.47C35.71 38.8233 34.9 38 33.28 38H32.05V42.95H33.28ZM41.4391 44.09C40.7524 44.09 40.1557 43.9433 39.6491 43.65C39.1491 43.3567 38.7624 42.9367 38.4891 42.39C38.2157 41.8433 38.0791 41.2033 38.0791 40.47C38.0791 39.7367 38.2124 39.1 38.4791 38.56C38.7524 38.0133 39.1424 37.5933 39.6491 37.3C40.1557 37.0067 40.7524 36.86 41.4391 36.86C42.1257 36.86 42.7191 37.0067 43.2191 37.3C43.7257 37.5933 44.1124 38.0133 44.3791 38.56C44.6524 39.1 44.7891 39.7367 44.7891 40.47C44.7891 41.2033 44.6524 41.8433 44.3791 42.39C44.1057 42.9367 43.7157 43.3567 43.2091 43.65C42.7091 43.9433 42.1191 44.09 41.4391 44.09ZM41.4391 43.06C42.0857 43.06 42.5891 42.8367 42.9491 42.39C43.3157 41.9433 43.4991 41.3033 43.4991 40.47C43.4991 39.6367 43.3157 39 42.9491 38.56C42.5891 38.1133 42.0857 37.89 41.4391 37.89C40.7857 37.89 40.2757 38.1133 39.9091 38.56C39.5491 39 39.3691 39.6367 39.3691 40.47C39.3691 41.3033 39.5491 41.9433 39.9091 42.39C40.2757 42.8367 40.7857 43.06 41.4391 43.06ZM49.242 44.09C48.562 44.09 47.9654 43.9433 47.452 43.65C46.9454 43.3567 46.5554 42.9367 46.282 42.39C46.0087 41.8433 45.872 41.2033 45.872 40.47C45.872 39.7367 46.0087 39.1 46.282 38.56C46.5554 38.0133 46.9454 37.5933 47.452 37.3C47.9654 37.0067 48.562 36.86 49.242 36.86C49.682 36.86 50.0954 36.9267 50.482 37.06C50.8687 37.1867 51.212 37.3733 51.512 37.62C51.5987 37.6867 51.6587 37.7567 51.692 37.83C51.7254 37.9033 51.742 37.9933 51.742 38.1C51.742 38.2467 51.702 38.37 51.622 38.47C51.542 38.57 51.4454 38.62 51.332 38.62C51.1987 38.62 51.062 38.5733 50.922 38.48C50.6354 38.2667 50.3687 38.12 50.122 38.04C49.8754 37.9533 49.602 37.91 49.302 37.91C48.6087 37.91 48.082 38.1267 47.722 38.56C47.3687 38.9933 47.192 39.63 47.192 40.47C47.192 41.3167 47.3687 41.9567 47.722 42.39C48.082 42.8233 48.6087 43.04 49.302 43.04C49.5887 43.04 49.852 42.9967 50.092 42.91C50.3387 42.8233 50.6154 42.6767 50.922 42.47C50.9887 42.43 51.0554 42.3967 51.122 42.37C51.1887 42.3433 51.2587 42.33 51.332 42.33C51.4454 42.33 51.542 42.38 51.622 42.48C51.702 42.58 51.742 42.7033 51.742 42.85C51.742 42.95 51.7254 43.04 51.692 43.12C51.6587 43.1933 51.5987 43.2633 51.512 43.33C51.212 43.5767 50.8687 43.7667 50.482 43.9C50.0954 44.0267 49.682 44.09 49.242 44.09Z" fill="#4A148C"/>
</svg>
