<svg width="62" height="63" viewBox="0 0 62 63" fill="none" xmlns="http://www.w3.org/2000/svg">
<path d="M25.3963 11.0721C26.9621 10.9031 28.406 11.4485 29.4498 12.4308C30.0437 12.989 31 12.5775 31 11.7547V1H5.01604C2.79706 1 1 2.83391 1 5.09838V31.6151H11.3073C12.0855 31.6151 12.5012 32.5368 12.0074 33.1524C11.1854 34.173 10.7323 35.5157 10.8604 36.9669C11.0854 39.5503 13.195 41.6171 15.7328 41.7478C18.7018 41.9009 21.1583 39.4865 21.1583 36.4885C21.1583 35.2159 20.7177 34.0518 19.9801 33.1428C19.4863 32.5336 19.9113 31.6151 20.6864 31.6151H30.9969V20.8604C30.9969 20.0344 30.0405 19.6293 29.4436 20.1875C28.5247 21.0486 27.3027 21.5748 25.9557 21.5748C22.9117 21.5748 20.4833 18.8862 20.8271 15.7095C21.0927 13.2824 23.021 11.3305 25.3963 11.0721Z" fill="#E1BEE7" stroke="#4A148C" stroke-width="2" stroke-miterlimit="10"/>
<path d="M10.9322 37.1697C10.7656 35.6039 11.3034 34.16 12.2721 33.1161C12.8225 32.5223 12.4167 31.566 11.6053 31.566L0.999999 31.566L1 57.5499C1 59.7689 2.80844 61.566 5.04146 61.566L31.1899 61.566L31.1899 51.2587C31.1899 50.4804 32.0988 50.0648 32.7058 50.5586C33.7122 51.3805 35.0363 51.8337 36.4674 51.7056C39.0149 51.4806 41.0529 49.371 41.1819 46.8332C41.3328 43.8641 38.952 41.4076 35.9956 41.4076C34.7407 41.4076 33.5927 41.8483 32.6964 42.5859C32.0957 43.0797 31.1899 42.6546 31.1899 41.8796L31.1899 31.5691L20.5846 31.5691C19.77 31.5691 19.3706 32.5255 19.921 33.1224C20.7701 34.0412 21.2891 35.2632 21.2891 36.6103C21.2891 39.6543 18.6378 42.0827 15.5052 41.7389C13.1118 41.4733 11.187 39.5449 10.9322 37.1697Z" fill="#E1BEE7" stroke="#4A148C" stroke-width="2" stroke-miterlimit="10"/>
<path d="M36.6037 51.4938C35.0379 51.6629 33.594 51.1175 32.5502 50.1352C31.9564 49.577 31 49.9884 31 50.8113L31 61.566L56.984 61.566C59.2029 61.566 61 59.7321 61 57.4676L61 30.9509L50.6927 30.9509C49.9145 30.9509 49.4988 30.0292 49.9926 29.4136C50.8146 28.393 51.2677 27.0503 51.1396 25.5991C50.9146 23.0157 48.805 20.9489 46.2672 20.8182C43.2982 20.6651 40.8417 23.0794 40.8417 26.0775C40.8417 27.3501 41.2823 28.5142 42.0199 29.4232C42.5137 30.0323 42.0887 30.9509 41.3136 30.9509L31.0031 30.9509L31.0031 41.7056C31.0031 42.5316 31.9595 42.9367 32.5564 42.3785C33.4753 41.5174 34.6973 40.9911 36.0443 40.9911C39.0883 40.9911 41.5167 43.6798 41.1729 46.8565C40.9073 49.2836 38.979 51.2355 36.6037 51.4938Z" fill="#E1BEE7" stroke="#4A148C" stroke-width="2" stroke-miterlimit="10"/>
</svg>
