<svg width="56" height="64" viewBox="0 0 56 64" fill="none" xmlns="http://www.w3.org/2000/svg">
<mask id="path-1-inside-1" fill="white">
<path fill-rule="evenodd" clip-rule="evenodd" d="M43.0712 63.7929C46.3849 63.7929 49.0712 61.1066 49.0712 57.7929L49.0712 6.00001C49.0712 2.6863 46.3849 1.12092e-05 43.0712 1.09196e-05L20.3404 8.93237e-06L0.0873375 20.3442L0.0873342 57.7929C0.0873339 61.1066 2.77362 63.7929 6.08733 63.7929L43.0712 63.7929Z"/>
</mask>
<path fill-rule="evenodd" clip-rule="evenodd" d="M43.0712 63.7929C46.3849 63.7929 49.0712 61.1066 49.0712 57.7929L49.0712 6.00001C49.0712 2.6863 46.3849 1.12092e-05 43.0712 1.09196e-05L20.3404 8.93237e-06L0.0873375 20.3442L0.0873342 57.7929C0.0873339 61.1066 2.77362 63.7929 6.08733 63.7929L43.0712 63.7929Z" fill="#E1BEE7"/>
<path d="M49.0712 57.7929L47.0712 57.7929L49.0712 57.7929ZM43.0712 63.7929L43.0712 65.7929L43.0712 63.7929ZM49.0712 6.00001L51.0712 6.00001L49.0712 6.00001ZM20.3404 8.93237e-06L20.3404 -1.99999L19.5093 -1.99999L18.923 -1.41103L20.3404 8.93237e-06ZM0.0873375 20.3442L-1.33005 18.9332L-1.91266 19.5184L-1.91266 20.3442L0.0873375 20.3442ZM0.0873342 57.7929L2.08733 57.7929L0.0873342 57.7929ZM6.08733 63.7929L6.08733 61.7929L6.08733 63.7929ZM47.0712 57.7929C47.0712 60.002 45.2803 61.7929 43.0712 61.7929L43.0712 65.7929C47.4894 65.7929 51.0712 62.2112 51.0712 57.7929L47.0712 57.7929ZM47.0712 6.00001L47.0712 57.7929L51.0712 57.7929L51.0712 6.00001L47.0712 6.00001ZM43.0712 2.00001C45.2803 2.00001 47.0712 3.79087 47.0712 6.00001L51.0712 6.00001C51.0712 1.58173 47.4895 -1.99999 43.0712 -1.99999L43.0712 2.00001ZM20.3404 2.00001L43.0712 2.00001L43.0712 -1.99999L20.3404 -1.99999L20.3404 2.00001ZM18.923 -1.41103L-1.33005 18.9332L1.50472 21.7552L21.7578 1.41104L18.923 -1.41103ZM2.08733 57.7929L2.08734 20.3442L-1.91266 20.3442L-1.91267 57.7929L2.08733 57.7929ZM6.08733 61.7929C3.87819 61.7929 2.08733 60.002 2.08733 57.7929L-1.91267 57.7929C-1.91267 62.2112 1.66905 65.7929 6.08733 65.7929L6.08733 61.7929ZM43.0712 61.7929L6.08733 61.7929L6.08733 65.7929L43.0712 65.7929L43.0712 61.7929Z" fill="#4A148C" mask="url(#path-1-inside-1)"/>
<rect x="10" y="34.9999" width="6" height="14" rx="1" fill="#E1BEE7" stroke="#4A148C" stroke-width="2"/>
<rect x="22" y="27.9999" width="6" height="21" rx="1" fill="#E1BEE7" stroke="#4A148C" stroke-width="2"/>
<rect x="34" y="19.9999" width="6" height="29" rx="1" fill="#E1BEE7" stroke="#4A148C" stroke-width="2"/>
<path d="M16.5049 19.505L2.41424 19.505L19.5049 2.41436L19.5049 16.505C19.5049 18.1619 18.1617 19.505 16.5049 19.505Z" fill="#E1BEE7" stroke="#4A148C" stroke-width="2"/>
<rect x="29" y="31" width="26" height="18" rx="3" fill="#E1BEE7" stroke="#4A148C" stroke-width="2"/>
<path d="M33.4 44.06C33.2067 44.06 33.05 44.0033 32.93 43.89C32.8167 43.77 32.76 43.61 32.76 43.41V37.56C32.76 37.3667 32.8133 37.2167 32.92 37.11C33.0333 37.0033 33.1867 36.95 33.38 36.95H35.84C36.5933 36.95 37.18 37.14 37.6 37.52C38.02 37.8933 38.23 38.42 38.23 39.1C38.23 39.78 38.02 40.31 37.6 40.69C37.18 41.07 36.5933 41.26 35.84 41.26H34.05V43.41C34.05 43.61 33.99 43.77 33.87 43.89C33.7567 44.0033 33.6 44.06 33.4 44.06ZM35.68 40.27C36.5667 40.27 37.01 39.8833 37.01 39.11C37.01 38.3367 36.5667 37.95 35.68 37.95H34.05V40.27H35.68ZM40.0016 44.06C39.8082 44.06 39.6516 44.0033 39.5316 43.89C39.4182 43.77 39.3616 43.61 39.3616 43.41V37.56C39.3616 37.3667 39.4149 37.2167 39.5216 37.11C39.6349 37.0033 39.7882 36.95 39.9816 36.95H42.4416C43.1949 36.95 43.7816 37.14 44.2016 37.52C44.6216 37.8933 44.8316 38.42 44.8316 39.1C44.8316 39.78 44.6216 40.31 44.2016 40.69C43.7816 41.07 43.1949 41.26 42.4416 41.26H40.6516V43.41C40.6516 43.61 40.5916 43.77 40.4716 43.89C40.3582 44.0033 40.2016 44.06 40.0016 44.06ZM42.2816 40.27C43.1682 40.27 43.6116 39.8833 43.6116 39.11C43.6116 38.3367 43.1682 37.95 42.2816 37.95H40.6516V40.27H42.2816ZM48.1071 44.05C47.9071 44.05 47.7471 43.9933 47.6271 43.88C47.5138 43.76 47.4571 43.6033 47.4571 43.41V38.01H45.6371C45.2371 38.01 45.0371 37.8333 45.0371 37.48C45.0371 37.1267 45.2371 36.95 45.6371 36.95H50.5671C50.9671 36.95 51.1671 37.1267 51.1671 37.48C51.1671 37.8333 50.9671 38.01 50.5671 38.01H48.7471V43.41C48.7471 43.6033 48.6871 43.76 48.5671 43.88C48.4538 43.9933 48.3004 44.05 48.1071 44.05Z" fill="#4A148C"/>
</svg>
