<svg width="71" height="58" viewBox="0 0 71 58" fill="none" xmlns="http://www.w3.org/2000/svg">
<path d="M44.134 28.5C44.5189 27.8333 45.4811 27.8333 45.866 28.5L56.2583 46.5C56.6432 47.1667 56.1621 48 55.3923 48H34.6077C33.8379 48 33.3568 47.1667 33.7417 46.5L44.134 28.5Z" fill="#E1BEE7" stroke="#4A148C" stroke-width="2" stroke-linecap="round" stroke-linejoin="round"/>
<rect x="20" y="1" width="50" height="38" rx="7" fill="#E1BEE7" stroke="#4A148C" stroke-width="2"/>
<mask id="path-3-inside-1" fill="white">
<path fill-rule="evenodd" clip-rule="evenodd" d="M45.0488 41.5999H44.9512C44.9674 41.5999 44.9837 41.6 45 41.6C45.0163 41.6 45.0326 41.5999 45.0488 41.5999ZM57 29.5999C56.9999 22.9725 51.6274 17.6 45 17.6C38.3726 17.6 33.0001 22.9725 33 29.5999H57Z"/>
</mask>
<path fill-rule="evenodd" clip-rule="evenodd" d="M45.0488 41.5999H44.9512C44.9674 41.5999 44.9837 41.6 45 41.6C45.0163 41.6 45.0326 41.5999 45.0488 41.5999ZM57 29.5999C56.9999 22.9725 51.6274 17.6 45 17.6C38.3726 17.6 33.0001 22.9725 33 29.5999H57Z" fill="#E1BEE7"/>
<path d="M45.0488 41.5999L45.0568 43.5999L45.0488 39.5999V41.5999ZM44.9512 41.5999V39.5999L44.9432 43.5999L44.9512 41.5999ZM57 29.5999V31.5999H59L59 29.5999L57 29.5999ZM33 29.5999L31 29.5999L31 31.5999H33V29.5999ZM45.0488 39.5999H44.9512V43.5999H45.0488V39.5999ZM45 39.6C44.9864 39.6 44.9727 39.5999 44.9591 39.5999L44.9432 43.5999C44.9621 43.5999 44.9811 43.6 45 43.6V39.6ZM45.0409 39.5999C45.0273 39.5999 45.0136 39.6 45 39.6V43.6C45.0189 43.6 45.0379 43.5999 45.0568 43.5999L45.0409 39.5999ZM45 19.6C50.5228 19.6 55 24.0771 55 29.5999L59 29.5999C58.9999 21.8679 52.7319 15.6 45 15.6V19.6ZM35 29.5999C35 24.0771 39.4772 19.6 45 19.6V15.6C37.2681 15.6 31.0001 21.8679 31 29.5999L35 29.5999ZM33 31.5999H57V27.5999H33V31.5999Z" fill="#4A148C" mask="url(#path-3-inside-1)"/>
<circle cx="45" cy="12.8" r="6.8" fill="#E1BEE7" stroke="#4A148C" stroke-width="2"/>
<path d="M70 29H19.5" stroke="#4A148C" stroke-width="2"/>
<mask id="path-7-inside-2" fill="white">
<path fill-rule="evenodd" clip-rule="evenodd" d="M40 58C40 46.9543 31.0457 38 20 38C8.9543 38 0 46.9543 0 58H40Z"/>
</mask>
<path fill-rule="evenodd" clip-rule="evenodd" d="M40 58C40 46.9543 31.0457 38 20 38C8.9543 38 0 46.9543 0 58H40Z" fill="#E1BEE7"/>
<path d="M40 58V60H42V58H40ZM0 58H-2V60H0V58ZM20 40C29.9411 40 38 48.0589 38 58H42C42 45.8497 32.1503 36 20 36V40ZM2 58C2 48.0589 10.0589 40 20 40V36C7.84974 36 -2 45.8497 -2 58H2ZM0 60H40V56H0V60Z" fill="#4A148C" mask="url(#path-7-inside-2)"/>
<circle cx="20" cy="30" r="12" fill="#E1BEE7" stroke="#4A148C" stroke-width="2"/>
<circle cx="45" cy="34" r="2" fill="#E1BEE7" stroke="#4A148C" stroke-width="2"/>
</svg>
