<svg width="67" height="64" viewBox="0 0 67 64" fill="none" xmlns="http://www.w3.org/2000/svg">
<mask id="path-1-inside-1" fill="white">
<path fill-rule="evenodd" clip-rule="evenodd" d="M6 0C2.68629 0 0 2.6863 0 6.00001V57.7929C0 61.1066 2.68629 63.7929 5.99999 63.7929H28.6436L48.9838 43.3611V6C48.9838 2.68629 46.2975 0 42.9838 0H6Z"/>
</mask>
<path fill-rule="evenodd" clip-rule="evenodd" d="M6 0C2.68629 0 0 2.6863 0 6.00001V57.7929C0 61.1066 2.68629 63.7929 5.99999 63.7929H28.6436L48.9838 43.3611V6C48.9838 2.68629 46.2975 0 42.9838 0H6Z" fill="#C5CAE9"/>
<path d="M28.6436 63.7929V65.7929H29.4746L30.061 65.2039L28.6436 63.7929ZM48.9838 43.3611L50.4012 44.7722L50.9838 44.1869V43.3611H48.9838ZM2 6.00001C2 3.79086 3.79086 2 6 2V-2C1.58172 -2 -2 1.58173 -2 6.00001H2ZM2 57.7929V6.00001H-2V57.7929H2ZM5.99999 61.7929C3.79086 61.7929 2 60.002 2 57.7929H-2C-2 62.2112 1.58171 65.7929 5.99999 65.7929V61.7929ZM28.6436 61.7929H5.99999V65.7929H28.6436V61.7929ZM30.061 65.2039L50.4012 44.7722L47.5664 41.9501L27.2262 62.3819L30.061 65.2039ZM46.9838 6V43.3611H50.9838V6H46.9838ZM42.9838 2C45.193 2 46.9838 3.79086 46.9838 6H50.9838C50.9838 1.58172 47.4021 -2 42.9838 -2V2ZM6 2H42.9838V-2H6V2Z" fill="#1A237E" mask="url(#path-1-inside-1)"/>
<rect x="8.97388" y="9.99989" width="9.39159" height="9.39159" rx="1" fill="#C5CAE9" stroke="#1A237E" stroke-width="2"/>
<rect x="8.97388" y="44.2873" width="9.39159" height="9.39159" rx="1" fill="#C5CAE9" stroke="#1A237E" stroke-width="2"/>
<path d="M26.2005 10.8217H41.0096" stroke="#1A237E" stroke-width="2" stroke-linecap="round"/>
<path d="M26.2005 27.9088H41.0096" stroke="#1A237E" stroke-width="2" stroke-linecap="round"/>
<path d="M26.2005 18.7958H41.0096" stroke="#1A237E" stroke-width="2" stroke-linecap="round"/>
<path d="M26.2005 35.8829H41.0096" stroke="#1A237E" stroke-width="2" stroke-linecap="round"/>
<path d="M32.4791 44.2879H46.5698L29.4791 61.3785V47.2879C29.4791 45.631 30.8223 44.2879 32.4791 44.2879Z" fill="#C5CAE9" stroke="#1A237E" stroke-width="2"/>
<path d="M9.11328 31.4175L12.151 34.835L18.2266 28" stroke="#1A237E" stroke-width="2" stroke-linecap="round" stroke-linejoin="round"/>
<mask id="path-11-inside-2" fill="white">
<path fill-rule="evenodd" clip-rule="evenodd" d="M54.9132 52.4015L60.6089 63.793L66.3046 52.4015L66.3047 52.4015L66.3047 52.4014L66.3047 4.00022C66.3047 1.79108 64.5138 0.000217281 62.3047 0.000217088L58.9131 0.000216792C56.704 0.000216598 54.9131 1.79107 54.9131 4.00021L54.9131 52.4014L54.9131 52.4015L54.9132 52.4015Z"/>
</mask>
<path fill-rule="evenodd" clip-rule="evenodd" d="M54.9132 52.4015L60.6089 63.793L66.3046 52.4015L66.3047 52.4015L66.3047 52.4014L66.3047 4.00022C66.3047 1.79108 64.5138 0.000217281 62.3047 0.000217088L58.9131 0.000216792C56.704 0.000216598 54.9131 1.79107 54.9131 4.00021L54.9131 52.4014L54.9131 52.4015L54.9132 52.4015Z" fill="#C5CAE9"/>
<path d="M60.6089 63.793L58.82 64.6874L60.6089 68.2651L62.3977 64.6874L60.6089 63.793ZM54.9132 52.4015L56.702 51.5071L56.1492 50.4015L54.9132 50.4015L54.9132 52.4015ZM66.3046 52.4015L66.3046 50.4015L65.0685 50.4015L64.5158 51.5071L66.3046 52.4015ZM66.3047 52.4015L66.3047 54.4015L68.3047 54.4015L68.3047 52.4015L66.3047 52.4015ZM66.3047 52.4014L64.3047 52.4014L66.3047 52.4014ZM54.9131 4.00021L56.9131 4.00021L54.9131 4.00021ZM54.9131 52.4014L52.9131 52.4014L54.9131 52.4014ZM54.9131 52.4015L52.9131 52.4015L52.9131 54.4015L54.9131 54.4015L54.9131 52.4015ZM62.3977 62.8985L56.702 51.5071L53.1243 53.2959L58.82 64.6874L62.3977 62.8985ZM64.5158 51.5071L58.82 62.8985L62.3977 64.6874L68.0935 53.296L64.5158 51.5071ZM66.3047 50.4015L66.3046 50.4015L66.3046 54.4015L66.3047 54.4015L66.3047 50.4015ZM64.3047 52.4014L64.3047 52.4015L68.3047 52.4015L68.3047 52.4014L64.3047 52.4014ZM64.3047 4.00022L64.3047 52.4014L68.3047 52.4014L68.3047 4.00022L64.3047 4.00022ZM62.3047 2.00022C63.4093 2.00022 64.3047 2.89564 64.3047 4.00022L68.3047 4.00022C68.3047 0.686516 65.6184 -1.99979 62.3047 -1.99979L62.3047 2.00022ZM58.9131 2.00022L62.3047 2.00022L62.3047 -1.99979L58.9131 -1.99979L58.9131 2.00022ZM56.9131 4.00021C56.9131 2.89564 57.8085 2.00022 58.9131 2.00022L58.9131 -1.99979C55.5994 -1.99979 52.9131 0.686499 52.9131 4.00021L56.9131 4.00021ZM56.9131 52.4014L56.9131 4.00021L52.9131 4.00021L52.9131 52.4014L56.9131 52.4014ZM56.9131 52.4015L56.9131 52.4014L52.9131 52.4014L52.9131 52.4015L56.9131 52.4015ZM54.9132 50.4015L54.9131 50.4015L54.9131 54.4015L54.9132 54.4015L54.9132 50.4015Z" fill="#1A237E" mask="url(#path-11-inside-2)"/>
<path d="M66.3047 51.2622L54.9131 51.2622" stroke="#1A237E" stroke-width="2"/>
<path d="M66.3047 6.83545L54.9131 6.83545" stroke="#1A237E" stroke-width="2"/>
<path d="M66.3047 11.3916L54.9131 11.3916" stroke="#1A237E" stroke-width="2"/>
</svg>
