<svg width="69" height="65" viewBox="0 0 69 65" fill="none" xmlns="http://www.w3.org/2000/svg">
<mask id="path-1-inside-1" fill="white">
<path fill-rule="evenodd" clip-rule="evenodd" d="M33.2686 64.0419C33.2686 64.0419 33.2686 64.0419 33.2686 64.0419C33.2686 54.855 25.8212 47.4076 16.6343 47.4076C7.44743 47.4076 0 54.855 0 64.0419C0 64.0419 0 64.0419 0 64.0419H33.2686Z"/>
</mask>
<path fill-rule="evenodd" clip-rule="evenodd" d="M33.2686 64.0419C33.2686 64.0419 33.2686 64.0419 33.2686 64.0419C33.2686 54.855 25.8212 47.4076 16.6343 47.4076C7.44743 47.4076 0 54.855 0 64.0419C0 64.0419 0 64.0419 0 64.0419H33.2686Z" fill="#B3E5FC"/>
<path d="M33.2686 64.0419V66.0419H35.2686V64.0419H33.2686ZM0 64.0419H-2V66.0419H0V64.0419ZM31.2686 64.0419V64.0419V64.0419V64.0419V64.0419V64.0419C31.2686 64.0419 31.2686 64.0419 31.2686 64.0419C31.2686 64.0419 31.2686 64.0419 31.2686 64.0419C31.2686 64.0419 31.2686 64.0419 31.2686 64.0419C31.2686 64.0419 31.2686 64.0419 31.2686 64.0419C31.2686 64.0419 31.2686 64.0419 31.2686 64.0419C31.2686 64.0419 31.2686 64.0419 31.2686 64.0419C31.2686 64.0419 31.2686 64.0419 31.2686 64.0419C31.2686 64.0419 31.2686 64.0419 31.2686 64.0419C31.2686 64.0419 31.2686 64.0419 31.2686 64.0419C31.2686 64.0419 31.2686 64.0419 31.2686 64.0419C31.2686 64.0419 31.2686 64.0419 31.2686 64.0419C31.2686 64.0419 31.2686 64.0419 31.2686 64.0419C31.2686 64.0419 31.2686 64.0419 31.2686 64.0419C31.2686 64.0419 31.2686 64.0419 31.2686 64.0419C31.2686 64.0419 31.2686 64.0419 31.2686 64.0419C31.2686 64.0419 31.2686 64.0419 31.2686 64.0419C31.2686 64.0419 31.2686 64.0419 31.2686 64.0419C31.2686 64.0419 31.2686 64.0419 31.2686 64.0419V64.0419V64.0419V64.0419V64.0419H35.2686V64.0419V64.0419V64.0419V64.0419C35.2686 64.0419 35.2686 64.0419 35.2686 64.0419C35.2686 64.0419 35.2686 64.0419 35.2686 64.0419C35.2686 64.0419 35.2686 64.0419 35.2686 64.0419C35.2686 64.0419 35.2686 64.0419 35.2686 64.0419C35.2686 64.0419 35.2686 64.0419 35.2686 64.0419C35.2686 64.0419 35.2686 64.0419 35.2686 64.0419C35.2686 64.0419 35.2686 64.0419 35.2686 64.0419C35.2686 64.0419 35.2686 64.0419 35.2686 64.0419C35.2686 64.0419 35.2686 64.0419 35.2686 64.0419C35.2686 64.0419 35.2686 64.0419 35.2686 64.0419C35.2686 64.0419 35.2686 64.0419 35.2686 64.0419C35.2686 64.0419 35.2686 64.0419 35.2686 64.0419C35.2686 64.0419 35.2686 64.0419 35.2686 64.0419C35.2686 64.0419 35.2686 64.0419 35.2686 64.0419C35.2686 64.0419 35.2686 64.0419 35.2686 64.0419C35.2686 64.0419 35.2686 64.0419 35.2686 64.0419C35.2686 64.0419 35.2686 64.0419 35.2686 64.0419C35.2686 64.0419 35.2686 64.0419 35.2686 64.0419V64.0419V64.0419V64.0419V64.0419V64.0419H31.2686ZM16.6343 49.4076C24.7166 49.4076 31.2686 55.9596 31.2686 64.0419H35.2686C35.2686 53.7505 26.9257 45.4076 16.6343 45.4076V49.4076ZM2 64.0419C2 55.9596 8.552 49.4076 16.6343 49.4076V45.4076C6.34286 45.4076 -2 53.7505 -2 64.0419H2ZM2 64.0419V64.0419V64.0419V64.0419V64.0419C2 64.0419 2 64.0419 2 64.0419C2 64.0419 2 64.0419 2 64.0419C2 64.0419 2 64.0419 2 64.0419C2 64.0419 2 64.0419 2 64.0419C2 64.0419 2 64.0419 2 64.0419C2 64.0419 2 64.0419 2 64.0419C2 64.0419 2 64.0419 2 64.0419C2 64.0419 2 64.0419 2 64.0419C2 64.0419 2 64.0419 2 64.0419C2 64.0419 2 64.0419 2 64.0419C2 64.0419 2 64.0419 2 64.0419C2 64.0419 2 64.0419 2 64.0419C2 64.0419 2 64.0419 2 64.0419C2 64.0419 2 64.0419 2 64.0419C2 64.0419 2 64.0419 2 64.0419C2 64.0419 2 64.0419 2 64.0419C2 64.0419 2 64.0419 2 64.0419C2 64.0419 2 64.0419 2 64.0419V64.0419V64.0419V64.0419V64.0419V64.0419H-2V64.0419V64.0419V64.0419V64.0419V64.0419C-2 64.0419 -2 64.0419 -2 64.0419C-2 64.0419 -2 64.0419 -2 64.0419C-2 64.0419 -2 64.0419 -2 64.0419C-2 64.0419 -2 64.0419 -2 64.0419C-2 64.0419 -2 64.0419 -2 64.0419C-2 64.0419 -2 64.0419 -2 64.0419C-2 64.0419 -2 64.0419 -2 64.0419C-2 64.0419 -2 64.0419 -2 64.0419C-2 64.0419 -2 64.0419 -2 64.0419C-2 64.0419 -2 64.0419 -2 64.0419C-2 64.0419 -2 64.0419 -2 64.0419C-2 64.0419 -2 64.0419 -2 64.0419C-2 64.0419 -2 64.0419 -2 64.0419C-2 64.0419 -2 64.0419 -2 64.0419C-2 64.0419 -2 64.0419 -2 64.0419C-2 64.0419 -2 64.0419 -2 64.0419C-2 64.0419 -2 64.0419 -2 64.0419C-2 64.0419 -2 64.0419 -2 64.0419V64.0419V64.0419V64.0419V64.0419H2ZM0 66.0419H33.2686V62.0419H0V66.0419Z" fill="#01579B" mask="url(#path-1-inside-1)"/>
<circle cx="16.6343" cy="40.7539" r="9.8123" fill="#B3E5FC" stroke="#01579B" stroke-width="2"/>
<mask id="path-4-inside-2" fill="white">
<path fill-rule="evenodd" clip-rule="evenodd" d="M67.3692 34.1005C67.3692 34.1004 67.3692 34.1004 67.3692 34.1003C67.3692 24.9134 59.9218 17.466 50.7349 17.466C41.548 17.466 34.1006 24.9134 34.1006 34.1003C34.1006 34.1295 34.1007 34.1587 34.1008 34.1879V34.1005H67.3692Z"/>
</mask>
<path fill-rule="evenodd" clip-rule="evenodd" d="M67.3692 34.1005C67.3692 34.1004 67.3692 34.1004 67.3692 34.1003C67.3692 24.9134 59.9218 17.466 50.7349 17.466C41.548 17.466 34.1006 24.9134 34.1006 34.1003C34.1006 34.1295 34.1007 34.1587 34.1008 34.1879V34.1005H67.3692Z" fill="#B3E5FC"/>
<path d="M67.3692 34.1005V36.1005H69.3692V34.1005H67.3692ZM34.1008 34.1879L32.1008 34.1983L36.1008 34.1879H34.1008ZM34.1008 34.1005V32.1005H32.1008V34.1005H34.1008ZM65.3692 34.1003V34.1003C65.3692 34.1003 65.3692 34.1003 65.3692 34.1003C65.3692 34.1003 65.3692 34.1003 65.3692 34.1003C65.3692 34.1003 65.3692 34.1003 65.3692 34.1003C65.3692 34.1003 65.3692 34.1003 65.3692 34.1003C65.3692 34.1003 65.3692 34.1003 65.3692 34.1003C65.3692 34.1003 65.3692 34.1003 65.3692 34.1003V34.1003V34.1003V34.1003V34.1003C65.3692 34.1003 65.3692 34.1003 65.3692 34.1003C65.3692 34.1003 65.3692 34.1003 65.3692 34.1003C65.3692 34.1003 65.3692 34.1003 65.3692 34.1003C65.3692 34.1003 65.3692 34.1003 65.3692 34.1003C65.3692 34.1003 65.3692 34.1003 65.3692 34.1003C65.3692 34.1003 65.3692 34.1003 65.3692 34.1003C65.3692 34.1003 65.3692 34.1003 65.3692 34.1003V34.1003V34.1003V34.1003V34.1003C65.3692 34.1004 65.3692 34.1004 65.3692 34.1004C65.3692 34.1004 65.3692 34.1004 65.3692 34.1004C65.3692 34.1004 65.3692 34.1004 65.3692 34.1004C65.3692 34.1004 65.3692 34.1004 65.3692 34.1004C65.3692 34.1004 65.3692 34.1004 65.3692 34.1004C65.3692 34.1004 65.3692 34.1004 65.3692 34.1004C65.3692 34.1004 65.3692 34.1004 65.3692 34.1004C65.3692 34.1004 65.3692 34.1004 65.3692 34.1004C65.3692 34.1004 65.3692 34.1004 65.3692 34.1004V34.1004V34.1004V34.1004V34.1004V34.1004V34.1004C65.3692 34.1004 65.3692 34.1004 65.3692 34.1004C65.3692 34.1004 65.3692 34.1004 65.3692 34.1004C65.3692 34.1004 65.3692 34.1004 65.3692 34.1004C65.3692 34.1004 65.3692 34.1004 65.3692 34.1004C65.3692 34.1004 65.3692 34.1004 65.3692 34.1004C65.3692 34.1004 65.3692 34.1004 65.3692 34.1004C65.3692 34.1004 65.3692 34.1004 65.3692 34.1004C65.3692 34.1004 65.3692 34.1004 65.3692 34.1004C65.3692 34.1004 65.3692 34.1004 65.3692 34.1004C65.3692 34.1004 65.3692 34.1004 65.3692 34.1004C65.3692 34.1004 65.3692 34.1004 65.3692 34.1004C65.3692 34.1004 65.3692 34.1004 65.3692 34.1004V34.1004V34.1004V34.1004V34.1004V34.1004V34.1004C65.3692 34.1004 65.3692 34.1004 65.3692 34.1004C65.3692 34.1004 65.3692 34.1004 65.3692 34.1004C65.3692 34.1004 65.3692 34.1004 65.3692 34.1004C65.3692 34.1004 65.3692 34.1004 65.3692 34.1004C65.3692 34.1004 65.3692 34.1004 65.3692 34.1004C65.3692 34.1004 65.3692 34.1004 65.3692 34.1004C65.3692 34.1004 65.3692 34.1004 65.3692 34.1004C65.3692 34.1004 65.3692 34.1004 65.3692 34.1004C65.3692 34.1004 65.3692 34.1004 65.3692 34.1004C65.3692 34.1004 65.3692 34.1004 65.3692 34.1004C65.3692 34.1004 65.3692 34.1004 65.3692 34.1004C65.3692 34.1004 65.3692 34.1004 65.3692 34.1004V34.1004V34.1004V34.1004V34.1004V34.1004V34.1004C65.3692 34.1004 65.3692 34.1004 65.3692 34.1004C65.3692 34.1005 65.3692 34.1005 65.3692 34.1005C65.3692 34.1005 65.3692 34.1005 65.3692 34.1005C65.3692 34.1005 65.3692 34.1005 65.3692 34.1005C65.3692 34.1005 65.3692 34.1005 65.3692 34.1005C65.3692 34.1005 65.3692 34.1005 65.3692 34.1005C65.3692 34.1005 65.3692 34.1005 65.3692 34.1005C65.3692 34.1005 65.3692 34.1005 65.3692 34.1005C65.3692 34.1005 65.3692 34.1005 65.3692 34.1005V34.1005V34.1005V34.1005V34.1005C65.3692 34.1005 65.3692 34.1005 65.3692 34.1005C65.3692 34.1005 65.3692 34.1005 65.3692 34.1005C65.3692 34.1005 65.3692 34.1005 65.3692 34.1005C65.3692 34.1005 65.3692 34.1005 65.3692 34.1005C65.3692 34.1005 65.3692 34.1005 65.3692 34.1005C65.3692 34.1005 65.3692 34.1005 65.3692 34.1005C65.3692 34.1005 65.3692 34.1005 65.3692 34.1005V34.1005V34.1005V34.1005V34.1005C65.3692 34.1005 65.3692 34.1005 65.3692 34.1005C65.3692 34.1005 65.3692 34.1005 65.3692 34.1005C65.3692 34.1005 65.3692 34.1005 65.3692 34.1005C65.3692 34.1005 65.3692 34.1005 65.3692 34.1005C65.3692 34.1005 65.3692 34.1005 65.3692 34.1005C65.3692 34.1005 65.3692 34.1005 65.3692 34.1005V34.1005H69.3692V34.1005C69.3692 34.1005 69.3692 34.1005 69.3692 34.1005C69.3692 34.1005 69.3692 34.1005 69.3692 34.1005C69.3692 34.1005 69.3692 34.1005 69.3692 34.1005C69.3692 34.1005 69.3692 34.1005 69.3692 34.1005C69.3692 34.1005 69.3692 34.1005 69.3692 34.1005C69.3692 34.1005 69.3692 34.1005 69.3692 34.1005V34.1005V34.1005V34.1005V34.1005C69.3692 34.1005 69.3692 34.1005 69.3692 34.1005C69.3692 34.1005 69.3692 34.1005 69.3692 34.1005C69.3692 34.1005 69.3692 34.1005 69.3692 34.1005C69.3692 34.1005 69.3692 34.1005 69.3692 34.1005C69.3692 34.1005 69.3692 34.1005 69.3692 34.1005C69.3692 34.1005 69.3692 34.1005 69.3692 34.1005C69.3692 34.1005 69.3692 34.1005 69.3692 34.1005V34.1005V34.1005V34.1005V34.1005C69.3692 34.1005 69.3692 34.1005 69.3692 34.1005C69.3692 34.1005 69.3692 34.1005 69.3692 34.1005C69.3692 34.1005 69.3692 34.1005 69.3692 34.1005C69.3692 34.1005 69.3692 34.1005 69.3692 34.1005C69.3692 34.1005 69.3692 34.1005 69.3692 34.1005C69.3692 34.1005 69.3692 34.1005 69.3692 34.1005C69.3692 34.1005 69.3692 34.1005 69.3692 34.1005C69.3692 34.1005 69.3692 34.1005 69.3692 34.1004C69.3692 34.1004 69.3692 34.1004 69.3692 34.1004V34.1004V34.1004V34.1004V34.1004V34.1004V34.1004C69.3692 34.1004 69.3692 34.1004 69.3692 34.1004C69.3692 34.1004 69.3692 34.1004 69.3692 34.1004C69.3692 34.1004 69.3692 34.1004 69.3692 34.1004C69.3692 34.1004 69.3692 34.1004 69.3692 34.1004C69.3692 34.1004 69.3692 34.1004 69.3692 34.1004C69.3692 34.1004 69.3692 34.1004 69.3692 34.1004C69.3692 34.1004 69.3692 34.1004 69.3692 34.1004C69.3692 34.1004 69.3692 34.1004 69.3692 34.1004C69.3692 34.1004 69.3692 34.1004 69.3692 34.1004C69.3692 34.1004 69.3692 34.1004 69.3692 34.1004C69.3692 34.1004 69.3692 34.1004 69.3692 34.1004C69.3692 34.1004 69.3692 34.1004 69.3692 34.1004V34.1004V34.1004V34.1004V34.1004V34.1004V34.1004C69.3692 34.1004 69.3692 34.1004 69.3692 34.1004C69.3692 34.1004 69.3692 34.1004 69.3692 34.1004C69.3692 34.1004 69.3692 34.1004 69.3692 34.1004C69.3692 34.1004 69.3692 34.1004 69.3692 34.1004C69.3692 34.1004 69.3692 34.1004 69.3692 34.1004C69.3692 34.1004 69.3692 34.1004 69.3692 34.1004C69.3692 34.1004 69.3692 34.1004 69.3692 34.1004C69.3692 34.1004 69.3692 34.1004 69.3692 34.1004C69.3692 34.1004 69.3692 34.1004 69.3692 34.1004C69.3692 34.1004 69.3692 34.1004 69.3692 34.1004C69.3692 34.1004 69.3692 34.1004 69.3692 34.1004C69.3692 34.1004 69.3692 34.1004 69.3692 34.1004V34.1004V34.1004V34.1004V34.1004V34.1004V34.1004C69.3692 34.1004 69.3692 34.1004 69.3692 34.1004C69.3692 34.1004 69.3692 34.1004 69.3692 34.1004C69.3692 34.1004 69.3692 34.1004 69.3692 34.1004C69.3692 34.1004 69.3692 34.1004 69.3692 34.1004C69.3692 34.1004 69.3692 34.1004 69.3692 34.1004C69.3692 34.1004 69.3692 34.1004 69.3692 34.1004C69.3692 34.1004 69.3692 34.1004 69.3692 34.1004C69.3692 34.1004 69.3692 34.1004 69.3692 34.1004C69.3692 34.1004 69.3692 34.1004 69.3692 34.1003V34.1003V34.1003V34.1003V34.1003C69.3692 34.1003 69.3692 34.1003 69.3692 34.1003C69.3692 34.1003 69.3692 34.1003 69.3692 34.1003C69.3692 34.1003 69.3692 34.1003 69.3692 34.1003C69.3692 34.1003 69.3692 34.1003 69.3692 34.1003C69.3692 34.1003 69.3692 34.1003 69.3692 34.1003C69.3692 34.1003 69.3692 34.1003 69.3692 34.1003C69.3692 34.1003 69.3692 34.1003 69.3692 34.1003V34.1003V34.1003V34.1003V34.1003C69.3692 34.1003 69.3692 34.1003 69.3692 34.1003C69.3692 34.1003 69.3692 34.1003 69.3692 34.1003C69.3692 34.1003 69.3692 34.1003 69.3692 34.1003C69.3692 34.1003 69.3692 34.1003 69.3692 34.1003C69.3692 34.1003 69.3692 34.1003 69.3692 34.1003C69.3692 34.1003 69.3692 34.1003 69.3692 34.1003V34.1003H65.3692ZM50.7349 19.466C58.8172 19.466 65.3692 26.018 65.3692 34.1003H69.3692C69.3692 23.8089 61.0263 15.466 50.7349 15.466V19.466ZM36.1006 34.1003C36.1006 26.018 42.6526 19.466 50.7349 19.466V15.466C40.4434 15.466 32.1006 23.8089 32.1006 34.1003H36.1006ZM36.1008 34.1776C36.1007 34.1519 36.1006 34.1261 36.1006 34.1003H32.1006C32.1006 34.133 32.1007 34.1656 32.1008 34.1983L36.1008 34.1776ZM36.1008 34.1879V34.1005H32.1008V34.1879H36.1008ZM34.1008 36.1005H67.3692V32.1005H34.1008V36.1005Z" fill="#01579B" mask="url(#path-4-inside-2)"/>
<circle cx="50.7349" cy="10.8123" r="9.8123" fill="#B3E5FC" stroke="#01579B" stroke-width="2"/>
<mask id="path-7-inside-3" fill="white">
<path fill-rule="evenodd" clip-rule="evenodd" d="M8.83167 0C4.41339 0 0.831665 3.58172 0.831665 8V11.9612C0.831665 16.3794 4.41338 19.9612 8.83166 19.9612H17.8411L24.0001 27V19.8677C27.8361 19.2774 30.7734 15.9623 30.7734 11.9612V8C30.7734 3.58172 27.1917 0 22.7734 0H8.83167Z"/>
</mask>
<path fill-rule="evenodd" clip-rule="evenodd" d="M8.83167 0C4.41339 0 0.831665 3.58172 0.831665 8V11.9612C0.831665 16.3794 4.41338 19.9612 8.83166 19.9612H17.8411L24.0001 27V19.8677C27.8361 19.2774 30.7734 15.9623 30.7734 11.9612V8C30.7734 3.58172 27.1917 0 22.7734 0H8.83167Z" fill="#B3E5FC"/>
<path d="M17.8411 19.9612L19.3463 18.6442L18.7487 17.9612H17.8411V19.9612ZM24.0001 27L22.495 28.317L26.0001 32.3229V27H24.0001ZM24.0001 19.8677L23.6959 17.891L22.0001 18.1519V19.8677H24.0001ZM2.83167 8C2.83167 4.68629 5.51796 2 8.83167 2V-2C3.30882 -2 -1.16833 2.47715 -1.16833 8H2.83167ZM2.83167 11.9612V8H-1.16833V11.9612H2.83167ZM8.83166 17.9612C5.51795 17.9612 2.83167 15.2749 2.83167 11.9612H-1.16833C-1.16833 17.484 3.30881 21.9612 8.83166 21.9612V17.9612ZM17.8411 17.9612H8.83166V21.9612H17.8411V17.9612ZM25.5053 25.683L19.3463 18.6442L16.336 21.2782L22.495 28.317L25.5053 25.683ZM22.0001 19.8677V27H26.0001V19.8677H22.0001ZM28.7734 11.9612C28.7734 14.9602 26.5712 17.4485 23.6959 17.891L24.3043 21.8444C29.101 21.1063 32.7734 16.9644 32.7734 11.9612H28.7734ZM28.7734 8V11.9612H32.7734V8H28.7734ZM22.7734 2C26.0871 2 28.7734 4.68629 28.7734 8H32.7734C32.7734 2.47715 28.2963 -2 22.7734 -2V2ZM8.83167 2H22.7734V-2H8.83167V2Z" fill="#01579B" mask="url(#path-7-inside-3)"/>
<mask id="path-9-inside-4" fill="white">
<path fill-rule="evenodd" clip-rule="evenodd" d="M60.2007 64.25C64.619 64.25 68.2007 60.6683 68.2007 56.25L68.2007 52.2888C68.2007 47.8706 64.619 44.2888 60.2007 44.2888L51.3777 44.2888L45 37L45 44.3873C41.1798 44.9912 38.2589 48.2989 38.2589 52.2888L38.2589 56.25C38.2589 60.6683 41.8407 64.25 46.2589 64.25L60.2007 64.25Z"/>
</mask>
<path fill-rule="evenodd" clip-rule="evenodd" d="M60.2007 64.25C64.619 64.25 68.2007 60.6683 68.2007 56.25L68.2007 52.2888C68.2007 47.8706 64.619 44.2888 60.2007 44.2888L51.3777 44.2888L45 37L45 44.3873C41.1798 44.9912 38.2589 48.2989 38.2589 52.2888L38.2589 56.25C38.2589 60.6683 41.8407 64.25 46.2589 64.25L60.2007 64.25Z" fill="#B3E5FC"/>
<path d="M60.2007 44.2888L60.2007 46.2888L60.2007 44.2888ZM51.3777 44.2888L49.8726 45.6058L50.4702 46.2888L51.3777 46.2888L51.3777 44.2888ZM45 37L46.5052 35.683L43 31.6771L43 37L45 37ZM45 44.3873L45.3123 46.3628L47 46.096L47 44.3873L45 44.3873ZM38.2589 52.2888L36.2589 52.2888L38.2589 52.2888ZM38.2589 56.25L40.2589 56.25L38.2589 56.25ZM66.2007 56.25C66.2007 59.5637 63.5144 62.25 60.2007 62.25L60.2007 66.25C65.7235 66.25 70.2007 61.7728 70.2007 56.25L66.2007 56.25ZM66.2007 52.2888L66.2007 56.25L70.2007 56.25L70.2007 52.2888L66.2007 52.2888ZM60.2007 46.2888C63.5144 46.2888 66.2007 48.9751 66.2007 52.2888L70.2007 52.2888C70.2007 46.766 65.7235 42.2888 60.2007 42.2888L60.2007 46.2888ZM51.3777 46.2888L60.2007 46.2888L60.2007 42.2888L51.3777 42.2888L51.3777 46.2888ZM43.4948 38.317L49.8726 45.6058L52.8829 42.9718L46.5052 35.683L43.4948 38.317ZM47 44.3873L47 37L43 37L43 44.3873L47 44.3873ZM40.2589 52.2888C40.2589 49.2983 42.4488 46.8154 45.3123 46.3628L44.6877 42.4119C39.9109 43.1669 36.2589 47.2995 36.2589 52.2888L40.2589 52.2888ZM40.2589 56.25L40.2589 52.2888L36.2589 52.2888L36.2589 56.25L40.2589 56.25ZM46.2589 62.25C42.9452 62.25 40.2589 59.5637 40.2589 56.25L36.2589 56.25C36.2589 61.7728 40.7361 66.25 46.2589 66.25L46.2589 62.25ZM60.2007 62.25L46.2589 62.25L46.2589 66.25L60.2007 66.25L60.2007 62.25Z" fill="#01579B" mask="url(#path-9-inside-4)"/>
<path d="M7.48596 7.82202H24.1203" stroke="#01579B" stroke-width="2" stroke-linecap="round"/>
<path d="M7.48547 13.1394H15.3868" stroke="#01579B" stroke-width="2" stroke-linecap="round"/>
<path d="M44.9126 51.9029H61.5469" stroke="#01579B" stroke-width="2" stroke-linecap="round"/>
<path d="M44.9126 57.0001H52.8139" stroke="#01579B" stroke-width="2" stroke-linecap="round"/>
</svg>
