<svg width="51" height="71" viewBox="0 0 51 71" fill="none" xmlns="http://www.w3.org/2000/svg">
<path d="M46 12.3984H5C2.79086 12.3984 1 14.1893 1 16.3984V65.4512C1 67.6604 2.79086 69.4512 5 69.4512H46C48.2091 69.4512 50 67.6604 50 65.4512V16.3984C50 14.1893 48.2091 12.3984 46 12.3984Z" fill="#B3E5FC" stroke="#01579B" stroke-width="2" stroke-miterlimit="10"/>
<path d="M46 7.75732H5C2.79086 7.75732 1 9.54819 1 11.7573V60.8101C1 63.0192 2.79086 64.8101 5 64.8101H46C48.2091 64.8101 50 63.0192 50 60.8101V11.7573C50 9.54819 48.2091 7.75732 46 7.75732Z" fill="#B3E5FC" stroke="#01579B" stroke-width="2" stroke-miterlimit="10"/>
<path d="M5 7.75732C2.79086 7.75732 1 9.54819 1 11.7573V64.8101H29.2156C32.9122 64.8101 35.9112 61.8111 35.9112 58.1145V7.75732H5Z" fill="#B3E5FC" stroke="#01579B" stroke-width="2" stroke-miterlimit="10"/>
<path d="M35.9112 7.69562C35.9112 3.99903 32.9122 1 29.2156 1V14.3912V51.4236C32.9122 51.4236 35.9112 54.4226 35.9112 58.1192V7.75731H35.9065C35.9065 7.73833 35.9112 7.7146 35.9112 7.69562Z" fill="#B3E5FC" stroke="#01579B" stroke-width="2" stroke-miterlimit="10"/>
<path d="M6.30994 7.75732V64.8101" stroke="#01579B" stroke-width="2" stroke-miterlimit="10"/>
<path d="M35.9111 15.829H42.5735" stroke="#01579B" stroke-width="2" stroke-miterlimit="10"/>
<path d="M35.9111 21.8329H42.5735" stroke="#01579B" stroke-width="2" stroke-miterlimit="10"/>
<path d="M35.9111 27.7852H42.5735" stroke="#01579B" stroke-width="2" stroke-miterlimit="10"/>
<path d="M35.9111 33.7372H42.5735" stroke="#01579B" stroke-width="2" stroke-miterlimit="10"/>
<path d="M35.9111 39.6897H42.5735" stroke="#01579B" stroke-width="2" stroke-miterlimit="10"/>
<path d="M35.9111 45.642H42.5735" stroke="#01579B" stroke-width="2" stroke-miterlimit="10"/>
<path d="M35.9111 51.5944H42.5735" stroke="#01579B" stroke-width="2" stroke-miterlimit="10"/>
<path d="M35.9111 57.5466H42.5735" stroke="#01579B" stroke-width="2" stroke-miterlimit="10"/>
</svg>
