<svg width="66" height="67" viewBox="0 0 66 67" fill="none" xmlns="http://www.w3.org/2000/svg">
<path d="M1 9C1 7.34315 2.34315 6 4 6H44C45.6569 6 47 7.34315 47 9V57C47 58.6569 45.6569 60 44 60H4C2.34315 60 1 58.6569 1 57V9Z" fill="#B3E5FC" stroke="#01579B" stroke-width="2"/>
<path d="M1 4C1 2.34315 2.34315 1 4 1H44C45.6569 1 47 2.34315 47 4V52C47 53.6569 45.6569 55 44 55H1V4Z" fill="#B3E5FC" stroke="#01579B" stroke-width="2"/>
<rect x="29" y="1" width="8" height="54" fill="#B3E5FC" stroke="#01579B" stroke-width="2"/>
<path d="M19.8545 64.7088C19.8545 65.5454 18.8883 66.0122 18.2329 65.4921L13.9281 62.0763L9.62146 65.4926C8.96604 66.0125 8 65.5457 8 64.7091V55H19.8545V64.7088Z" fill="#B3E5FC" stroke="#01579B" stroke-width="2" stroke-miterlimit="10"/>
<mask id="path-5-inside-1" fill="white">
<path fill-rule="evenodd" clip-rule="evenodd" d="M54.0001 52.6086L59.6958 64L65.3915 52.6086L65.3916 52.6086L65.3916 52.6084L65.3916 4.20725C65.3916 1.99811 63.6007 0.207249 61.3916 0.207248L58 0.207248C55.7909 0.207248 54 1.9981 54 4.20724L54 52.6084L54 52.6086L54.0001 52.6086Z"/>
</mask>
<path fill-rule="evenodd" clip-rule="evenodd" d="M54.0001 52.6086L59.6958 64L65.3915 52.6086L65.3916 52.6086L65.3916 52.6084L65.3916 4.20725C65.3916 1.99811 63.6007 0.207249 61.3916 0.207248L58 0.207248C55.7909 0.207248 54 1.9981 54 4.20724L54 52.6084L54 52.6086L54.0001 52.6086Z" fill="#B3E5FC"/>
<path d="M59.6958 64L57.907 64.8944L59.6958 68.4721L61.4847 64.8944L59.6958 64ZM54.0001 52.6086L55.7889 51.7141L55.2362 50.6086L54.0001 50.6086L54.0001 52.6086ZM65.3915 52.6086L65.3915 50.6086L64.1555 50.6086L63.6027 51.7141L65.3915 52.6086ZM65.3916 52.6086L65.3916 54.6086L67.3916 54.6086L67.3916 52.6086L65.3916 52.6086ZM54 52.6086L52 52.6086L52 54.6086L54 54.6086L54 52.6086ZM61.4847 63.1056L55.7889 51.7141L52.2112 53.503L57.907 64.8944L61.4847 63.1056ZM63.6027 51.7141L57.907 63.1056L61.4847 64.8944L67.1804 53.503L63.6027 51.7141ZM65.3916 50.6086L65.3915 50.6086L65.3915 54.6086L65.3916 54.6086L65.3916 50.6086ZM63.3916 52.6084L63.3916 52.6086L67.3916 52.6086L67.3916 52.6084L63.3916 52.6084ZM63.3916 4.20725L63.3916 52.6084L67.3916 52.6084L67.3916 4.20725L63.3916 4.20725ZM61.3916 2.20725C62.4962 2.20725 63.3916 3.10268 63.3916 4.20725L67.3916 4.20725C67.3916 0.893547 64.7053 -1.79276 61.3916 -1.79276L61.3916 2.20725ZM58 2.20725L61.3916 2.20725L61.3916 -1.79276L58 -1.79276L58 2.20725ZM56 4.20724C56 3.10268 56.8954 2.20725 58 2.20725L58 -1.79276C54.6863 -1.79276 52 0.893531 52 4.20724L56 4.20724ZM56 52.6084L56 4.20724L52 4.20724L52 52.6084L56 52.6084ZM56 52.6086L56 52.6084L52 52.6084L52 52.6086L56 52.6086ZM54.0001 50.6086L54 50.6086L54 54.6086L54.0001 54.6086L54.0001 50.6086Z" fill="#01579B" mask="url(#path-5-inside-1)"/>
<path d="M65.3916 51.4692L54 51.4692" stroke="#01579B" stroke-width="2"/>
<path d="M65.3916 7.04224L54 7.04224" stroke="#01579B" stroke-width="2"/>
<path d="M65.3916 11.5986L54 11.5986" stroke="#01579B" stroke-width="2"/>
</svg>
