<svg width="62" height="69" viewBox="0 0 62 69" fill="none" xmlns="http://www.w3.org/2000/svg">
<path d="M30.1341 33.7308C30.519 33.0641 31.4812 33.0641 31.8661 33.7308L44.9231 56.3462C45.308 57.0128 44.8269 57.8462 44.0571 57.8462H17.9431C17.1733 57.8462 16.6922 57.0128 17.0771 56.3462L30.1341 33.7308Z" fill="#D1C4E9" stroke="#311B92" stroke-width="2" stroke-linecap="round" stroke-linejoin="round"/>
<rect x="1" y="1.4231" width="60" height="45.6923" rx="7" fill="#D1C4E9" stroke="#311B92" stroke-width="2"/>
<path d="M60.8077 34.9999H0.59613" stroke="#311B92" stroke-width="2"/>
<circle cx="31.0001" cy="40.9616" r="2.57692" fill="#D1C4E9" stroke="#311B92" stroke-width="2"/>
<path d="M37.4643 17.8249C38.131 18.2098 38.131 19.1721 37.4643 19.557L27.6875 25.2016C27.0208 25.5865 26.1875 25.1054 26.1875 24.3356L26.1875 13.0463C26.1875 12.2765 27.0208 11.7954 27.6875 12.1803L37.4643 17.8249Z" fill="#D1C4E9" stroke="#311B92" stroke-width="2"/>
<line x1="2.21436" y1="10.4945" x2="8.85721" y2="10.4945" stroke="#311B92" stroke-width="2"/>
<line x1="2.21436" y1="10.4945" x2="8.85721" y2="10.4945" stroke="#311B92" stroke-width="2"/>
<line x1="2.21436" y1="10.4945" x2="8.85721" y2="10.4945" stroke="#311B92" stroke-width="2"/>
<line x1="2.21442" y1="18.2445" x2="8.85727" y2="18.2445" stroke="#311B92" stroke-width="2"/>
<line x1="2.21442" y1="18.2445" x2="8.85727" y2="18.2445" stroke="#311B92" stroke-width="2"/>
<line x1="2.21442" y1="18.2445" x2="8.85727" y2="18.2445" stroke="#311B92" stroke-width="2"/>
<line x1="2.21442" y1="25.9945" x2="8.85727" y2="25.9945" stroke="#311B92" stroke-width="2"/>
<line x1="2.21442" y1="25.9945" x2="8.85727" y2="25.9945" stroke="#311B92" stroke-width="2"/>
<line x1="2.21442" y1="25.9945" x2="8.85727" y2="25.9945" stroke="#311B92" stroke-width="2"/>
<line x1="9.85718" y1="0.42308" x2="9.85718" y2="35.8517" stroke="#311B92" stroke-width="2"/>
<line x1="53.1429" y1="10.4945" x2="59.7857" y2="10.4945" stroke="#311B92" stroke-width="2"/>
<line x1="53.1429" y1="10.4945" x2="59.7857" y2="10.4945" stroke="#311B92" stroke-width="2"/>
<line x1="53.1429" y1="10.4945" x2="59.7857" y2="10.4945" stroke="#311B92" stroke-width="2"/>
<line x1="53.1429" y1="18.2445" x2="59.7858" y2="18.2445" stroke="#311B92" stroke-width="2"/>
<line x1="53.1429" y1="18.2445" x2="59.7858" y2="18.2445" stroke="#311B92" stroke-width="2"/>
<line x1="53.1429" y1="18.2445" x2="59.7858" y2="18.2445" stroke="#311B92" stroke-width="2"/>
<line x1="53.1429" y1="25.9945" x2="59.7858" y2="25.9945" stroke="#311B92" stroke-width="2"/>
<line x1="53.1429" y1="25.9945" x2="59.7858" y2="25.9945" stroke="#311B92" stroke-width="2"/>
<line x1="53.1429" y1="25.9945" x2="59.7858" y2="25.9945" stroke="#311B92" stroke-width="2"/>
<line x1="51.9286" y1="0.423096" x2="51.9286" y2="35.8517" stroke="#311B92" stroke-width="2"/>
</svg>
