<svg width="62" height="66" viewBox="0 0 62 66" fill="none" xmlns="http://www.w3.org/2000/svg">
<rect x="26" y="41" width="10" height="24" fill="#D1C4E9" stroke="#311B92" stroke-width="2"/>
<rect x="1" y="7" width="60" height="34" rx="7" fill="#D1C4E9" stroke="#311B92" stroke-width="2"/>
<rect x="8" y="1" width="46" height="34" rx="3" fill="#D1C4E9" stroke="#311B92" stroke-width="2"/>
<path d="M31 2L31 40" stroke="#311B92" stroke-width="2"/>
<line x1="38" y1="8" x2="47" y2="8" stroke="#311B92" stroke-width="2" stroke-linecap="round"/>
<line x1="38" y1="13" x2="47" y2="13" stroke="#311B92" stroke-width="2" stroke-linecap="round"/>
<line x1="38" y1="18" x2="47" y2="18" stroke="#311B92" stroke-width="2" stroke-linecap="round"/>
<line x1="38" y1="23" x2="47" y2="23" stroke="#311B92" stroke-width="2" stroke-linecap="round"/>
<line x1="38" y1="28" x2="47" y2="28" stroke="#311B92" stroke-width="2" stroke-linecap="round"/>
<line x1="15" y1="8" x2="24" y2="8" stroke="#311B92" stroke-width="2" stroke-linecap="round"/>
<line x1="15" y1="13" x2="24" y2="13" stroke="#311B92" stroke-width="2" stroke-linecap="round"/>
<line x1="15" y1="18" x2="24" y2="18" stroke="#311B92" stroke-width="2" stroke-linecap="round"/>
<line x1="15" y1="23" x2="24" y2="23" stroke="#311B92" stroke-width="2" stroke-linecap="round"/>
<line x1="15" y1="28" x2="24" y2="28" stroke="#311B92" stroke-width="2" stroke-linecap="round"/>
<line y1="65" x2="62" y2="65" stroke="#311B92" stroke-width="2"/>
<path d="M10 41.5V42C10 46.4183 13.5817 50 18 50H25.5" stroke="#311B92" stroke-width="2"/>
<path d="M37 56H43C47.4183 56 51 52.4183 51 48V42" stroke="#311B92" stroke-width="2"/>
</svg>
