<svg width="56" height="64" viewBox="0 0 56 64" fill="none" xmlns="http://www.w3.org/2000/svg">
<mask id="path-1-inside-1" fill="white">
<path fill-rule="evenodd" clip-rule="evenodd" d="M43.0712 63.793C46.3849 63.793 49.0712 61.1067 49.0712 57.793L49.0712 6.00007C49.0712 2.68636 46.3849 7.22444e-05 43.0712 7.19547e-05L20.3404 6.99675e-05L0.0873375 20.3443L0.0873342 57.793C0.0873339 61.1067 2.77362 63.793 6.08733 63.793L43.0712 63.793Z"/>
</mask>
<path fill-rule="evenodd" clip-rule="evenodd" d="M43.0712 63.793C46.3849 63.793 49.0712 61.1067 49.0712 57.793L49.0712 6.00007C49.0712 2.68636 46.3849 7.22444e-05 43.0712 7.19547e-05L20.3404 6.99675e-05L0.0873375 20.3443L0.0873342 57.793C0.0873339 61.1067 2.77362 63.793 6.08733 63.793L43.0712 63.793Z" fill="#E1BEE7"/>
<path d="M20.3404 6.99675e-05L20.3404 -1.99993L19.5093 -1.99993L18.923 -1.41097L20.3404 6.99675e-05ZM0.0873375 20.3443L-1.33005 18.9332L-1.91266 19.5185L-1.91266 20.3443L0.0873375 20.3443ZM47.0712 57.793C47.0712 60.0021 45.2803 61.793 43.0712 61.793L43.0712 65.793C47.4894 65.793 51.0712 62.2112 51.0712 57.793L47.0712 57.793ZM47.0712 6.00007L47.0712 57.793L51.0712 57.793L51.0712 6.00007L47.0712 6.00007ZM43.0712 2.00007C45.2803 2.00007 47.0712 3.79093 47.0712 6.00007L51.0712 6.00007C51.0712 1.58179 47.4895 -1.99992 43.0712 -1.99992L43.0712 2.00007ZM20.3404 2.00007L43.0712 2.00007L43.0712 -1.99992L20.3404 -1.99993L20.3404 2.00007ZM18.923 -1.41097L-1.33005 18.9332L1.50472 21.7553L21.7578 1.4111L18.923 -1.41097ZM2.08733 57.793L2.08734 20.3443L-1.91266 20.3443L-1.91267 57.793L2.08733 57.793ZM6.08733 61.793C3.87819 61.793 2.08733 60.0021 2.08733 57.793L-1.91267 57.793C-1.91267 62.2112 1.66905 65.793 6.08733 65.793L6.08733 61.793ZM43.0712 61.793L6.08733 61.793L6.08733 65.793L43.0712 65.793L43.0712 61.793Z" fill="#4A148C" mask="url(#path-1-inside-1)"/>
<path d="M40 20L10 20" stroke="#4A148C" stroke-width="2" stroke-linecap="round"/>
<path d="M20 12L20 52" stroke="#4A148C" stroke-width="2" stroke-linecap="round"/>
<path d="M30 12L30 52" stroke="#4A148C" stroke-width="2" stroke-linecap="round"/>
<path d="M40 36L10 36" stroke="#4A148C" stroke-width="2" stroke-linecap="round"/>
<path d="M40 44L10 44" stroke="#4A148C" stroke-width="2" stroke-linecap="round"/>
<path d="M40 28L10 28" stroke="#4A148C" stroke-width="2" stroke-linecap="round"/>
<rect x="10" y="12" width="30" height="40" rx="1" stroke="#4A148C" stroke-width="2"/>
<path d="M16.5049 19.5051L2.41424 19.5051L19.5049 2.41442L19.5049 16.5051C19.5049 18.1619 18.1617 19.5051 16.5049 19.5051Z" fill="#E1BEE7" stroke="#4A148C" stroke-width="2"/>
<rect x="30" y="31" width="25" height="18" rx="3" fill="#E1BEE7" stroke="#4A148C" stroke-width="2"/>
<path d="M39.24 43.08C39.3467 43.2067 39.4 43.3333 39.4 43.46C39.4 43.62 39.3367 43.76 39.21 43.88C39.09 44 38.95 44.06 38.79 44.06C38.6233 44.06 38.4767 43.9867 38.35 43.84L36.32 41.32L34.28 43.84C34.16 43.98 34.0167 44.05 33.85 44.05C33.69 44.05 33.5467 43.9933 33.42 43.88C33.3 43.76 33.24 43.62 33.24 43.46C33.24 43.3267 33.29 43.2 33.39 43.08L35.57 40.42L33.48 37.87C33.38 37.7633 33.33 37.6367 33.33 37.49C33.33 37.33 33.39 37.1933 33.51 37.08C33.63 36.96 33.77 36.9 33.93 36.9C34.0967 36.9 34.2433 36.9733 34.37 37.12L36.32 39.53L38.27 37.12C38.39 36.9733 38.5333 36.9 38.7 36.9C38.86 36.9 39 36.96 39.12 37.08C39.2467 37.1933 39.31 37.33 39.31 37.49C39.31 37.6367 39.26 37.7633 39.16 37.87L37.07 40.42L39.24 43.08ZM41.0106 44C40.8173 44 40.6673 43.9467 40.5606 43.84C40.454 43.7333 40.4006 43.5867 40.4006 43.4V37.54C40.4006 37.3467 40.4573 37.1933 40.5706 37.08C40.6906 36.96 40.8473 36.9 41.0406 36.9C41.2406 36.9 41.3973 36.96 41.5106 37.08C41.6306 37.1933 41.6906 37.3467 41.6906 37.54V42.94H44.5006C44.9006 42.94 45.1006 43.1167 45.1006 43.47C45.1006 43.8233 44.9006 44 44.5006 44H41.0106ZM48.2605 44.09C47.7472 44.09 47.2605 44.0233 46.8005 43.89C46.3472 43.75 45.9772 43.5633 45.6905 43.33C45.5372 43.2167 45.4605 43.0567 45.4605 42.85C45.4605 42.71 45.5005 42.59 45.5805 42.49C45.6672 42.3833 45.7672 42.33 45.8805 42.33C46.0005 42.33 46.1372 42.3767 46.2905 42.47C46.5772 42.6767 46.8772 42.8267 47.1905 42.92C47.5039 43.0133 47.8505 43.06 48.2305 43.06C48.7172 43.06 49.0905 42.9767 49.3505 42.81C49.6105 42.6367 49.7405 42.3867 49.7405 42.06C49.7405 41.8067 49.6172 41.6133 49.3705 41.48C49.1305 41.34 48.7272 41.2067 48.1605 41.08C47.5739 40.9533 47.0972 40.8067 46.7305 40.64C46.3639 40.4733 46.0872 40.26 45.9005 40C45.7139 39.74 45.6205 39.41 45.6205 39.01C45.6205 38.5967 45.7372 38.2267 45.9705 37.9C46.2039 37.5733 46.5272 37.32 46.9405 37.14C47.3605 36.9533 47.8305 36.86 48.3505 36.86C49.3039 36.86 50.0805 37.1133 50.6805 37.62C50.7672 37.6933 50.8272 37.7667 50.8605 37.84C50.9005 37.9067 50.9205 37.9933 50.9205 38.1C50.9205 38.24 50.8772 38.3633 50.7905 38.47C50.7105 38.57 50.6139 38.62 50.5005 38.62C50.4339 38.62 50.3705 38.61 50.3105 38.59C50.2572 38.57 50.1839 38.5333 50.0905 38.48C49.8172 38.28 49.5505 38.1333 49.2905 38.04C49.0372 37.94 48.7239 37.89 48.3505 37.89C47.8972 37.89 47.5372 37.9833 47.2705 38.17C47.0105 38.35 46.8805 38.6033 46.8805 38.93C46.8805 39.2033 46.9972 39.4133 47.2305 39.56C47.4639 39.7067 47.8605 39.8433 48.4205 39.97C49.0139 40.1033 49.4939 40.2533 49.8605 40.42C50.2339 40.58 50.5172 40.7867 50.7105 41.04C50.9105 41.2933 51.0105 41.61 51.0105 41.99C51.0105 42.4033 50.8939 42.77 50.6605 43.09C50.4339 43.4033 50.1105 43.65 49.6905 43.83C49.2772 44.0033 48.8005 44.09 48.2605 44.09Z" fill="#4A148C"/>
</svg>
