<svg width="320" height="370" viewBox="0 0 320 370" fill="none" xmlns="http://www.w3.org/2000/svg">
<path d="M320 162.232V122.894C320 97.8686 299.635 77.5035 274.61 77.5035H270.827H261.749H252.671C241.142 77.5035 231.467 85.6057 229.046 96.4161H218.599C218.326 96.2572 218.039 96.0984 217.744 95.9395C217.729 95.9319 217.706 95.9168 217.691 95.9092C215.489 89.1461 210.504 83.6463 204.096 80.7414C207.433 79.357 210.489 77.3069 213.106 74.644C218.266 69.3863 221.035 62.434 220.906 55.0582C220.77 47.7201 217.721 40.8813 212.327 35.8203C207.175 30.9863 200.443 28.3234 193.377 28.3234H178.829C174.88 28.3234 170.992 29.1026 167.376 30.5778L166.748 29.7986L158.911 20.07C148.622 7.31537 133.333 0 116.955 0C100.577 0 85.2879 7.31537 75.0071 20.0775L66.6099 30.5097C63.0544 29.0875 59.234 28.3385 55.3532 28.3385H40.3972C33.3314 28.3385 26.5986 31.0014 21.4468 35.8355C16.0454 40.8965 13.0043 47.7352 12.8681 55.0733C12.7319 62.4416 15.5007 69.4014 20.6676 74.6591C24.087 78.139 28.2705 80.5749 32.8397 81.8307C27.3248 85.1139 23.1565 90.4322 21.3787 96.7338C9.2747 98.6402 0 109.14 0 121.759V151.187C0 162.428 7.36076 171.991 17.5206 175.296C18.4511 184.889 24.7603 192.938 33.3844 196.38C36.2742 207.198 46.1541 215.194 57.8723 215.194H81.7021V233.313C76.1418 234.546 71.0355 237.33 66.905 241.46L54.7934 253.572C53.7343 254.631 52.7584 255.765 51.8733 256.968C41.479 260.789 34.0426 270.805 34.0426 282.515V302.184C34.0426 317.201 46.26 329.418 61.2766 329.418H61.7759C66.1712 331.801 71.1414 333.095 76.1948 333.095H77.8742C79.3192 333.095 80.7565 332.989 82.1787 332.785C83.4421 338.201 87.1489 342.824 92.3461 345.191L142.275 367.887C144.666 368.968 147.223 369.513 149.787 369.513C152.352 369.513 154.916 368.968 157.299 367.887L199.716 348.611L242.133 367.894C244.524 368.976 247.081 369.521 249.645 369.521C252.21 369.521 254.774 368.976 257.157 367.894L307.087 345.199C313.57 342.256 317.73 335.788 317.73 328.669V206.116C317.73 200.465 315.09 195.17 310.665 191.75C311.648 189.322 312.261 186.697 312.405 183.958C317.261 177.876 320 170.266 320 162.232Z" fill="#CFD8DC"/>
<path d="M207.803 119.111C203.915 119.111 200.76 115.956 200.76 112.068V103.686C200.76 99.7973 197.606 96.6427 193.717 96.6427H178.012C174.124 96.6427 170.969 93.4881 170.969 89.5996V88.4346C170.969 84.5462 167.815 81.3916 163.926 81.3916H141.7C137.812 81.3916 134.657 84.5462 134.657 88.4346V88.5784V93.5788V93.8134C134.657 97.785 137.873 101 141.844 101H149.273C153.245 101 156.46 104.215 156.46 108.187V113.437C156.46 117.409 159.675 120.624 163.647 120.624H165.613C169.585 120.624 172.8 123.839 172.8 127.811V157.359C172.8 161.331 169.585 164.546 165.613 164.546H164.01C160.038 164.546 156.823 167.761 156.823 171.733V175.47C156.823 179.442 153.608 182.657 149.636 182.657H128.984C125.012 182.657 121.797 185.872 121.797 189.844V189.987C121.797 193.876 124.951 197.03 128.84 197.03H165.757C169.646 197.03 172.8 193.876 172.8 189.987V188.943C172.8 185.055 175.955 181.9 179.843 181.9H189.647C193.536 181.9 196.69 178.746 196.69 174.857V171.589C196.69 167.701 199.845 164.546 203.734 164.546H207.803C211.692 164.546 214.847 161.392 214.847 157.503V126.154C214.847 122.265 211.692 119.111 207.803 119.111Z" fill="#F48FB1" stroke="#D81B60" stroke-width="2" stroke-miterlimit="10" stroke-linecap="round" stroke-linejoin="round"/>
<path d="M161.892 99.4429H173.648C176.991 99.4429 179.7 102.151 179.7 105.495V113.816C179.7 117.16 182.408 119.868 185.752 119.868H189.988C193.332 119.868 196.04 122.577 196.04 125.92V135.43" stroke="#D81B60" stroke-width="2" stroke-miterlimit="10" stroke-linecap="round" stroke-linejoin="round"/>
<path d="M186.598 156.179V168.283C186.598 171.627 183.89 174.335 180.546 174.335H168.321" stroke="#D81B60" stroke-width="2" stroke-miterlimit="10" stroke-linecap="round" stroke-linejoin="round"/>
<path d="M163.926 81.3917C167.814 81.3917 170.969 84.5463 170.969 88.4348V89.5998C170.969 93.4882 174.124 96.6428 178.012 96.6428H193.717C197.605 96.6428 200.76 99.7974 200.76 103.686V112.068C200.76 115.956 203.915 119.111 207.803 119.111C211.692 119.111 214.846 122.265 214.846 126.154V157.503C214.846 161.392 211.692 164.546 207.803 164.546H203.733C199.845 164.546 196.69 167.701 196.69 171.589V174.857C196.69 178.746 193.536 181.9 189.647 181.9H179.843C175.954 181.9 172.8 185.055 172.8 188.943V189.987C172.8 193.876 169.645 197.031 165.757 197.031H128.84C124.951 197.031 121.797 193.876 121.797 189.987V189.844C121.797 185.872 125.012 182.657 128.983 182.657H149.636C153.607 182.657 156.823 179.442 156.823 175.47V171.733C156.823 167.761 160.038 164.546 164.009 164.546H165.613C169.585 164.546 172.8 161.331 172.8 157.36V127.811C172.8 123.839 169.585 120.624 165.613 120.624H163.646C159.675 120.624 156.459 117.409 156.459 113.437V108.187C156.459 104.215 153.244 101 149.273 101H141.844C137.872 101 134.657 97.7851 134.657 93.8135V93.579V88.5785V88.4348C134.657 84.5463 137.812 81.3917 141.7 81.3917H163.926ZM163.926 78.3657H141.7C136.147 78.3657 131.631 82.882 131.631 88.4348V88.5785V93.579V93.8135C131.631 99.4418 136.215 104.026 141.844 104.026H149.273C151.565 104.026 153.433 105.895 153.433 108.187V113.437C153.433 119.065 158.018 123.65 163.646 123.65H165.613C167.905 123.65 169.774 125.518 169.774 127.811V157.36C169.774 159.652 167.905 161.52 165.613 161.52H164.009C158.381 161.52 153.797 166.105 153.797 171.733V175.47C153.797 177.762 151.928 179.631 149.636 179.631H128.983C123.355 179.631 118.771 184.215 118.771 189.844V189.987C118.771 195.54 123.287 200.057 128.84 200.057H165.757C171.31 200.057 175.826 195.54 175.826 189.987V188.943C175.826 186.727 177.626 184.926 179.843 184.926H189.647C195.2 184.926 199.716 180.41 199.716 174.857V171.589C199.716 169.373 201.517 167.572 203.733 167.572H207.803C213.356 167.572 217.872 163.056 217.872 157.503V126.154C217.872 120.601 213.356 116.085 207.803 116.085C205.587 116.085 203.786 114.284 203.786 112.068V103.686C203.786 98.1331 199.27 93.6168 193.717 93.6168H178.012C175.796 93.6168 173.995 91.8163 173.995 89.5998V88.4348C173.995 82.882 169.479 78.3657 163.926 78.3657Z" fill="#D81B60"/>
<path d="M59.7638 89.229V88.5784C59.7638 84.6067 62.9789 81.3916 66.9506 81.3916H127.471C131.442 81.3916 134.657 84.6067 134.657 88.5784V93.8134C134.657 97.785 137.873 101 141.844 101H149.273C153.245 101 156.46 104.215 156.46 108.187V113.437C156.46 117.409 159.675 120.624 163.647 120.624H165.613C169.585 120.624 172.8 123.839 172.8 127.811V157.359C172.8 161.331 169.585 164.546 165.613 164.546H164.01C160.038 164.546 156.823 167.761 156.823 171.733V175.47C156.823 179.442 153.608 182.657 149.636 182.657H128.984C125.012 182.657 121.797 185.872 121.797 189.844C121.797 193.815 118.582 197.03 114.61 197.03H57.8726C53.9009 197.03 50.6858 193.815 50.6858 189.844V187.196C50.6858 183.224 47.4707 180.009 43.499 180.009H42.7425C38.7709 180.009 35.5558 176.794 35.5558 172.822V165.56C35.5558 161.588 32.3406 158.373 28.369 158.373H25.343C21.3714 158.373 18.1562 155.158 18.1562 151.186V121.759C18.1562 117.787 21.3714 114.572 25.343 114.572H31.395C35.3667 114.572 38.5818 111.357 38.5818 107.385V103.602C38.5818 99.6308 41.7969 96.4157 45.7685 96.4157H52.5771C56.5487 96.4157 59.7638 93.2006 59.7638 89.229Z" fill="#F8BBD0" stroke="#D81B60" stroke-width="2" stroke-miterlimit="10" stroke-linecap="round" stroke-linejoin="round"/>
<path d="M60.5205 107.763V129.081C60.5205 132.425 57.8122 135.133 54.4685 135.133H34.043" stroke="#D81B60" stroke-width="2" stroke-miterlimit="10" stroke-linecap="round" stroke-linejoin="round"/>
<path d="M34.043 135.428H54.4685C57.8122 135.428 60.5205 138.136 60.5205 141.48V163.744" stroke="#D81B60" stroke-width="2" stroke-miterlimit="10" stroke-linecap="round" stroke-linejoin="round"/>
<path d="M60.5205 156.18H76.1044C79.4482 156.18 82.1564 153.472 82.1564 150.128V113.06" stroke="#D81B60" stroke-width="2" stroke-miterlimit="10" stroke-linecap="round" stroke-linejoin="round"/>
<path d="M95.4786 156.18V173.957C95.4786 177.301 92.7703 180.009 89.4266 180.009H45.3906" stroke="#D81B60" stroke-width="2" stroke-miterlimit="10" stroke-linecap="round" stroke-linejoin="round"/>
<path d="M107.424 183.414H128.984" stroke="#D81B60" stroke-width="2" stroke-miterlimit="10" stroke-linecap="round" stroke-linejoin="round"/>
<path d="M95.4785 163.745H141.935" stroke="#D81B60" stroke-width="2" stroke-miterlimit="10" stroke-linecap="round" stroke-linejoin="round"/>
<path d="M82.1562 139.211H150.544C153.888 139.211 156.596 141.919 156.596 145.263V171.809" stroke="#D81B60" stroke-width="2" stroke-miterlimit="10" stroke-linecap="round" stroke-linejoin="round"/>
<path d="M74.6143 97.3691H117.069" stroke="#D81B60" stroke-width="2" stroke-miterlimit="10" stroke-linecap="round" stroke-linejoin="round"/>
<path d="M99.8584 97.3691V113.815C99.8584 117.159 102.567 119.867 105.91 119.867H141.935" stroke="#D81B60" stroke-width="2" stroke-miterlimit="10" stroke-linecap="round" stroke-linejoin="round"/>
<path d="M127.47 81.3917C131.442 81.3917 134.657 84.6069 134.657 88.5785V93.8135C134.657 97.7851 137.872 101 141.844 101H149.273C153.244 101 156.459 104.215 156.459 108.187V113.437C156.459 117.409 159.675 120.624 163.646 120.624H165.613C169.585 120.624 172.8 123.839 172.8 127.811V157.36C172.8 161.331 169.585 164.546 165.613 164.546H164.009C160.038 164.546 156.823 167.761 156.823 171.733V175.47C156.823 179.442 153.607 182.657 149.636 182.657H128.983C125.012 182.657 121.797 185.872 121.797 189.844C121.797 193.815 118.581 197.031 114.61 197.031H57.8722C53.9006 197.031 50.6854 193.815 50.6854 189.844V187.196C50.6854 183.224 47.4703 180.009 43.4987 180.009H42.7422C38.7705 180.009 35.5554 176.794 35.5554 172.822V165.56C35.5554 161.588 32.3403 158.373 28.3687 158.373H25.3426C21.371 158.373 18.1559 155.158 18.1559 151.187V121.759C18.1559 117.787 21.371 114.572 25.3426 114.572H31.3947C35.3663 114.572 38.5814 111.357 38.5814 107.385V103.603C38.5814 99.631 41.7965 96.4158 45.7682 96.4158H52.5767C56.5483 96.4158 59.7635 93.2007 59.7635 89.2291V88.5785C59.7635 84.6069 62.9786 81.3917 66.9502 81.3917H127.47ZM127.47 78.3657H66.9502C61.3218 78.3657 56.7374 82.9501 56.7374 88.5785V89.2291C56.7374 91.5213 54.8689 93.3898 52.5767 93.3898H45.7682C40.1398 93.3898 35.5554 97.9742 35.5554 103.603V107.385C35.5554 109.677 33.6869 111.546 31.3947 111.546H25.3426C19.7143 111.546 15.1299 116.13 15.1299 121.759V151.187C15.1299 156.815 19.7143 161.399 25.3426 161.399H28.3687C30.6609 161.399 32.5294 163.268 32.5294 165.56V172.822C32.5294 178.451 37.1138 183.035 42.7422 183.035H43.4987C45.7909 183.035 47.6594 184.904 47.6594 187.196V189.844C47.6594 195.472 52.2438 200.057 57.8722 200.057H114.61C120.238 200.057 124.823 195.472 124.823 189.844C124.823 187.552 126.691 185.683 128.983 185.683H149.636C155.264 185.683 159.849 181.099 159.849 175.47V171.733C159.849 169.441 161.717 167.572 164.009 167.572H165.613C171.241 167.572 175.826 162.988 175.826 157.36V127.811C175.826 122.182 171.241 117.598 165.613 117.598H163.646C161.354 117.598 159.485 115.729 159.485 113.437V108.187C159.485 102.559 154.901 97.9742 149.273 97.9742H141.844C139.552 97.9742 137.683 96.1057 137.683 93.8135V88.5785C137.683 82.9501 133.099 78.3657 127.47 78.3657Z" fill="#D81B60"/>
<path d="M264.776 103.224V101.711C264.776 98.367 267.485 95.6587 270.828 95.6587H261.75C258.407 95.6587 255.698 98.367 255.698 101.711V103.224C255.698 106.567 258.407 109.276 261.75 109.276H270.828C267.485 109.276 264.776 106.567 264.776 103.224Z" fill="white" stroke="#0D47A1" stroke-width="2" stroke-miterlimit="10" stroke-linecap="round" stroke-linejoin="round"/>
<path d="M255.698 103.224V101.711C255.698 98.367 258.406 95.6587 261.75 95.6587H252.672C249.328 95.6587 246.62 98.367 246.62 101.711V103.224C246.62 106.567 249.328 109.276 252.672 109.276H261.75C258.406 109.276 255.698 106.567 255.698 103.224Z" fill="white" stroke="#0D47A1" stroke-width="2" stroke-miterlimit="10" stroke-linecap="round" stroke-linejoin="round"/>
<path d="M274.61 95.6587H270.828C267.484 95.6587 264.776 98.367 264.776 101.711V103.224C264.776 106.567 267.484 109.276 270.828 109.276V109.291C283.809 109.563 294.279 123.256 294.279 141.049C294.279 159.016 283.613 173.578 270.457 173.578H251.091C252.596 175.19 254.412 176.506 256.454 177.421V182.656C256.454 186 259.163 188.708 262.506 188.708H288.227C291.571 188.708 294.279 186 294.279 182.656V176.181C298.834 173.208 301.844 168.079 301.844 162.231V122.893C301.844 107.853 289.65 95.6587 274.61 95.6587Z" fill="white" stroke="#0D47A1" stroke-width="2" stroke-miterlimit="10" stroke-linecap="round" stroke-linejoin="round"/>
<path d="M294.28 176.182C291.67 177.884 288.553 178.875 285.202 178.875L294.28 176.182Z" fill="white"/>
<path d="M294.28 176.182C291.67 177.884 288.553 178.875 285.202 178.875" stroke="#0D47A1" stroke-width="2" stroke-miterlimit="10" stroke-linecap="round" stroke-linejoin="round"/>
<path d="M263.264 178.874C260.835 178.874 258.535 178.352 256.455 177.422L263.264 178.874Z" fill="white"/>
<path d="M263.264 178.874C260.835 178.874 258.535 178.352 256.455 177.422" stroke="#0D47A1" stroke-width="2" stroke-miterlimit="10" stroke-linecap="round" stroke-linejoin="round"/>
<path d="M274.61 95.6593C289.65 95.6593 301.844 107.854 301.844 122.893V162.231C301.844 168.072 298.833 173.208 294.279 176.181V182.657C294.279 186.001 291.571 188.709 288.227 188.709H262.506C259.163 188.709 256.454 186.001 256.454 182.657V177.422C254.419 176.507 252.596 175.19 251.091 173.579H270.457C283.613 173.579 294.279 159.016 294.279 141.049C294.279 123.256 283.809 109.564 270.828 109.291V109.276H261.75H252.672C249.328 109.276 246.62 106.568 246.62 103.224V101.711C246.62 98.3676 249.328 95.6593 252.672 95.6593H261.75H270.828H274.61ZM274.61 92.6333H270.828H261.75H252.672C247.664 92.6333 243.594 96.7033 243.594 101.711V103.224C243.594 108.232 247.664 112.302 252.672 112.302H261.75H270.548C270.616 112.31 270.692 112.31 270.76 112.317C282.251 112.56 291.246 125.178 291.246 141.049C291.246 157.314 281.918 170.553 270.45 170.553H251.083C249.88 170.553 248.791 171.264 248.307 172.376C247.823 173.481 248.05 174.767 248.867 175.644C250.206 177.082 251.734 178.292 253.413 179.268V182.657C253.413 187.665 257.483 191.735 262.491 191.735H288.212C293.22 191.735 297.29 187.665 297.29 182.657V177.732C302.056 174.018 304.855 168.336 304.855 162.231V122.893C304.87 106.212 291.299 92.6333 274.61 92.6333Z" fill="#0D47A1"/>
<path d="M199.716 328.663L149.787 351.358V228.805L199.716 206.11V328.663Z" fill="#CFD8DC" stroke="#0D47A1" stroke-width="2" stroke-miterlimit="10" stroke-linecap="round" stroke-linejoin="round"/>
<path d="M249.645 351.358L199.716 328.663V206.109L249.645 228.804V351.358Z" fill="white" stroke="#0D47A1" stroke-width="2" stroke-miterlimit="10" stroke-linecap="round" stroke-linejoin="round"/>
<path d="M299.575 328.663L249.646 351.358V228.804L299.575 206.109V328.663Z" fill="#CFD8DC" stroke="#0D47A1" stroke-width="2" stroke-miterlimit="10" stroke-linecap="round" stroke-linejoin="round"/>
<path d="M99.8584 206.11V250.743H122.553C125.897 250.743 128.605 253.452 128.605 256.795V258.308C128.605 261.652 125.897 264.36 122.553 264.36H99.8584V265.873H122.553C125.897 265.873 128.605 268.582 128.605 271.925V273.438C128.605 276.782 125.897 279.49 122.553 279.49H99.8584V281.003H122.553C125.897 281.003 128.605 283.712 128.605 287.055V288.568C128.605 291.912 125.897 294.621 122.553 294.621H99.8584V328.663L149.787 351.358V228.805L99.8584 206.11Z" fill="white" stroke="#0D47A1" stroke-width="2" stroke-miterlimit="10" stroke-linecap="round" stroke-linejoin="round"/>
<path d="M299.575 206.109V328.662L249.646 351.357L199.716 328.662L149.787 351.357L99.8583 328.662V294.62H122.553C125.897 294.62 128.605 291.911 128.605 288.568V287.055C128.605 283.711 125.897 281.003 122.553 281.003H99.8583V279.49H122.553C125.897 279.49 128.605 276.781 128.605 273.438V271.925C128.605 268.581 125.897 265.873 122.553 265.873H99.8583V264.36H122.553C125.897 264.36 128.605 261.651 128.605 258.308V256.795C128.605 253.451 125.897 250.743 122.553 250.743H99.8583V206.109L149.787 228.804L199.716 206.109L249.646 228.804L299.575 206.109ZM299.575 203.083C299.151 203.083 298.72 203.174 298.326 203.355L249.646 225.483L200.972 203.355C200.571 203.174 200.148 203.083 199.716 203.083C199.285 203.083 198.862 203.174 198.461 203.355L149.787 225.483L101.114 203.355C100.713 203.174 100.289 203.083 99.8658 203.083C99.2909 203.083 98.7235 203.242 98.2242 203.567C97.3618 204.127 96.8398 205.08 96.8398 206.109V250.743C96.8398 252.414 98.194 253.769 99.8658 253.769H122.561C124.233 253.769 125.587 255.123 125.587 256.795V258.308C125.587 259.979 124.233 261.334 122.561 261.334H99.8658C98.194 261.334 96.8398 262.688 96.8398 264.36V265.873C96.8398 267.544 98.194 268.899 99.8658 268.899H122.561C124.233 268.899 125.587 270.253 125.587 271.925V273.438C125.587 275.109 124.233 276.464 122.561 276.464H99.8658C98.194 276.464 96.8398 277.818 96.8398 279.49V281.003C96.8398 282.674 98.194 284.029 99.8658 284.029H122.561C124.233 284.029 125.587 285.383 125.587 287.055V288.568C125.587 290.24 124.233 291.594 122.561 291.594H99.8658C98.194 291.594 96.8398 292.948 96.8398 294.62V328.662C96.8398 329.85 97.5358 330.924 98.6101 331.416L148.539 354.111C148.94 354.292 149.364 354.383 149.795 354.383C150.226 354.383 150.65 354.292 151.051 354.111L199.716 331.991L248.39 354.118C248.791 354.3 249.214 354.391 249.646 354.391C250.077 354.391 250.5 354.3 250.901 354.118L300.83 331.423C301.912 330.932 302.601 329.857 302.601 328.67V206.117C302.601 205.088 302.079 204.127 301.216 203.575C300.717 203.249 300.15 203.083 299.575 203.083Z" fill="#0D47A1"/>
<path d="M122.554 264.359C125.898 264.359 128.606 261.651 128.606 258.307V256.794C128.606 253.45 125.898 250.742 122.554 250.742H90.0243C89.8805 250.742 89.7368 250.757 89.5931 250.765C89.4493 250.757 89.3056 250.742 89.1619 250.742H88.307C85.0995 250.742 82.0205 252.021 79.751 254.29L67.6394 266.402C65.733 268.308 64.5378 270.789 64.2049 273.445H61.2772C56.2616 273.445 52.1992 277.507 52.1992 282.523V302.192C52.1992 307.207 56.2616 311.27 61.2772 311.27H67.3292C67.3898 311.27 67.4503 311.262 67.5108 311.262C69.7122 313.532 72.7836 314.946 76.1954 314.946H77.8749C81.7103 314.946 85.3188 313.131 87.6035 310.044L98.8905 294.808C98.9359 294.748 98.9737 294.687 99.0191 294.627H122.554C125.898 294.627 128.606 291.919 128.606 288.575V287.062C128.606 283.718 125.898 281.01 122.554 281.01H97.4834C97.0673 281.01 96.7269 280.669 96.7269 280.253C96.7269 279.837 97.0673 279.497 97.4834 279.497H122.554C125.898 279.497 128.606 276.789 128.606 273.445V271.932C128.606 268.588 125.898 265.88 122.554 265.88H97.4834C97.0673 265.88 96.7269 265.539 96.7269 265.123C96.7269 264.707 97.0673 264.367 97.4834 264.367H122.554V264.359Z" fill="white" stroke="#0D47A1" stroke-width="2" stroke-miterlimit="10" stroke-linecap="round" stroke-linejoin="round"/>
<path d="M64.1892 273.438C64.1286 273.937 64.0908 274.444 64.0908 274.958V284.029" stroke="#0D47A1" stroke-width="2" stroke-miterlimit="10" stroke-linecap="round" stroke-linejoin="round"/>
<path d="M64.0908 300.021V302.835C64.0908 306.065 65.3542 309 67.4194 311.171" stroke="#0D47A1" stroke-width="2" stroke-miterlimit="10" stroke-linecap="round" stroke-linejoin="round"/>
<path d="M122.553 250.742C125.897 250.742 128.605 253.451 128.605 256.794V258.307C128.605 261.651 125.897 264.359 122.553 264.359H97.483C97.0669 264.359 96.7265 264.7 96.7265 265.116C96.7265 265.532 97.0669 265.872 97.483 265.872H122.553C125.897 265.872 128.605 268.581 128.605 271.924V273.437C128.605 276.781 125.897 279.489 122.553 279.489H97.483C97.0669 279.489 96.7265 279.83 96.7265 280.246C96.7265 280.662 97.0669 281.002 97.483 281.002H122.553C125.897 281.002 128.605 283.711 128.605 287.054V288.567C128.605 291.911 125.897 294.619 122.553 294.619H99.0112C98.9658 294.68 98.9279 294.74 98.8825 294.801L87.5955 310.037C85.3109 313.116 81.7024 314.939 77.8669 314.939H76.1875C72.7757 314.939 69.7043 313.524 67.5029 311.255C67.4424 311.255 67.3818 311.262 67.3213 311.262H61.2693C56.2537 311.262 52.1913 307.2 52.1913 302.184V282.515C52.1913 277.5 56.2537 273.437 61.2693 273.437H64.1894C64.5223 270.79 65.7175 268.308 67.6239 266.394L79.7355 254.283C82.005 252.013 85.084 250.735 88.2915 250.735H89.1464C89.2901 250.735 89.4338 250.75 89.5776 250.757C89.7213 250.75 89.8651 250.735 90.0088 250.735H122.553V250.742ZM122.553 247.716H90.0239C89.8726 247.716 89.7289 247.724 89.5776 247.731C89.4414 247.724 89.2977 247.716 89.1615 247.716H88.3067C84.2669 247.716 80.4693 249.29 77.6097 252.149L65.4981 264.261C63.7809 265.978 62.51 268.104 61.7762 270.411H61.2769C54.6045 270.411 49.1729 275.843 49.1729 282.515V302.184C49.1729 308.857 54.6045 314.288 61.2769 314.288H66.3152C69.0613 316.671 72.5185 317.965 76.1951 317.965H77.8745C82.648 317.965 87.1946 315.673 90.0315 311.837L100.547 297.645H122.553C127.562 297.645 131.631 293.575 131.631 288.567V287.054C131.631 284.346 130.436 281.91 128.553 280.246C130.436 278.582 131.631 276.146 131.631 273.437V271.924C131.631 269.216 130.436 266.78 128.553 265.116C130.436 263.452 131.631 261.016 131.631 258.307V256.794C131.631 251.794 127.562 247.716 122.553 247.716Z" fill="#0D47A1"/>
<path d="M198.96 109.277H177.778C163.571 109.277 152.057 123.84 152.057 141.806C152.057 159.773 163.571 174.336 177.778 174.336H198.96C213.167 174.336 224.681 159.773 224.681 141.806C224.681 123.84 213.167 109.277 198.96 109.277Z" fill="#1976D2" stroke="#0D47A1" stroke-width="2" stroke-miterlimit="10" stroke-linecap="round" stroke-linejoin="round"/>
<path d="M152.057 141.807C152.057 132.192 155.355 123.552 160.598 117.599H139.196C128.628 117.599 120.057 128.439 120.057 141.807C120.057 155.174 128.628 166.015 139.196 166.015H160.598C155.355 160.061 152.057 151.422 152.057 141.807Z" fill="#1976D2" stroke="#0D47A1" stroke-width="2" stroke-miterlimit="10" stroke-linecap="round" stroke-linejoin="round"/>
<path d="M120.057 141.807C120.057 136.42 121.449 131.45 123.794 127.433H118.014C111.735 127.433 106.651 133.871 106.651 141.807C106.651 149.742 111.743 156.18 118.014 156.18H123.794C121.449 152.163 120.057 147.193 120.057 141.807Z" fill="#1976D2" stroke="#0D47A1" stroke-width="2" stroke-miterlimit="10" stroke-linecap="round" stroke-linejoin="round"/>
<path d="M198.959 174.336C213.165 174.336 224.68 159.772 224.68 141.806C224.68 123.841 213.165 109.277 198.959 109.277C184.754 109.277 173.238 123.841 173.238 141.806C173.238 159.772 184.754 174.336 198.959 174.336Z" fill="#2196F3" stroke="#0D47A1" stroke-width="2" stroke-miterlimit="10" stroke-linecap="round" stroke-linejoin="round"/>
<path d="M199.716 167.528C210.161 167.528 218.629 156.012 218.629 141.806C218.629 127.601 210.161 116.085 199.716 116.085C189.271 116.085 180.804 127.601 180.804 141.806C180.804 156.012 189.271 167.528 199.716 167.528Z" fill="white" stroke="#0D47A1" stroke-width="2" stroke-miterlimit="10" stroke-linecap="round" stroke-linejoin="round"/>
<path d="M236.111 114.573C236.081 114.573 236.058 114.58 236.028 114.58V114.573H213.333V114.83C219.241 119.876 223.394 127.94 224.423 137.268H236.028V137.26C236.058 137.26 236.081 137.268 236.111 137.268C241.081 137.268 245.106 132.184 245.106 125.92C245.106 119.656 241.081 114.573 236.111 114.573Z" fill="#1976D2" stroke="#0D47A1" stroke-width="2" stroke-miterlimit="10" stroke-linecap="round" stroke-linejoin="round"/>
<path d="M236.111 137.268C241.079 137.268 245.106 132.188 245.106 125.921C245.106 119.654 241.079 114.573 236.111 114.573C231.143 114.573 227.116 119.654 227.116 125.921C227.116 132.188 231.143 137.268 236.111 137.268Z" fill="#2196F3" stroke="#0D47A1" stroke-width="2" stroke-miterlimit="10" stroke-linecap="round" stroke-linejoin="round"/>
<path d="M219.438 122.145C219.294 121.903 219.15 121.669 218.999 121.427C219.15 121.661 219.294 121.903 219.438 122.145Z" fill="white" stroke="#0D47A1" stroke-width="2" stroke-miterlimit="10" stroke-linecap="round" stroke-linejoin="round"/>
<path d="M220.195 123.462C220.074 123.235 219.945 123.008 219.824 122.789C219.945 123.008 220.066 123.235 220.195 123.462Z" fill="white" stroke="#0D47A1" stroke-width="2" stroke-miterlimit="10" stroke-linecap="round" stroke-linejoin="round"/>
<path d="M220.891 124.83C220.793 124.618 220.687 124.414 220.581 124.202C220.687 124.406 220.793 124.618 220.891 124.83Z" fill="white" stroke="#0D47A1" stroke-width="2" stroke-miterlimit="10" stroke-linecap="round" stroke-linejoin="round"/>
<path d="M218.636 120.874C218.469 120.625 218.303 120.375 218.129 120.133C218.295 120.375 218.469 120.625 218.636 120.874Z" fill="white" stroke="#0D47A1" stroke-width="2" stroke-miterlimit="10" stroke-linecap="round" stroke-linejoin="round"/>
<path d="M217.781 119.656C217.592 119.399 217.403 119.141 217.206 118.899C217.403 119.141 217.592 119.399 217.781 119.656Z" fill="white" stroke="#0D47A1" stroke-width="2" stroke-miterlimit="10" stroke-linecap="round" stroke-linejoin="round"/>
<path d="M216.874 118.484C216.662 118.226 216.458 117.977 216.238 117.727C216.458 117.969 216.669 118.226 216.874 118.484Z" fill="white" stroke="#0D47A1" stroke-width="2" stroke-miterlimit="10" stroke-linecap="round" stroke-linejoin="round"/>
<path d="M227.26 137.268H224.431C224.424 137.222 224.416 137.185 224.416 137.139C224.59 138.667 224.688 140.218 224.688 141.807C224.688 151.422 221.39 160.061 216.147 166.015H234.947C230.09 160.061 227.034 151.422 227.034 141.807C227.018 140.264 227.102 138.751 227.26 137.268Z" fill="#1976D2" stroke="#0D47A1" stroke-width="2" stroke-miterlimit="10" stroke-linecap="round" stroke-linejoin="round"/>
<path d="M223.925 134.017C223.902 133.91 223.887 133.811 223.864 133.705C223.887 133.804 223.91 133.91 223.925 134.017Z" fill="white" stroke="#0D47A1" stroke-width="2" stroke-miterlimit="10" stroke-linecap="round" stroke-linejoin="round"/>
<path d="M224.22 135.703C224.204 135.604 224.189 135.505 224.174 135.406C224.189 135.505 224.204 135.604 224.22 135.703Z" fill="white" stroke="#0D47A1" stroke-width="2" stroke-miterlimit="10" stroke-linecap="round" stroke-linejoin="round"/>
<path d="M223.569 132.366C223.538 132.252 223.516 132.131 223.485 132.018C223.516 132.139 223.546 132.252 223.569 132.366Z" fill="white" stroke="#0D47A1" stroke-width="2" stroke-miterlimit="10" stroke-linecap="round" stroke-linejoin="round"/>
<path d="M222.669 129.21C222.616 129.059 222.571 128.915 222.518 128.764C222.571 128.915 222.623 129.059 222.669 129.21Z" fill="white" stroke="#0D47A1" stroke-width="2" stroke-miterlimit="10" stroke-linecap="round" stroke-linejoin="round"/>
<path d="M222.131 127.706C222.063 127.539 222.003 127.365 221.935 127.199C222.003 127.365 222.071 127.532 222.131 127.706Z" fill="white" stroke="#0D47A1" stroke-width="2" stroke-miterlimit="10" stroke-linecap="round" stroke-linejoin="round"/>
<path d="M221.542 126.246C221.458 126.056 221.375 125.867 221.292 125.678C221.375 125.867 221.458 126.056 221.542 126.246Z" fill="white" stroke="#0D47A1" stroke-width="2" stroke-miterlimit="10" stroke-linecap="round" stroke-linejoin="round"/>
<path d="M223.153 130.77C223.115 130.641 223.077 130.505 223.039 130.376C223.077 130.505 223.115 130.634 223.153 130.77Z" fill="white" stroke="#0D47A1" stroke-width="2" stroke-miterlimit="10" stroke-linecap="round" stroke-linejoin="round"/>
<path d="M270.457 109.277H250.841C245.946 109.277 241.407 111.289 237.625 114.746C241.869 115.654 245.107 120.307 245.107 125.92C245.107 132.184 241.082 137.267 236.112 137.267C236.081 137.267 236.059 137.26 236.028 137.26V137.267H227.253C227.102 138.75 227.019 140.263 227.019 141.806C227.019 159.773 237.685 174.336 250.841 174.336H270.457C283.612 174.336 294.279 159.773 294.279 141.806C294.279 123.84 283.612 109.277 270.457 109.277Z" fill="#1976D2" stroke="#0D47A1" stroke-width="2" stroke-miterlimit="10" stroke-linecap="round" stroke-linejoin="round"/>
<path d="M270.457 174.336C283.614 174.336 294.279 159.772 294.279 141.806C294.279 123.841 283.614 109.277 270.457 109.277C257.3 109.277 246.635 123.841 246.635 141.806C246.635 159.772 257.3 174.336 270.457 174.336Z" fill="#2196F3" stroke="#0D47A1" stroke-width="2" stroke-miterlimit="10" stroke-linecap="round" stroke-linejoin="round"/>
<path d="M271.16 167.527C280.833 167.527 288.673 156.011 288.673 141.806C288.673 127.601 280.833 116.085 271.16 116.085C261.488 116.085 253.647 127.601 253.647 141.806C253.647 156.011 261.488 167.527 271.16 167.527Z" fill="white" stroke="#0D47A1" stroke-width="2" stroke-miterlimit="10" stroke-linecap="round" stroke-linejoin="round"/>
<path d="M270.456 109.277C272.922 109.277 275.305 109.791 277.537 110.737C278.286 111.055 279.012 111.418 279.723 111.834C280.79 112.454 281.819 113.173 282.802 113.99C283.786 114.807 284.724 115.715 285.601 116.706C285.896 117.039 286.184 117.379 286.464 117.727C287.591 119.127 288.62 120.67 289.535 122.342C289.762 122.758 289.981 123.181 290.201 123.62C290.632 124.483 291.025 125.383 291.396 126.306C291.759 127.229 292.1 128.174 292.402 129.15C292.856 130.61 293.227 132.123 293.522 133.682C294.014 136.277 294.271 139.007 294.271 141.814C294.271 144.621 294.014 147.344 293.522 149.946C293.227 151.505 292.849 153.018 292.402 154.478C292.1 155.454 291.767 156.399 291.396 157.322C291.033 158.245 290.632 159.138 290.201 160.008C289.989 160.439 289.762 160.863 289.535 161.286C288.62 162.958 287.591 164.502 286.464 165.901C286.184 166.249 285.896 166.59 285.601 166.922C284.716 167.913 283.786 168.829 282.802 169.638C281.819 170.455 280.79 171.174 279.723 171.794C279.012 172.203 278.278 172.573 277.537 172.891C275.298 173.844 272.922 174.351 270.456 174.351H250.84C244.728 174.351 239.152 171.204 234.931 166.03H216.132C211.578 171.204 205.556 174.351 198.952 174.351H177.77C171.165 174.351 165.151 171.204 160.59 166.03H139.196C132.879 166.03 127.281 162.156 123.793 156.195H118.014C111.735 156.195 106.651 149.757 106.651 141.822C106.651 133.886 111.742 127.448 118.014 127.448H123.793C127.281 121.487 132.879 117.614 139.196 117.614H160.597C165.151 112.439 171.173 109.292 177.777 109.292H198.959C204.285 109.292 209.233 111.335 213.333 114.845V114.588H236.028V114.595C236.058 114.595 236.081 114.588 236.111 114.588C236.625 114.588 237.125 114.656 237.617 114.762C241.399 111.312 245.946 109.292 250.833 109.292H270.456V109.277ZM270.456 106.251H250.84C245.787 106.251 240.915 108.082 236.671 111.562C236.482 111.546 236.293 111.546 236.111 111.546C236.096 111.546 236.081 111.546 236.066 111.546C236.051 111.546 236.035 111.546 236.02 111.546H214.082C209.55 108.074 204.346 106.251 198.952 106.251H177.77C170.961 106.251 164.433 109.194 159.266 114.572H139.188C132.576 114.572 126.305 118.219 122.121 124.407H118.014C110.078 124.407 103.625 132.214 103.625 141.807C103.625 151.399 110.078 159.206 118.014 159.206H122.129C126.312 165.394 132.584 169.041 139.196 169.041H159.273C164.44 174.419 170.969 177.362 177.777 177.362H198.959C205.768 177.362 212.296 174.419 217.463 169.041H233.539C238.365 174.419 244.455 177.362 250.84 177.362H270.456C273.278 177.362 276.062 176.787 278.725 175.66C279.58 175.297 280.427 174.873 281.244 174.404C282.447 173.708 283.627 172.884 284.739 171.961C285.836 171.053 286.887 170.032 287.871 168.92C288.196 168.556 288.521 168.171 288.832 167.785C290.072 166.249 291.207 164.547 292.198 162.724C292.448 162.27 292.69 161.808 292.917 161.339C293.378 160.401 293.817 159.425 294.21 158.434C294.604 157.436 294.967 156.407 295.292 155.371C295.784 153.797 296.185 152.155 296.495 150.506C297.025 147.685 297.297 144.757 297.297 141.814C297.297 138.871 297.025 135.951 296.495 133.122C296.185 131.465 295.776 129.831 295.292 128.258C294.967 127.214 294.604 126.185 294.21 125.194C293.817 124.203 293.378 123.227 292.917 122.289C292.682 121.82 292.44 121.351 292.198 120.904C291.199 119.081 290.065 117.379 288.832 115.843C288.521 115.458 288.196 115.079 287.871 114.709C286.887 113.597 285.836 112.575 284.739 111.668C283.627 110.745 282.447 109.92 281.244 109.224C280.427 108.747 279.58 108.324 278.725 107.968C276.062 106.826 273.278 106.251 270.456 106.251Z" fill="#0D47A1"/>
<path d="M271.16 167.58C280.833 167.58 288.673 156.065 288.673 141.859C288.673 127.654 280.833 116.138 271.16 116.138C261.488 116.138 253.647 127.654 253.647 141.859C253.647 156.065 261.488 167.58 271.16 167.58Z" fill="#BBDEFB" stroke="#0D47A1" stroke-width="2" stroke-miterlimit="10"/>
<path d="M199.882 167.58C210.327 167.58 218.795 156.065 218.795 141.859C218.795 127.654 210.327 116.138 199.882 116.138C189.437 116.138 180.97 127.654 180.97 141.859C180.97 156.065 189.437 167.58 199.882 167.58Z" fill="#BBDEFB" stroke="#0D47A1" stroke-width="2" stroke-miterlimit="10"/>
<path d="M199.883 157.413C206.2 157.413 211.321 150.449 211.321 141.859C211.321 133.269 206.2 126.306 199.883 126.306C193.565 126.306 188.444 133.269 188.444 141.859C188.444 150.449 193.565 157.413 199.883 157.413Z" fill="#2196F3"/>
<path d="M270.866 157.413C276.694 157.413 281.419 150.449 281.419 141.859C281.419 133.269 276.694 126.306 270.866 126.306C265.037 126.306 260.312 133.269 260.312 141.859C260.312 150.449 265.037 157.413 270.866 157.413Z" fill="#2196F3"/>
<path d="M194.005 141.428C197.075 141.428 199.565 138.041 199.565 133.863C199.565 129.685 197.075 126.298 194.005 126.298C190.934 126.298 188.444 129.685 188.444 133.863C188.444 138.041 190.934 141.428 194.005 141.428Z" fill="white"/>
<path d="M206.865 156.974C209.183 156.974 211.063 154.417 211.063 151.262C211.063 148.108 209.183 145.551 206.865 145.551C204.546 145.551 202.666 148.108 202.666 151.262C202.666 154.417 204.546 156.974 206.865 156.974Z" fill="white"/>
<path d="M265.873 141.428C268.944 141.428 271.433 138.041 271.433 133.863C271.433 129.685 268.944 126.298 265.873 126.298C262.802 126.298 260.312 129.685 260.312 133.863C260.312 138.041 262.802 141.428 265.873 141.428Z" fill="white"/>
<path d="M278.733 156.974C281.052 156.974 282.931 154.417 282.931 151.262C282.931 148.108 281.052 145.551 278.733 145.551C276.414 145.551 274.534 148.108 274.534 151.262C274.534 154.417 276.414 156.974 278.733 156.974Z" fill="white"/>
<path d="M62.9268 49.5127L79.8346 63.5988C83.8667 66.9576 88.9504 68.8035 94.2081 68.8035H139.939C145.189 68.8035 150.272 66.9652 154.312 63.5988L171.22 49.5127H62.9268Z" fill="#2196F3" stroke="#0D47A1" stroke-width="2" stroke-miterlimit="10" stroke-linecap="round" stroke-linejoin="round"/>
<path d="M55.3537 46.4873H40.3977C35.3972 46.4873 31.1154 50.3984 31.0171 55.3989C30.9263 60.4901 35.0266 64.6433 40.0951 64.6433H81.5211L63.1003 49.2939C60.9292 47.4783 58.1831 46.4873 55.3537 46.4873Z" fill="#1976D2" stroke="#0D47A1" stroke-width="2" stroke-miterlimit="10" stroke-linecap="round" stroke-linejoin="round"/>
<path d="M193.362 46.4873H178.814C175.962 46.4873 173.209 47.4934 171.022 49.3242L152.813 64.6433H193.665C198.733 64.6433 202.833 60.4901 202.743 55.3989C202.652 50.3984 198.362 46.4873 193.362 46.4873Z" fill="#1976D2" stroke="#0D47A1" stroke-width="2" stroke-miterlimit="10" stroke-linecap="round" stroke-linejoin="round"/>
<path d="M89.1466 31.4627L74.6143 49.5128H159.297L144.757 31.4627C130.467 13.7227 103.437 13.7227 89.1466 31.4627Z" fill="#2196F3" stroke="#0D47A1" stroke-width="2" stroke-miterlimit="10" stroke-linecap="round" stroke-linejoin="round"/>
<path d="M116.955 18.1564C127.289 18.1564 137.615 22.5895 144.764 31.4632L159.304 49.5133H170.81L171.03 49.3242C173.208 47.4859 175.97 46.4873 178.822 46.4873H193.369C198.37 46.4873 202.651 50.3985 202.75 55.3989C202.841 60.4902 198.74 64.6434 193.672 64.6434H152.949C149.159 67.3365 144.613 68.8041 139.937 68.8041H94.207C89.5318 68.8041 84.9852 67.3365 81.1951 64.6434H40.0944C35.0259 64.6434 30.9256 60.4902 31.0164 55.3989C31.1072 50.3985 35.3966 46.4873 40.397 46.4873H55.3531C58.1824 46.4873 60.9285 47.4784 63.0996 49.294L63.3644 49.5133H74.606L89.146 31.4632C96.2949 22.5895 106.621 18.1564 116.955 18.1564ZM116.955 15.1304C105.176 15.1304 94.1843 20.3956 86.7932 29.5644L73.1611 46.4873H64.4311C61.8211 44.528 58.6287 43.4613 55.3531 43.4613H40.397C33.6793 43.4613 28.1114 48.7871 27.9904 55.3384C27.9299 58.6141 29.163 61.7082 31.4552 64.0457C33.7474 66.3833 36.8188 67.6694 40.0944 67.6694H80.2571C84.4178 70.3928 89.214 71.8301 94.1994 71.8301H139.93C144.915 71.8301 149.719 70.3928 153.872 67.6694H193.664C196.94 67.6694 200.004 66.3833 202.303 64.0457C204.596 61.7082 205.829 58.6141 205.768 55.3384C205.647 48.7871 200.087 43.4613 193.362 43.4613H178.814C175.538 43.4613 172.346 44.528 169.736 46.4873H160.741L147.109 29.5644C139.726 20.3956 128.734 15.1304 116.955 15.1304Z" fill="#0D47A1"/>
<path d="M81.3159 41.1919L74.6133 49.5134H159.296L152.593 41.1919H81.3159Z" fill="#1976D2" stroke="#0D47A1" stroke-width="2" stroke-miterlimit="10" stroke-linecap="round" stroke-linejoin="round"/>
</svg>
