<svg width="40" height="40" viewBox="0 0 40 40" fill="none" xmlns="http://www.w3.org/2000/svg">
<rect width="40" height="40" rx="8" fill="#90A4AE"/>
<path d="M27.5 11.75H12.5C12.0858 11.75 11.75 12.0858 11.75 12.5V27.5C11.75 27.9142 12.0858 28.25 12.5 28.25H27.5C27.9142 28.25 28.25 27.9142 28.25 27.5V12.5C28.25 12.0858 27.9142 11.75 27.5 11.75Z" stroke="white" stroke-width="2" stroke-linecap="round" stroke-linejoin="round"/>
<path d="M28.25 23.0001L24.2803 19.0305C24.1397 18.8898 23.9489 18.8108 23.75 18.8108C23.5511 18.8108 23.3603 18.8898 23.2197 19.0305L19.0303 23.2198C18.8897 23.3605 18.6989 23.4395 18.5 23.4395C18.3011 23.4395 18.1103 23.3605 17.9697 23.2198L16.0303 21.2805C15.8897 21.1398 15.6989 21.0608 15.5 21.0608C15.3011 21.0608 15.1103 21.1398 14.9697 21.2805L11.75 24.5001" stroke="white" stroke-width="2" stroke-linecap="round" stroke-linejoin="round"/>
<path d="M17.375 17.75C17.9963 17.75 18.5 17.2463 18.5 16.625C18.5 16.0037 17.9963 15.5 17.375 15.5C16.7537 15.5 16.25 16.0037 16.25 16.625C16.25 17.2463 16.7537 17.75 17.375 17.75Z" fill="white"/>
</svg>
