<svg width="24" height="24" viewBox="0 0 24 24" fill="none" xmlns="http://www.w3.org/2000/svg">
<path d="M19.5 3.75H4.5C4.08579 3.75 3.75 4.08579 3.75 4.5V19.5C3.75 19.9142 4.08579 20.25 4.5 20.25H19.5C19.9142 20.25 20.25 19.9142 20.25 19.5V4.5C20.25 4.08579 19.9142 3.75 19.5 3.75Z" stroke="white" stroke-width="2" stroke-linecap="round" stroke-linejoin="round"/>
<path d="M20.25 15.0001L16.2803 11.0305C16.1397 10.8898 15.9489 10.8108 15.75 10.8108C15.5511 10.8108 15.3603 10.8898 15.2197 11.0305L11.0303 15.2198C10.8897 15.3605 10.6989 15.4395 10.5 15.4395C10.3011 15.4395 10.1103 15.3605 9.96967 15.2198L8.03033 13.2805C7.88967 13.1398 7.69891 13.0608 7.5 13.0608C7.30108 13.0608 7.11032 13.1398 6.96967 13.2805L3.75 16.5001" stroke="white" stroke-width="2" stroke-linecap="round" stroke-linejoin="round"/>
<path d="M9.375 9.75C9.99632 9.75 10.5 9.24632 10.5 8.625C10.5 8.00368 9.99632 7.5 9.375 7.5C8.75368 7.5 8.25 8.00368 8.25 8.625C8.25 9.24632 8.75368 9.75 9.375 9.75Z" fill="white"/>
</svg>
