<svg width="624" height="370" viewBox="0 0 624 370" fill="none" xmlns="http://www.w3.org/2000/svg">
<path d="M320 162.232V122.894C320 97.8686 299.635 77.5035 274.61 77.5035H270.827H261.749H252.671C241.142 77.5035 231.467 85.6057 229.046 96.4161H218.599C218.326 96.2572 218.039 96.0984 217.744 95.9395C217.729 95.9319 217.706 95.9168 217.691 95.9092C215.489 89.1461 210.504 83.6463 204.096 80.7414C207.433 79.357 210.489 77.3069 213.106 74.644C218.266 69.3863 221.035 62.434 220.906 55.0582C220.77 47.7201 217.721 40.8813 212.327 35.8203C207.175 30.9863 200.443 28.3234 193.377 28.3234H178.829C174.88 28.3234 170.992 29.1026 167.376 30.5778L166.748 29.7986L158.911 20.07C148.622 7.31537 133.333 0 116.955 0C100.577 0 85.2879 7.31537 75.0071 20.0775L66.6099 30.5097C63.0544 29.0875 59.234 28.3385 55.3532 28.3385H40.3972C33.3314 28.3385 26.5986 31.0014 21.4468 35.8355C16.0454 40.8965 13.0043 47.7352 12.8681 55.0733C12.7319 62.4416 15.5007 69.4014 20.6676 74.6591C24.087 78.139 28.2705 80.5749 32.8397 81.8307C27.3248 85.1139 23.1565 90.4322 21.3787 96.7338C9.2747 98.6402 0 109.14 0 121.759V151.187C0 162.428 7.36076 171.991 17.5206 175.296C18.4511 184.889 24.7603 192.938 33.3844 196.38C36.2742 207.198 46.1541 215.194 57.8723 215.194H81.7021V233.313C76.1418 234.546 71.0355 237.33 66.905 241.46L54.7934 253.572C53.7343 254.631 52.7584 255.765 51.8733 256.968C41.479 260.789 34.0426 270.805 34.0426 282.515V302.184C34.0426 317.201 46.26 329.418 61.2766 329.418H61.7759C66.1712 331.801 71.1414 333.095 76.1948 333.095H77.8742C79.3192 333.095 80.7565 332.989 82.1787 332.785C83.4421 338.201 87.1489 342.824 92.3461 345.191L142.275 367.887C144.666 368.968 147.223 369.513 149.787 369.513C152.352 369.513 154.916 368.968 157.299 367.887L199.716 348.611L242.133 367.894C244.524 368.976 247.081 369.521 249.645 369.521C252.21 369.521 254.774 368.976 257.157 367.894L307.087 345.199C313.57 342.256 317.73 335.788 317.73 328.669V206.116C317.73 200.465 315.09 195.17 310.665 191.75C311.648 189.322 312.261 186.697 312.405 183.958C317.261 177.876 320 170.266 320 162.232Z" fill="#C5CAE9"/>
<path d="M207.803 119.111C203.915 119.111 200.76 115.956 200.76 112.068V103.686C200.76 99.7973 197.606 96.6427 193.717 96.6427H178.012C174.124 96.6427 170.969 93.4881 170.969 89.5996V88.4346C170.969 84.5462 167.815 81.3916 163.926 81.3916H141.7C137.812 81.3916 134.657 84.5462 134.657 88.4346V88.5784V93.5788V93.8134C134.657 97.785 137.873 101 141.844 101H149.273C153.245 101 156.46 104.215 156.46 108.187V113.437C156.46 117.409 159.675 120.624 163.647 120.624H165.613C169.585 120.624 172.8 123.839 172.8 127.811V157.359C172.8 161.331 169.585 164.546 165.613 164.546H164.01C160.038 164.546 156.823 167.761 156.823 171.733V175.47C156.823 179.442 153.608 182.657 149.636 182.657H128.984C125.012 182.657 121.797 185.872 121.797 189.844V189.987C121.797 193.876 124.951 197.03 128.84 197.03H165.757C169.646 197.03 172.8 193.876 172.8 189.987V188.943C172.8 185.055 175.955 181.9 179.843 181.9H189.647C193.536 181.9 196.69 178.746 196.69 174.857V171.589C196.69 167.701 199.845 164.546 203.734 164.546H207.803C211.692 164.546 214.847 161.392 214.847 157.503V126.154C214.847 122.265 211.692 119.111 207.803 119.111Z" fill="#F48FB1" stroke="#D81B60" stroke-width="2" stroke-miterlimit="10" stroke-linecap="round" stroke-linejoin="round"/>
<path d="M161.891 99.4426H173.647C176.991 99.4426 179.699 102.151 179.699 105.495V113.816C179.699 117.16 182.407 119.868 185.751 119.868H189.988C193.331 119.868 196.04 122.576 196.04 125.92V135.429" stroke="#D81B60" stroke-width="2" stroke-miterlimit="10" stroke-linecap="round" stroke-linejoin="round"/>
<path d="M186.598 156.179V168.283C186.598 171.627 183.89 174.335 180.546 174.335H168.321" stroke="#D81B60" stroke-width="2" stroke-miterlimit="10" stroke-linecap="round" stroke-linejoin="round"/>
<path d="M163.926 81.3917C167.814 81.3917 170.969 84.5463 170.969 88.4347V89.5997C170.969 93.4881 174.124 96.6427 178.012 96.6427H193.717C197.605 96.6427 200.76 99.7974 200.76 103.686V112.068C200.76 115.956 203.915 119.111 207.803 119.111C211.692 119.111 214.846 122.265 214.846 126.154V157.503C214.846 161.392 211.692 164.546 207.803 164.546H203.733C199.845 164.546 196.69 167.701 196.69 171.589V174.857C196.69 178.746 193.536 181.9 189.647 181.9H179.843C175.954 181.9 172.8 185.055 172.8 188.943V189.987C172.8 193.876 169.645 197.03 165.757 197.03H128.84C124.951 197.03 121.797 193.876 121.797 189.987V189.844C121.797 185.872 125.012 182.657 128.983 182.657H149.636C153.607 182.657 156.823 179.442 156.823 175.47V171.733C156.823 167.761 160.038 164.546 164.009 164.546H165.613C169.585 164.546 172.8 161.331 172.8 157.36V127.811C172.8 123.839 169.585 120.624 165.613 120.624H163.646C159.675 120.624 156.459 117.409 156.459 113.437V108.187C156.459 104.215 153.244 101 149.273 101H141.844C137.872 101 134.657 97.7851 134.657 93.8134V93.5789V88.5784V88.4347C134.657 84.5463 137.812 81.3917 141.7 81.3917H163.926ZM163.926 78.3657H141.7C136.147 78.3657 131.631 82.882 131.631 88.4347V88.5784V93.5789V93.8134C131.631 99.4418 136.215 104.026 141.844 104.026H149.273C151.565 104.026 153.433 105.895 153.433 108.187V113.437C153.433 119.065 158.018 123.65 163.646 123.65H165.613C167.905 123.65 169.774 125.518 169.774 127.811V157.36C169.774 159.652 167.905 161.52 165.613 161.52H164.009C158.381 161.52 153.797 166.105 153.797 171.733V175.47C153.797 177.762 151.928 179.631 149.636 179.631H128.983C123.355 179.631 118.771 184.215 118.771 189.844V189.987C118.771 195.54 123.287 200.056 128.84 200.056H165.757C171.31 200.056 175.826 195.54 175.826 189.987V188.943C175.826 186.727 177.626 184.926 179.843 184.926H189.647C195.2 184.926 199.716 180.41 199.716 174.857V171.589C199.716 169.373 201.517 167.572 203.733 167.572H207.803C213.356 167.572 217.872 163.056 217.872 157.503V126.154C217.872 120.601 213.356 116.085 207.803 116.085C205.587 116.085 203.786 114.284 203.786 112.068V103.686C203.786 98.1331 199.27 93.6167 193.717 93.6167H178.012C175.796 93.6167 173.995 91.8163 173.995 89.5997V88.4347C173.995 82.882 169.479 78.3657 163.926 78.3657Z" fill="#D81B60"/>
<path d="M59.7638 89.2288V88.5783C59.7638 84.6066 62.9789 81.3915 66.9506 81.3915H127.471C131.442 81.3915 134.657 84.6066 134.657 88.5783V93.8132C134.657 97.7849 137.873 101 141.844 101H149.273C153.245 101 156.46 104.215 156.46 108.187V113.437C156.46 117.409 159.675 120.624 163.647 120.624H165.613C169.585 120.624 172.8 123.839 172.8 127.81V157.359C172.8 161.331 169.585 164.546 165.613 164.546H164.01C160.038 164.546 156.823 167.761 156.823 171.733V175.47C156.823 179.442 153.608 182.657 149.636 182.657H128.984C125.012 182.657 121.797 185.872 121.797 189.843C121.797 193.815 118.582 197.03 114.61 197.03H57.8726C53.9009 197.03 50.6858 193.815 50.6858 189.843V187.196C50.6858 183.224 47.4707 180.009 43.499 180.009H42.7425C38.7709 180.009 35.5558 176.794 35.5558 172.822V165.56C35.5558 161.588 32.3406 158.373 28.369 158.373H25.343C21.3714 158.373 18.1562 155.158 18.1562 151.186V121.758C18.1562 117.787 21.3714 114.572 25.343 114.572H31.395C35.3667 114.572 38.5818 111.357 38.5818 107.385V103.602C38.5818 99.6307 41.7969 96.4156 45.7685 96.4156H52.5771C56.5487 96.4156 59.7638 93.2005 59.7638 89.2288Z" fill="#F8BBD0" stroke="#D81B60" stroke-width="2" stroke-miterlimit="10" stroke-linecap="round" stroke-linejoin="round"/>
<path d="M60.52 107.763V129.081C60.52 132.425 57.8117 135.133 54.468 135.133H34.0425" stroke="#D81B60" stroke-width="2" stroke-miterlimit="10" stroke-linecap="round" stroke-linejoin="round"/>
<path d="M34.0425 135.428H54.468C57.8117 135.428 60.52 138.136 60.52 141.48V163.744" stroke="#D81B60" stroke-width="2" stroke-miterlimit="10" stroke-linecap="round" stroke-linejoin="round"/>
<path d="M60.52 156.18H76.1039C79.4477 156.18 82.156 153.471 82.156 150.128V113.059" stroke="#D81B60" stroke-width="2" stroke-miterlimit="10" stroke-linecap="round" stroke-linejoin="round"/>
<path d="M95.4776 156.179V173.957C95.4776 177.301 92.7693 180.009 89.4256 180.009H45.3896" stroke="#D81B60" stroke-width="2" stroke-miterlimit="10" stroke-linecap="round" stroke-linejoin="round"/>
<path d="M107.423 183.413H128.983" stroke="#D81B60" stroke-width="2" stroke-miterlimit="10" stroke-linecap="round" stroke-linejoin="round"/>
<path d="M95.478 163.744H141.935" stroke="#D81B60" stroke-width="2" stroke-miterlimit="10" stroke-linecap="round" stroke-linejoin="round"/>
<path d="M82.1558 139.211H150.543C153.887 139.211 156.595 141.919 156.595 145.263V171.808" stroke="#D81B60" stroke-width="2" stroke-miterlimit="10" stroke-linecap="round" stroke-linejoin="round"/>
<path d="M74.6133 97.3689H117.068" stroke="#D81B60" stroke-width="2" stroke-miterlimit="10" stroke-linecap="round" stroke-linejoin="round"/>
<path d="M99.8584 97.3689V113.815C99.8584 117.159 102.567 119.867 105.91 119.867H141.935" stroke="#D81B60" stroke-width="2" stroke-miterlimit="10" stroke-linecap="round" stroke-linejoin="round"/>
<path d="M127.47 81.3916C131.442 81.3916 134.657 84.6067 134.657 88.5783V93.8133C134.657 97.785 137.872 101 141.844 101H149.273C153.244 101 156.459 104.215 156.459 108.187V113.437C156.459 117.409 159.675 120.624 163.646 120.624H165.613C169.585 120.624 172.8 123.839 172.8 127.81V157.359C172.8 161.331 169.585 164.546 165.613 164.546H164.009C160.038 164.546 156.823 167.761 156.823 171.733V175.47C156.823 179.442 153.607 182.657 149.636 182.657H128.983C125.012 182.657 121.797 185.872 121.797 189.844C121.797 193.815 118.581 197.03 114.61 197.03H57.8722C53.9006 197.03 50.6854 193.815 50.6854 189.844V187.196C50.6854 183.224 47.4703 180.009 43.4987 180.009H42.7422C38.7705 180.009 35.5554 176.794 35.5554 172.822V165.56C35.5554 161.588 32.3403 158.373 28.3687 158.373H25.3426C21.371 158.373 18.1559 155.158 18.1559 151.186V121.758C18.1559 117.787 21.371 114.572 25.3426 114.572H31.3947C35.3663 114.572 38.5814 111.357 38.5814 107.385V103.602C38.5814 99.6308 41.7965 96.4157 45.7682 96.4157H52.5767C56.5483 96.4157 59.7635 93.2006 59.7635 89.2289V88.5783C59.7635 84.6067 62.9786 81.3916 66.9502 81.3916H127.47ZM127.47 78.3656H66.9502C61.3218 78.3656 56.7374 82.95 56.7374 88.5783V89.2289C56.7374 91.5211 54.8689 93.3897 52.5767 93.3897H45.7682C40.1398 93.3897 35.5554 97.9741 35.5554 103.602V107.385C35.5554 109.677 33.6869 111.546 31.3947 111.546H25.3426C19.7143 111.546 15.1299 116.13 15.1299 121.758V151.186C15.1299 156.815 19.7143 161.399 25.3426 161.399H28.3687C30.6609 161.399 32.5294 163.268 32.5294 165.56V172.822C32.5294 178.451 37.1138 183.035 42.7422 183.035H43.4987C45.7909 183.035 47.6594 184.904 47.6594 187.196V189.844C47.6594 195.472 52.2438 200.056 57.8722 200.056H114.61C120.238 200.056 124.823 195.472 124.823 189.844C124.823 187.551 126.691 185.683 128.983 185.683H149.636C155.264 185.683 159.849 181.098 159.849 175.47V171.733C159.849 169.441 161.717 167.572 164.009 167.572H165.613C171.241 167.572 175.826 162.988 175.826 157.359V127.81C175.826 122.182 171.241 117.598 165.613 117.598H163.646C161.354 117.598 159.485 115.729 159.485 113.437V108.187C159.485 102.558 154.901 97.9741 149.273 97.9741H141.844C139.552 97.9741 137.683 96.1055 137.683 93.8133V88.5783C137.683 82.95 133.099 78.3656 127.47 78.3656Z" fill="#D81B60"/>
<path d="M264.776 103.224V101.711C264.776 98.3668 267.484 95.6585 270.828 95.6585H261.75C258.406 95.6585 255.698 98.3668 255.698 101.711V103.224C255.698 106.567 258.406 109.276 261.75 109.276H270.828C267.484 109.276 264.776 106.567 264.776 103.224Z" fill="white" stroke="#1A237E" stroke-width="2" stroke-miterlimit="10" stroke-linecap="round" stroke-linejoin="round"/>
<path d="M255.698 103.224V101.711C255.698 98.3669 258.406 95.6586 261.75 95.6586H252.672C249.328 95.6586 246.62 98.3669 246.62 101.711V103.224C246.62 106.567 249.328 109.276 252.672 109.276H261.75C258.406 109.276 255.698 106.567 255.698 103.224Z" fill="white" stroke="#1A237E" stroke-width="2" stroke-miterlimit="10" stroke-linecap="round" stroke-linejoin="round"/>
<path d="M274.61 95.6585H270.828C267.484 95.6585 264.776 98.3668 264.776 101.711V103.224C264.776 106.567 267.484 109.276 270.828 109.276V109.291C283.809 109.563 294.279 123.256 294.279 141.049C294.279 159.016 283.613 173.578 270.457 173.578H251.091C252.596 175.19 254.412 176.506 256.454 177.421V182.656C256.454 186 259.163 188.708 262.506 188.708H288.227C291.571 188.708 294.279 186 294.279 182.656V176.181C298.834 173.207 301.844 168.078 301.844 162.231V122.893C301.844 107.853 289.65 95.6585 274.61 95.6585Z" fill="white" stroke="#1A237E" stroke-width="2" stroke-miterlimit="10" stroke-linecap="round" stroke-linejoin="round"/>
<path d="M294.279 176.181C291.669 177.883 288.552 178.874 285.201 178.874L294.279 176.181Z" fill="white"/>
<path d="M294.279 176.181C291.669 177.883 288.552 178.874 285.201 178.874" stroke="#1A237E" stroke-width="2" stroke-miterlimit="10" stroke-linecap="round" stroke-linejoin="round"/>
<path d="M263.263 178.874C260.834 178.874 258.534 178.352 256.454 177.422L263.263 178.874Z" fill="white"/>
<path d="M263.263 178.874C260.834 178.874 258.534 178.352 256.454 177.422" stroke="#1A237E" stroke-width="2" stroke-miterlimit="10" stroke-linecap="round" stroke-linejoin="round"/>
<path d="M274.61 95.6594C289.649 95.6594 301.844 107.854 301.844 122.893V162.231C301.844 168.072 298.833 173.208 294.279 176.181V182.657C294.279 186.001 291.571 188.709 288.227 188.709H262.506C259.162 188.709 256.454 186.001 256.454 182.657V177.422C254.419 176.507 252.596 175.19 251.09 173.579H270.457C283.612 173.579 294.279 159.016 294.279 141.049C294.279 123.257 283.809 109.564 270.827 109.292V109.276H261.749H252.671C249.328 109.276 246.619 106.568 246.619 103.224V101.711C246.619 98.3676 249.328 95.6594 252.671 95.6594H261.749H270.827H274.61ZM274.61 92.6334H270.827H261.749H252.671C247.663 92.6334 243.593 96.7033 243.593 101.711V103.224C243.593 108.232 247.663 112.302 252.671 112.302H261.749H270.547C270.615 112.31 270.691 112.31 270.759 112.318C282.25 112.56 291.245 125.178 291.245 141.049C291.245 157.314 281.918 170.553 270.449 170.553H251.083C249.88 170.553 248.79 171.264 248.306 172.376C247.822 173.481 248.049 174.767 248.866 175.644C250.205 177.082 251.733 178.292 253.413 179.268V182.657C253.413 187.665 257.483 191.735 262.491 191.735H288.212C293.22 191.735 297.29 187.665 297.29 182.657V177.732C302.056 174.018 304.855 168.336 304.855 162.231V122.893C304.87 106.213 291.298 92.6334 274.61 92.6334Z" fill="#1A237E"/>
<path d="M199.716 328.663L149.787 351.358V228.805L199.716 206.11V328.663Z" fill="#C5CAE9" stroke="#1A237E" stroke-width="2" stroke-miterlimit="10" stroke-linecap="round" stroke-linejoin="round"/>
<path d="M249.645 351.358L199.716 328.663V206.109L249.645 228.804V351.358Z" fill="white" stroke="#1A237E" stroke-width="2" stroke-miterlimit="10" stroke-linecap="round" stroke-linejoin="round"/>
<path d="M299.574 328.663L249.645 351.358V228.804L299.574 206.109V328.663Z" fill="#C5CAE9" stroke="#1A237E" stroke-width="2" stroke-miterlimit="10" stroke-linecap="round" stroke-linejoin="round"/>
<path d="M99.8584 206.11V250.744H122.553C125.897 250.744 128.605 253.452 128.605 256.796V258.309C128.605 261.652 125.897 264.361 122.553 264.361H99.8584V265.874H122.553C125.897 265.874 128.605 268.582 128.605 271.926V273.439C128.605 276.782 125.897 279.491 122.553 279.491H99.8584V281.004H122.553C125.897 281.004 128.605 283.712 128.605 287.056V288.569C128.605 291.912 125.897 294.621 122.553 294.621H99.8584V328.663L149.787 351.358V228.805L99.8584 206.11Z" fill="white" stroke="#1A237E" stroke-width="2" stroke-miterlimit="10" stroke-linecap="round" stroke-linejoin="round"/>
<path d="M299.574 206.109V328.662L249.645 351.357L199.716 328.662L149.787 351.357L99.8578 328.662V294.62H122.553C125.897 294.62 128.605 291.912 128.605 288.568V287.055C128.605 283.711 125.897 281.003 122.553 281.003H99.8578V279.49H122.553C125.897 279.49 128.605 276.781 128.605 273.438V271.925C128.605 268.581 125.897 265.873 122.553 265.873H99.8578V264.36H122.553C125.897 264.36 128.605 261.651 128.605 258.308V256.795C128.605 253.451 125.897 250.743 122.553 250.743H99.8578V206.109L149.787 228.804L199.716 206.109L249.645 228.804L299.574 206.109ZM299.574 203.083C299.15 203.083 298.719 203.174 298.326 203.355L249.645 225.483L200.972 203.355C200.571 203.174 200.147 203.083 199.716 203.083C199.285 203.083 198.861 203.174 198.46 203.355L149.787 225.483L101.114 203.355C100.713 203.174 100.289 203.083 99.8654 203.083C99.2904 203.083 98.723 203.242 98.2238 203.567C97.3613 204.127 96.8394 205.08 96.8394 206.109V250.743C96.8394 252.415 98.1935 253.769 99.8654 253.769H122.56C124.232 253.769 125.586 255.123 125.586 256.795V258.308C125.586 259.98 124.232 261.334 122.56 261.334H99.8654C98.1935 261.334 96.8394 262.688 96.8394 264.36V265.873C96.8394 267.545 98.1935 268.899 99.8654 268.899H122.56C124.232 268.899 125.586 270.253 125.586 271.925V273.438C125.586 275.11 124.232 276.464 122.56 276.464H99.8654C98.1935 276.464 96.8394 277.818 96.8394 279.49V281.003C96.8394 282.675 98.1935 284.029 99.8654 284.029H122.56C124.232 284.029 125.586 285.383 125.586 287.055V288.568C125.586 290.24 124.232 291.594 122.56 291.594H99.8654C98.1935 291.594 96.8394 292.948 96.8394 294.62V328.662C96.8394 329.85 97.5353 330.924 98.6096 331.416L148.539 354.111C148.94 354.293 149.363 354.383 149.794 354.383C150.226 354.383 150.649 354.293 151.05 354.111L199.716 331.991L248.389 354.119C248.79 354.3 249.214 354.391 249.645 354.391C250.076 354.391 250.5 354.3 250.901 354.119L300.83 331.424C301.912 330.932 302.6 329.858 302.6 328.67V206.117C302.6 205.088 302.078 204.127 301.216 203.575C300.716 203.25 300.149 203.083 299.574 203.083Z" fill="#1A237E"/>
<path d="M122.553 264.359C125.897 264.359 128.605 261.651 128.605 258.307V256.794C128.605 253.45 125.897 250.742 122.553 250.742H90.0238C89.8801 250.742 89.7363 250.757 89.5926 250.765C89.4488 250.757 89.3051 250.742 89.1614 250.742H88.3065C85.099 250.742 82.02 252.021 79.7505 254.29L67.6389 266.402C65.7325 268.308 64.5373 270.789 64.2044 273.445H61.2767C56.2611 273.445 52.1987 277.507 52.1987 282.523V302.192C52.1987 307.207 56.2611 311.27 61.2767 311.27H67.3288C67.3893 311.27 67.4498 311.262 67.5103 311.262C69.7117 313.532 72.7831 314.946 76.195 314.946H77.8744C81.7098 314.946 85.3184 313.131 87.603 310.044L98.89 294.808C98.9354 294.748 98.9732 294.687 99.0186 294.627H122.553C125.897 294.627 128.605 291.918 128.605 288.575V287.062C128.605 283.718 125.897 281.01 122.553 281.01H97.4829C97.0668 281.01 96.7264 280.669 96.7264 280.253C96.7264 279.837 97.0668 279.497 97.4829 279.497H122.553C125.897 279.497 128.605 276.788 128.605 273.445V271.932C128.605 268.588 125.897 265.88 122.553 265.88H97.4829C97.0668 265.88 96.7264 265.539 96.7264 265.123C96.7264 264.707 97.0668 264.367 97.4829 264.367H122.553V264.359Z" fill="white" stroke="#1A237E" stroke-width="2" stroke-miterlimit="10" stroke-linecap="round" stroke-linejoin="round"/>
<path d="M64.1892 273.437C64.1286 273.937 64.0908 274.444 64.0908 274.958V284.028" stroke="#1A237E" stroke-width="2" stroke-miterlimit="10" stroke-linecap="round" stroke-linejoin="round"/>
<path d="M64.0908 300.02V302.835C64.0908 306.065 65.3542 309 67.4194 311.171" stroke="#1A237E" stroke-width="2" stroke-miterlimit="10" stroke-linecap="round" stroke-linejoin="round"/>
<path d="M122.553 250.742C125.897 250.742 128.605 253.45 128.605 256.794V258.307C128.605 261.651 125.897 264.359 122.553 264.359H97.4825C97.0665 264.359 96.726 264.7 96.726 265.116C96.726 265.532 97.0665 265.872 97.4825 265.872H122.553C125.897 265.872 128.605 268.58 128.605 271.924V273.437C128.605 276.781 125.897 279.489 122.553 279.489H97.4825C97.0665 279.489 96.726 279.83 96.726 280.246C96.726 280.662 97.0665 281.002 97.4825 281.002H122.553C125.897 281.002 128.605 283.71 128.605 287.054V288.567C128.605 291.911 125.897 294.619 122.553 294.619H99.0107C98.9653 294.68 98.9274 294.74 98.8821 294.801L87.5951 310.037C85.3104 313.116 81.7019 314.939 77.8665 314.939H76.187C72.7752 314.939 69.7038 313.524 67.5024 311.255C67.4419 311.255 67.3813 311.262 67.3208 311.262H61.2688C56.2532 311.262 52.1908 307.2 52.1908 302.184V282.515C52.1908 277.5 56.2532 273.437 61.2688 273.437H64.1889C64.5218 270.789 65.717 268.308 67.6234 266.394L79.735 254.283C82.0045 252.013 85.0835 250.735 88.291 250.735H89.1459C89.2896 250.735 89.4334 250.75 89.5771 250.757C89.7208 250.75 89.8646 250.735 90.0083 250.735H122.553V250.742ZM122.553 247.716H90.0234C89.8721 247.716 89.7284 247.724 89.5771 247.731C89.4409 247.724 89.2972 247.716 89.161 247.716H88.3062C84.2665 247.716 80.4688 249.29 77.6092 252.149L65.4977 264.261C63.7804 265.978 62.5095 268.104 61.7757 270.411H61.2764C54.604 270.411 49.1724 275.843 49.1724 282.515V302.184C49.1724 308.857 54.604 314.288 61.2764 314.288H66.3147C69.0608 316.671 72.518 317.965 76.1946 317.965H77.874C82.6475 317.965 87.1941 315.673 90.031 311.837L100.546 297.645H122.553C127.561 297.645 131.631 293.575 131.631 288.567V287.054C131.631 284.346 130.436 281.91 128.552 280.246C130.436 278.581 131.631 276.145 131.631 273.437V271.924C131.631 269.216 130.436 266.78 128.552 265.116C130.436 263.451 131.631 261.015 131.631 258.307V256.794C131.631 251.794 127.561 247.716 122.553 247.716Z" fill="#1A237E"/>
<path d="M198.96 109.277H177.778C163.571 109.277 152.057 123.84 152.057 141.807C152.057 159.773 163.571 174.336 177.778 174.336H198.96C213.167 174.336 224.681 159.773 224.681 141.807C224.681 123.84 213.167 109.277 198.96 109.277Z" fill="#5C6BC0" stroke="#1A237E" stroke-width="2" stroke-miterlimit="10" stroke-linecap="round" stroke-linejoin="round"/>
<path d="M152.057 141.807C152.057 132.192 155.355 123.552 160.598 117.599H139.197C128.628 117.599 120.057 128.439 120.057 141.807C120.057 155.174 128.628 166.015 139.197 166.015H160.598C155.355 160.061 152.057 151.422 152.057 141.807Z" fill="#3F51B5" stroke="#1A237E" stroke-width="2" stroke-miterlimit="10" stroke-linecap="round" stroke-linejoin="round"/>
<path d="M120.057 141.807C120.057 136.42 121.449 131.45 123.794 127.433H118.015C111.736 127.433 106.652 133.871 106.652 141.807C106.652 149.742 111.743 156.18 118.015 156.18H123.794C121.449 152.163 120.057 147.193 120.057 141.807Z" fill="#3F51B5" stroke="#1A237E" stroke-width="2" stroke-miterlimit="10" stroke-linecap="round" stroke-linejoin="round"/>
<path d="M198.96 174.336C213.166 174.336 224.681 159.772 224.681 141.807C224.681 123.841 213.166 109.277 198.96 109.277C184.755 109.277 173.239 123.841 173.239 141.807C173.239 159.772 184.755 174.336 198.96 174.336Z" fill="#7986CB" stroke="#1A237E" stroke-width="2" stroke-miterlimit="10" stroke-linecap="round" stroke-linejoin="round"/>
<path d="M199.717 167.528C210.162 167.528 218.629 156.012 218.629 141.807C218.629 127.601 210.162 116.086 199.717 116.086C189.272 116.086 180.804 127.601 180.804 141.807C180.804 156.012 189.272 167.528 199.717 167.528Z" fill="white" stroke="#1A237E" stroke-width="2" stroke-miterlimit="10" stroke-linecap="round" stroke-linejoin="round"/>
<path d="M236.112 114.573C236.081 114.573 236.059 114.58 236.029 114.58V114.573H213.333V114.83C219.242 119.876 223.395 127.94 224.424 137.268H236.029V137.26C236.059 137.26 236.081 137.268 236.112 137.268C241.082 137.268 245.107 132.184 245.107 125.92C245.107 119.657 241.082 114.573 236.112 114.573Z" fill="#3F51B5" stroke="#1A237E" stroke-width="2" stroke-miterlimit="10" stroke-linecap="round" stroke-linejoin="round"/>
<path d="M236.111 137.268C241.079 137.268 245.106 132.188 245.106 125.921C245.106 119.654 241.079 114.573 236.111 114.573C231.144 114.573 227.117 119.654 227.117 125.921C227.117 132.188 231.144 137.268 236.111 137.268Z" fill="#7986CB" stroke="#1A237E" stroke-width="2" stroke-miterlimit="10" stroke-linecap="round" stroke-linejoin="round"/>
<path d="M219.439 122.145C219.295 121.903 219.151 121.669 219 121.427C219.151 121.661 219.295 121.903 219.439 122.145Z" fill="white" stroke="#1A237E" stroke-width="2" stroke-miterlimit="10" stroke-linecap="round" stroke-linejoin="round"/>
<path d="M220.195 123.462C220.074 123.235 219.946 123.008 219.825 122.789C219.946 123.008 220.067 123.235 220.195 123.462Z" fill="white" stroke="#1A237E" stroke-width="2" stroke-miterlimit="10" stroke-linecap="round" stroke-linejoin="round"/>
<path d="M220.891 124.83C220.793 124.618 220.687 124.414 220.581 124.202C220.687 124.407 220.793 124.618 220.891 124.83Z" fill="white" stroke="#1A237E" stroke-width="2" stroke-miterlimit="10" stroke-linecap="round" stroke-linejoin="round"/>
<path d="M218.637 120.874C218.47 120.625 218.304 120.375 218.13 120.133C218.296 120.375 218.47 120.625 218.637 120.874Z" fill="white" stroke="#1A237E" stroke-width="2" stroke-miterlimit="10" stroke-linecap="round" stroke-linejoin="round"/>
<path d="M217.782 119.656C217.593 119.399 217.404 119.142 217.207 118.9C217.404 119.142 217.593 119.399 217.782 119.656Z" fill="white" stroke="#1A237E" stroke-width="2" stroke-miterlimit="10" stroke-linecap="round" stroke-linejoin="round"/>
<path d="M216.874 118.484C216.662 118.226 216.458 117.977 216.239 117.727C216.458 117.969 216.67 118.226 216.874 118.484Z" fill="white" stroke="#1A237E" stroke-width="2" stroke-miterlimit="10" stroke-linecap="round" stroke-linejoin="round"/>
<path d="M227.261 137.268H224.432C224.424 137.223 224.417 137.185 224.417 137.139C224.59 138.668 224.689 140.218 224.689 141.807C224.689 151.422 221.391 160.061 216.148 166.015H234.947C230.09 160.061 227.034 151.422 227.034 141.807C227.019 140.264 227.102 138.751 227.261 137.268Z" fill="#3F51B5" stroke="#1A237E" stroke-width="2" stroke-miterlimit="10" stroke-linecap="round" stroke-linejoin="round"/>
<path d="M223.925 134.017C223.902 133.91 223.887 133.811 223.864 133.705C223.887 133.804 223.91 133.91 223.925 134.017Z" fill="white" stroke="#1A237E" stroke-width="2" stroke-miterlimit="10" stroke-linecap="round" stroke-linejoin="round"/>
<path d="M224.22 135.703C224.205 135.604 224.19 135.505 224.175 135.407C224.19 135.505 224.205 135.604 224.22 135.703Z" fill="white" stroke="#1A237E" stroke-width="2" stroke-miterlimit="10" stroke-linecap="round" stroke-linejoin="round"/>
<path d="M223.569 132.366C223.539 132.252 223.516 132.131 223.486 132.018C223.516 132.139 223.546 132.252 223.569 132.366Z" fill="white" stroke="#1A237E" stroke-width="2" stroke-miterlimit="10" stroke-linecap="round" stroke-linejoin="round"/>
<path d="M222.669 129.211C222.616 129.059 222.571 128.915 222.518 128.764C222.571 128.915 222.623 129.059 222.669 129.211Z" fill="white" stroke="#1A237E" stroke-width="2" stroke-miterlimit="10" stroke-linecap="round" stroke-linejoin="round"/>
<path d="M222.132 127.706C222.064 127.539 222.003 127.365 221.935 127.199C222.003 127.365 222.071 127.532 222.132 127.706Z" fill="white" stroke="#1A237E" stroke-width="2" stroke-miterlimit="10" stroke-linecap="round" stroke-linejoin="round"/>
<path d="M221.542 126.246C221.459 126.056 221.376 125.867 221.292 125.678C221.376 125.867 221.459 126.056 221.542 126.246Z" fill="white" stroke="#1A237E" stroke-width="2" stroke-miterlimit="10" stroke-linecap="round" stroke-linejoin="round"/>
<path d="M223.154 130.77C223.116 130.641 223.078 130.505 223.04 130.376C223.078 130.505 223.116 130.634 223.154 130.77Z" fill="white" stroke="#1A237E" stroke-width="2" stroke-miterlimit="10" stroke-linecap="round" stroke-linejoin="round"/>
<path d="M270.457 109.277H250.841C245.947 109.277 241.408 111.289 237.625 114.746C241.869 115.654 245.107 120.307 245.107 125.92C245.107 132.184 241.082 137.268 236.112 137.268C236.082 137.268 236.059 137.26 236.029 137.26V137.268H227.254C227.102 138.75 227.019 140.263 227.019 141.807C227.019 159.773 237.686 174.336 250.841 174.336H270.457C283.613 174.336 294.28 159.773 294.28 141.807C294.28 123.84 283.613 109.277 270.457 109.277Z" fill="#5C6BC0" stroke="#1A237E" stroke-width="2" stroke-miterlimit="10" stroke-linecap="round" stroke-linejoin="round"/>
<path d="M270.457 174.336C283.614 174.336 294.279 159.772 294.279 141.807C294.279 123.841 283.614 109.277 270.457 109.277C257.3 109.277 246.635 123.841 246.635 141.807C246.635 159.772 257.3 174.336 270.457 174.336Z" fill="#7986CB" stroke="#1A237E" stroke-width="2" stroke-miterlimit="10" stroke-linecap="round" stroke-linejoin="round"/>
<path d="M271.16 167.527C280.833 167.527 288.673 156.011 288.673 141.806C288.673 127.601 280.833 116.085 271.16 116.085C261.488 116.085 253.647 127.601 253.647 141.806C253.647 156.011 261.488 167.527 271.16 167.527Z" fill="white" stroke="#1A237E" stroke-width="2" stroke-miterlimit="10" stroke-linecap="round" stroke-linejoin="round"/>
<path d="M270.457 109.277C272.923 109.277 275.306 109.791 277.538 110.737C278.286 111.055 279.013 111.418 279.724 111.834C280.791 112.454 281.819 113.173 282.803 113.99C283.786 114.807 284.724 115.715 285.602 116.706C285.897 117.039 286.184 117.379 286.464 117.727C287.591 119.127 288.62 120.67 289.536 122.342C289.763 122.758 289.982 123.181 290.201 123.62C290.633 124.483 291.026 125.383 291.397 126.306C291.76 127.229 292.1 128.174 292.403 129.15C292.857 130.61 293.227 132.123 293.522 133.682C294.014 136.277 294.271 139.007 294.271 141.814C294.271 144.621 294.014 147.344 293.522 149.946C293.227 151.505 292.849 153.018 292.403 154.478C292.1 155.454 291.767 156.399 291.397 157.322C291.034 158.245 290.633 159.138 290.201 160.008C289.99 160.439 289.763 160.863 289.536 161.286C288.62 162.958 287.591 164.502 286.464 165.901C286.184 166.249 285.897 166.59 285.602 166.922C284.717 167.913 283.786 168.829 282.803 169.638C281.819 170.455 280.791 171.174 279.724 171.794C279.013 172.203 278.279 172.573 277.538 172.891C275.298 173.844 272.923 174.351 270.457 174.351H250.841C244.728 174.351 239.153 171.204 234.931 166.03H216.132C211.578 171.204 205.556 174.351 198.952 174.351H177.77C171.166 174.351 165.152 171.204 160.59 166.03H139.196C132.879 166.03 127.281 162.156 123.794 156.195H118.014C111.735 156.195 106.651 149.757 106.651 141.822C106.651 133.886 111.743 127.448 118.014 127.448H123.794C127.281 121.487 132.879 117.614 139.196 117.614H160.598C165.152 112.439 171.173 109.292 177.778 109.292H198.96C204.286 109.292 209.233 111.335 213.333 114.845V114.588H236.028V114.595C236.059 114.595 236.081 114.588 236.112 114.588C236.626 114.588 237.125 114.656 237.617 114.762C241.399 111.312 245.946 109.292 250.833 109.292H270.457V109.277ZM270.457 106.251H250.841C245.787 106.251 240.915 108.082 236.671 111.562C236.482 111.546 236.293 111.546 236.112 111.546C236.096 111.546 236.081 111.546 236.066 111.546C236.051 111.546 236.036 111.546 236.021 111.546H214.082C209.551 108.074 204.346 106.251 198.952 106.251H177.77C170.962 106.251 164.433 109.194 159.266 114.572H139.189C132.577 114.572 126.305 118.219 122.122 124.407H118.014C110.078 124.407 103.625 132.214 103.625 141.807C103.625 151.399 110.078 159.206 118.014 159.206H122.13C126.313 165.394 132.584 169.041 139.196 169.041H159.274C164.441 174.419 170.969 177.362 177.778 177.362H198.96C205.768 177.362 212.297 174.419 217.464 169.041H233.539C238.366 174.419 244.456 177.362 250.841 177.362H270.457C273.278 177.362 276.062 176.787 278.725 175.66C279.58 175.297 280.427 174.873 281.244 174.404C282.447 173.708 283.627 172.884 284.739 171.961C285.836 171.053 286.888 170.032 287.871 168.92C288.197 168.556 288.522 168.171 288.832 167.785C290.073 166.249 291.208 164.547 292.199 162.724C292.448 162.27 292.69 161.808 292.917 161.339C293.379 160.401 293.817 159.425 294.211 158.434C294.604 157.436 294.967 156.407 295.293 155.371C295.784 153.797 296.185 152.155 296.495 150.506C297.025 147.685 297.297 144.757 297.297 141.814C297.297 138.871 297.025 135.951 296.495 133.122C296.185 131.465 295.777 129.831 295.293 128.258C294.967 127.214 294.604 126.185 294.211 125.194C293.817 124.203 293.379 123.227 292.917 122.289C292.683 121.82 292.441 121.351 292.199 120.904C291.2 119.081 290.065 117.379 288.832 115.843C288.522 115.458 288.197 115.079 287.871 114.709C286.888 113.597 285.836 112.575 284.739 111.668C283.627 110.745 282.447 109.92 281.244 109.224C280.427 108.747 279.58 108.324 278.725 107.968C276.062 106.826 273.278 106.251 270.457 106.251Z" fill="#1A237E"/>
<path d="M271.16 167.58C280.833 167.58 288.673 156.064 288.673 141.859C288.673 127.654 280.833 116.138 271.16 116.138C261.488 116.138 253.647 127.654 253.647 141.859C253.647 156.064 261.488 167.58 271.16 167.58Z" fill="#C5CAE9" stroke="#1A237E" stroke-width="2" stroke-miterlimit="10"/>
<path d="M199.883 167.58C210.328 167.58 218.795 156.064 218.795 141.859C218.795 127.654 210.328 116.138 199.883 116.138C189.438 116.138 180.97 127.654 180.97 141.859C180.97 156.064 189.438 167.58 199.883 167.58Z" fill="#C5CAE9" stroke="#1A237E" stroke-width="2" stroke-miterlimit="10"/>
<path d="M199.883 157.413C206.2 157.413 211.321 150.449 211.321 141.859C211.321 133.269 206.2 126.305 199.883 126.305C193.565 126.305 188.444 133.269 188.444 141.859C188.444 150.449 193.565 157.413 199.883 157.413Z" fill="#9FA8DA"/>
<path d="M270.865 157.413C276.694 157.413 281.418 150.449 281.418 141.859C281.418 133.269 276.694 126.305 270.865 126.305C265.037 126.305 260.312 133.269 260.312 141.859C260.312 150.449 265.037 157.413 270.865 157.413Z" fill="#9FA8DA"/>
<path d="M194.005 141.428C197.075 141.428 199.565 138.041 199.565 133.863C199.565 129.685 197.075 126.298 194.005 126.298C190.934 126.298 188.444 129.685 188.444 133.863C188.444 138.041 190.934 141.428 194.005 141.428Z" fill="white"/>
<path d="M206.865 156.974C209.184 156.974 211.064 154.417 211.064 151.263C211.064 148.108 209.184 145.551 206.865 145.551C204.546 145.551 202.667 148.108 202.667 151.263C202.667 154.417 204.546 156.974 206.865 156.974Z" fill="white"/>
<path d="M265.872 141.428C268.943 141.428 271.433 138.041 271.433 133.863C271.433 129.685 268.943 126.298 265.872 126.298C262.801 126.298 260.312 129.685 260.312 133.863C260.312 138.041 262.801 141.428 265.872 141.428Z" fill="white"/>
<path d="M278.733 156.974C281.052 156.974 282.931 154.417 282.931 151.263C282.931 148.108 281.052 145.551 278.733 145.551C276.414 145.551 274.534 148.108 274.534 151.263C274.534 154.417 276.414 156.974 278.733 156.974Z" fill="white"/>
<path d="M62.9263 49.5127L79.8341 63.5988C83.8662 66.9576 88.9499 68.8035 94.2076 68.8035H139.938C145.188 68.8035 150.272 66.9652 154.312 63.5988L171.219 49.5127H62.9263Z" fill="#7986CB" stroke="#1A237E" stroke-width="2" stroke-miterlimit="10" stroke-linecap="round" stroke-linejoin="round"/>
<path d="M55.3533 46.487H40.3972C35.3968 46.487 31.115 50.3982 31.0166 55.3986C30.9258 60.4899 35.0261 64.6431 40.0946 64.6431H81.5206L63.0998 49.2937C60.9287 47.4781 58.1826 46.487 55.3533 46.487Z" fill="#3F51B5" stroke="#1A237E" stroke-width="2" stroke-miterlimit="10" stroke-linecap="round" stroke-linejoin="round"/>
<path d="M193.362 46.4872H178.814C175.962 46.4872 173.209 47.4934 171.022 49.3241L152.813 64.6433H193.665C198.733 64.6433 202.833 60.4901 202.743 55.3988C202.652 50.3984 198.362 46.4872 193.362 46.4872Z" fill="#3F51B5" stroke="#1A237E" stroke-width="2" stroke-miterlimit="10" stroke-linecap="round" stroke-linejoin="round"/>
<path d="M89.1462 31.4625L74.6138 49.5127H159.297L144.757 31.4625C130.466 13.7226 103.436 13.7226 89.1462 31.4625Z" fill="#7986CB" stroke="#1A237E" stroke-width="2" stroke-miterlimit="10" stroke-linecap="round" stroke-linejoin="round"/>
<path d="M116.955 18.1565C127.289 18.1565 137.615 22.5895 144.764 31.4633L159.304 49.5134H170.81L171.03 49.3243C173.208 47.486 175.97 46.4874 178.822 46.4874H193.369C198.37 46.4874 202.651 50.3985 202.75 55.399C202.841 60.4903 198.74 64.6434 193.672 64.6434H152.949C149.159 67.3366 144.613 68.8042 139.937 68.8042H94.207C89.5318 68.8042 84.9852 67.3366 81.1951 64.6434H40.0944C35.0259 64.6434 30.9256 60.4903 31.0164 55.399C31.1072 50.3985 35.3966 46.4874 40.397 46.4874H55.3531C58.1824 46.4874 60.9285 47.4784 63.0996 49.294L63.3644 49.5134H74.606L89.146 31.4633C96.2949 22.5895 106.621 18.1565 116.955 18.1565ZM116.955 15.1304C105.176 15.1304 94.1843 20.3957 86.7932 29.5645L73.1611 46.4874H64.4311C61.8211 44.5281 58.6287 43.4614 55.3531 43.4614H40.397C33.6793 43.4614 28.1114 48.7872 27.9904 55.3385C27.9299 58.6141 29.163 61.7082 31.4552 64.0458C33.7474 66.3834 36.8188 67.6695 40.0944 67.6695H80.2571C84.4178 70.3929 89.214 71.8302 94.1994 71.8302H139.93C144.915 71.8302 149.719 70.3929 153.872 67.6695H193.664C196.94 67.6695 200.004 66.3834 202.303 64.0458C204.596 61.7082 205.829 58.6141 205.768 55.3385C205.647 48.7872 200.087 43.4614 193.362 43.4614H178.814C175.538 43.4614 172.346 44.5281 169.736 46.4874H160.741L147.109 29.5645C139.726 20.3957 128.734 15.1304 116.955 15.1304Z" fill="#1A237E"/>
<path d="M81.3159 41.1922L74.6133 49.5137H159.296L152.593 41.1922H81.3159Z" fill="#5C6BC0" stroke="#1A237E" stroke-width="2" stroke-miterlimit="10" stroke-linecap="round" stroke-linejoin="round"/>
<path d="M373.766 135.828C373.766 131.188 375.312 127.25 378.477 124.051C381.605 120.852 385.438 119.234 389.938 119.234C394.438 119.234 398.27 120.852 401.398 124.051C404.562 127.25 406.109 131.188 406.109 135.828C406.109 140.469 404.562 144.406 401.398 147.57C398.27 150.77 394.438 152.352 389.938 152.352C385.438 152.352 381.605 150.77 378.477 147.57C375.312 144.406 373.766 140.469 373.766 135.828ZM362.586 135.793C362.586 143.035 365.223 149.258 370.496 154.391C375.77 159.523 382.273 162.09 389.938 162.09C397.602 162.09 404.105 159.523 409.379 154.391C414.652 149.258 417.289 143.035 417.289 135.793C417.289 128.551 414.652 122.363 409.379 117.23C404.105 112.098 397.602 109.531 389.938 109.531C382.273 109.531 375.77 112.098 370.496 117.23C365.223 122.363 362.586 128.551 362.586 135.793Z" fill="#1A237E"/>
<path d="M430.766 145.828C430.766 141.188 432.312 137.25 435.477 134.051C438.605 130.852 442.438 129.234 446.938 129.234C451.438 129.234 455.27 130.852 458.398 134.051C461.562 137.25 463.109 141.188 463.109 145.828C463.109 150.469 461.562 154.406 458.398 157.57C455.27 160.77 451.438 162.352 446.938 162.352C442.438 162.352 438.605 160.77 435.477 157.57C432.312 154.406 430.766 150.469 430.766 145.828ZM419.586 145.793C419.586 153.035 422.223 159.258 427.496 164.391C432.77 169.523 439.273 172.09 446.938 172.09C454.602 172.09 461.105 169.523 466.379 164.391C471.652 159.258 474.289 153.035 474.289 145.793C474.289 138.551 471.652 132.363 466.379 127.23C461.105 122.098 454.602 119.531 446.938 119.531C439.273 119.531 432.77 122.098 427.496 127.23C422.223 132.363 419.586 138.551 419.586 145.793Z" fill="#1A237E"/>
<path d="M480.469 110.586V161H491.297V144.441H501.703C506.906 144.441 511.195 142.824 514.605 139.59C517.98 136.355 519.703 132.312 519.703 127.531C519.703 122.75 517.98 118.707 514.57 115.473C511.16 112.238 506.871 110.621 501.703 110.621L480.469 110.586ZM501.352 120.359C503.496 120.359 505.289 121.027 506.73 122.434C508.172 123.84 508.91 125.527 508.91 127.566C508.91 129.57 508.172 131.258 506.73 132.664C505.289 134.035 503.496 134.738 501.352 134.738H491.297V120.359H501.352Z" fill="#1A237E"/>
<path d="M551.441 156.234C551.441 158.133 550.703 159.68 549.227 160.875C547.75 162.105 545.746 162.703 543.145 162.703C540.895 162.703 538.715 162.211 536.676 161.191C534.602 160.207 533.266 159.398 532.668 158.801C532.07 158.203 531.613 157.711 531.297 157.324L524.793 163.793L525.602 164.672C526.059 165.234 526.832 165.938 527.922 166.746C528.977 167.59 530.242 168.398 531.648 169.172C533.055 169.98 534.883 170.684 537.062 171.246C539.242 171.809 541.527 172.09 543.848 172.09C549.824 172.09 554.5 170.613 557.875 167.66C561.25 164.707 562.938 160.91 562.938 156.234C562.938 152.93 562.094 150.223 560.371 148.043C558.684 145.898 556.609 144.352 554.148 143.402C551.688 142.488 549.262 141.645 546.836 140.941C544.41 140.238 542.336 139.395 540.648 138.375C538.961 137.355 538.082 135.984 538.082 134.297C538.082 132.82 538.715 131.52 539.98 130.465C541.246 129.41 542.898 128.883 544.938 128.883C546.66 128.883 548.312 129.305 549.93 130.078C551.547 130.887 552.637 131.52 553.129 132.012C553.621 132.504 554.008 132.891 554.289 133.242L560.758 126.387L560.125 125.684C559.738 125.191 559.07 124.594 558.156 123.926C557.242 123.258 556.152 122.59 554.922 121.957C553.691 121.324 552.109 120.762 550.176 120.27C548.277 119.777 546.273 119.566 544.199 119.566C538.996 119.566 534.742 121.008 531.473 123.891C528.203 126.773 526.551 130.254 526.551 134.332C526.551 137.637 527.43 140.344 529.117 142.523C530.84 144.668 532.914 146.215 535.34 147.164C537.766 148.078 540.191 148.887 542.652 149.59C545.113 150.293 547.188 151.137 548.875 152.191C550.562 153.211 551.441 154.547 551.441 156.234Z" fill="#1A237E"/>
<path d="M600.855 146.586L602.648 110.586H591.117L592.91 146.586H600.855ZM591.117 156.324C591.117 157.766 591.68 159.031 592.805 160.086C593.93 161.176 595.266 161.703 596.883 161.703C598.465 161.703 599.836 161.176 600.961 160.086C602.086 159.031 602.648 157.766 602.648 156.324C602.648 154.883 602.086 153.617 600.961 152.527C599.836 151.473 598.465 150.91 596.883 150.91C595.266 150.91 593.93 151.473 592.805 152.527C591.68 153.617 591.117 154.883 591.117 156.324Z" fill="#1A237E"/>
<path d="M361.16 217H364.76V206.56L372.92 217H376.16V200.2H372.56V210.64L364.4 200.2H361.16V217ZM386.473 217H389.713V209.68C389.713 207.064 387.673 205 384.673 205C383.113 205 381.937 205.576 381.097 206.152C380.617 206.488 380.209 206.872 379.873 207.28L381.793 209.2C381.985 208.96 382.225 208.744 382.489 208.552C382.945 208.192 383.593 207.88 384.433 207.88C385.657 207.88 386.353 208.6 386.473 209.44L382.753 210.112C380.569 210.496 379.273 211.96 379.273 213.88C379.273 215.8 380.713 217.24 382.873 217.24C384.001 217.24 384.889 216.856 385.465 216.4C385.801 216.16 386.089 215.872 386.353 215.56H386.473V217ZM386.473 211.96C386.473 213.52 385.393 214.6 383.953 214.6C382.993 214.6 382.513 214.144 382.513 213.4C382.513 212.8 382.993 212.368 383.833 212.2L386.473 211.72V211.96ZM382.873 203.56C382.873 202.72 383.233 202.36 383.713 202.36C384.793 202.36 385.153 203.56 386.833 203.56C388.273 203.56 389.353 202.48 389.353 199.96H387.313C387.313 200.92 386.953 201.28 386.473 201.28C385.513 201.28 385.033 199.96 383.401 199.96C381.889 199.96 380.833 201.04 380.833 203.56H382.873ZM398.353 214.24C396.673 214.24 395.353 212.92 395.353 211.12C395.353 209.32 396.673 208 398.353 208C400.033 208 401.353 209.32 401.353 211.12C401.353 212.92 400.033 214.24 398.353 214.24ZM392.113 211.12C392.113 214.48 394.873 217.24 398.353 217.24C401.833 217.24 404.593 214.48 404.593 211.12C404.593 207.76 401.833 205 398.353 205C394.873 205 392.113 207.76 392.113 211.12ZM420.909 213.04C420.693 213.304 420.429 213.52 420.117 213.712C419.565 214.072 418.821 214.36 417.789 214.36C415.989 214.36 415.029 213.4 414.669 212.32H423.189L423.237 211.912C423.261 211.648 423.309 211.336 423.309 210.88C423.309 207.64 420.669 205 417.429 205C414.069 205 411.309 207.76 411.309 211.12C411.309 214.48 414.069 217.24 417.549 217.24C419.181 217.24 420.429 216.76 421.293 216.28C421.797 215.992 422.229 215.68 422.589 215.32L420.909 213.04ZM414.669 209.92C415.029 208.84 415.965 207.88 417.309 207.88C418.653 207.88 419.589 208.84 419.949 209.92H414.669ZM425.716 217H428.956V210.76C428.956 209.2 430.036 208.12 431.476 208.12C432.82 208.12 433.636 208.96 433.636 210.4V217H436.876V209.92C436.876 206.92 434.956 205 432.556 205C431.404 205 430.54 205.48 429.964 205.96C429.628 206.248 429.34 206.56 429.076 206.92H428.956V205.24H425.716V217ZM448.39 212.8C448.174 213.064 447.91 213.304 447.622 213.52C447.118 213.88 446.398 214.24 445.51 214.24C443.83 214.24 442.51 212.92 442.51 211.12C442.51 209.32 443.83 208 445.51 208C446.398 208 447.118 208.36 447.622 208.72C447.91 208.936 448.174 209.176 448.39 209.44L450.43 207.4C450.118 206.944 449.71 206.56 449.23 206.2C448.39 205.6 447.214 205 445.51 205C442.03 205 439.27 207.76 439.27 211.12C439.27 214.48 442.03 217.24 445.51 217.24C447.214 217.24 448.39 216.64 449.23 216.04C449.71 215.68 450.118 215.296 450.43 214.84L448.39 212.8ZM457.744 214.24C456.064 214.24 454.744 212.92 454.744 211.12C454.744 209.32 456.064 208 457.744 208C459.424 208 460.744 209.32 460.744 211.12C460.744 212.92 459.424 214.24 457.744 214.24ZM451.504 211.12C451.504 214.48 454.264 217.24 457.744 217.24C461.224 217.24 463.984 214.48 463.984 211.12C463.984 207.76 461.224 205 457.744 205C454.264 205 451.504 207.76 451.504 211.12ZM466.38 217H469.62V210.76C469.62 209.2 470.7 208.12 472.14 208.12C473.484 208.12 474.3 208.96 474.3 210.4V217H477.54V209.92C477.54 206.92 475.62 205 473.22 205C472.068 205 471.204 205.48 470.628 205.96C470.292 206.248 470.004 206.56 469.74 206.92H469.62V205.24H466.38V217ZM481.379 212.92C481.379 215.704 482.939 217.24 485.339 217.24C485.939 217.24 486.491 217.168 486.875 217.072C487.091 217 487.307 216.952 487.499 216.88V213.88C487.379 213.928 487.259 213.976 487.115 214C486.851 214.072 486.539 214.12 486.179 214.12C485.219 214.12 484.619 213.52 484.619 212.44V208.48H487.259V205.48H484.619V201.88H481.739V204.04C481.739 205 481.307 205.48 480.419 205.48H479.339V208.48H481.379V212.92ZM490.029 217H493.269V211.48C493.269 209.56 494.469 208.36 496.029 208.36C496.389 208.36 496.653 208.408 496.845 208.432L497.109 208.48V205H496.869C495.717 205 494.853 205.48 494.277 205.96C493.941 206.248 493.653 206.56 493.389 206.92H493.269V205.24H490.029V217ZM505.746 217H508.986V209.68C508.986 207.064 506.946 205 503.946 205C502.386 205 501.21 205.576 500.37 206.152C499.89 206.488 499.482 206.872 499.146 207.28L501.066 209.2C501.258 208.96 501.498 208.744 501.762 208.552C502.218 208.192 502.866 207.88 503.706 207.88C504.93 207.88 505.626 208.6 505.746 209.44L502.026 210.112C499.842 210.496 498.546 211.96 498.546 213.88C498.546 215.8 499.986 217.24 502.146 217.24C503.274 217.24 504.162 216.856 504.738 216.4C505.074 216.16 505.362 215.872 505.626 215.56H505.746V217ZM505.746 211.96C505.746 213.52 504.666 214.6 503.226 214.6C502.266 214.6 501.786 214.144 501.786 213.4C501.786 212.8 502.266 212.368 503.106 212.2L505.746 211.72V211.96ZM512.107 217H515.347V210.52C515.347 209.08 516.283 208.12 517.627 208.12C518.851 208.12 519.547 208.816 519.547 210.16V217H522.787V210.52C522.787 209.08 523.723 208.12 525.067 208.12C526.291 208.12 526.987 208.816 526.987 210.16V217H530.227V209.68C530.227 206.8 528.451 205 526.147 205C524.875 205 523.939 205.528 523.291 206.032C522.907 206.32 522.571 206.656 522.307 207.04H522.187C521.971 206.656 521.707 206.32 521.395 206.032C520.843 205.528 519.955 205 518.707 205C517.555 205 516.787 205.48 516.235 205.96C515.923 206.248 515.683 206.56 515.467 206.92H515.347V205.24H512.107V217ZM538.861 214.24C537.181 214.24 535.861 212.92 535.861 211.12C535.861 209.32 537.181 208 538.861 208C540.541 208 541.861 209.32 541.861 211.12C541.861 212.92 540.541 214.24 538.861 214.24ZM532.621 211.12C532.621 214.48 535.381 217.24 538.861 217.24C542.341 217.24 545.101 214.48 545.101 211.12C545.101 207.76 542.341 205 538.861 205C535.381 205 532.621 207.76 532.621 211.12ZM546.298 215.08C546.658 215.488 547.09 215.848 547.594 216.16C548.458 216.712 549.706 217.24 551.338 217.24C554.578 217.24 556.258 215.536 556.258 213.52C556.258 209.68 550.258 209.92 550.258 208.6C550.258 208.24 550.618 207.88 551.458 207.88C552.298 207.88 552.946 208.096 553.402 208.36C553.666 208.504 553.906 208.672 554.098 208.84L556.018 206.8C555.706 206.488 555.322 206.176 554.866 205.912C554.098 205.456 552.97 205 551.458 205C548.458 205 546.778 206.68 546.778 208.6C546.778 212.44 552.778 212.2 552.778 213.52C552.778 214 552.418 214.36 551.338 214.36C550.378 214.36 549.61 214.072 549.058 213.712C548.746 213.52 548.458 213.304 548.218 213.04L546.298 215.08ZM568.978 214.24C567.298 214.24 565.978 212.92 565.978 211.12C565.978 209.32 567.298 208 568.978 208C570.658 208 571.978 209.32 571.978 211.12C571.978 212.92 570.658 214.24 568.978 214.24ZM562.738 211.12C562.738 214.48 565.498 217.24 568.978 217.24C572.458 217.24 575.218 214.48 575.218 211.12C575.218 207.76 572.458 205 568.978 205C565.498 205 562.738 207.76 562.738 211.12ZM591.054 222.04H594.294V205.24H591.054V206.92H590.934C590.694 206.56 590.382 206.248 590.022 205.96C589.374 205.48 588.462 205 587.214 205C584.43 205 581.934 207.544 581.934 211.12C581.934 214.72 584.43 217.24 587.214 217.24C588.462 217.24 589.374 216.76 590.022 216.28C590.382 215.992 590.694 215.68 590.934 215.32H591.054V222.04ZM588.174 214.24C586.494 214.24 585.174 212.92 585.174 211.12C585.174 209.32 586.494 208 588.174 208C589.854 208 591.174 209.32 591.174 211.12C591.174 212.92 589.854 214.24 588.174 214.24ZM597.419 212.32C597.419 215.32 599.339 217.24 601.739 217.24C602.867 217.24 603.755 216.76 604.331 216.28C604.667 215.992 604.955 215.68 605.219 215.32H605.339V217H608.579V205.24H605.339V211.48C605.339 213.04 604.259 214.12 602.819 214.12C601.475 214.12 600.659 213.28 600.659 211.84V205.24H597.419V212.32ZM620.573 213.04C620.357 213.304 620.093 213.52 619.781 213.712C619.229 214.072 618.485 214.36 617.453 214.36C615.653 214.36 614.693 213.4 614.333 212.32H622.853L622.901 211.912C622.925 211.648 622.973 211.336 622.973 210.88C622.973 207.64 620.333 205 617.093 205C613.733 205 610.973 207.76 610.973 211.12C610.973 214.48 613.733 217.24 617.213 217.24C618.845 217.24 620.093 216.76 620.957 216.28C621.461 215.992 621.893 215.68 622.253 215.32L620.573 213.04ZM614.333 209.92C614.693 208.84 615.629 207.88 616.973 207.88C618.317 207.88 619.253 208.84 619.613 209.92H614.333ZM363.32 249H366.92L371.36 237.24H367.88L365.168 245.16H365.072L362.36 237.24H358.88L363.32 249ZM378.314 246.24C376.634 246.24 375.314 244.92 375.314 243.12C375.314 241.32 376.634 240 378.314 240C379.994 240 381.314 241.32 381.314 243.12C381.314 244.92 379.994 246.24 378.314 246.24ZM372.074 243.12C372.074 246.48 374.834 249.24 378.314 249.24C381.794 249.24 384.554 246.48 384.554 243.12C384.554 239.76 381.794 237 378.314 237C374.834 237 372.074 239.76 372.074 243.12ZM395.351 244.8C395.135 245.064 394.871 245.304 394.583 245.52C394.079 245.88 393.359 246.24 392.471 246.24C390.791 246.24 389.471 244.92 389.471 243.12C389.471 241.32 390.791 240 392.471 240C393.359 240 394.079 240.36 394.583 240.72C394.871 240.936 395.135 241.176 395.351 241.44L397.391 239.4C397.079 238.944 396.671 238.56 396.191 238.2C395.351 237.6 394.175 237 392.471 237C388.991 237 386.231 239.76 386.231 243.12C386.231 246.48 388.991 249.24 392.471 249.24C394.175 249.24 395.351 248.64 396.191 248.04C396.671 247.68 397.079 247.296 397.391 246.84L395.351 244.8ZM408.065 245.04C407.849 245.304 407.585 245.52 407.273 245.712C406.721 246.072 405.977 246.36 404.945 246.36C403.145 246.36 402.185 245.4 401.825 244.32H410.345L410.393 243.912C410.417 243.648 410.465 243.336 410.465 242.88C410.465 239.64 407.825 237 404.585 237C401.225 237 398.465 239.76 398.465 243.12C398.465 246.48 401.225 249.24 404.705 249.24C406.337 249.24 407.585 248.76 408.449 248.28C408.953 247.992 409.385 247.68 409.745 247.32L408.065 245.04ZM401.825 241.92C402.185 240.84 403.121 239.88 404.465 239.88C405.809 239.88 406.745 240.84 407.105 241.92H401.825ZM400.145 235.68H403.025L404.465 233.76L405.905 235.68H408.785L405.905 232.08H403.025L400.145 235.68ZM426.792 245.04C426.576 245.304 426.312 245.52 426 245.712C425.448 246.072 424.704 246.36 423.672 246.36C421.872 246.36 420.912 245.4 420.552 244.32H429.072L429.12 243.912C429.144 243.648 429.192 243.336 429.192 242.88C429.192 239.64 426.552 237 423.312 237C419.952 237 417.192 239.76 417.192 243.12C417.192 246.48 419.952 249.24 423.432 249.24C425.064 249.24 426.312 248.76 427.176 248.28C427.68 247.992 428.112 247.68 428.472 247.32L426.792 245.04ZM420.552 241.92C420.912 240.84 421.848 239.88 423.192 239.88C424.536 239.88 425.472 240.84 425.832 241.92H420.552ZM430.399 247.08C430.759 247.488 431.191 247.848 431.695 248.16C432.559 248.712 433.807 249.24 435.439 249.24C438.679 249.24 440.359 247.536 440.359 245.52C440.359 241.68 434.359 241.92 434.359 240.6C434.359 240.24 434.719 239.88 435.559 239.88C436.399 239.88 437.047 240.096 437.503 240.36C437.767 240.504 438.007 240.672 438.199 240.84L440.119 238.8C439.807 238.488 439.423 238.176 438.967 237.912C438.199 237.456 437.071 237 435.559 237C432.559 237 430.879 238.68 430.879 240.6C430.879 244.44 436.879 244.2 436.879 245.52C436.879 246 436.519 246.36 435.439 246.36C434.479 246.36 433.711 246.072 433.159 245.712C432.847 245.52 432.559 245.304 432.319 245.04L430.399 247.08ZM443.481 244.92C443.481 247.704 445.041 249.24 447.441 249.24C448.041 249.24 448.593 249.168 448.977 249.072C449.193 249 449.409 248.952 449.601 248.88V245.88C449.481 245.928 449.361 245.976 449.217 246C448.953 246.072 448.641 246.12 448.281 246.12C447.321 246.12 446.721 245.52 446.721 244.44V240.48H449.361V237.48H446.721V233.88H443.841V236.04C443.841 237 443.409 237.48 442.521 237.48H441.441V240.48H443.481V244.92ZM458.496 249H461.736V241.68C461.736 239.064 459.696 237 456.696 237C455.136 237 453.96 237.576 453.12 238.152C452.64 238.488 452.232 238.872 451.896 239.28L453.816 241.2C454.008 240.96 454.248 240.744 454.512 240.552C454.968 240.192 455.616 239.88 456.456 239.88C457.68 239.88 458.376 240.6 458.496 241.44L454.776 242.112C452.592 242.496 451.296 243.96 451.296 245.88C451.296 247.8 452.736 249.24 454.896 249.24C456.024 249.24 456.912 248.856 457.488 248.4C457.824 248.16 458.112 247.872 458.376 247.56H458.496V249ZM458.496 243.96C458.496 245.52 457.416 246.6 455.976 246.6C455.016 246.6 454.536 246.144 454.536 245.4C454.536 244.8 455.016 244.368 455.856 244.2L458.496 243.72V243.96ZM455.616 235.68H458.256L460.896 232.08H457.536L455.616 235.68ZM469.896 254.04H473.136V247.32H473.256C473.496 247.68 473.808 247.992 474.168 248.28C474.816 248.76 475.704 249.24 476.976 249.24C479.76 249.24 482.256 246.72 482.256 243.12C482.256 239.544 479.76 237 476.976 237C475.704 237 474.816 237.48 474.168 237.96C473.808 238.248 473.496 238.56 473.256 238.92H473.136V237.24H469.896V254.04ZM476.016 246.24C474.336 246.24 473.016 244.92 473.016 243.12C473.016 241.32 474.336 240 476.016 240C477.696 240 479.016 241.32 479.016 243.12C479.016 244.92 477.696 246.24 476.016 246.24ZM484.662 249H487.902V243.48C487.902 241.56 489.102 240.36 490.662 240.36C491.022 240.36 491.286 240.408 491.478 240.432L491.742 240.48V237H491.502C490.35 237 489.486 237.48 488.91 237.96C488.574 238.248 488.286 238.56 488.022 238.92H487.902V237.24H484.662V249ZM499.064 246.24C497.384 246.24 496.064 244.92 496.064 243.12C496.064 241.32 497.384 240 499.064 240C500.744 240 502.064 241.32 502.064 243.12C502.064 244.92 500.744 246.24 499.064 246.24ZM492.824 243.12C492.824 246.48 495.584 249.24 499.064 249.24C502.544 249.24 505.304 246.48 505.304 243.12C505.304 239.76 502.544 237 499.064 237C495.584 237 492.824 239.76 492.824 243.12ZM516.101 244.8C515.885 245.064 515.621 245.304 515.333 245.52C514.829 245.88 514.109 246.24 513.221 246.24C511.541 246.24 510.221 244.92 510.221 243.12C510.221 241.32 511.541 240 513.221 240C514.109 240 514.829 240.36 515.333 240.72C515.621 240.936 515.885 241.176 516.101 241.44L518.141 239.4C517.829 238.944 517.421 238.56 516.941 238.2C516.101 237.6 514.925 237 513.221 237C509.741 237 506.981 239.76 506.981 243.12C506.981 246.48 509.741 249.24 513.221 249.24C514.925 249.24 516.101 248.64 516.941 248.04C517.421 247.68 517.829 247.296 518.141 246.84L516.101 244.8ZM520.169 244.32C520.169 247.32 522.089 249.24 524.489 249.24C525.617 249.24 526.505 248.76 527.081 248.28C527.417 247.992 527.705 247.68 527.969 247.32H528.089V249H531.329V237.24H528.089V243.48C528.089 245.04 527.009 246.12 525.569 246.12C524.225 246.12 523.409 245.28 523.409 243.84V237.24H520.169V244.32ZM534.443 249H537.683V243.48C537.683 241.56 538.883 240.36 540.443 240.36C540.803 240.36 541.067 240.408 541.259 240.432L541.523 240.48V237H541.283C540.131 237 539.267 237.48 538.691 237.96C538.355 238.248 538.067 238.56 537.803 238.92H537.683V237.24H534.443V249ZM550.16 249H553.4V241.68C553.4 239.064 551.36 237 548.36 237C546.8 237 545.624 237.576 544.784 238.152C544.304 238.488 543.896 238.872 543.56 239.28L545.48 241.2C545.672 240.96 545.912 240.744 546.176 240.552C546.632 240.192 547.28 239.88 548.12 239.88C549.344 239.88 550.04 240.6 550.16 241.44L546.44 242.112C544.256 242.496 542.96 243.96 542.96 245.88C542.96 247.8 544.4 249.24 546.56 249.24C547.688 249.24 548.576 248.856 549.152 248.4C549.488 248.16 549.776 247.872 550.04 247.56H550.16V249ZM550.16 243.96C550.16 245.52 549.08 246.6 547.64 246.6C546.68 246.6 546.2 246.144 546.2 245.4C546.2 244.8 546.68 244.368 547.52 244.2L550.16 243.72V243.96ZM556.521 249H559.761V242.76C559.761 241.2 560.841 240.12 562.281 240.12C563.625 240.12 564.441 240.96 564.441 242.4V249H567.681V241.92C567.681 238.92 565.761 237 563.361 237C562.209 237 561.345 237.48 560.769 237.96C560.433 238.248 560.145 238.56 559.881 238.92H559.761V237.24H556.521V249ZM579.194 249H582.434V232.2H579.194V238.92H579.074C578.834 238.56 578.522 238.248 578.162 237.96C577.514 237.48 576.602 237 575.354 237C572.57 237 570.074 239.544 570.074 243.12C570.074 246.72 572.57 249.24 575.354 249.24C576.602 249.24 577.514 248.76 578.162 248.28C578.522 247.992 578.834 247.68 579.074 247.32H579.194V249ZM576.314 246.24C574.634 246.24 573.314 244.92 573.314 243.12C573.314 241.32 574.634 240 576.314 240C577.994 240 579.314 241.32 579.314 243.12C579.314 244.92 577.994 246.24 576.314 246.24ZM591.197 246.24C589.517 246.24 588.197 244.92 588.197 243.12C588.197 241.32 589.517 240 591.197 240C592.877 240 594.197 241.32 594.197 243.12C594.197 244.92 592.877 246.24 591.197 246.24ZM584.957 243.12C584.957 246.48 587.717 249.24 591.197 249.24C594.677 249.24 597.437 246.48 597.437 243.12C597.437 239.76 594.677 237 591.197 237C587.717 237 584.957 239.76 584.957 243.12ZM362.96 287H365.66V276.92H369.26V274.4H359.36V276.92H362.96V287ZM376.375 284.03C376.213 284.228 376.015 284.39 375.781 284.534C375.367 284.804 374.809 285.02 374.035 285.02C372.685 285.02 371.965 284.3 371.695 283.49H378.085L378.121 283.184C378.139 282.986 378.175 282.752 378.175 282.41C378.175 279.98 376.195 278 373.765 278C371.245 278 369.175 280.07 369.175 282.59C369.175 285.11 371.245 287.18 373.855 287.18C375.079 287.18 376.015 286.82 376.663 286.46C377.041 286.244 377.365 286.01 377.635 285.74L376.375 284.03ZM371.695 281.69C371.965 280.88 372.667 280.16 373.675 280.16C374.683 280.16 375.385 280.88 375.655 281.69H371.695ZM379.981 287H382.411V282.32C382.411 281.15 383.221 280.34 384.301 280.34C385.309 280.34 385.921 280.97 385.921 282.05V287H388.351V281.69C388.351 279.44 386.911 278 385.111 278C384.247 278 383.599 278.36 383.167 278.72C382.915 278.936 382.699 279.17 382.501 279.44H382.411V278.18H379.981V287ZM391.23 283.94C391.23 286.028 392.4 287.18 394.2 287.18C394.65 287.18 395.064 287.126 395.352 287.054C395.514 287 395.676 286.964 395.82 286.91V284.66C395.73 284.696 395.64 284.732 395.532 284.75C395.334 284.804 395.1 284.84 394.83 284.84C394.11 284.84 393.66 284.39 393.66 283.58V280.61H395.64V278.36H393.66V275.66H391.5V277.28C391.5 278 391.176 278.36 390.51 278.36H389.7V280.61H391.23V283.94ZM404.201 284.03C404.039 284.228 403.841 284.39 403.607 284.534C403.193 284.804 402.635 285.02 401.861 285.02C400.511 285.02 399.791 284.3 399.521 283.49H405.911L405.947 283.184C405.965 282.986 406.001 282.752 406.001 282.41C406.001 279.98 404.021 278 401.591 278C399.071 278 397.001 280.07 397.001 282.59C397.001 285.11 399.071 287.18 401.681 287.18C402.905 287.18 403.841 286.82 404.489 286.46C404.867 286.244 405.191 286.01 405.461 285.74L404.201 284.03ZM399.521 281.69C399.791 280.88 400.493 280.16 401.501 280.16C402.509 280.16 403.211 280.88 403.481 281.69H399.521ZM411.586 287H414.016V282.32C414.016 281.15 414.826 280.34 415.906 280.34C416.914 280.34 417.526 280.97 417.526 282.05V287H419.956V281.69C419.956 279.44 418.516 278 416.716 278C415.852 278 415.204 278.36 414.772 278.72C414.52 278.936 414.304 279.17 414.106 279.44H414.016V278.18H411.586V287ZM426.431 284.93C425.171 284.93 424.181 283.94 424.181 282.59C424.181 281.24 425.171 280.25 426.431 280.25C427.691 280.25 428.681 281.24 428.681 282.59C428.681 283.94 427.691 284.93 426.431 284.93ZM421.751 282.59C421.751 285.11 423.821 287.18 426.431 287.18C429.041 287.18 431.111 285.11 431.111 282.59C431.111 280.07 429.041 278 426.431 278C423.821 278 421.751 280.07 421.751 282.59ZM434.978 287H437.678L441.008 278.18H438.398L436.364 284.12H436.292L434.258 278.18H431.648L434.978 287ZM447.034 287H449.464V281.51C449.464 279.548 447.934 278 445.684 278C444.514 278 443.632 278.432 443.002 278.864C442.642 279.116 442.336 279.404 442.084 279.71L443.524 281.15C443.668 280.97 443.848 280.808 444.046 280.664C444.388 280.394 444.874 280.16 445.504 280.16C446.422 280.16 446.944 280.7 447.034 281.33L444.244 281.834C442.606 282.122 441.634 283.22 441.634 284.66C441.634 286.1 442.714 287.18 444.334 287.18C445.18 287.18 445.846 286.892 446.278 286.55C446.53 286.37 446.746 286.154 446.944 285.92H447.034V287ZM447.034 283.22C447.034 284.39 446.224 285.2 445.144 285.2C444.424 285.2 444.064 284.858 444.064 284.3C444.064 283.85 444.424 283.526 445.054 283.4L447.034 283.04V283.22ZM451.805 287H454.235V282.14C454.235 281.06 454.937 280.34 455.945 280.34C456.863 280.34 457.385 280.862 457.385 281.87V287H459.815V282.14C459.815 281.06 460.517 280.34 461.525 280.34C462.443 280.34 462.965 280.862 462.965 281.87V287H465.395V281.51C465.395 279.35 464.063 278 462.335 278C461.381 278 460.679 278.396 460.193 278.774C459.905 278.99 459.653 279.242 459.455 279.53H459.365C459.203 279.242 459.005 278.99 458.771 278.774C458.357 278.396 457.691 278 456.755 278C455.891 278 455.315 278.36 454.901 278.72C454.667 278.936 454.487 279.17 454.325 279.44H454.235V278.18H451.805V287ZM474.391 284.03C474.229 284.228 474.031 284.39 473.797 284.534C473.383 284.804 472.825 285.02 472.051 285.02C470.701 285.02 469.981 284.3 469.711 283.49H476.101L476.137 283.184C476.155 282.986 476.191 282.752 476.191 282.41C476.191 279.98 474.211 278 471.781 278C469.261 278 467.191 280.07 467.191 282.59C467.191 285.11 469.261 287.18 471.871 287.18C473.095 287.18 474.031 286.82 474.679 286.46C475.057 286.244 475.381 286.01 475.651 285.74L474.391 284.03ZM469.711 281.69C469.981 280.88 470.683 280.16 471.691 280.16C472.699 280.16 473.401 280.88 473.671 281.69H469.711ZM477.996 287H480.426V282.32C480.426 281.15 481.236 280.34 482.316 280.34C483.324 280.34 483.936 280.97 483.936 282.05V287H486.366V281.69C486.366 279.44 484.926 278 483.126 278C482.262 278 481.614 278.36 481.182 278.72C480.93 278.936 480.714 279.17 480.516 279.44H480.426V278.18H477.996V287ZM489.245 283.94C489.245 286.028 490.415 287.18 492.215 287.18C492.665 287.18 493.079 287.126 493.367 287.054C493.529 287 493.691 286.964 493.835 286.91V284.66C493.745 284.696 493.655 284.732 493.547 284.75C493.349 284.804 493.115 284.84 492.845 284.84C492.125 284.84 491.675 284.39 491.675 283.58V280.61H493.655V278.36H491.675V275.66H489.515V277.28C489.515 278 489.191 278.36 488.525 278.36H487.715V280.61H489.245V283.94ZM502.217 284.03C502.055 284.228 501.857 284.39 501.623 284.534C501.209 284.804 500.651 285.02 499.877 285.02C498.527 285.02 497.807 284.3 497.537 283.49H503.927L503.963 283.184C503.981 282.986 504.017 282.752 504.017 282.41C504.017 279.98 502.037 278 499.607 278C497.087 278 495.017 280.07 495.017 282.59C495.017 285.11 497.087 287.18 499.697 287.18C500.921 287.18 501.857 286.82 502.505 286.46C502.883 286.244 503.207 286.01 503.477 285.74L502.217 284.03ZM497.537 281.69C497.807 280.88 498.509 280.16 499.517 280.16C500.525 280.16 501.227 280.88 501.497 281.69H497.537ZM509.602 287H512.032V282.14C512.032 281.06 512.734 280.34 513.742 280.34C514.66 280.34 515.182 280.862 515.182 281.87V287H517.612V282.14C517.612 281.06 518.314 280.34 519.322 280.34C520.24 280.34 520.762 280.862 520.762 281.87V287H523.192V281.51C523.192 279.35 521.86 278 520.132 278C519.178 278 518.476 278.396 517.99 278.774C517.702 278.99 517.45 279.242 517.252 279.53H517.162C517 279.242 516.802 278.99 516.568 278.774C516.154 278.396 515.488 278 514.552 278C513.688 278 513.112 278.36 512.698 278.72C512.464 278.936 512.284 279.17 512.122 279.44H512.032V278.18H509.602V287ZM530.477 287H532.907V281.51C532.907 279.548 531.377 278 529.127 278C527.957 278 527.075 278.432 526.445 278.864C526.085 279.116 525.779 279.404 525.527 279.71L526.967 281.15C527.111 280.97 527.291 280.808 527.489 280.664C527.831 280.394 528.317 280.16 528.947 280.16C529.865 280.16 530.387 280.7 530.477 281.33L527.687 281.834C526.049 282.122 525.077 283.22 525.077 284.66C525.077 286.1 526.157 287.18 527.777 287.18C528.623 287.18 529.289 286.892 529.721 286.55C529.973 286.37 530.189 286.154 530.387 285.92H530.477V287ZM530.477 283.22C530.477 284.39 529.667 285.2 528.587 285.2C527.867 285.2 527.507 284.858 527.507 284.3C527.507 283.85 527.867 283.526 528.497 283.4L530.477 283.04V283.22ZM535.248 287H537.678V278.18H535.248V287ZM535.068 275.66C535.068 276.38 535.68 277.01 536.454 277.01C537.228 277.01 537.858 276.38 537.858 275.66C537.858 274.94 537.246 274.31 536.472 274.31C535.698 274.31 535.068 274.94 535.068 275.66ZM539.112 285.56C539.382 285.866 539.706 286.136 540.084 286.37C540.732 286.784 541.668 287.18 542.892 287.18C545.322 287.18 546.582 285.902 546.582 284.39C546.582 281.51 542.082 281.69 542.082 280.7C542.082 280.43 542.352 280.16 542.982 280.16C543.612 280.16 544.098 280.322 544.44 280.52C544.638 280.628 544.818 280.754 544.962 280.88L546.402 279.35C546.168 279.116 545.88 278.882 545.538 278.684C544.962 278.342 544.116 278 542.982 278C540.732 278 539.472 279.26 539.472 280.7C539.472 283.58 543.972 283.4 543.972 284.39C543.972 284.75 543.702 285.02 542.892 285.02C542.172 285.02 541.596 284.804 541.182 284.534C540.948 284.39 540.732 284.228 540.552 284.03L539.112 285.56ZM552.703 283.94C552.703 286.028 553.873 287.18 555.673 287.18C556.123 287.18 556.537 287.126 556.825 287.054C556.987 287 557.149 286.964 557.293 286.91V284.66C557.203 284.696 557.113 284.732 557.005 284.75C556.807 284.804 556.573 284.84 556.303 284.84C555.583 284.84 555.133 284.39 555.133 283.58V280.61H557.113V278.36H555.133V275.66H552.973V277.28C552.973 278 552.649 278.36 551.983 278.36H551.173V280.61H552.703V283.94ZM563.964 287H566.394V281.51C566.394 279.548 564.864 278 562.614 278C561.444 278 560.562 278.432 559.932 278.864C559.572 279.116 559.266 279.404 559.014 279.71L560.454 281.15C560.598 280.97 560.778 280.808 560.976 280.664C561.318 280.394 561.804 280.16 562.434 280.16C563.352 280.16 563.874 280.7 563.964 281.33L561.174 281.834C559.536 282.122 558.564 283.22 558.564 284.66C558.564 286.1 559.644 287.18 561.264 287.18C562.11 287.18 562.776 286.892 563.208 286.55C563.46 286.37 563.676 286.154 563.874 285.92H563.964V287ZM563.964 283.22C563.964 284.39 563.154 285.2 562.074 285.2C561.354 285.2 560.994 284.858 560.994 284.3C560.994 283.85 561.354 283.526 561.984 283.4L563.964 283.04V283.22ZM568.734 287H571.164V282.86C571.164 281.42 572.064 280.52 573.234 280.52C573.504 280.52 573.702 280.556 573.846 280.574L574.044 280.61V278H573.864C573 278 572.352 278.36 571.92 278.72C571.668 278.936 571.452 279.17 571.254 279.44H571.164V278.18H568.734V287ZM581.697 287H584.127V274.4H581.697V279.44H581.607C581.427 279.17 581.193 278.936 580.923 278.72C580.437 278.36 579.753 278 578.817 278C576.729 278 574.857 279.908 574.857 282.59C574.857 285.29 576.729 287.18 578.817 287.18C579.753 287.18 580.437 286.82 580.923 286.46C581.193 286.244 581.427 286.01 581.607 285.74H581.697V287ZM579.537 284.93C578.277 284.93 577.287 283.94 577.287 282.59C577.287 281.24 578.277 280.25 579.537 280.25C580.797 280.25 581.787 281.24 581.787 282.59C581.787 283.94 580.797 284.93 579.537 284.93ZM593.219 284.03C593.057 284.228 592.859 284.39 592.625 284.534C592.211 284.804 591.653 285.02 590.879 285.02C589.529 285.02 588.809 284.3 588.539 283.49H594.929L594.965 283.184C594.983 282.986 595.019 282.752 595.019 282.41C595.019 279.98 593.039 278 590.609 278C588.089 278 586.019 280.07 586.019 282.59C586.019 285.11 588.089 287.18 590.699 287.18C591.923 287.18 592.859 286.82 593.507 286.46C593.885 286.244 594.209 286.01 594.479 285.74L593.219 284.03ZM588.539 281.69C588.809 280.88 589.511 280.16 590.519 280.16C591.527 280.16 592.229 280.88 592.499 281.69H588.539Z" fill="#1A237E"/>
</svg>
