<svg width="267" height="280" viewBox="0 0 267 280" fill="none" xmlns="http://www.w3.org/2000/svg">
<rect width="267" height="280" rx="40" fill="#1976D2"/>
<mask id="mask0" mask-type="alpha" maskUnits="userSpaceOnUse" x="0" y="0" width="267" height="280">
<rect width="267" height="280" rx="40" fill="#1976D2"/>
</mask>
<g mask="url(#mask0)">
<rect x="-1" width="270" height="280" fill="#0D47A1"/>
<circle cx="108.5" cy="42.5" r="218.5" fill="#1976D2"/>
<circle cx="108.5" cy="45.5" r="154.5" fill="#2196F3"/>
<circle cx="109" cy="42" r="98" fill="#64B5F6"/>
<circle cx="108.5" cy="43.5" r="49.5" fill="#90CAF9"/>
</g>
<path d="M164.26 126.92C161.409 126.92 159.097 124.604 159.097 121.748V115.593C159.097 112.738 156.784 110.421 153.933 110.421H142.419C139.568 110.421 137.255 108.104 137.255 105.249V104.393C137.255 101.538 134.942 99.2212 132.091 99.2212H115.796C112.945 99.2212 110.632 101.538 110.632 104.393V104.499V108.171V108.343C110.632 111.26 112.99 113.621 115.901 113.621H121.348C124.26 113.621 126.617 115.982 126.617 118.898V122.754C126.617 125.671 128.974 128.032 131.886 128.032H133.328C136.24 128.032 138.597 130.393 138.597 133.309V155.009C138.597 157.925 136.24 160.286 133.328 160.286H132.152C129.241 160.286 126.883 162.647 126.883 165.564V168.308C126.883 171.225 124.526 173.586 121.614 173.586H106.473C103.561 173.586 101.204 175.947 101.204 178.864V178.969C101.204 181.825 103.516 184.141 106.367 184.141H133.434C136.284 184.141 138.597 181.825 138.597 178.969V178.203C138.597 175.347 140.91 173.03 143.761 173.03H150.949C153.8 173.03 156.113 170.714 156.113 167.858V165.458C156.113 162.603 158.426 160.286 161.276 160.286H164.26C167.111 160.286 169.424 157.97 169.424 155.114V132.093C169.424 129.237 167.111 126.92 164.26 126.92Z" fill="#F48FB1"/>
<path fill-rule="evenodd" clip-rule="evenodd" d="M109.899 104.393C109.899 101.132 112.54 98.4866 115.796 98.4866H132.091C135.347 98.4866 137.988 101.132 137.988 104.393V105.249C137.988 107.699 139.973 109.686 142.419 109.686H153.933C157.189 109.686 159.83 112.332 159.83 115.593V121.748C159.83 124.198 161.814 126.186 164.26 126.186C167.516 126.186 170.157 128.831 170.157 132.092V155.114C170.157 158.375 167.516 161.02 164.26 161.02H161.276C158.83 161.02 156.846 163.008 156.846 165.458V167.858C156.846 171.119 154.205 173.765 150.949 173.765H143.761C141.315 173.765 139.33 175.752 139.33 178.202V178.969C139.33 182.23 136.689 184.875 133.434 184.875H106.367C103.112 184.875 100.47 182.23 100.47 178.969V178.863C100.47 175.541 103.156 172.851 106.473 172.851H121.614C124.121 172.851 126.15 170.819 126.15 168.308V165.564C126.15 162.242 128.836 159.552 132.152 159.552H133.328C135.835 159.552 137.864 157.52 137.864 155.008V133.309C137.864 130.798 135.835 128.766 133.328 128.766H131.886C128.569 128.766 125.884 126.076 125.884 122.754V118.898C125.884 116.387 123.855 114.355 121.348 114.355H115.901C112.585 114.355 109.899 111.665 109.899 108.343V104.393ZM115.796 99.9553C113.35 99.9553 111.366 101.943 111.366 104.393V108.343C111.366 110.854 113.395 112.886 115.901 112.886H121.348C124.665 112.886 127.35 115.576 127.35 118.898V122.754C127.35 125.265 129.379 127.297 131.886 127.297H133.328C136.645 127.297 139.33 129.987 139.33 133.309V155.008C139.33 158.331 136.645 161.02 133.328 161.02H132.152C129.645 161.02 127.616 163.053 127.616 165.564V168.308C127.616 171.63 124.931 174.32 121.614 174.32H106.473C103.966 174.32 101.937 176.352 101.937 178.863V178.969C101.937 181.419 103.921 183.407 106.367 183.407H133.434C135.879 183.407 137.864 181.419 137.864 178.969V178.202C137.864 174.941 140.505 172.296 143.761 172.296H150.949C153.395 172.296 155.38 170.308 155.38 167.858V165.458C155.38 162.197 158.021 159.552 161.276 159.552H164.26C166.706 159.552 168.691 157.564 168.691 155.114V132.092C168.691 129.642 166.706 127.655 164.26 127.655C161.005 127.655 158.363 125.009 158.363 121.748V115.593C158.363 113.143 156.379 111.155 153.933 111.155H142.419C139.163 111.155 136.522 108.51 136.522 105.249V104.393C136.522 101.943 134.537 99.9553 132.091 99.9553H115.796Z" fill="#D81B60"/>
<path fill-rule="evenodd" clip-rule="evenodd" d="M129.866 112.478C129.866 112.072 130.195 111.743 130.6 111.743H139.219C142.075 111.743 144.389 114.061 144.389 116.922V123.033C144.389 125.083 146.046 126.743 148.093 126.743H151.199C154.055 126.743 156.369 129.061 156.369 131.922V138.905C156.369 139.31 156.041 139.639 155.636 139.639C155.231 139.639 154.903 139.31 154.903 138.905V131.922C154.903 129.872 153.245 128.212 151.199 128.212H148.093C145.236 128.212 142.923 125.894 142.923 123.033V116.922C142.923 114.872 141.265 113.212 139.219 113.212H130.6C130.195 113.212 129.866 112.883 129.866 112.478Z" fill="#D81B60"/>
<path fill-rule="evenodd" clip-rule="evenodd" d="M148.714 153.408C149.119 153.408 149.447 153.737 149.447 154.142V163.031C149.447 165.892 147.133 168.21 144.277 168.21H135.314C134.909 168.21 134.581 167.881 134.581 167.475C134.581 167.07 134.909 166.741 135.314 166.741H144.277C146.323 166.741 147.981 165.081 147.981 163.031V154.142C147.981 153.737 148.309 153.408 148.714 153.408Z" fill="#D81B60"/>
<path d="M132.091 99.2222C134.942 99.2222 137.255 101.539 137.255 104.394V105.25C137.255 108.105 139.568 110.422 142.419 110.422H153.933C156.784 110.422 159.097 112.738 159.097 115.594V121.749C159.097 124.605 161.409 126.921 164.26 126.921C167.111 126.921 169.424 129.238 169.424 132.094V155.115C169.424 157.971 167.111 160.287 164.26 160.287H161.276C158.426 160.287 156.113 162.604 156.113 165.459V167.859C156.113 170.715 153.8 173.031 150.949 173.031H143.761C140.91 173.031 138.597 175.348 138.597 178.204V178.97C138.597 181.826 136.284 184.142 133.434 184.142H106.367C103.516 184.142 101.204 181.826 101.204 178.97V178.865C101.204 175.948 103.561 173.587 106.473 173.587H121.614C124.526 173.587 126.883 171.226 126.883 168.309V165.565C126.883 162.648 129.241 160.287 132.152 160.287H133.328C136.24 160.287 138.597 157.926 138.597 155.01V133.31C138.597 130.394 136.24 128.033 133.328 128.033H131.886C128.974 128.033 126.617 125.672 126.617 122.755V118.899C126.617 115.983 124.26 113.622 121.348 113.622H115.902C112.99 113.622 110.632 111.261 110.632 108.344V108.172V104.5V104.394C110.632 101.539 112.945 99.2222 115.796 99.2222H132.091ZM132.091 97H115.796C111.725 97 108.414 100.317 108.414 104.394V104.5V108.172V108.344C108.414 112.477 111.775 115.844 115.902 115.844H121.348C123.029 115.844 124.399 117.216 124.399 118.899V122.755C124.399 126.888 127.76 130.255 131.886 130.255H133.328C135.009 130.255 136.379 131.627 136.379 133.31V155.01C136.379 156.693 135.009 158.065 133.328 158.065H132.152C128.026 158.065 124.665 161.432 124.665 165.565V168.309C124.665 169.993 123.295 171.365 121.614 171.365H106.473C102.346 171.365 98.9851 174.731 98.9851 178.865V178.97C98.9851 183.048 102.296 186.364 106.367 186.364H133.434C137.505 186.364 140.816 183.048 140.816 178.97V178.204C140.816 176.576 142.136 175.254 143.761 175.254H150.949C155.02 175.254 158.331 171.937 158.331 167.859V165.459C158.331 163.832 159.651 162.509 161.276 162.509H164.26C168.331 162.509 171.643 159.193 171.643 155.115V132.094C171.643 128.016 168.331 124.699 164.26 124.699C162.635 124.699 161.315 123.377 161.315 121.749V115.594C161.315 111.516 158.004 108.2 153.933 108.2H142.419C140.794 108.2 139.474 106.878 139.474 105.25V104.394C139.474 100.317 136.162 97 132.091 97Z" fill="#D81B60"/>
<path d="M55.7238 104.977V104.5C55.7238 101.583 58.081 99.2221 60.9928 99.2221H105.364C108.276 99.2221 110.633 101.583 110.633 104.5V108.344C110.633 111.261 112.99 113.622 115.902 113.622H121.348C124.26 113.622 126.617 115.983 126.617 118.899V122.755C126.617 125.671 128.975 128.032 131.887 128.032H133.329C136.24 128.032 138.598 130.394 138.598 133.31V155.01C138.598 157.926 136.24 160.287 133.329 160.287H132.153C129.241 160.287 126.884 162.648 126.884 165.565V168.309C126.884 171.226 124.526 173.587 121.615 173.587H106.473C103.561 173.587 101.204 175.948 101.204 178.865C101.204 181.781 98.8468 184.142 95.9349 184.142H54.3372C51.4253 184.142 49.0681 181.781 49.0681 178.865V176.92C49.0681 174.004 46.7109 171.642 43.7991 171.642H43.2444C40.3326 171.642 37.9754 169.281 37.9754 166.365V161.032C37.9754 158.115 35.6182 155.754 32.7063 155.754H30.4878C27.576 155.754 25.2188 153.393 25.2188 150.476V128.866C25.2188 125.949 27.576 123.588 30.4878 123.588H34.9249C37.8367 123.588 40.1939 121.227 40.1939 118.31V115.533C40.1939 112.616 42.5512 110.255 45.463 110.255H50.4547C53.3666 110.255 55.7238 107.894 55.7238 104.977Z" fill="#F8BBD0"/>
<path fill-rule="evenodd" clip-rule="evenodd" d="M60.9928 99.956C58.4859 99.956 56.4569 101.988 56.4569 104.499V104.977C56.4569 108.299 53.7715 110.989 50.4547 110.989H45.463C42.9561 110.989 40.9271 113.021 40.9271 115.532V118.31C40.9271 121.632 38.2417 124.322 34.9249 124.322H30.4878C27.9809 124.322 25.9519 126.354 25.9519 128.865V150.476C25.9519 152.987 27.9809 155.019 30.4878 155.019H32.7064C36.0231 155.019 38.7086 157.709 38.7086 161.031V166.364C38.7086 168.875 40.7375 170.908 43.2445 170.908H43.7991C47.1158 170.908 49.8013 173.598 49.8013 176.92V178.864C49.8013 181.375 51.8303 183.407 54.3372 183.407H95.935C98.4419 183.407 100.471 181.375 100.471 178.864C100.471 175.542 103.156 172.852 106.473 172.852H121.615C124.122 172.852 126.151 170.82 126.151 168.309V165.564C126.151 162.242 128.836 159.552 132.153 159.552H133.329C135.835 159.552 137.864 157.52 137.864 155.009V133.31C137.864 130.799 135.835 128.766 133.329 128.766H131.887C128.57 128.766 125.884 126.077 125.884 122.754V118.899C125.884 116.388 123.855 114.356 121.348 114.356H115.902C112.585 114.356 109.9 111.666 109.9 108.344V104.499C109.9 101.988 107.871 99.956 105.364 99.956H60.9928ZM54.9906 104.499C54.9906 101.177 57.6761 98.4873 60.9928 98.4873H105.364C108.681 98.4873 111.366 101.177 111.366 104.499V108.344C111.366 110.855 113.395 112.887 115.902 112.887H121.348C124.665 112.887 127.351 115.577 127.351 118.899V122.754C127.351 125.265 129.38 127.298 131.887 127.298H133.329C136.645 127.298 139.331 129.988 139.331 133.31V155.009C139.331 158.331 136.645 161.021 133.329 161.021H132.153C129.646 161.021 127.617 163.053 127.617 165.564V168.309C127.617 171.631 124.931 174.321 121.615 174.321H106.473C103.966 174.321 101.937 176.353 101.937 178.864C101.937 182.186 99.2517 184.876 95.935 184.876H54.3372C51.0204 184.876 48.335 182.186 48.335 178.864V176.92C48.335 174.409 46.306 172.376 43.7991 172.376H43.2445C39.9277 172.376 37.2422 169.687 37.2422 166.364V161.031C37.2422 158.52 35.2133 156.488 32.7064 156.488H30.4878C27.171 156.488 24.4856 153.798 24.4856 150.476V128.865C24.4856 125.543 27.171 122.853 30.4878 122.853H34.9249C37.4318 122.853 39.4608 120.821 39.4608 118.31V115.532C39.4608 112.21 42.1462 109.52 45.463 109.52H50.4547C52.9617 109.52 54.9906 107.488 54.9906 104.977V104.499Z" fill="#D81B60"/>
<path fill-rule="evenodd" clip-rule="evenodd" d="M56.2783 117.854C56.6832 117.854 57.0114 118.183 57.0114 118.588V134.243C57.0114 137.105 54.6976 139.422 51.8412 139.422H36.866C36.4611 139.422 36.1328 139.093 36.1328 138.688C36.1328 138.282 36.4611 137.953 36.866 137.953H51.8412C53.8878 137.953 55.5451 136.293 55.5451 134.243V118.588C55.5451 118.183 55.8734 117.854 56.2783 117.854Z" fill="#D81B60"/>
<path fill-rule="evenodd" clip-rule="evenodd" d="M36.1328 138.904C36.1328 138.499 36.4611 138.17 36.866 138.17H51.8412C54.6976 138.17 57.0114 140.488 57.0114 143.349V159.698C57.0114 160.104 56.6832 160.433 56.2783 160.433C55.8734 160.433 55.5451 160.104 55.5451 159.698V143.349C55.5451 141.299 53.8878 139.639 51.8412 139.639H36.866C36.4611 139.639 36.1328 139.31 36.1328 138.904Z" fill="#D81B60"/>
<path fill-rule="evenodd" clip-rule="evenodd" d="M72.1407 121.744C72.5456 121.744 72.8739 122.073 72.8739 122.478V149.7C72.8739 152.561 70.56 154.878 67.7036 154.878H56.2781C55.8732 154.878 55.5449 154.55 55.5449 154.144C55.5449 153.738 55.8732 153.41 56.2781 153.41H67.7036C69.7502 153.41 71.4075 151.75 71.4075 149.7V122.478C71.4075 122.073 71.7358 121.744 72.1407 121.744Z" fill="#D81B60"/>
<path fill-rule="evenodd" clip-rule="evenodd" d="M81.9078 153.409C82.3127 153.409 82.641 153.738 82.641 154.144V167.199C82.641 170.06 80.3271 172.378 77.4707 172.378H45.1853C44.7804 172.378 44.4521 172.049 44.4521 171.643C44.4521 171.238 44.7804 170.909 45.1853 170.909H77.4707C79.5173 170.909 81.1747 169.249 81.1747 167.199V154.144C81.1747 153.738 81.5029 153.409 81.9078 153.409Z" fill="#D81B60"/>
<path fill-rule="evenodd" clip-rule="evenodd" d="M89.9326 174.143C89.9326 173.737 90.2609 173.408 90.6658 173.408H106.473C106.878 173.408 107.206 173.737 107.206 174.143C107.206 174.548 106.878 174.877 106.473 174.877H90.6658C90.2609 174.877 89.9326 174.548 89.9326 174.143Z" fill="#D81B60"/>
<path fill-rule="evenodd" clip-rule="evenodd" d="M81.175 159.699C81.175 159.293 81.5033 158.964 81.9082 158.964H115.968C116.373 158.964 116.702 159.293 116.702 159.699C116.702 160.104 116.373 160.433 115.968 160.433H81.9082C81.5033 160.433 81.175 160.104 81.175 159.699Z" fill="#D81B60"/>
<path fill-rule="evenodd" clip-rule="evenodd" d="M71.4077 141.682C71.4077 141.277 71.736 140.948 72.1409 140.948H122.28C125.136 140.948 127.45 143.266 127.45 146.127V165.621C127.45 166.026 127.122 166.355 126.717 166.355C126.312 166.355 125.984 166.026 125.984 165.621V146.127C125.984 144.077 124.327 142.417 122.28 142.417H72.1409C71.736 142.417 71.4077 142.088 71.4077 141.682Z" fill="#D81B60"/>
<path fill-rule="evenodd" clip-rule="evenodd" d="M65.8779 110.956C65.8779 110.55 66.2062 110.221 66.6111 110.221H97.7373C98.1422 110.221 98.4705 110.55 98.4705 110.956C98.4705 111.361 98.1422 111.69 97.7373 111.69H66.6111C66.2062 111.69 65.8779 111.361 65.8779 110.956Z" fill="#D81B60"/>
<path fill-rule="evenodd" clip-rule="evenodd" d="M85.1196 110.221C85.5245 110.221 85.8528 110.55 85.8528 110.956V123.033C85.8528 125.083 87.5101 126.743 89.5567 126.743H115.969C116.373 126.743 116.702 127.072 116.702 127.477C116.702 127.883 116.373 128.212 115.969 128.212H89.5567C86.7003 128.212 84.3865 125.894 84.3865 123.033V110.956C84.3865 110.55 84.7147 110.221 85.1196 110.221Z" fill="#D81B60"/>
<path d="M105.364 99.2228C108.275 99.2228 110.633 101.584 110.633 104.5V108.345C110.633 111.261 112.99 113.622 115.902 113.622H121.348C124.26 113.622 126.617 115.984 126.617 118.9V122.756C126.617 125.672 128.974 128.033 131.886 128.033H133.328C136.24 128.033 138.597 130.394 138.597 133.311V155.01C138.597 157.927 136.24 160.288 133.328 160.288H132.153C129.241 160.288 126.883 162.649 126.883 165.566V168.31C126.883 171.227 124.526 173.588 121.614 173.588H106.473C103.561 173.588 101.204 175.949 101.204 178.865C101.204 181.782 98.8466 184.143 95.9347 184.143H54.337C51.4251 184.143 49.0679 181.782 49.0679 178.865V176.921C49.0679 174.004 46.7107 171.643 43.7989 171.643H43.2442C40.3324 171.643 37.9752 169.282 37.9752 166.366V161.032C37.9752 158.116 35.618 155.755 32.7061 155.755H30.4876C27.5758 155.755 25.2185 153.394 25.2185 150.477V128.867C25.2185 125.95 27.5758 123.589 30.4876 123.589H34.9247C37.8365 123.589 40.1937 121.228 40.1937 118.311V115.534C40.1937 112.617 42.5509 110.256 45.4628 110.256H50.4545C53.3664 110.256 55.7236 107.895 55.7236 104.978V104.5C55.7236 101.584 58.0808 99.2228 60.9926 99.2228H105.364ZM105.364 97.0007H60.9926C56.8661 97.0007 53.505 100.367 53.505 104.5V104.978C53.505 106.662 52.1351 108.034 50.4545 108.034H45.4628C41.3363 108.034 37.9752 111.4 37.9752 115.534V118.311C37.9752 119.995 36.6052 121.367 34.9247 121.367H30.4876C26.3611 121.367 23 124.733 23 128.867V150.477C23 154.61 26.3611 157.977 30.4876 157.977H32.7061C34.3867 157.977 35.7566 159.349 35.7566 161.032V166.366C35.7566 170.499 39.1177 173.865 43.2442 173.865H43.7989C45.4794 173.865 46.8494 175.238 46.8494 176.921V178.865C46.8494 182.998 50.2105 186.365 54.337 186.365H95.9347C100.061 186.365 103.422 182.998 103.422 178.865C103.422 177.182 104.792 175.81 106.473 175.81H121.614C125.741 175.81 129.102 172.443 129.102 168.31V165.566C129.102 163.882 130.472 162.51 132.153 162.51H133.328C137.455 162.51 140.816 159.144 140.816 155.01V133.311C140.816 129.178 137.455 125.811 133.328 125.811H131.886C130.206 125.811 128.836 124.439 128.836 122.756V118.9C128.836 114.767 125.475 111.4 121.348 111.4H115.902C114.221 111.4 112.851 110.028 112.851 108.345V104.5C112.851 100.367 109.49 97.0007 105.364 97.0007Z" fill="#D81B60"/>
<path d="M227.892 0V193.5" stroke="#0D47A1" stroke-width="3"/>
<path d="M227.892 229V246.5" stroke="#1976D2" stroke-width="3"/>
<circle cx="227.892" cy="253" r="8" fill="#4A8CE5"/>
<circle cx="108" cy="47" r="22.5" fill="white" stroke="#0D47A1"/>
<path d="M97.7 10C97.7 5.96832 100.968 2.7 105 2.7H111C115.032 2.7 118.3 5.96832 118.3 10V26.3H97.7V10Z" fill="#4A8CE5" stroke="#0D47A1" stroke-width="1.4"/>
<path d="M98 22.5H118" stroke="#0D47A1" stroke-width="1.4"/>
<path d="M98 18H118" stroke="#0D47A1" stroke-width="1.4"/>
<path d="M98 13.5H118" stroke="#0D47A1" stroke-width="1.4"/>
<path d="M98 9H118" stroke="#0D47A1" stroke-width="1.4"/>
<mask id="path-34-inside-1" fill="white">
<path fill-rule="evenodd" clip-rule="evenodd" d="M112 26H104V37.6661L97.8174 47.971C97.0176 49.3041 97.9778 51 99.5324 51H116.468C118.022 51 118.982 49.3041 118.183 47.971L112 37.6672V26Z"/>
</mask>
<path fill-rule="evenodd" clip-rule="evenodd" d="M112 26H104V37.6661L97.8174 47.971C97.0176 49.3041 97.9778 51 99.5324 51H116.468C118.022 51 118.982 49.3041 118.183 47.971L112 37.6672V26Z" fill="white"/>
<path d="M104 26V24.6H102.6V26H104ZM112 26H113.4V24.6H112V26ZM104 37.6661L105.201 38.3864L105.4 38.0539V37.6661H104ZM97.8174 47.971L99.0179 48.6913H99.0179L97.8174 47.971ZM118.183 47.971L119.383 47.2507L118.183 47.971ZM112 37.6672H110.6V38.055L110.8 38.3875L112 37.6672ZM104 27.4H112V24.6H104V27.4ZM105.4 37.6661V26H102.6V37.6661H105.4ZM99.0179 48.6913L105.201 38.3864L102.8 36.9458L96.6169 47.2507L99.0179 48.6913ZM99.5324 49.6C99.066 49.6 98.7779 49.0912 99.0179 48.6913L96.6169 47.2507C95.2572 49.5169 96.8896 52.4 99.5324 52.4V49.6ZM116.468 49.6H99.5324V52.4H116.468V49.6ZM116.982 48.6913C117.222 49.0912 116.934 49.6 116.468 49.6V52.4C119.11 52.4 120.743 49.5169 119.383 47.2507L116.982 48.6913ZM110.8 38.3875L116.982 48.6913L119.383 47.2507L113.201 36.9469L110.8 38.3875ZM110.6 26V37.6672H113.4V26H110.6Z" fill="#0D47A1" mask="url(#path-34-inside-1)"/>
<mask id="path-36-outside-2" maskUnits="userSpaceOnUse" x="83" y="0" width="50" height="72" fill="black">
<rect fill="white" x="83" width="50" height="72"/>
<path fill-rule="evenodd" clip-rule="evenodd" d="M97 10C97 5.58172 100.582 2 105 2H111C115.418 2 119 5.58172 119 10V26.796C126.15 30.6968 131 38.282 131 47C131 59.7025 120.703 70 108 70C95.2975 70 85 59.7025 85 47C85 38.282 89.8505 30.6968 97 26.796V10Z"/>
</mask>
<path d="M119 26.796H117V27.9831L118.042 28.5517L119 26.796ZM97 26.796L97.9579 28.5517L99 27.9831V26.796H97ZM105 0C99.4772 0 95 4.47715 95 10H99C99 6.68629 101.686 4 105 4V0ZM111 0H105V4H111V0ZM121 10C121 4.47715 116.523 0 111 0V4C114.314 4 117 6.68629 117 10H121ZM121 26.796V10H117V26.796H121ZM133 47C133 37.5212 127.724 29.2775 119.958 25.0403L118.042 28.5517C124.575 32.1161 129 39.0428 129 47H133ZM108 72C121.807 72 133 60.8071 133 47H129C129 58.598 119.598 68 108 68V72ZM83 47C83 60.8071 94.1929 72 108 72V68C96.402 68 87 58.598 87 47H83ZM96.0421 25.0403C88.276 29.2775 83 37.5212 83 47H87C87 39.0428 91.425 32.1161 97.9579 28.5517L96.0421 25.0403ZM95 10V26.796H99V10H95Z" fill="#0D47A1" mask="url(#path-36-outside-2)"/>
<mask id="path-38-outside-3" maskUnits="userSpaceOnUse" x="170" y="173" width="73" height="60" fill="black">
<rect fill="white" x="170" y="173" width="73" height="60"/>
<path fill-rule="evenodd" clip-rule="evenodd" d="M194.706 175C188.079 175 182.706 180.373 182.706 187V196.412H178C174.686 196.412 172 199.098 172 202.412V216.582C172 219.896 174.686 222.582 178 222.582H182.706V222.909C182.706 227.327 186.288 230.909 190.706 230.909H218.211C218.579 230.969 218.957 231 219.342 231H233.296C237.149 231 240.273 227.871 240.273 224.012C240.273 220.152 237.149 217.023 233.296 217.023H226.719V217.023H233.296C237.149 217.023 240.273 213.894 240.273 210.034C240.273 206.598 237.796 203.741 234.533 203.156C237.836 202.603 240.353 199.728 240.353 196.263C240.353 195.328 240.17 194.437 239.837 193.622C238.85 190.963 236.294 189.07 233.296 189.07H219.342C218.761 189.07 218.197 189.141 217.657 189.275H215.121C219.556 189.275 223.151 186.079 223.151 182.137C223.151 178.195 219.556 175 215.121 175H201.739H199.062H194.706Z"/>
</mask>
<path fill-rule="evenodd" clip-rule="evenodd" d="M194.706 175C188.079 175 182.706 180.373 182.706 187V196.412H178C174.686 196.412 172 199.098 172 202.412V216.582C172 219.896 174.686 222.582 178 222.582H182.706V222.909C182.706 227.327 186.288 230.909 190.706 230.909H218.211C218.579 230.969 218.957 231 219.342 231H233.296C237.149 231 240.273 227.871 240.273 224.012C240.273 220.152 237.149 217.023 233.296 217.023H226.719V217.023H233.296C237.149 217.023 240.273 213.894 240.273 210.034C240.273 206.598 237.796 203.741 234.533 203.156C237.836 202.603 240.353 199.728 240.353 196.263C240.353 195.328 240.17 194.437 239.837 193.622C238.85 190.963 236.294 189.07 233.296 189.07H219.342C218.761 189.07 218.197 189.141 217.657 189.275H215.121C219.556 189.275 223.151 186.079 223.151 182.137C223.151 178.195 219.556 175 215.121 175H201.739H199.062H194.706Z" fill="white"/>
<path d="M182.706 196.412V198.412C183.81 198.412 184.706 197.516 184.706 196.412H182.706ZM182.706 222.582H184.706C184.706 221.477 183.81 220.582 182.706 220.582V222.582ZM218.211 230.909L218.533 228.935C218.427 228.917 218.319 228.909 218.211 228.909V230.909ZM226.719 217.023H224.719C224.719 218.128 225.615 219.023 226.719 219.023V217.023ZM226.719 217.023V215.023C225.615 215.023 224.719 215.918 224.719 217.023H226.719ZM234.533 203.156L234.203 201.183C233.244 201.344 232.539 202.171 232.533 203.144C232.528 204.117 233.223 204.953 234.18 205.124L234.533 203.156ZM239.837 193.622L237.962 194.318C237.97 194.338 237.977 194.357 237.985 194.377L239.837 193.622ZM217.657 189.275V191.275C217.82 191.275 217.982 191.255 218.139 191.216L217.657 189.275ZM215.121 187.275C214.017 187.275 213.121 188.17 213.121 189.275C213.121 190.379 214.017 191.275 215.121 191.275V187.275ZM184.706 187C184.706 181.477 189.183 177 194.706 177V173C186.974 173 180.706 179.268 180.706 187H184.706ZM184.706 196.412V187H180.706V196.412H184.706ZM178 198.412H182.706V194.412H178V198.412ZM174 202.412C174 200.203 175.791 198.412 178 198.412V194.412C173.582 194.412 170 197.994 170 202.412H174ZM174 216.582V202.412H170V216.582H174ZM178 220.582C175.791 220.582 174 218.791 174 216.582H170C170 221 173.582 224.582 178 224.582V220.582ZM182.706 220.582H178V224.582H182.706V220.582ZM184.706 222.909V222.582H180.706V222.909H184.706ZM190.706 228.909C187.392 228.909 184.706 226.222 184.706 222.909H180.706C180.706 228.432 185.183 232.909 190.706 232.909V228.909ZM218.211 228.909H190.706V232.909H218.211V228.909ZM219.342 229C219.065 229 218.795 228.978 218.533 228.935L217.889 232.883C218.363 232.96 218.849 233 219.342 233V229ZM233.296 229H219.342V233H233.296V229ZM238.273 224.012C238.273 226.77 236.042 229 233.296 229V233C238.257 233 242.273 228.973 242.273 224.012H238.273ZM233.296 219.023C236.042 219.023 238.273 221.253 238.273 224.012H242.273C242.273 219.05 238.257 215.023 233.296 215.023V219.023ZM226.719 219.023H233.296V215.023H226.719V219.023ZM224.719 217.023V217.023H228.719V217.023H224.719ZM233.296 215.023H226.719V219.023H233.296V215.023ZM238.273 210.034C238.273 212.793 236.042 215.023 233.296 215.023V219.023C238.257 219.023 242.273 214.996 242.273 210.034H238.273ZM234.18 205.124C236.505 205.541 238.273 207.581 238.273 210.034H242.273C242.273 205.615 239.088 201.94 234.886 201.187L234.18 205.124ZM238.353 196.263C238.353 198.737 236.556 200.79 234.203 201.183L234.863 205.128C239.116 204.417 242.353 200.718 242.353 196.263H238.353ZM237.985 194.377C238.222 194.956 238.353 195.592 238.353 196.263H242.353C242.353 195.065 242.118 193.917 241.689 192.866L237.985 194.377ZM233.296 191.07C235.429 191.07 237.256 192.416 237.962 194.318L241.712 192.925C240.444 189.51 237.158 187.07 233.296 187.07V191.07ZM219.342 191.07H233.296V187.07H219.342V191.07ZM218.139 191.216C218.522 191.121 218.925 191.07 219.342 191.07V187.07C218.597 187.07 217.871 187.161 217.175 187.334L218.139 191.216ZM215.121 191.275H217.657V187.275H215.121V191.275ZM221.151 182.137C221.151 184.76 218.679 187.275 215.121 187.275V191.275C220.432 191.275 225.151 187.399 225.151 182.137H221.151ZM215.121 177C218.679 177 221.151 179.515 221.151 182.137H225.151C225.151 176.876 220.432 173 215.121 173V177ZM201.739 177H215.121V173H201.739V177ZM199.062 177H201.739V173H199.062V177ZM194.706 177H199.062V173H194.706V177Z" fill="#0D47A1" mask="url(#path-38-outside-3)"/>
<rect x="172.5" y="196.912" width="21.6014" height="25.17" rx="5.5" fill="white" stroke="#0D47A1" stroke-linecap="round" stroke-linejoin="round"/>
<rect x="182.706" y="189.275" width="44.0132" height="41.6342" rx="8" fill="white" stroke="#0D47A1" stroke-width="1.4" stroke-linecap="round" stroke-linejoin="round"/>
<path d="M212.365 196.058C212.365 192.198 215.488 189.07 219.342 189.07H233.296C237.149 189.07 240.273 192.198 240.273 196.058C240.273 199.918 237.149 203.046 233.296 203.046H219.342C215.488 203.046 212.365 199.918 212.365 196.058Z" fill="white" stroke="#0D47A1" stroke-linecap="round" stroke-linejoin="round"/>
<path d="M212.445 196.263C212.445 192.403 215.568 189.275 219.422 189.275H233.376C237.229 189.275 240.353 192.403 240.353 196.263C240.353 200.123 237.229 203.251 233.376 203.251H219.422C215.568 203.251 212.445 200.123 212.445 196.263Z" fill="white" stroke="#0D47A1" stroke-width="1.4" stroke-linecap="round" stroke-linejoin="round"/>
<path d="M212.365 210.034C212.365 206.175 215.488 203.046 219.342 203.046H233.296C237.149 203.046 240.273 206.175 240.273 210.034C240.273 213.894 237.149 217.023 233.296 217.023H219.342C215.488 217.023 212.365 213.894 212.365 210.034Z" fill="white" stroke="#0D47A1" stroke-width="1.4" stroke-linecap="round" stroke-linejoin="round"/>
<path d="M212.365 224.012C212.365 220.152 215.488 217.023 219.342 217.023H233.296C237.149 217.023 240.273 220.152 240.273 224.012C240.273 227.871 237.149 231 233.296 231H219.342C215.488 231 212.365 227.871 212.365 224.012Z" fill="white" stroke="#0D47A1" stroke-width="1.4" stroke-linecap="round" stroke-linejoin="round"/>
<rect x="180.327" y="197.601" width="4.75819" height="20.2223" fill="white"/>
<path fill-rule="evenodd" clip-rule="evenodd" d="M194.706 175C188.078 175 182.706 180.373 182.706 187V203.876C182.706 208.294 186.288 211.876 190.706 211.876H193.739C198.157 211.876 201.739 208.294 201.739 203.876V189.275H215.121C219.556 189.275 223.151 186.079 223.151 182.137C223.151 178.195 219.556 175 215.121 175H201.739H199.062H194.706Z" fill="white"/>
<path d="M201.739 189.275V188.575C201.352 188.575 201.039 188.888 201.039 189.275H201.739ZM183.406 187C183.406 180.759 188.465 175.7 194.706 175.7V174.3C187.692 174.3 182.006 179.986 182.006 187H183.406ZM183.406 203.876V187H182.006V203.876H183.406ZM190.706 211.176C186.674 211.176 183.406 207.908 183.406 203.876H182.006C182.006 208.681 185.901 212.576 190.706 212.576V211.176ZM193.739 211.176H190.706V212.576H193.739V211.176ZM201.039 203.876C201.039 207.908 197.77 211.176 193.739 211.176V212.576C198.543 212.576 202.439 208.681 202.439 203.876H201.039ZM201.039 189.275V203.876H202.439V189.275H201.039ZM215.121 188.575H201.739V189.975H215.121V188.575ZM222.451 182.137C222.451 185.617 219.249 188.575 215.121 188.575V189.975C219.862 189.975 223.851 186.541 223.851 182.137H222.451ZM215.121 175.7C219.249 175.7 222.451 178.657 222.451 182.137H223.851C223.851 177.734 219.862 174.3 215.121 174.3V175.7ZM201.739 175.7H215.121V174.3H201.739V175.7ZM199.062 175.7H201.739V174.3H199.062V175.7ZM194.706 175.7H199.062V174.3H194.706V175.7Z" fill="#0D47A1"/>
<rect x="180.327" y="197.601" width="4.75819" height="8.32683" fill="white"/>
</svg>
