<svg width="64" height="64" viewBox="0 0 64 64" fill="none" xmlns="http://www.w3.org/2000/svg">
<mask id="path-1-inside-1" fill="white">
<path fill-rule="evenodd" clip-rule="evenodd" d="M44.0001 0C32.9544 0 24.0001 8.95431 24.0001 20H24V34C24 35.1046 24.8954 36 26 36H28V46C28 48.2091 29.7909 50 32 50H43.999V55H27.9995C25.7904 55 23.9995 56.7909 23.9995 59V64H63.9995V55H63.999V50H64V36V34V20H64.0001C64.0001 8.95431 55.0458 0 44.0001 0Z"/>
</mask>
<path fill-rule="evenodd" clip-rule="evenodd" d="M44.0001 0C32.9544 0 24.0001 8.95431 24.0001 20H24V34C24 35.1046 24.8954 36 26 36H28V46C28 48.2091 29.7909 50 32 50H43.999V55H27.9995C25.7904 55 23.9995 56.7909 23.9995 59V64H63.9995V55H63.999V50H64V36V34V20H64.0001C64.0001 8.95431 55.0458 0 44.0001 0Z" fill="#BBDEFB"/>
<path d="M24.0001 20V22H26.0001V20H24.0001ZM24 20V18H22V20H24ZM28 36H30V34H28V36ZM43.999 50H45.999V48H43.999V50ZM43.999 55V57H45.999V55H43.999ZM23.9995 64H21.9995V66H23.9995V64ZM63.9995 64V66H65.9995V64H63.9995ZM63.9995 55H65.9995V53H63.9995V55ZM63.999 55H61.999V57H63.999V55ZM63.999 50V48H61.999V50H63.999ZM64 50V52H66V50H64ZM64 20V18H62V20H64ZM64.0001 20V22H66.0001V20H64.0001ZM26.0001 20C26.0001 10.0589 34.0589 2 44.0001 2V-2C31.8498 -2 22.0001 7.84974 22.0001 20H26.0001ZM24 22H24.0001V18H24V22ZM26 34V20H22V34H26ZM26 34H26H22C22 36.2091 23.7909 38 26 38V34ZM28 34H26V38H28V34ZM30 46V36H26V46H30ZM32 48C30.8954 48 30 47.1046 30 46H26C26 49.3137 28.6863 52 32 52V48ZM43.999 48H32V52H43.999V48ZM45.999 55V50H41.999V55H45.999ZM27.9995 57H43.999V53H27.9995V57ZM25.9995 59C25.9995 57.8954 26.8949 57 27.9995 57V53C24.6858 53 21.9995 55.6863 21.9995 59H25.9995ZM25.9995 64V59H21.9995V64H25.9995ZM63.9995 62H23.9995V66H63.9995V62ZM61.9995 55V64H65.9995V55H61.9995ZM63.999 57H63.9995V53H63.999V57ZM61.999 50V55H65.999V50H61.999ZM64 48H63.999V52H64V48ZM62 36V50H66V36H62ZM62 34V36H66V34H62ZM62 20V34H66V20H62ZM64.0001 18H64V22H64.0001V18ZM44.0001 2C53.9412 2 62.0001 10.0589 62.0001 20H66.0001C66.0001 7.84974 56.1503 -2 44.0001 -2V2Z" fill="#0D47A1" mask="url(#path-1-inside-1)"/>
<mask id="path-3-inside-2" fill="white">
<rect x="40" width="8" height="18" rx="1"/>
</mask>
<rect x="40" width="8" height="18" rx="1" fill="#BBDEFB" stroke="#0D47A1" stroke-width="4" mask="url(#path-3-inside-2)"/>
<rect x="35" y="15" width="18" height="22" rx="7" fill="#BBDEFB" stroke="#0D47A1" stroke-width="2"/>
<rect x="39" y="19" width="10" height="14" rx="3" fill="#BBDEFB" stroke="#0D47A1" stroke-width="2"/>
<path d="M44 37V39C44 41.2091 42.2091 43 40 43H32" stroke="#0D47A1" stroke-width="2"/>
<rect x="33" y="41" width="6" height="4" rx="1" fill="#BBDEFB" stroke="#0D47A1" stroke-width="2"/>
<rect x="5" y="17" width="10" height="30" fill="#BBDEFB" stroke="#0D47A1" stroke-width="2"/>
<mask id="path-9-inside-3" fill="white">
<path fill-rule="evenodd" clip-rule="evenodd" d="M10 20C15.5228 20 20 15.5228 20 10C20 5.16208 16.5645 1.12658 12 0.200036V8.00006C12 9.10463 11.1046 10.0001 10 10.0001C8.89543 10.0001 8 9.10463 8 8.00006V0.200036C3.43552 1.12658 0 5.16208 0 10C0 15.5228 4.47715 20 10 20ZM9.96533 5.8841e-05H10.0347C10.0231 1.96241e-05 10.0116 0 10 0C9.98844 0 9.97688 1.96241e-05 9.96533 5.8841e-05Z"/>
</mask>
<path fill-rule="evenodd" clip-rule="evenodd" d="M10 20C15.5228 20 20 15.5228 20 10C20 5.16208 16.5645 1.12658 12 0.200036V8.00006C12 9.10463 11.1046 10.0001 10 10.0001C8.89543 10.0001 8 9.10463 8 8.00006V0.200036C3.43552 1.12658 0 5.16208 0 10C0 15.5228 4.47715 20 10 20ZM9.96533 5.8841e-05H10.0347C10.0231 1.96241e-05 10.0116 0 10 0C9.98844 0 9.97688 1.96241e-05 9.96533 5.8841e-05Z" fill="#BBDEFB"/>
<path d="M12 0.200036L12.3979 -1.75999L10 -2.24673V0.200036H12ZM8 0.200036H10V-2.24673L7.60214 -1.75999L8 0.200036ZM9.96533 5.8841e-05L9.95854 -1.99993L9.96533 2.00006V5.8841e-05ZM10.0347 5.8841e-05V2.00006L10.0415 -1.99993L10.0347 5.8841e-05ZM18 10C18 14.4183 14.4183 18 10 18V22C16.6274 22 22 16.6274 22 10H18ZM11.6021 2.16006C15.2529 2.90112 18 6.13199 18 10H22C22 4.19217 17.8761 -0.647971 12.3979 -1.75999L11.6021 2.16006ZM10 0.200036V8.00006H14V0.200036H10ZM10 8.00006V12.0001C12.2091 12.0001 14 10.2092 14 8.00006H10ZM10 8.00006H6C6 10.2092 7.79086 12.0001 10 12.0001V8.00006ZM10 8.00006V0.200036H6V8.00006H10ZM2 10C2 6.13199 4.74712 2.90112 8.39786 2.16006L7.60214 -1.75999C2.12392 -0.647971 -2 4.19218 -2 10H2ZM10 18C5.58172 18 2 14.4183 2 10H-2C-2 16.6274 3.37258 22 10 22V18ZM9.96533 2.00006H10.0347V-1.99994H9.96533V2.00006ZM10 2C10.0093 2 10.0186 2.00002 10.0279 2.00005L10.0415 -1.99993C10.0276 -1.99998 10.0138 -2 10 -2V2ZM9.97211 2.00005C9.98141 2.00002 9.9907 2 10 2V-2C9.98617 -2 9.97235 -1.99998 9.95854 -1.99993L9.97211 2.00005Z" fill="#0D47A1" mask="url(#path-9-inside-3)"/>
<mask id="path-11-inside-4" fill="white">
<path fill-rule="evenodd" clip-rule="evenodd" d="M12 63.8C16.5645 62.8734 20 58.8379 20 54C20 48.4772 15.5228 44 10 44C4.47715 44 0 48.4772 0 54C0 58.8379 3.43552 62.8734 8 63.8L8 56C8 54.8954 8.89543 54 10 54C11.1046 54 12 54.8954 12 56L12 63.8Z"/>
</mask>
<path fill-rule="evenodd" clip-rule="evenodd" d="M12 63.8C16.5645 62.8734 20 58.8379 20 54C20 48.4772 15.5228 44 10 44C4.47715 44 0 48.4772 0 54C0 58.8379 3.43552 62.8734 8 63.8L8 56C8 54.8954 8.89543 54 10 54C11.1046 54 12 54.8954 12 56L12 63.8Z" fill="#BBDEFB"/>
<path d="M12 63.8H10V66.2467L12.3979 65.76L12 63.8ZM8 63.8L7.60214 65.76L10 66.2467V63.8H8ZM8 56H10H8ZM12 56H14H12ZM18 54C18 57.868 15.2529 61.0989 11.6021 61.8399L12.3979 65.76C17.8761 64.648 22 59.8078 22 54H18ZM10 46C14.4183 46 18 49.5817 18 54H22C22 47.3726 16.6274 42 10 42V46ZM2 54C2 49.5817 5.58172 46 10 46V42C3.37258 42 -2 47.3726 -2 54H2ZM8.39786 61.8399C4.74712 61.0989 2 57.868 2 54H-2C-2 59.8078 2.12392 64.648 7.60214 65.76L8.39786 61.8399ZM10 63.8L10 56H6L6 63.8H10ZM10 56V52C7.79086 52 6 53.7909 6 56H10ZM10 56H14C14 53.7909 12.2091 52 10 52V56ZM10 56L10 63.8H14L14 56H10Z" fill="#0D47A1" mask="url(#path-11-inside-4)"/>
</svg>
