<svg width="64" height="64" viewBox="0 0 64 64" fill="none" xmlns="http://www.w3.org/2000/svg">
<mask id="path-1-inside-1" fill="white">
<path fill-rule="evenodd" clip-rule="evenodd" d="M8 4C3.58172 4 0 7.58172 0 12V42C0 46.4183 3.58172 50 8 50H12.042L20.126 58L20.1249 50H48C52.4183 50 56 46.4183 56 42V12C56 7.58172 52.4183 4 48 4H8Z"/>
</mask>
<path fill-rule="evenodd" clip-rule="evenodd" d="M8 4C3.58172 4 0 7.58172 0 12V42C0 46.4183 3.58172 50 8 50H12.042L20.126 58L20.1249 50H48C52.4183 50 56 46.4183 56 42V12C56 7.58172 52.4183 4 48 4H8Z" fill="#BBDEFB"/>
<path d="M12.042 50L13.4488 48.5784L12.8643 48H12.042V50ZM20.126 58L18.7192 59.4216L22.1266 62.7936L22.126 57.9997L20.126 58ZM20.1249 50V48H18.1246L18.1249 50.0003L20.1249 50ZM2 12C2 8.68629 4.68629 6 8 6V2C2.47715 2 -2 6.47715 -2 12H2ZM2 42V12H-2V42H2ZM8 48C4.68629 48 2 45.3137 2 42H-2C-2 47.5228 2.47715 52 8 52V48ZM12.042 48H8V52H12.042V48ZM21.5328 56.5784L13.4488 48.5784L10.6351 51.4216L18.7192 59.4216L21.5328 56.5784ZM18.1249 50.0003L18.126 58.0003L22.126 57.9997L22.1249 49.9997L18.1249 50.0003ZM48 48H20.1249V52H48V48ZM54 42C54 45.3137 51.3137 48 48 48V52C53.5228 52 58 47.5228 58 42H54ZM54 12V42H58V12H54ZM48 6C51.3137 6 54 8.68629 54 12H58C58 6.47715 53.5228 2 48 2V6ZM8 6H48V2H8V6Z" fill="#0D47A1" mask="url(#path-1-inside-1)"/>
<rect x="8" y="12" width="32" height="2" rx="1" fill="#0D47A1"/>
<rect x="8" y="19" width="32" height="2" rx="1" fill="#0D47A1"/>
<rect x="8" y="26" width="32" height="2" rx="1" fill="#0D47A1"/>
<rect x="8" y="33" width="32" height="2" rx="1" fill="#0D47A1"/>
<rect x="8" y="40" width="32" height="2" rx="1" fill="#0D47A1"/>
<mask id="path-8-inside-2" fill="white">
<path fill-rule="evenodd" clip-rule="evenodd" d="M44.0001 0C32.9544 0 24.0001 8.95431 24.0001 20H24V34C24 35.1046 24.8954 36 26 36H28V46C28 48.2091 29.7909 50 32 50H43.999V55H27.9995C25.7904 55 23.9995 56.7909 23.9995 59V64H63.9995V55H63.999V50H64V36V34V20H64.0001C64.0001 8.95431 55.0458 0 44.0001 0Z"/>
</mask>
<path fill-rule="evenodd" clip-rule="evenodd" d="M44.0001 0C32.9544 0 24.0001 8.95431 24.0001 20H24V34C24 35.1046 24.8954 36 26 36H28V46C28 48.2091 29.7909 50 32 50H43.999V55H27.9995C25.7904 55 23.9995 56.7909 23.9995 59V64H63.9995V55H63.999V50H64V36V34V20H64.0001C64.0001 8.95431 55.0458 0 44.0001 0Z" fill="#BBDEFB"/>
<path d="M24.0001 20V22H26.0001V20H24.0001ZM24 20V18H22V20H24ZM28 36H30V34H28V36ZM43.999 50H45.999V48H43.999V50ZM43.999 55V57H45.999V55H43.999ZM23.9995 64H21.9995V66H23.9995V64ZM63.9995 64V66H65.9995V64H63.9995ZM63.9995 55H65.9995V53H63.9995V55ZM63.999 55H61.999V57H63.999V55ZM63.999 50V48H61.999V50H63.999ZM64 50V52H66V50H64ZM64 20V18H62V20H64ZM64.0001 20V22H66.0001V20H64.0001ZM26.0001 20C26.0001 10.0589 34.0589 2 44.0001 2V-2C31.8498 -2 22.0001 7.84974 22.0001 20H26.0001ZM24 22H24.0001V18H24V22ZM26 34V20H22V34H26ZM26 34H26H22C22 36.2091 23.7909 38 26 38V34ZM28 34H26V38H28V34ZM30 46V36H26V46H30ZM32 48C30.8954 48 30 47.1046 30 46H26C26 49.3137 28.6863 52 32 52V48ZM43.999 48H32V52H43.999V48ZM45.999 55V50H41.999V55H45.999ZM27.9995 57H43.999V53H27.9995V57ZM25.9995 59C25.9995 57.8954 26.8949 57 27.9995 57V53C24.6858 53 21.9995 55.6863 21.9995 59H25.9995ZM25.9995 64V59H21.9995V64H25.9995ZM63.9995 62H23.9995V66H63.9995V62ZM61.9995 55V64H65.9995V55H61.9995ZM63.999 57H63.9995V53H63.999V57ZM61.999 50V55H65.999V50H61.999ZM64 48H63.999V52H64V48ZM62 36V50H66V36H62ZM62 34V36H66V34H62ZM62 20V34H66V20H62ZM64.0001 18H64V22H64.0001V18ZM44.0001 2C53.9412 2 62.0001 10.0589 62.0001 20H66.0001C66.0001 7.84974 56.1503 -2 44.0001 -2V2Z" fill="#0D47A1" mask="url(#path-8-inside-2)"/>
<mask id="path-10-inside-3" fill="white">
<rect x="40" width="8" height="18" rx="1"/>
</mask>
<rect x="40" width="8" height="18" rx="1" fill="#BBDEFB" stroke="#0D47A1" stroke-width="4" mask="url(#path-10-inside-3)"/>
<rect x="35" y="15" width="18" height="22" rx="7" fill="#BBDEFB" stroke="#0D47A1" stroke-width="2"/>
<rect x="39" y="19" width="10" height="14" rx="3" fill="#BBDEFB" stroke="#0D47A1" stroke-width="2"/>
<path d="M44 37V39C44 41.2091 42.2091 43 40 43H32" stroke="#0D47A1" stroke-width="2"/>
<rect x="33" y="41" width="6" height="4" rx="1" fill="#BBDEFB" stroke="#0D47A1" stroke-width="2"/>
</svg>
