<svg width="72" height="56" viewBox="0 0 72 56" fill="none" xmlns="http://www.w3.org/2000/svg">
<path d="M0 4C0 1.79086 1.79086 0 4 0H68C70.2091 0 72 1.79086 72 4V44C72 46.2091 70.2091 48 68 48H4C1.79086 48 0 46.2091 0 44V4Z" fill="#ABCEF6"/>
<path fill-rule="evenodd" clip-rule="evenodd" d="M68 2H4C2.89543 2 2 2.89543 2 4V44C2 45.1046 2.89543 46 4 46H68C69.1046 46 70 45.1046 70 44V4C70 2.89543 69.1046 2 68 2ZM4 0C1.79086 0 0 1.79086 0 4V44C0 46.2091 1.79086 48 4 48H68C70.2091 48 72 46.2091 72 44V4C72 1.79086 70.2091 0 68 0H4Z" fill="#104D92"/>
<path d="M0 36H72V44C72 46.2091 70.2091 48 68 48H4C1.79086 48 0 46.2091 0 44V36Z" fill="#ABCEF6"/>
<path fill-rule="evenodd" clip-rule="evenodd" d="M70 38H2V44C2 45.1046 2.89543 46 4 46H68C69.1046 46 70 45.1046 70 44V38ZM0 36V44C0 46.2091 1.79086 48 4 48H68C70.2091 48 72 46.2091 72 44V36H0Z" fill="#104D92"/>
<path d="M38 42C38 43.1046 37.1046 44 36 44C34.8954 44 34 43.1046 34 42C34 40.8954 34.8954 40 36 40C37.1046 40 38 40.8954 38 42Z" fill="#104D92"/>
<path d="M30 46H42V56H30V46Z" fill="#ABCEF6"/>
<path fill-rule="evenodd" clip-rule="evenodd" d="M40 48H32V54H40V48ZM30 46V56H42V46H30Z" fill="#104D92"/>
<path d="M0 55C0 54.4477 0.447715 54 1 54H71C71.5523 54 72 54.4477 72 55C72 55.5523 71.5523 56 71 56H1C0.447716 56 0 55.5523 0 55Z" fill="#ABCEF6"/>
<path fill-rule="evenodd" clip-rule="evenodd" d="M1 54C0.447715 54 0 54.4477 0 55C0 55.5523 0.447716 56 1 56H71C71.5523 56 72 55.5523 72 55C72 54.4477 71.5523 54 71 54H1Z" fill="#104D92"/>
<path d="M8 10C8 7.79086 9.79086 6 12 6H32L37 11V38H8V10Z" fill="#ABCEF6"/>
<path fill-rule="evenodd" clip-rule="evenodd" d="M10 36H35V11.8284L31.1716 8H12C10.8954 8 10 8.89543 10 10V36ZM32 6H12C9.79086 6 8 7.79086 8 10V38H37V11L32 6Z" fill="#104D92"/>
<path fill-rule="evenodd" clip-rule="evenodd" d="M14 13C14 12.4477 14.4477 12 15 12H30C30.5523 12 31 12.4477 31 13C31 13.5523 30.5523 14 30 14H15C14.4477 14 14 13.5523 14 13Z" fill="#104D92"/>
<path fill-rule="evenodd" clip-rule="evenodd" d="M14 13C14 12.4477 14.4477 12 15 12H30C30.5523 12 31 12.4477 31 13C31 13.5523 30.5523 14 30 14H15C14.4477 14 14 13.5523 14 13Z" fill="#104D92"/>
<path fill-rule="evenodd" clip-rule="evenodd" d="M14 17C14 16.4477 14.4477 16 15 16H30C30.5523 16 31 16.4477 31 17C31 17.5523 30.5523 18 30 18H15C14.4477 18 14 17.5523 14 17Z" fill="#104D92"/>
<path fill-rule="evenodd" clip-rule="evenodd" d="M14 17C14 16.4477 14.4477 16 15 16H30C30.5523 16 31 16.4477 31 17C31 17.5523 30.5523 18 30 18H15C14.4477 18 14 17.5523 14 17Z" fill="#104D92"/>
<path fill-rule="evenodd" clip-rule="evenodd" d="M14 21C14 20.4477 14.4477 20 15 20H30C30.5523 20 31 20.4477 31 21C31 21.5523 30.5523 22 30 22H15C14.4477 22 14 21.5523 14 21Z" fill="#104D92"/>
<path fill-rule="evenodd" clip-rule="evenodd" d="M14 21C14 20.4477 14.4477 20 15 20H30C30.5523 20 31 20.4477 31 21C31 21.5523 30.5523 22 30 22H15C14.4477 22 14 21.5523 14 21Z" fill="#104D92"/>
<path fill-rule="evenodd" clip-rule="evenodd" d="M14 25C14 24.4477 14.4477 24 15 24H30C30.5523 24 31 24.4477 31 25C31 25.5523 30.5523 26 30 26H15C14.4477 26 14 25.5523 14 25Z" fill="#104D92"/>
<path fill-rule="evenodd" clip-rule="evenodd" d="M14 25C14 24.4477 14.4477 24 15 24H30C30.5523 24 31 24.4477 31 25C31 25.5523 30.5523 26 30 26H15C14.4477 26 14 25.5523 14 25Z" fill="#104D92"/>
<path fill-rule="evenodd" clip-rule="evenodd" d="M14 29C14 28.4477 14.4477 28 15 28H30C30.5523 28 31 28.4477 31 29C31 29.5523 30.5523 30 30 30H15C14.4477 30 14 29.5523 14 29Z" fill="#104D92"/>
<path fill-rule="evenodd" clip-rule="evenodd" d="M14 29C14 28.4477 14.4477 28 15 28H30C30.5523 28 31 28.4477 31 29C31 29.5523 30.5523 30 30 30H15C14.4477 30 14 29.5523 14 29Z" fill="#104D92"/>
<path fill-rule="evenodd" clip-rule="evenodd" d="M14 33C14 32.4477 14.4477 32 15 32H30C30.5523 32 31 32.4477 31 33C31 33.5523 30.5523 34 30 34H15C14.4477 34 14 33.5523 14 33Z" fill="#104D92"/>
<path fill-rule="evenodd" clip-rule="evenodd" d="M14 33C14 32.4477 14.4477 32 15 32H30C30.5523 32 31 32.4477 31 33C31 33.5523 30.5523 34 30 34H15C14.4477 34 14 33.5523 14 33Z" fill="#104D92"/>
<path d="M40 6H60C62.2091 6 64 7.79086 64 10V38H35V11L40 6Z" fill="#ABCEF6"/>
<path fill-rule="evenodd" clip-rule="evenodd" d="M62 36V10C62 8.89543 61.1046 8 60 8H40.8284L37 11.8284V36H62ZM35 11V38H64V10C64 7.79086 62.2091 6 60 6H40L35 11Z" fill="#104D92"/>
<path fill-rule="evenodd" clip-rule="evenodd" d="M41 13C41 12.4477 41.4477 12 42 12H57C57.5523 12 58 12.4477 58 13C58 13.5523 57.5523 14 57 14H42C41.4477 14 41 13.5523 41 13Z" fill="#104D92"/>
<path fill-rule="evenodd" clip-rule="evenodd" d="M41 13C41 12.4477 41.4477 12 42 12H57C57.5523 12 58 12.4477 58 13C58 13.5523 57.5523 14 57 14H42C41.4477 14 41 13.5523 41 13Z" fill="#104D92"/>
<path fill-rule="evenodd" clip-rule="evenodd" d="M41 17C41 16.4477 41.4477 16 42 16H57C57.5523 16 58 16.4477 58 17C58 17.5523 57.5523 18 57 18H42C41.4477 18 41 17.5523 41 17Z" fill="#104D92"/>
<path fill-rule="evenodd" clip-rule="evenodd" d="M41 17C41 16.4477 41.4477 16 42 16H57C57.5523 16 58 16.4477 58 17C58 17.5523 57.5523 18 57 18H42C41.4477 18 41 17.5523 41 17Z" fill="#104D92"/>
<path fill-rule="evenodd" clip-rule="evenodd" d="M41 21C41 20.4477 41.4477 20 42 20H57C57.5523 20 58 20.4477 58 21C58 21.5523 57.5523 22 57 22H42C41.4477 22 41 21.5523 41 21Z" fill="#104D92"/>
<path fill-rule="evenodd" clip-rule="evenodd" d="M41 21C41 20.4477 41.4477 20 42 20H57C57.5523 20 58 20.4477 58 21C58 21.5523 57.5523 22 57 22H42C41.4477 22 41 21.5523 41 21Z" fill="#104D92"/>
<path fill-rule="evenodd" clip-rule="evenodd" d="M41 25C41 24.4477 41.4477 24 42 24H57C57.5523 24 58 24.4477 58 25C58 25.5523 57.5523 26 57 26H42C41.4477 26 41 25.5523 41 25Z" fill="#104D92"/>
<path fill-rule="evenodd" clip-rule="evenodd" d="M41 25C41 24.4477 41.4477 24 42 24H57C57.5523 24 58 24.4477 58 25C58 25.5523 57.5523 26 57 26H42C41.4477 26 41 25.5523 41 25Z" fill="#104D92"/>
<path fill-rule="evenodd" clip-rule="evenodd" d="M41 29C41 28.4477 41.4477 28 42 28H57C57.5523 28 58 28.4477 58 29C58 29.5523 57.5523 30 57 30H42C41.4477 30 41 29.5523 41 29Z" fill="#104D92"/>
<path fill-rule="evenodd" clip-rule="evenodd" d="M41 29C41 28.4477 41.4477 28 42 28H57C57.5523 28 58 28.4477 58 29C58 29.5523 57.5523 30 57 30H42C41.4477 30 41 29.5523 41 29Z" fill="#104D92"/>
<path fill-rule="evenodd" clip-rule="evenodd" d="M41 33C41 32.4477 41.4477 32 42 32H57C57.5523 32 58 32.4477 58 33C58 33.5523 57.5523 34 57 34H42C41.4477 34 41 33.5523 41 33Z" fill="#104D92"/>
<path fill-rule="evenodd" clip-rule="evenodd" d="M41 33C41 32.4477 41.4477 32 42 32H57C57.5523 32 58 32.4477 58 33C58 33.5523 57.5523 34 57 34H42C41.4477 34 41 33.5523 41 33Z" fill="#104D92"/>
</svg>
