<svg width="56" height="72" viewBox="0 0 56 72" fill="none" xmlns="http://www.w3.org/2000/svg">
<path d="M0 64C0 62.8954 0.895431 62 2 62H29V72H2C0.89543 72 0 71.1046 0 70V64Z" fill="#ABCEF6"/>
<path fill-rule="evenodd" clip-rule="evenodd" d="M27 64H2L2 70H27V64ZM2 62C0.895431 62 0 62.8954 0 64V70C0 71.1046 0.89543 72 2 72H29V62H2Z" fill="#104D92"/>
<path d="M27 62H54C55.1046 62 56 62.8954 56 64V70C56 71.1046 55.1046 72 54 72H27V62Z" fill="#ABCEF6"/>
<path fill-rule="evenodd" clip-rule="evenodd" d="M54 64H29V70H54V64ZM27 62V72H54C55.1046 72 56 71.1046 56 70V64C56 62.8954 55.1046 62 54 62H27Z" fill="#104D92"/>
<path d="M27 15.316C27 12.3801 29.3801 10 32.316 10C34.532 10 36.5155 11.3746 37.2935 13.4494L47.0737 39.5299C47.6753 41.1341 47.746 42.8892 47.2753 44.5366L44 56L48 64H27V15.316Z" fill="#ABCEF6"/>
<path fill-rule="evenodd" clip-rule="evenodd" d="M41.8632 56.1986L45.3522 43.9872C45.7052 42.7516 45.6522 41.4353 45.201 40.2321L35.4209 14.1517C34.9355 12.8574 33.6983 12 32.316 12C30.4846 12 29 13.4846 29 15.316V62H44.7639L41.8632 56.1986ZM48 64H27V15.316C27 12.3801 29.3801 10 32.316 10C34.532 10 36.5155 11.3746 37.2935 13.4494L47.0737 39.5299C47.6753 41.1341 47.746 42.8892 47.2753 44.5366L44 56L48 64Z" fill="#104D92"/>
<path fill-rule="evenodd" clip-rule="evenodd" d="M34 34C34 30.134 30.866 27 27 27V25C31.9706 25 36 29.0294 36 34V45C36 45.5523 35.5523 46 35 46C34.4477 46 34 45.5523 34 45V34Z" fill="#104D92"/>
<path d="M18.7065 13.4494C19.4845 11.3746 21.468 10 23.684 10C26.6199 10 29 12.3801 29 15.316V64H8L12 56L8.72475 44.5366C8.25405 42.8892 8.3247 41.1341 8.9263 39.5299L18.7065 13.4494Z" fill="#ABCEF6"/>
<path fill-rule="evenodd" clip-rule="evenodd" d="M12 56L8 64H29V15.316C29 12.3801 26.6199 10 23.684 10C21.468 10 19.4845 11.3746 18.7065 13.4494L8.9263 39.5299C8.3247 41.1341 8.25405 42.8892 8.72475 44.5366L12 56ZM27 62V15.316C27 13.4846 25.5154 12 23.684 12C22.3017 12 21.0645 12.8574 20.5791 14.1517L10.799 40.2321C10.3478 41.4353 10.2948 42.7516 10.6478 43.9872L14.1368 56.1986L11.2361 62H27Z" fill="#104D92"/>
<path fill-rule="evenodd" clip-rule="evenodd" d="M22 34C22 30.134 25.134 27 29 27V25C24.0294 25 20 29.0294 20 34V45C20 45.5523 20.4477 46 21 46C21.5523 46 22 45.5523 22 45V34Z" fill="#104D92"/>
<path d="M55 27C55.5523 27 56 27.4477 56 28C56 28.5523 55.5523 29 55 29L51 29C50.4477 29 50 28.5523 50 28C50 27.4477 50.4477 27 51 27L55 27Z" fill="#104D92"/>
<path d="M27 1C27 0.447715 27.4477 0 28 0C28.5523 0 29 0.447715 29 1L29 5C29 5.55228 28.5523 6 28 6C27.4477 6 27 5.55228 27 5L27 1Z" fill="#104D92"/>
<path d="M5 27C5.55228 27 6 27.4477 6 28C6 28.5523 5.55228 29 5 29L1 29C0.447715 29 -6.78525e-08 28.5523 -4.37114e-08 28C-1.95703e-08 27.4477 0.447715 27 1 27L5 27Z" fill="#104D92"/>
<path d="M46.3847 8.201C46.7752 7.81048 47.4084 7.81048 47.7989 8.201C48.1894 8.59153 48.1894 9.22469 47.7989 9.61522L44.9705 12.4436C44.58 12.8342 43.9468 12.8342 43.5563 12.4436C43.1657 12.0531 43.1657 11.42 43.5563 11.0294L46.3847 8.201Z" fill="#104D92"/>
<path d="M8.20076 9.61531C7.81023 9.22479 7.81023 8.59162 8.20076 8.2011C8.59128 7.81057 9.22445 7.81057 9.61497 8.2011L12.4434 11.0295C12.8339 11.42 12.8339 12.0532 12.4434 12.4437C12.0529 12.8343 11.4197 12.8343 11.0292 12.4437L8.20076 9.61531Z" fill="#104D92"/>
</svg>
