<svg width="72" height="56" viewBox="0 0 72 56" fill="none" xmlns="http://www.w3.org/2000/svg">
<path d="M0 12C0 9.79086 1.79086 8 4 8H68C70.2091 8 72 9.79086 72 12V52C72 54.2091 70.2091 56 68 56H4C1.79086 56 0 54.2091 0 52V12Z" fill="#ABCEF6"/>
<path fill-rule="evenodd" clip-rule="evenodd" d="M68 10H4C2.89543 10 2 10.8954 2 12V52C2 53.1046 2.89543 54 4 54H68C69.1046 54 70 53.1046 70 52V12C70 10.8954 69.1046 10 68 10ZM4 8C1.79086 8 0 9.79086 0 12V52C0 54.2091 1.79086 56 4 56H68C70.2091 56 72 54.2091 72 52V12C72 9.79086 70.2091 8 68 8H4Z" fill="#104D92"/>
<path d="M8 22C8 20.8954 8.89543 20 10 20H34C35.1046 20 36 20.8954 36 22V46C36 47.1046 35.1046 48 34 48H10C8.89543 48 8 47.1046 8 46V22Z" fill="#ABCEF6"/>
<path fill-rule="evenodd" clip-rule="evenodd" d="M34 22H10V46H34V22ZM10 20C8.89543 20 8 20.8954 8 22V46C8 47.1046 8.89543 48 10 48H34C35.1046 48 36 47.1046 36 46V22C36 20.8954 35.1046 20 34 20H10Z" fill="#104D92"/>
<path d="M28 32C28 35.3137 25.3137 38 22 38C18.6863 38 16 35.3137 16 32C16 28.6863 18.6863 26 22 26C25.3137 26 28 28.6863 28 32Z" fill="#ABCEF6"/>
<path fill-rule="evenodd" clip-rule="evenodd" d="M22 36C24.2091 36 26 34.2091 26 32C26 29.7909 24.2091 28 22 28C19.7909 28 18 29.7909 18 32C18 34.2091 19.7909 36 22 36ZM22 38C25.3137 38 28 35.3137 28 32C28 28.6863 25.3137 26 22 26C18.6863 26 16 28.6863 16 32C16 35.3137 18.6863 38 22 38Z" fill="#104D92"/>
<path d="M14 44C14 39.5817 17.5817 36 22 36C26.4183 36 30 39.5817 30 44V48H14V44Z" fill="#ABCEF6"/>
<path fill-rule="evenodd" clip-rule="evenodd" d="M28 46V44C28 40.6863 25.3137 38 22 38C18.6863 38 16 40.6863 16 44V46H28ZM22 36C17.5817 36 14 39.5817 14 44V48H30V44C30 39.5817 26.4183 36 22 36Z" fill="#104D92"/>
<path fill-rule="evenodd" clip-rule="evenodd" d="M40 22C40 21.4477 40.4477 21 41 21H63C63.5523 21 64 21.4477 64 22C64 22.5523 63.5523 23 63 23H41C40.4477 23 40 22.5523 40 22Z" fill="#104D92"/>
<path fill-rule="evenodd" clip-rule="evenodd" d="M40 34C40 33.4477 40.4477 33 41 33H63C63.5523 33 64 33.4477 64 34C64 34.5523 63.5523 35 63 35H41C40.4477 35 40 34.5523 40 34Z" fill="#104D92"/>
<path fill-rule="evenodd" clip-rule="evenodd" d="M40 28C40 27.4477 40.4477 27 41 27H50C50.5523 27 51 27.4477 51 28C51 28.5523 50.5523 29 50 29H41C40.4477 29 40 28.5523 40 28Z" fill="#104D92"/>
<path fill-rule="evenodd" clip-rule="evenodd" d="M40 40C40 39.4477 40.4477 39 41 39H50C50.5523 39 51 39.4477 51 40C51 40.5523 50.5523 41 50 41H41C40.4477 41 40 40.5523 40 40Z" fill="#104D92"/>
<path fill-rule="evenodd" clip-rule="evenodd" d="M53 28C53 27.4477 53.4477 27 54 27H63C63.5523 27 64 27.4477 64 28C64 28.5523 63.5523 29 63 29H54C53.4477 29 53 28.5523 53 28Z" fill="#104D92"/>
<path fill-rule="evenodd" clip-rule="evenodd" d="M53 40C53 39.4477 53.4477 39 54 39H63C63.5523 39 64 39.4477 64 40C64 40.5523 63.5523 41 63 41H54C53.4477 41 53 40.5523 53 40Z" fill="#104D92"/>
<path fill-rule="evenodd" clip-rule="evenodd" d="M40 46C40 45.4477 40.4477 45 41 45H50C50.5523 45 51 45.4477 51 46C51 46.5523 50.5523 47 50 47H41C40.4477 47 40 46.5523 40 46Z" fill="#104D92"/>
<path d="M30 2C30 0.895431 30.8954 0 32 0H40C41.1046 0 42 0.895431 42 2V14C42 15.1046 41.1046 16 40 16H32C30.8954 16 30 15.1046 30 14V2Z" fill="#ABCEF6"/>
<path fill-rule="evenodd" clip-rule="evenodd" d="M40 2H32L32 14H40V2ZM32 0C30.8954 0 30 0.895431 30 2V14C30 15.1046 30.8954 16 32 16H40C41.1046 16 42 15.1046 42 14V2C42 0.895431 41.1046 0 40 0H32Z" fill="#104D92"/>
<path d="M38 6C38 7.10457 37.1046 8 36 8C34.8954 8 34 7.10457 34 6C34 4.89543 34.8954 4 36 4C37.1046 4 38 4.89543 38 6Z" fill="#ABCEF6"/>
<path fill-rule="evenodd" clip-rule="evenodd" d="M36 8C37.1046 8 38 7.10457 38 6C38 4.89543 37.1046 4 36 4C34.8954 4 34 4.89543 34 6C34 7.10457 34.8954 8 36 8Z" fill="#104D92"/>
</svg>
