<svg width="56" height="72" viewBox="0 0 56 72" fill="none" xmlns="http://www.w3.org/2000/svg">
<path d="M1 16C1 14.3431 2.34315 13 4 13H48C49.6569 13 51 14.3431 51 16V68C51 69.6569 49.6569 71 48 71H4C2.34315 71 1 69.6569 1 68V16Z" fill="#BBDEFB" stroke="#0D47A1" stroke-width="2"/>
<rect x="5" y="17" width="42" height="50" rx="1" fill="#BBDEFB" stroke="#0D47A1" stroke-width="2"/>
<mask id="path-3-inside-1" fill="white">
<path fill-rule="evenodd" clip-rule="evenodd" d="M19.0709 6C19.5561 2.60771 22.4735 0 26 0C29.5265 0 32.4439 2.60771 32.9291 6H38C39.1046 6 40 6.89543 40 8V16C40 17.1046 39.1046 18 38 18H14C12.8954 18 12 17.1046 12 16V8C12 6.89543 12.8954 6 14 6H19.0709Z"/>
</mask>
<path fill-rule="evenodd" clip-rule="evenodd" d="M19.0709 6C19.5561 2.60771 22.4735 0 26 0C29.5265 0 32.4439 2.60771 32.9291 6H38C39.1046 6 40 6.89543 40 8V16C40 17.1046 39.1046 18 38 18H14C12.8954 18 12 17.1046 12 16V8C12 6.89543 12.8954 6 14 6H19.0709Z" fill="#BBDEFB"/>
<path d="M19.0709 6V8H20.8052L21.0507 6.2832L19.0709 6ZM32.9291 6L30.9493 6.2832L31.1948 8H32.9291V6ZM21.0507 6.2832C21.3971 3.862 23.4828 2 26 2V-2C21.4642 -2 17.7152 1.35341 17.091 5.7168L21.0507 6.2832ZM26 2C28.5172 2 30.6029 3.862 30.9493 6.2832L34.909 5.7168C34.2848 1.35341 30.5358 -2 26 -2V2ZM32.9291 8H38V4H32.9291V8ZM38 8H42C42 5.79086 40.2091 4 38 4V8ZM38 8V16H42V8H38ZM38 16V20C40.2091 20 42 18.2091 42 16H38ZM38 16H14V20H38V16ZM14 16H14H10C10 18.2091 11.7909 20 14 20V16ZM14 16V8H10V16H14ZM14 8V4C11.7909 4 10 5.79086 10 8H14ZM14 8H19.0709V4H14V8Z" fill="#0D47A1" mask="url(#path-3-inside-1)"/>
<circle cx="26" cy="7" r="2" fill="#0D47A1"/>
<rect x="23" y="25" width="32" height="46" rx="3" fill="#BBDEFB" stroke="#0D47A1" stroke-width="2"/>
<rect x="29" y="31" width="20" height="8" rx="1" fill="#BBDEFB" stroke="#0D47A1" stroke-width="2"/>
<rect x="29" y="45" width="4" height="4" rx="1" fill="#BBDEFB" stroke="#0D47A1" stroke-width="2"/>
<rect x="29" y="53" width="4" height="4" rx="1" fill="#BBDEFB" stroke="#0D47A1" stroke-width="2"/>
<rect x="29" y="61" width="4" height="4" rx="1" fill="#BBDEFB" stroke="#0D47A1" stroke-width="2"/>
<rect x="37" y="45" width="4" height="4" rx="1" fill="#BBDEFB" stroke="#0D47A1" stroke-width="2"/>
<rect x="37" y="53" width="4" height="4" rx="1" fill="#BBDEFB" stroke="#0D47A1" stroke-width="2"/>
<rect x="37" y="61" width="4" height="4" rx="1" fill="#BBDEFB" stroke="#0D47A1" stroke-width="2"/>
<rect x="45" y="45" width="4" height="4" rx="1" fill="#BBDEFB" stroke="#0D47A1" stroke-width="2"/>
<rect x="45" y="53" width="4" height="4" rx="1" fill="#BBDEFB" stroke="#0D47A1" stroke-width="2"/>
<rect x="45" y="61" width="4" height="4" rx="1" fill="#BBDEFB" stroke="#0D47A1" stroke-width="2"/>
</svg>
