<svg width="72" height="56" viewBox="0 0 72 56" fill="none" xmlns="http://www.w3.org/2000/svg">
<path d="M20 4C20 1.79086 21.7909 0 24 0H68C70.2091 0 72 1.79086 72 4V36C72 38.2091 70.2091 40 68 40H24C21.7909 40 20 38.2091 20 36V4Z" fill="#ABCEF6"/>
<path fill-rule="evenodd" clip-rule="evenodd" d="M68 2H24C22.8954 2 22 2.89543 22 4V36C22 37.1046 22.8954 38 24 38H68C69.1046 38 70 37.1046 70 36V4C70 2.89543 69.1046 2 68 2ZM24 0C21.7909 0 20 1.79086 20 4V36C20 38.2091 21.7909 40 24 40H68C70.2091 40 72 38.2091 72 36V4C72 1.79086 70.2091 0 68 0H24Z" fill="#104D92"/>
<path d="M20 30H72V36C72 38.2091 70.2091 40 68 40H24C21.7909 40 20 38.2091 20 36V30Z" fill="#ABCEF6"/>
<path fill-rule="evenodd" clip-rule="evenodd" d="M70 32H22V36C22 37.1046 22.8954 38 24 38H68C69.1046 38 70 37.1046 70 36V32ZM20 30V36C20 38.2091 21.7909 40 24 40H68C70.2091 40 72 38.2091 72 36V30H20Z" fill="#104D92"/>
<path d="M48 35C48 36.1046 47.1046 37 46 37C44.8954 37 44 36.1046 44 35C44 33.8954 44.8954 33 46 33C47.1046 33 48 33.8954 48 35Z" fill="#104D92"/>
<path fill-rule="evenodd" clip-rule="evenodd" d="M39.9754 56C39.9917 55.6687 40 55.3353 40 55C40 43.9543 31.0457 35 20 35C8.9543 35 0 43.9543 0 55C0 55.3353 0.00825234 55.6687 0.024565 56H39.9754Z" fill="#ABCEF6"/>
<path fill-rule="evenodd" clip-rule="evenodd" d="M39.9754 56C39.9917 55.6687 40 55.3353 40 55C40 54.6647 39.9917 54.3313 39.9754 54C39.4544 43.4189 30.7104 35 20 35C9.28963 35 0.545596 43.4189 0.024565 54C0.00825234 54.3313 0 54.6647 0 55C0 55.3353 0.00825234 55.6687 0.024565 56H39.9754ZM2.02731 54C2.54619 44.524 10.3944 37 20 37C29.6056 37 37.4538 44.524 37.9727 54H2.02731Z" fill="#104D92"/>
<path d="M32 28C32 34.6274 26.6274 40 20 40C13.3726 40 8 34.6274 8 28C8 21.3726 13.3726 16 20 16C26.6274 16 32 21.3726 32 28Z" fill="#ABCEF6"/>
<path fill-rule="evenodd" clip-rule="evenodd" d="M20 38C25.5228 38 30 33.5228 30 28C30 22.4772 25.5228 18 20 18C14.4772 18 10 22.4772 10 28C10 33.5228 14.4772 38 20 38ZM20 40C26.6274 40 32 34.6274 32 28C32 21.3726 26.6274 16 20 16C13.3726 16 8 21.3726 8 28C8 34.6274 13.3726 40 20 40Z" fill="#104D92"/>
<path fill-rule="evenodd" clip-rule="evenodd" d="M58 32.0001C58 32 58 32 58 32C58 25.3726 52.6274 20 46 20C39.3726 20 34 25.3726 34 32C34 32 34 32 34 32.0001H58ZM49.7572 43.4001H42.2428C43.4247 43.7894 44.6877 44 46 44C47.3123 44 48.5753 43.7894 49.7572 43.4001Z" fill="#ABCEF6"/>
<path fill-rule="evenodd" clip-rule="evenodd" d="M57.8341 30.0001C57.9432 30.6505 58 31.3186 58 32L34 32.0001C34 31.3187 34.0568 30.6505 34.1659 30.0001C35.118 24.3246 40.054 20 46 20C51.946 20 56.882 24.3246 57.8341 30.0001ZM36.2 30.0001C37.1265 25.4355 41.1621 22 46 22C50.8379 22 54.8735 25.4355 55.8 30.0001H36.2ZM49.7572 43.4001H42.2428C43.4247 43.7894 44.6877 44 46 44C47.3123 44 48.5753 43.7894 49.7572 43.4001Z" fill="#104D92"/>
<path d="M54 16C54 20.4183 50.4183 24 46 24C41.5817 24 38 20.4183 38 16C38 11.5817 41.5817 8 46 8C50.4183 8 54 11.5817 54 16Z" fill="#ABCEF6"/>
<path fill-rule="evenodd" clip-rule="evenodd" d="M46 22C49.3137 22 52 19.3137 52 16C52 12.6863 49.3137 10 46 10C42.6863 10 40 12.6863 40 16C40 19.3137 42.6863 22 46 22ZM46 24C50.4183 24 54 20.4183 54 16C54 11.5817 50.4183 8 46 8C41.5817 8 38 11.5817 38 16C38 20.4183 41.5817 24 46 24Z" fill="#104D92"/>
<path d="M42 38H50V48H42V38Z" fill="#ABCEF6"/>
<path fill-rule="evenodd" clip-rule="evenodd" d="M48 40H44V46H48V40ZM42 38V48H50V38H42Z" fill="#104D92"/>
<path d="M37 47C37 46.4477 37.4477 46 38 46H71C71.5523 46 72 46.4477 72 47C72 47.5523 71.5523 48 71 48H38C37.4477 48 37 47.5523 37 47Z" fill="#ABCEF6"/>
<path fill-rule="evenodd" clip-rule="evenodd" d="M38 46C37.4477 46 37 46.4477 37 47C37 47.5523 37.4477 48 38 48H71C71.5523 48 72 47.5523 72 47C72 46.4477 71.5523 46 71 46H38Z" fill="#104D92"/>
</svg>
