<svg width="64" height="64" viewBox="0 0 64 64" fill="none" xmlns="http://www.w3.org/2000/svg">
<path fill-rule="evenodd" clip-rule="evenodd" d="M1 9C1 4.58172 4.58172 1 9 1H32V11.5278C30.9385 10.5777 29.5367 10 28 10C24.6863 10 22 12.6863 22 16C22 19.3137 24.6863 22 28 22C29.5367 22 30.9385 21.4223 32 20.4722V32H20.4722C21.4223 33.0615 22 34.4633 22 36C22 39.3137 19.3137 42 16 42C12.6863 42 10 39.3137 10 36C10 34.4633 10.5777 33.0615 11.5278 32H1V9Z" fill="#ABCEF6"/>
<path fill-rule="evenodd" clip-rule="evenodd" d="M0 9C0 4.02944 4.02944 0 9 0H32C32.5523 0 33 0.447715 33 1V11.5278C33 11.9222 32.7682 12.2798 32.4081 12.4407C32.048 12.6017 31.627 12.536 31.3331 12.2729C30.4478 11.4806 29.2812 11 28 11C25.2386 11 23 13.2386 23 16C23 18.7614 25.2386 21 28 21C29.2812 21 30.4478 20.5194 31.3331 19.7271C31.627 19.464 32.048 19.3983 32.4081 19.5593C32.7682 19.7202 33 20.0778 33 20.4722V32C33 32.5523 32.5523 33 32 33H22.3261C22.7581 33.9094 23 34.9269 23 36C23 39.866 19.866 43 16 43C12.134 43 9 39.866 9 36C9 34.9269 9.24194 33.9094 9.67391 33H1C0.447715 33 0 32.5523 0 32V9ZM9 2C5.13401 2 2 5.13401 2 9V31H11.5278C11.9222 31 12.2798 31.2318 12.4407 31.5919C12.6017 31.952 12.536 32.373 12.2729 32.6669C11.4806 33.5522 11 34.7188 11 36C11 38.7614 13.2386 41 16 41C18.7614 41 21 38.7614 21 36C21 34.7188 20.5194 33.5522 19.7271 32.6669C19.464 32.373 19.3983 31.952 19.5593 31.5919C19.7202 31.2318 20.0778 31 20.4722 31H31V22.3261C30.0906 22.7581 29.0731 23 28 23C24.134 23 21 19.866 21 16C21 12.134 24.134 9 28 9C29.0731 9 30.0906 9.24194 31 9.67391V2H9Z" fill="#104D92"/>
<path fill-rule="evenodd" clip-rule="evenodd" d="M9 63C4.58172 63 1 59.4183 1 55L0.999999 32L11.5278 32C10.5777 33.0615 10 34.4633 10 36C10 39.3137 12.6863 42 16 42C19.3137 42 22 39.3137 22 36C22 34.4633 21.4223 33.0615 20.4722 32L32 32L32 43.5278C33.0615 42.5777 34.4633 42 36 42C39.3137 42 42 44.6863 42 48C42 51.3137 39.3137 54 36 54C34.4633 54 33.0615 53.4223 32 52.4722L32 63L9 63Z" fill="#ABCEF6"/>
<path fill-rule="evenodd" clip-rule="evenodd" d="M9 64C4.02944 64 -1.76132e-07 59.9706 -3.93402e-07 55L-1.39876e-06 32C-1.42291e-06 31.4477 0.447714 31 0.999999 31L11.5278 31C11.9222 31 12.2798 31.2318 12.4407 31.5919C12.6017 31.952 12.536 32.373 12.2729 32.6669C11.4806 33.5522 11 34.7188 11 36C11 38.7614 13.2386 41 16 41C18.7614 41 21 38.7614 21 36C21 34.7188 20.5194 33.5522 19.7271 32.6669C19.464 32.373 19.3983 31.952 19.5593 31.5919C19.7202 31.2318 20.0778 31 20.4722 31L32 31C32.2652 31 32.5196 31.1054 32.7071 31.2929C32.8946 31.4804 33 31.7348 33 32L33 41.6739C33.9094 41.2419 34.9269 41 36 41C39.866 41 43 44.134 43 48C43 51.866 39.866 55 36 55C34.9269 55 33.9094 54.7581 33 54.3261L33 63C33 63.5523 32.5523 64 32 64L9 64ZM2 55C2 58.866 5.13401 62 9 62L31 62L31 52.4722C31 52.0778 31.2318 51.7202 31.5919 51.5593C31.952 51.3983 32.373 51.464 32.6669 51.7271C33.5522 52.5194 34.7188 53 36 53C38.7614 53 41 50.7614 41 48C41 45.2386 38.7614 43 36 43C34.7188 43 33.5522 43.4806 32.6669 44.2729C32.373 44.536 31.952 44.6017 31.5919 44.4407C31.2318 44.2798 31 43.9222 31 43.5278L31 33L22.3261 33C22.7581 33.9094 23 34.9269 23 36C23 39.866 19.866 43 16 43C12.134 43 9 39.866 9 36C9 34.9269 9.24194 33.9094 9.67391 33L2 33L2 55Z" fill="#104D92"/>
<path fill-rule="evenodd" clip-rule="evenodd" d="M63 55C63 59.4183 59.4183 63 55 63L32 63L32 52.4722C33.0615 53.4223 34.4633 54 36 54C39.3137 54 42 51.3137 42 48C42 44.6863 39.3137 42 36 42C34.4633 42 33.0615 42.5777 32 43.5278L32 32L43.5278 32C42.5777 30.9385 42 29.5367 42 28C42 24.6863 44.6863 22 48 22C51.3137 22 54 24.6863 54 28C54 29.5367 53.4223 30.9385 52.4722 32L63 32L63 55Z" fill="#ABCEF6"/>
<path fill-rule="evenodd" clip-rule="evenodd" d="M64 55C64 59.9706 59.9706 64 55 64L32 64C31.4477 64 31 63.5523 31 63L31 52.4722C31 52.0778 31.2318 51.7202 31.5919 51.5593C31.952 51.3983 32.373 51.464 32.6669 51.7271C33.5522 52.5194 34.7188 53 36 53C38.7614 53 41 50.7614 41 48C41 45.2386 38.7614 43 36 43C34.7188 43 33.5522 43.4806 32.6669 44.2729C32.373 44.536 31.952 44.6017 31.5919 44.4407C31.2318 44.2798 31 43.9222 31 43.5278L31 32C31 31.4477 31.4477 31 32 31L41.6739 31C41.2419 30.0906 41 29.0731 41 28C41 24.134 44.134 21 48 21C51.866 21 55 24.134 55 28C55 29.0731 54.7581 30.0906 54.3261 31L63 31C63.2652 31 63.5196 31.1054 63.7071 31.2929C63.8946 31.4804 64 31.7348 64 32L64 55ZM55 62C58.866 62 62 58.866 62 55L62 33L52.4722 33C52.0778 33 51.7202 32.7682 51.5593 32.4081C51.3983 32.048 51.464 31.627 51.7271 31.3331C52.5194 30.4478 53 29.2812 53 28C53 25.2386 50.7614 23 48 23C45.2386 23 43 25.2386 43 28C43 29.2812 43.4806 30.4478 44.2729 31.3331C44.536 31.627 44.6017 32.048 44.4407 32.4081C44.2798 32.7682 43.9222 33 43.5278 33L33 33L33 41.6739C33.9094 41.2419 34.9269 41 36 41C39.866 41 43 44.134 43 48C43 51.866 39.866 55 36 55C34.9269 55 33.9094 54.7581 33 54.3261L33 62L55 62Z" fill="#104D92"/>
</svg>
