<svg width="65" height="64" viewBox="0 0 65 64" fill="none" xmlns="http://www.w3.org/2000/svg">
<path fill-rule="evenodd" clip-rule="evenodd" d="M48 44L48 8C48 3.58173 44.4183 3.50157e-06 40 3.11531e-06L8 3.17786e-07C3.58172 -6.84722e-08 1.46724e-06 3.58172 1.08098e-06 8L-3.11532e-06 56C-3.50157e-06 60.4183 3.58172 64 8 64L28 64L48 44Z" fill="#BBDEFB"/>
<path fill-rule="evenodd" clip-rule="evenodd" d="M46 43.1716L46 8C46 4.68629 43.3137 2 40 2L8 2C4.68629 2 2 4.68629 2 8L2 56C2 59.3137 4.68629 62 8 62L27.1716 62L46 43.1716ZM48 44L48 8C48 3.58173 44.4183 3.50157e-06 40 3.11531e-06L8 3.17786e-07C3.58172 -6.84722e-08 1.46724e-06 3.58172 1.08098e-06 8L-3.11532e-06 56C-3.50157e-06 60.4183 3.58172 64 8 64L28 64L48 44Z" fill="#0D47A1"/>
<path d="M8 10C8 8.89543 8.89543 8 10 8H18C19.1046 8 20 8.89543 20 10V18C20 19.1046 19.1046 20 18 20H10C8.89543 20 8 19.1046 8 18V10Z" fill="#BBDEFB"/>
<path fill-rule="evenodd" clip-rule="evenodd" d="M18 10H10L10 18H18V10ZM10 8C8.89543 8 8 8.89543 8 10V18C8 19.1046 8.89543 20 10 20H18C19.1046 20 20 19.1046 20 18V10C20 8.89543 19.1046 8 18 8H10Z" fill="#0D47A1"/>
<path d="M8 46C8 44.8954 8.89543 44 10 44H18C19.1046 44 20 44.8954 20 46V54C20 55.1046 19.1046 56 18 56H10C8.89543 56 8 55.1046 8 54V46Z" fill="#BBDEFB"/>
<path fill-rule="evenodd" clip-rule="evenodd" d="M18 46H10L10 54H18V46ZM10 44C8.89543 44 8 44.8954 8 46V54C8 55.1046 8.89543 56 10 56H18C19.1046 56 20 55.1046 20 54V46C20 44.8954 19.1046 44 18 44H10Z" fill="#0D47A1"/>
<path fill-rule="evenodd" clip-rule="evenodd" d="M19.7433 28.331C20.1128 28.7416 20.0795 29.3738 19.669 29.7433L13.0023 35.7433C12.622 36.0856 12.0447 36.0856 11.6644 35.7433L8.33104 32.7433C7.92053 32.3738 7.88726 31.7416 8.25671 31.331C8.62617 30.9205 9.25846 30.8873 9.66897 31.2567L12.3333 33.6546L18.331 28.2567C18.7416 27.8873 19.3738 27.9205 19.7433 28.331Z" fill="#0D47A1"/>
<path fill-rule="evenodd" clip-rule="evenodd" d="M24 28C24 27.4477 24.4477 27 25 27H40C40.5523 27 41 27.4477 41 28C41 28.5523 40.5523 29 40 29H25C24.4477 29 24 28.5523 24 28Z" fill="#0D47A1"/>
<path fill-rule="evenodd" clip-rule="evenodd" d="M24 46C24 45.4477 24.4477 45 25 45H40C40.5523 45 41 45.4477 41 46C41 46.5523 40.5523 47 40 47H25C24.4477 47 24 46.5523 24 46Z" fill="#0D47A1"/>
<path fill-rule="evenodd" clip-rule="evenodd" d="M24 10C24 9.44772 24.4477 9 25 9H40C40.5523 9 41 9.44772 41 10C41 10.5523 40.5523 11 40 11H25C24.4477 11 24 10.5523 24 10Z" fill="#0D47A1"/>
<path fill-rule="evenodd" clip-rule="evenodd" d="M24 36C24 35.4477 24.4477 35 25 35H40C40.5523 35 41 35.4477 41 36C41 36.5523 40.5523 37 40 37H25C24.4477 37 24 36.5523 24 36Z" fill="#0D47A1"/>
<path fill-rule="evenodd" clip-rule="evenodd" d="M24 54C24 53.4477 24.4477 53 25 53H30C30.5523 53 31 53.4477 31 54C31 54.5523 30.5523 55 30 55H25C24.4477 55 24 54.5523 24 54Z" fill="#0D47A1"/>
<path fill-rule="evenodd" clip-rule="evenodd" d="M24 18C24 17.4477 24.4477 17 25 17H40C40.5523 17 41 17.4477 41 18C41 18.5523 40.5523 19 40 19H25C24.4477 19 24 18.5523 24 18Z" fill="#0D47A1"/>
<path d="M28 64L28 52C28 47.5817 31.5817 44 36 44L48 44L28 64Z" fill="#BBDEFB"/>
<path fill-rule="evenodd" clip-rule="evenodd" d="M28 64L48 44L36 44C31.5817 44 28 47.5817 28 52L28 64ZM30 59.1716L43.1716 46L36 46C32.6863 46 30 48.6863 30 52L30 59.1716Z" fill="#0D47A1"/>
<path fill-rule="evenodd" clip-rule="evenodd" d="M56 0C53.7909 0 52 1.79086 52 4V52L58.0622 64L64.1244 52H64V4C64 1.79086 62.2091 0 60 0H56Z" fill="#BBDEFB"/>
<path fill-rule="evenodd" clip-rule="evenodd" d="M64 4C64 1.79086 62.2091 0 60 0H56C53.7909 0 52 1.79086 52 4V52L58.0622 64L64.1244 52H64V4ZM62 51.7697V4C62 2.89543 61.1046 2 60 2H56C54.8954 2 54 2.89543 54 4V51.5235L58.0622 59.5645L62 51.7697Z" fill="#0D47A1"/>
<path fill-rule="evenodd" clip-rule="evenodd" d="M62.0635 52H54.0635V50H62.0635V52Z" fill="#0D47A1"/>
<path fill-rule="evenodd" clip-rule="evenodd" d="M62.0635 7H54.0635V5H62.0635V7Z" fill="#0D47A1"/>
<path fill-rule="evenodd" clip-rule="evenodd" d="M62.0635 12H54.0635V10H62.0635V12Z" fill="#0D47A1"/>
</svg>
