<svg width="64" height="64" viewBox="0 0 64 64" fill="none" xmlns="http://www.w3.org/2000/svg">
<mask id="path-1-inside-1" fill="white">
<path fill-rule="evenodd" clip-rule="evenodd" d="M48 44L48 8C48 3.58173 44.4183 3.50157e-06 40 3.11531e-06L8 3.17786e-07C3.58172 -6.84722e-08 1.46724e-06 3.58172 1.08098e-06 8L-3.11532e-06 56C-3.50157e-06 60.4183 3.58172 64 8 64L28 64L48 44Z"/>
</mask>
<path fill-rule="evenodd" clip-rule="evenodd" d="M48 44L48 8C48 3.58173 44.4183 3.50157e-06 40 3.11531e-06L8 3.17786e-07C3.58172 -6.84722e-08 1.46724e-06 3.58172 1.08098e-06 8L-3.11532e-06 56C-3.50157e-06 60.4183 3.58172 64 8 64L28 64L48 44Z" fill="#BBDEFB"/>
<path d="M48 8L50 8L48 8ZM48 44L49.4142 45.4142L50 44.8284L50 44L48 44ZM1.08098e-06 8L2 8L1.08098e-06 8ZM-3.11532e-06 56L-2 56L-3.11532e-06 56ZM8 64L8 62L8 64ZM28 64L28 66L28.8284 66L29.4142 65.4142L28 64ZM46 8L46 44L50 44L50 8L46 8ZM40 2C43.3137 2 46 4.68629 46 8L50 8C50 2.47716 45.5229 -2 40 -2L40 2ZM8 2L40 2L40 -2L8 -2L8 2ZM2 8C2 4.68629 4.68629 2 8 2L8 -2C2.47716 -2 -2 2.47715 -2 8L2 8ZM2 56L2 8L-2 8L-2 56L2 56ZM8 62C4.68629 62 2 59.3137 2 56L-2 56C-2 61.5228 2.47715 66 8 66L8 62ZM28 62L8 62L8 66L28 66L28 62ZM29.4142 65.4142L49.4142 45.4142L46.5858 42.5858L26.5858 62.5858L29.4142 65.4142Z" fill="#0D47A1" mask="url(#path-1-inside-1)"/>
<path d="M45.5858 45L29 61.5858L29 52C29 48.134 32.134 45 36 45L45.5858 45Z" fill="#BBDEFB" stroke="#0D47A1" stroke-width="2"/>
<rect x="9" y="27" width="10" height="10" rx="1" fill="#BBDEFB" stroke="#0D47A1" stroke-width="2"/>
<rect x="9" y="45" width="10" height="10" rx="1" fill="#BBDEFB" stroke="#0D47A1" stroke-width="2"/>
<path d="M19.8507 26.1006L20.4409 25.8354V25.1884V18.3696H22.3088L24.1732 20.2419L24.8818 20.9534L25.5904 20.2419L27.748 18.0752L28.0394 17.7826V17.3696V14.5175L31.5741 13.3744V17.3696V18.3696H32.5741H36.2326H36.6481L36.9412 18.0752L38.5243 16.4855H41.6735H42.089L42.3821 16.1911L43.7775 14.7899H44.4259V19.5362V20.2122L45.0532 20.4642L54.434 24.2323L54.6134 24.3043H54.8068H58.1437L61.3214 27.4955L61.6146 27.7899H62.03H63V32.029L57.8505 37.2002L57.5591 37.4928V37.9058V43.162L54.2703 48.1159H51.1482H50.7328L50.4396 48.4103L46.4997 52.3668L46.2083 52.6595V53.0725V56.4176L42.0271 62.0896L40.8802 59.7862L40.7367 59.4981L40.4523 59.3478L38.0828 58.0955L40.6936 55.4737L40.985 55.1811V54.7681V51.0942V50.7102L40.7279 50.4248L38.9456 48.4466L38.6477 48.1159H38.2026H37.4203V41.5797V40.5797H36.4203H33.5741V37.9058V37.1258L32.8176 36.9359L26.0694 35.2418V32.2536V30.573L24.5924 31.3748L21.3446 33.1377H17.8864L15.2099 30.45L16.6171 27.5533L19.8507 26.1006Z" fill="#BBDEFB" stroke="#0D47A1" stroke-width="2"/>
<path d="M9 14L12.3333 17L19 11" stroke="#0D47A1" stroke-width="2" stroke-linecap="round" stroke-linejoin="round"/>
</svg>
