<svg width="56" height="72" viewBox="0 0 56 72" fill="none" xmlns="http://www.w3.org/2000/svg">
<path d="M22 2C22 0.895432 22.8954 0 24 0H32C33.1046 0 34 0.895431 34 2V72H22V2Z" fill="#ABCEF6"/>
<path fill-rule="evenodd" clip-rule="evenodd" d="M32 2H24V70H32V2ZM24 0C22.8954 0 22 0.895432 22 2V72H34V2C34 0.895431 33.1046 0 32 0H24Z" fill="#104D92"/>
<path fill-rule="evenodd" clip-rule="evenodd" d="M8 8C5.79086 8 4 9.79086 4 12V20C4 22.2091 5.79086 24 8 24H44L56 16L44 8H8Z" fill="#ABCEF6"/>
<path fill-rule="evenodd" clip-rule="evenodd" d="M8 10C6.89543 10 6 10.8954 6 12V20C6 21.1046 6.89543 22 8 22H43.3944L52.3944 16L43.3944 10H8ZM44 8L56 16L44 24H8C5.79086 24 4 22.2091 4 20V12C4 9.79086 5.79086 8 8 8H44Z" fill="#104D92"/>
<path fill-rule="evenodd" clip-rule="evenodd" d="M8 48C5.79086 48 4 49.7909 4 52V60C4 62.2091 5.79086 64 8 64H44L56 56L44 48H8Z" fill="#ABCEF6"/>
<path fill-rule="evenodd" clip-rule="evenodd" d="M8 50C6.89543 50 6 50.8954 6 52V60C6 61.1046 6.89543 62 8 62H43.3944L52.3944 56L43.3944 50H8ZM44 48L56 56L44 64H8C5.79086 64 4 62.2091 4 60V52C4 49.7909 5.79086 48 8 48H44Z" fill="#104D92"/>
<path fill-rule="evenodd" clip-rule="evenodd" d="M48 44C50.2091 44 52 42.2091 52 40L52 32C52 29.7909 50.2091 28 48 28L12 28L6.99382e-07 36L12 44L48 44Z" fill="#ABCEF6"/>
<path fill-rule="evenodd" clip-rule="evenodd" d="M48 42C49.1046 42 50 41.1046 50 40L50 32C50 30.8954 49.1046 30 48 30L12.6056 30L3.60555 36L12.6056 42L48 42ZM12 44L6.99382e-07 36L12 28L48 28C50.2091 28 52 29.7909 52 32L52 40C52 42.2091 50.2091 44 48 44L12 44Z" fill="#104D92"/>
<path fill-rule="evenodd" clip-rule="evenodd" d="M3 71C3 70.4477 3.44772 70 4 70H52C52.5523 70 53 70.4477 53 71C53 71.5523 52.5523 72 52 72H4C3.44772 72 3 71.5523 3 71Z" fill="#104D92"/>
</svg>
