<svg width="64" height="64" viewBox="0 0 64 64" fill="none" xmlns="http://www.w3.org/2000/svg">
<path fill-rule="evenodd" clip-rule="evenodd" d="M32 64C32 55.1634 24.8366 48 16 48C7.16344 48 0 55.1634 0 64H32Z" fill="#ABCEF6"/>
<path fill-rule="evenodd" clip-rule="evenodd" d="M29.8582 62C28.8878 55.2154 23.0529 50 16 50C8.94706 50 3.11224 55.2154 2.14178 62H29.8582ZM31.8762 62C30.892 54.1074 24.1592 48 16 48C7.84076 48 1.10798 54.1074 0.123788 62C0.0420867 62.6552 0 63.3227 0 64H32C32 63.3227 31.9579 62.6552 31.8762 62Z" fill="#104D92"/>
<path d="M26 42C26 47.5228 21.5228 52 16 52C10.4772 52 6 47.5228 6 42C6 36.4772 10.4772 32 16 32C21.5228 32 26 36.4772 26 42Z" fill="#ABCEF6"/>
<path fill-rule="evenodd" clip-rule="evenodd" d="M16 50C20.4183 50 24 46.4183 24 42C24 37.5817 20.4183 34 16 34C11.5817 34 8 37.5817 8 42C8 46.4183 11.5817 50 16 50ZM16 52C21.5228 52 26 47.5228 26 42C26 36.4772 21.5228 32 16 32C10.4772 32 6 36.4772 6 42C6 47.5228 10.4772 52 16 52Z" fill="#104D92"/>
<path fill-rule="evenodd" clip-rule="evenodd" d="M64 32C64 23.1634 56.8366 16 48 16C39.1634 16 32 23.1634 32 32H64Z" fill="#ABCEF6"/>
<path fill-rule="evenodd" clip-rule="evenodd" d="M61.8582 30C60.8878 23.2154 55.0529 18 48 18C40.9471 18 35.1122 23.2154 34.1418 30H61.8582ZM63.8762 30C62.892 22.1074 56.1592 16 48 16C39.8408 16 33.108 22.1074 32.1238 30C32.0421 30.6552 32 31.3227 32 32H64C64 31.3227 63.9579 30.6552 63.8762 30Z" fill="#104D92"/>
<path d="M58 10C58 15.5228 53.5228 20 48 20C42.4772 20 38 15.5228 38 10C38 4.47715 42.4772 0 48 0C53.5228 0 58 4.47715 58 10Z" fill="#ABCEF6"/>
<path fill-rule="evenodd" clip-rule="evenodd" d="M48 18C52.4183 18 56 14.4183 56 10C56 5.58172 52.4183 2 48 2C43.5817 2 40 5.58172 40 10C40 14.4183 43.5817 18 48 18ZM48 20C53.5228 20 58 15.5228 58 10C58 4.47715 53.5228 0 48 0C42.4772 0 38 4.47715 38 10C38 15.5228 42.4772 20 48 20Z" fill="#104D92"/>
<path fill-rule="evenodd" clip-rule="evenodd" d="M4 0C1.79086 0 0 1.79086 0 4V16C0 18.2091 1.79086 20 4 20H16L24 28V20C26.2091 20 28 18.2091 28 16V4C28 1.79086 26.2091 0 24 0H4Z" fill="#ABCEF6"/>
<path fill-rule="evenodd" clip-rule="evenodd" d="M16.8284 18L22 23.1716V18H24C25.1046 18 26 17.1046 26 16V4C26 2.89543 25.1046 2 24 2H4C2.89543 2 2 2.89543 2 4V16C2 17.1046 2.89543 18 4 18H16.8284ZM24 28L16 20H4C1.79086 20 0 18.2091 0 16V4C0 1.79086 1.79086 0 4 0H24C26.2091 0 28 1.79086 28 4V16C28 18.2091 26.2091 20 24 20V28Z" fill="#104D92"/>
<path fill-rule="evenodd" clip-rule="evenodd" d="M5 6C5 5.44772 5.44772 5 6 5L22 5C22.5523 5 23 5.44772 23 6C23 6.55228 22.5523 7 22 7L6 7C5.44772 7 5 6.55228 5 6Z" fill="#104D92"/>
<path fill-rule="evenodd" clip-rule="evenodd" d="M5 10C5 9.44772 5.44772 9 6 9L22 9C22.5523 9 23 9.44772 23 10C23 10.5523 22.5523 11 22 11L6 11C5.44772 11 5 10.5523 5 10Z" fill="#104D92"/>
<path fill-rule="evenodd" clip-rule="evenodd" d="M5 14C5 13.4477 5.44772 13 6 13L13 13C13.5523 13 14 13.4477 14 14C14 14.5523 13.5523 15 13 15L6 15C5.44772 15 5 14.5523 5 14Z" fill="#104D92"/>
<path fill-rule="evenodd" clip-rule="evenodd" d="M60 64C62.2091 64 64 62.2091 64 60L64 48C64 45.7909 62.2091 44 60 44L48 44L40 36L40 44C37.7909 44 36 45.7909 36 48L36 60C36 62.2091 37.7909 64 40 64L60 64Z" fill="#ABCEF6"/>
<path fill-rule="evenodd" clip-rule="evenodd" d="M47.1716 46L42 40.8284L42 46L40 46C38.8954 46 38 46.8954 38 48L38 60C38 61.1046 38.8954 62 40 62L60 62C61.1046 62 62 61.1046 62 60L62 48C62 46.8954 61.1046 46 60 46L47.1716 46ZM40 36L48 44L60 44C62.2091 44 64 45.7909 64 48L64 60C64 62.2091 62.2091 64 60 64L40 64C37.7909 64 36 62.2091 36 60L36 48C36 45.7909 37.7909 44 40 44L40 36Z" fill="#104D92"/>
<path fill-rule="evenodd" clip-rule="evenodd" d="M41 50C41 49.4477 41.4477 49 42 49L58 49C58.5523 49 59 49.4477 59 50C59 50.5523 58.5523 51 58 51L42 51C41.4477 51 41 50.5523 41 50Z" fill="#104D92"/>
<path fill-rule="evenodd" clip-rule="evenodd" d="M41 54C41 53.4477 41.4477 53 42 53L58 53C58.5523 53 59 53.4477 59 54C59 54.5523 58.5523 55 58 55L42 55C41.4477 55 41 54.5523 41 54Z" fill="#104D92"/>
<path fill-rule="evenodd" clip-rule="evenodd" d="M41 58C41 57.4477 41.4477 57 42 57L49 57C49.5523 57 50 57.4477 50 58C50 58.5523 49.5523 59 49 59L42 59C41.4477 59 41 58.5523 41 58Z" fill="#104D92"/>
</svg>
