<svg width="56" height="72" viewBox="0 0 56 72" fill="none" xmlns="http://www.w3.org/2000/svg">
<path d="M0 4C0 1.79086 1.79086 0 4 0H52C54.2091 0 56 1.79086 56 4V36C56 38.2091 54.2091 40 52 40H4C1.79086 40 0 38.2091 0 36V4Z" fill="#ABCEF6"/>
<path fill-rule="evenodd" clip-rule="evenodd" d="M52 2H4C2.89543 2 2 2.89543 2 4V36C2 37.1046 2.89543 38 4 38H52C53.1046 38 54 37.1046 54 36V4C54 2.89543 53.1046 2 52 2ZM4 0C1.79086 0 0 1.79086 0 4V36C0 38.2091 1.79086 40 4 40H52C54.2091 40 56 38.2091 56 36V4C56 1.79086 54.2091 0 52 0H4Z" fill="#104D92"/>
<path d="M6 8C6 6.89543 6.89543 6 8 6H48C49.1046 6 50 6.89543 50 8V32C50 33.1046 49.1046 34 48 34H8C6.89543 34 6 33.1046 6 32V8Z" fill="#ABCEF6"/>
<path fill-rule="evenodd" clip-rule="evenodd" d="M48 8H8V32H48V8ZM8 6C6.89543 6 6 6.89543 6 8V32C6 33.1046 6.89543 34 8 34H48C49.1046 34 50 33.1046 50 32V8C50 6.89543 49.1046 6 48 6H8Z" fill="#104D92"/>
<path d="M20 12C20 16.4183 16.4183 20 12 20C7.58172 20 4 16.4183 4 12C4 7.58172 7.58172 4 12 4C16.4183 4 20 7.58172 20 12Z" fill="#ABCEF6"/>
<path fill-rule="evenodd" clip-rule="evenodd" d="M12 18C15.3137 18 18 15.3137 18 12C18 8.68629 15.3137 6 12 6C8.68629 6 6 8.68629 6 12C6 15.3137 8.68629 18 12 18ZM12 20C16.4183 20 20 16.4183 20 12C20 7.58172 16.4183 4 12 4C7.58172 4 4 7.58172 4 12C4 16.4183 7.58172 20 12 20Z" fill="#104D92"/>
<path fill-rule="evenodd" clip-rule="evenodd" d="M12 22C7.58172 22 4 25.5817 4 30V40H20V30H28C30.2091 30 32 28.2091 32 26C32 23.7909 30.2091 22 28 22H20H16H12Z" fill="#ABCEF6"/>
<path fill-rule="evenodd" clip-rule="evenodd" d="M20 30H28C30.2091 30 32 28.2091 32 26C32 23.7909 30.2091 22 28 22H12C7.58172 22 4 25.5817 4 30V40H20V30ZM18 38V28H28C29.1046 28 30 27.1046 30 26C30 24.8954 29.1046 24 28 24H12C8.68629 24 6 26.6863 6 30V38H18Z" fill="#104D92"/>
<path fill-rule="evenodd" clip-rule="evenodd" d="M30 26C30 25.4477 30.4477 25 31 25H43C43.5523 25 44 25.4477 44 26C44 26.5523 43.5523 27 43 27H31C30.4477 27 30 26.5523 30 26Z" fill="#104D92"/>
<path d="M18 52C18 56.4183 14.4183 60 10 60C5.58172 60 2 56.4183 2 52C2 47.5817 5.58172 44 10 44C14.4183 44 18 47.5817 18 52Z" fill="#ABCEF6"/>
<path fill-rule="evenodd" clip-rule="evenodd" d="M10 58C13.3137 58 16 55.3137 16 52C16 48.6863 13.3137 46 10 46C6.68629 46 4 48.6863 4 52C4 55.3137 6.68629 58 10 58ZM10 60C14.4183 60 18 56.4183 18 52C18 47.5817 14.4183 44 10 44C5.58172 44 2 47.5817 2 52C2 56.4183 5.58172 60 10 60Z" fill="#104D92"/>
<path d="M36 52C36 56.4183 32.4183 60 28 60C23.5817 60 20 56.4183 20 52C20 47.5817 23.5817 44 28 44C32.4183 44 36 47.5817 36 52Z" fill="#ABCEF6"/>
<path fill-rule="evenodd" clip-rule="evenodd" d="M28 58C31.3137 58 34 55.3137 34 52C34 48.6863 31.3137 46 28 46C24.6863 46 22 48.6863 22 52C22 55.3137 24.6863 58 28 58ZM28 60C32.4183 60 36 56.4183 36 52C36 47.5817 32.4183 44 28 44C23.5817 44 20 47.5817 20 52C20 56.4183 23.5817 60 28 60Z" fill="#104D92"/>
<path d="M54 52C54 56.4183 50.4183 60 46 60C41.5817 60 38 56.4183 38 52C38 47.5817 41.5817 44 46 44C50.4183 44 54 47.5817 54 52Z" fill="#ABCEF6"/>
<path fill-rule="evenodd" clip-rule="evenodd" d="M46 58C49.3137 58 52 55.3137 52 52C52 48.6863 49.3137 46 46 46C42.6863 46 40 48.6863 40 52C40 55.3137 42.6863 58 46 58ZM46 60C50.4183 60 54 56.4183 54 52C54 47.5817 50.4183 44 46 44C41.5817 44 38 47.5817 38 52C38 56.4183 41.5817 60 46 60Z" fill="#104D92"/>
<path d="M0 68C0 62.4772 4.47715 58 10 58C15.5228 58 20 62.4772 20 68V72H0V68Z" fill="#ABCEF6"/>
<path fill-rule="evenodd" clip-rule="evenodd" d="M18 70V68C18 63.5817 14.4183 60 10 60C5.58172 60 2 63.5817 2 68V70H18ZM10 58C4.47715 58 0 62.4772 0 68V72H20V68C20 62.4772 15.5228 58 10 58Z" fill="#104D92"/>
<path d="M18 68C18 62.4772 22.4772 58 28 58C33.5228 58 38 62.4772 38 68V72H18V68Z" fill="#ABCEF6"/>
<path fill-rule="evenodd" clip-rule="evenodd" d="M36 70V68C36 63.5817 32.4183 60 28 60C23.5817 60 20 63.5817 20 68V70H36ZM28 58C22.4772 58 18 62.4772 18 68V72H38V68C38 62.4772 33.5228 58 28 58Z" fill="#104D92"/>
<path d="M36 68C36 62.4772 40.4772 58 46 58C51.5228 58 56 62.4772 56 68V72H36V68Z" fill="#ABCEF6"/>
<path fill-rule="evenodd" clip-rule="evenodd" d="M54 70V68C54 63.5817 50.4183 60 46 60C41.5817 60 38 63.5817 38 68V70H54ZM46 58C40.4772 58 36 62.4772 36 68V72H56V68C56 62.4772 51.5228 58 46 58Z" fill="#104D92"/>
</svg>
