<svg width="64" height="64" viewBox="0 0 64 64" fill="none" xmlns="http://www.w3.org/2000/svg">
<path d="M6 28C6 25.7909 7.79086 24 10 24H14C16.2091 24 18 25.7909 18 28V52C18 54.2091 16.2091 56 14 56H10C7.79086 56 6 54.2091 6 52V28Z" fill="#ABCEF6"/>
<path fill-rule="evenodd" clip-rule="evenodd" d="M14 26H10C8.89543 26 8 26.8954 8 28V52C8 53.1046 8.89543 54 10 54H14C15.1046 54 16 53.1046 16 52V28C16 26.8954 15.1046 26 14 26ZM10 24C7.79086 24 6 25.7909 6 28V52C6 54.2091 7.79086 56 10 56H14C16.2091 56 18 54.2091 18 52V28C18 25.7909 16.2091 24 14 24H10Z" fill="#104D92"/>
<path d="M26 36C26 33.7909 27.7909 32 30 32H34C36.2091 32 38 33.7909 38 36V52C38 54.2091 36.2091 56 34 56H30C27.7909 56 26 54.2091 26 52V36Z" fill="#ABCEF6"/>
<path fill-rule="evenodd" clip-rule="evenodd" d="M34 34H30C28.8954 34 28 34.8954 28 36V52C28 53.1046 28.8954 54 30 54H34C35.1046 54 36 53.1046 36 52V36C36 34.8954 35.1046 34 34 34ZM30 32C27.7909 32 26 33.7909 26 36V52C26 54.2091 27.7909 56 30 56H34C36.2091 56 38 54.2091 38 52V36C38 33.7909 36.2091 32 34 32H30Z" fill="#104D92"/>
<path d="M46 20C46 17.7909 47.7909 16 50 16H54C56.2091 16 58 17.7909 58 20V52C58 54.2091 56.2091 56 54 56H50C47.7909 56 46 54.2091 46 52V20Z" fill="#ABCEF6"/>
<path fill-rule="evenodd" clip-rule="evenodd" d="M54 18H50C48.8954 18 48 18.8954 48 20V52C48 53.1046 48.8954 54 50 54H54C55.1046 54 56 53.1046 56 52V20C56 18.8954 55.1046 18 54 18ZM50 16C47.7909 16 46 17.7909 46 20V52C46 54.2091 47.7909 56 50 56H54C56.2091 56 58 54.2091 58 52V20C58 17.7909 56.2091 16 54 16H50Z" fill="#104D92"/>
<path fill-rule="evenodd" clip-rule="evenodd" d="M-8.74228e-08 63C-3.91405e-08 62.4477 0.447715 62 1 62L63 62C63.5523 62 64 62.4477 64 63C64 63.5523 63.5523 64 63 64L1 64C0.447715 64 -1.35705e-07 63.5523 -8.74228e-08 63Z" fill="#104D92"/>
<path fill-rule="evenodd" clip-rule="evenodd" d="M52.5735 6.81913L32.1306 21.1292L11.6287 12.9284L12.3714 11.0714L31.8695 18.8706L51.4266 5.18066L52.5735 6.81913Z" fill="#104D92"/>
<path d="M18 12C18 15.3137 15.3137 18 12 18C8.68629 18 6 15.3137 6 12C6 8.68629 8.68629 6 12 6C15.3137 6 18 8.68629 18 12Z" fill="#ABCEF6"/>
<path fill-rule="evenodd" clip-rule="evenodd" d="M12 16C14.2091 16 16 14.2091 16 12C16 9.79086 14.2091 8 12 8C9.79086 8 8 9.79086 8 12C8 14.2091 9.79086 16 12 16ZM12 18C15.3137 18 18 15.3137 18 12C18 8.68629 15.3137 6 12 6C8.68629 6 6 8.68629 6 12C6 15.3137 8.68629 18 12 18Z" fill="#104D92"/>
<path d="M38 20C38 23.3137 35.3137 26 32 26C28.6863 26 26 23.3137 26 20C26 16.6863 28.6863 14 32 14C35.3137 14 38 16.6863 38 20Z" fill="#ABCEF6"/>
<path fill-rule="evenodd" clip-rule="evenodd" d="M32 24C34.2091 24 36 22.2091 36 20C36 17.7909 34.2091 16 32 16C29.7909 16 28 17.7909 28 20C28 22.2091 29.7909 24 32 24ZM32 26C35.3137 26 38 23.3137 38 20C38 16.6863 35.3137 14 32 14C28.6863 14 26 16.6863 26 20C26 23.3137 28.6863 26 32 26Z" fill="#104D92"/>
<path d="M58 6C58 9.31371 55.3137 12 52 12C48.6863 12 46 9.31371 46 6C46 2.68629 48.6863 0 52 0C55.3137 0 58 2.68629 58 6Z" fill="#ABCEF6"/>
<path fill-rule="evenodd" clip-rule="evenodd" d="M52 10C54.2091 10 56 8.20914 56 6C56 3.79086 54.2091 2 52 2C49.7909 2 48 3.79086 48 6C48 8.20914 49.7909 10 52 10ZM52 12C55.3137 12 58 9.31371 58 6C58 2.68629 55.3137 0 52 0C48.6863 0 46 2.68629 46 6C46 9.31371 48.6863 12 52 12Z" fill="#104D92"/>
</svg>
