<svg width="64" height="64" viewBox="0 0 64 64" fill="none" xmlns="http://www.w3.org/2000/svg">
<path d="M0 2C0 0.895431 0.895431 0 2 0H26C27.1046 0 28 0.895431 28 2V10C28 11.1046 27.1046 12 26 12H2C0.895431 12 0 11.1046 0 10V2Z" fill="#ABCEF6"/>
<path fill-rule="evenodd" clip-rule="evenodd" d="M26 2H2V10H26V2ZM2 0C0.895431 0 0 0.895431 0 2V10C0 11.1046 0.895431 12 2 12H26C27.1046 12 28 11.1046 28 10V2C28 0.895431 27.1046 0 26 0H2Z" fill="#104D92"/>
<path d="M36 2C36 0.895431 36.8954 0 38 0H62C63.1046 0 64 0.895431 64 2V10C64 11.1046 63.1046 12 62 12H38C36.8954 12 36 11.1046 36 10V2Z" fill="#ABCEF6"/>
<path fill-rule="evenodd" clip-rule="evenodd" d="M62 2H38V10H62V2ZM38 0C36.8954 0 36 0.895431 36 2V10C36 11.1046 36.8954 12 38 12H62C63.1046 12 64 11.1046 64 10V2C64 0.895431 63.1046 0 62 0H38Z" fill="#104D92"/>
<path d="M0 28C0 26.8954 0.895431 26 2 26H26C27.1046 26 28 26.8954 28 28V36C28 37.1046 27.1046 38 26 38H2C0.895431 38 0 37.1046 0 36V28Z" fill="#ABCEF6"/>
<path fill-rule="evenodd" clip-rule="evenodd" d="M26 28H2V36H26V28ZM2 26C0.895431 26 0 26.8954 0 28V36C0 37.1046 0.895431 38 2 38H26C27.1046 38 28 37.1046 28 36V28C28 26.8954 27.1046 26 26 26H2Z" fill="#104D92"/>
<path d="M36 28C36 26.8954 36.8954 26 38 26H62C63.1046 26 64 26.8954 64 28V36C64 37.1046 63.1046 38 62 38H38C36.8954 38 36 37.1046 36 36V28Z" fill="#ABCEF6"/>
<path fill-rule="evenodd" clip-rule="evenodd" d="M62 28H38V36H62V28ZM38 26C36.8954 26 36 26.8954 36 28V36C36 37.1046 36.8954 38 38 38H62C63.1046 38 64 37.1046 64 36V28C64 26.8954 63.1046 26 62 26H38Z" fill="#104D92"/>
<path d="M0 54C0 52.8954 0.895431 52 2 52H26C27.1046 52 28 52.8954 28 54V62C28 63.1046 27.1046 64 26 64H2C0.895431 64 0 63.1046 0 62V54Z" fill="#ABCEF6"/>
<path fill-rule="evenodd" clip-rule="evenodd" d="M26 54H2V62H26V54ZM2 52C0.895431 52 0 52.8954 0 54V62C0 63.1046 0.895431 64 2 64H26C27.1046 64 28 63.1046 28 62V54C28 52.8954 27.1046 52 26 52H2Z" fill="#104D92"/>
<path d="M36 54C36 52.8954 36.8954 52 38 52H62C63.1046 52 64 52.8954 64 54V62C64 63.1046 63.1046 64 62 64H38C36.8954 64 36 63.1046 36 62V54Z" fill="#ABCEF6"/>
<path fill-rule="evenodd" clip-rule="evenodd" d="M62 54H38V62H62V54ZM38 52C36.8954 52 36 52.8954 36 54V62C36 63.1046 36.8954 64 38 64H62C63.1046 64 64 63.1046 64 62V54C64 52.8954 63.1046 52 62 52H38Z" fill="#104D92"/>
<path fill-rule="evenodd" clip-rule="evenodd" d="M36 7H28V5H36V7Z" fill="#104D92"/>
<path fill-rule="evenodd" clip-rule="evenodd" d="M36 33H28V31H36V33Z" fill="#104D92"/>
<path fill-rule="evenodd" clip-rule="evenodd" d="M36 59H28V57H36V59Z" fill="#104D92"/>
<path fill-rule="evenodd" clip-rule="evenodd" d="M55 17V12H57V17C57 18.6569 55.6569 20 54 20H10C9.44772 20 9 20.4477 9 21V26H7V21C7 19.3431 8.34315 18 10 18H54C54.5523 18 55 17.5523 55 17Z" fill="#104D92"/>
<path fill-rule="evenodd" clip-rule="evenodd" d="M55 43V38H57V43C57 44.6569 55.6569 46 54 46H10C9.44772 46 9 46.4477 9 47V52H7V47C7 45.3431 8.34315 44 10 44H54C54.5523 44 55 43.5523 55 43Z" fill="#104D92"/>
</svg>
