<svg width="64" height="67" viewBox="0 0 64 67" fill="none" xmlns="http://www.w3.org/2000/svg">
<path d="M1 10C1 5.02944 5.02944 1 10 1H48.1111C49.768 1 51.1111 2.34315 51.1111 4V63C51.1111 64.6569 49.768 66 48.1111 66H10C5.02944 66 1 61.9706 1 57V10Z" fill="#BBDEFB" stroke="#0D47A1" stroke-width="2"/>
<path d="M1 59.5556C1 55.9964 3.88528 53.1111 7.44444 53.1111H51.1111V63C51.1111 64.6569 49.768 66 48.1111 66H7.44445C3.88528 66 1 63.1147 1 59.5556Z" fill="#BBDEFB" stroke="#0D47A1" stroke-width="2"/>
<line x1="10.3055" y1="4.37114e-08" x2="10.3055" y2="52.1111" stroke="#0D47A1" stroke-width="2"/>
<line x1="7.44446" y1="59.4861" x2="52.1111" y2="59.4861" stroke="#0D47A1" stroke-width="2"/>
<path d="M41.7372 40.2153L48.2153 33.7371L61.8787 47.4005C62.2692 47.791 62.2692 48.4242 61.8787 48.8147L56.8147 53.8786C56.4242 54.2692 55.7911 54.2692 55.4005 53.8786L41.7372 40.2153Z" fill="#BBDEFB" stroke="#0D47A1" stroke-width="2"/>
<circle cx="34.7422" cy="26.7422" r="15.7422" fill="#BBDEFB" stroke="#0D47A1" stroke-width="2"/>
<circle cx="34.7422" cy="26.7422" r="10.1615" fill="#BBDEFB" stroke="#0D47A1" stroke-width="2"/>
</svg>
