<svg width="56" height="72" viewBox="0 0 56 72" fill="none" xmlns="http://www.w3.org/2000/svg">
<path d="M0 12C0 9.79086 1.79086 8 4 8H52C54.2091 8 56 9.79086 56 12V68C56 70.2091 54.2091 72 52 72H4C1.79086 72 0 70.2091 0 68V12Z" fill="#ABCEF6"/>
<path fill-rule="evenodd" clip-rule="evenodd" d="M52 10H4C2.89543 10 2 10.8954 2 12V68C2 69.1046 2.89543 70 4 70H52C53.1046 70 54 69.1046 54 68V12C54 10.8954 53.1046 10 52 10ZM4 8C1.79086 8 0 9.79086 0 12V68C0 70.2091 1.79086 72 4 72H52C54.2091 72 56 70.2091 56 68V12C56 9.79086 54.2091 8 52 8H4Z" fill="#104D92"/>
<path d="M4 14C4 12.8954 4.89543 12 6 12H50C51.1046 12 52 12.8954 52 14V66C52 67.1046 51.1046 68 50 68H6C4.89543 68 4 67.1046 4 66V14Z" fill="#ABCEF6"/>
<path fill-rule="evenodd" clip-rule="evenodd" d="M50 14H6V66H50V14ZM6 12C4.89543 12 4 12.8954 4 14V66C4 67.1046 4.89543 68 6 68H50C51.1046 68 52 67.1046 52 66V14C52 12.8954 51.1046 12 50 12H6Z" fill="#104D92"/>
<path fill-rule="evenodd" clip-rule="evenodd" d="M15 25C15 24.4477 15.4477 24 16 24L40 24C40.5523 24 41 24.4477 41 25C41 25.5523 40.5523 26 40 26L16 26C15.4477 26 15 25.5523 15 25Z" fill="#104D92"/>
<path fill-rule="evenodd" clip-rule="evenodd" d="M15 31C15 30.4477 15.4477 30 16 30L40 30C40.5523 30 41 30.4477 41 31C41 31.5523 40.5523 32 40 32L16 32C15.4477 32 15 31.5523 15 31Z" fill="#104D92"/>
<path fill-rule="evenodd" clip-rule="evenodd" d="M15 37C15 36.4477 15.4477 36 16 36L40 36C40.5523 36 41 36.4477 41 37C41 37.5523 40.5523 38 40 38L16 38C15.4477 38 15 37.5523 15 37Z" fill="#104D92"/>
<path fill-rule="evenodd" clip-rule="evenodd" d="M15 43C15 42.4477 15.4477 42 16 42L40 42C40.5523 42 41 42.4477 41 43C41 43.5523 40.5523 44 40 44L16 44C15.4477 44 15 43.5523 15 43Z" fill="#104D92"/>
<path fill-rule="evenodd" clip-rule="evenodd" d="M15 49C15 48.4477 15.4477 48 16 48L40 48C40.5523 48 41 48.4477 41 49C41 49.5523 40.5523 50 40 50L16 50C15.4477 50 15 49.5523 15 49Z" fill="#104D92"/>
<path fill-rule="evenodd" clip-rule="evenodd" d="M28 56L16 56.0001C15.4477 56.0001 15 55.5523 15 55.0001C15 54.4478 15.4477 54.0001 16 54.0001L28 54C28.5523 54 29 54.4477 29 55C29 55.5523 28.5523 56 28 56Z" fill="#104D92"/>
<path fill-rule="evenodd" clip-rule="evenodd" d="M21.0709 6C21.5561 2.60771 24.4735 0 28 0C31.5265 0 34.4439 2.60771 34.9291 6H40C41.1046 6 42 6.89543 42 8V16C42 17.1046 41.1046 18 40 18H16C14.8954 18 14 17.1046 14 16V8C14 6.89543 14.8954 6 16 6H21.0709Z" fill="#ABCEF6"/>
<path fill-rule="evenodd" clip-rule="evenodd" d="M22.8052 8H16L16 16H40V8H33.1948L32.9493 6.2832C32.6029 3.862 30.5172 2 28 2C25.4828 2 23.3971 3.862 23.0507 6.2832L22.8052 8ZM34.9291 6C34.4439 2.60771 31.5265 0 28 0C24.4735 0 21.5561 2.60771 21.0709 6H16C14.8954 6 14 6.89543 14 8V16C14 17.1046 14.8954 18 16 18H40C41.1046 18 42 17.1046 42 16V8C42 6.89543 41.1046 6 40 6H34.9291Z" fill="#104D92"/>
<path d="M30 7C30 8.10457 29.1046 9 28 9C26.8954 9 26 8.10457 26 7C26 5.89543 26.8954 5 28 5C29.1046 5 30 5.89543 30 7Z" fill="#104D92"/>
</svg>
