<svg width="72" height="57" viewBox="0 0 72 57" fill="none" xmlns="http://www.w3.org/2000/svg">
<path d="M0 8C0 3.58172 3.58172 0 8 0H64C68.4183 0 72 3.58172 72 8V40C72 44.4183 68.4183 48 64 48H8C3.58172 48 0 44.4183 0 40V8Z" fill="#ABCEF6"/>
<path fill-rule="evenodd" clip-rule="evenodd" d="M64 2H8C4.68629 2 2 4.68629 2 8V40C2 43.3137 4.68629 46 8 46H64C67.3137 46 70 43.3137 70 40V8C70 4.68629 67.3137 2 64 2ZM8 0C3.58172 0 0 3.58172 0 8V40C0 44.4183 3.58172 48 8 48H64C68.4183 48 72 44.4183 72 40V8C72 3.58172 68.4183 0 64 0H8Z" fill="#104D92"/>
<path fill-rule="evenodd" clip-rule="evenodd" d="M21 12C21 11.4477 21.4477 11 22 11H50C50.5523 11 51 11.4477 51 12C51 12.5523 50.5523 13 50 13H22C21.4477 13 21 12.5523 21 12Z" fill="#104D92"/>
<path fill-rule="evenodd" clip-rule="evenodd" d="M16 20C16 19.4477 16.4477 19 17 19H55C55.5523 19 56 19.4477 56 20C56 20.5523 55.5523 21 55 21H17C16.4477 21 16 20.5523 16 20Z" fill="#104D92"/>
<path fill-rule="evenodd" clip-rule="evenodd" d="M21 28C21 27.4477 21.4477 27 22 27H50C50.5523 27 51 27.4477 51 28C51 28.5523 50.5523 29 50 29H22C21.4477 29 21 28.5523 21 28Z" fill="#104D92"/>
<path d="M50.3856 48.2565L44.4962 48.916L43.8357 54.8064L35.8716 46.8423L42.4215 40.2924L50.3856 48.2565Z" fill="#ABCEF6"/>
<path fill-rule="evenodd" clip-rule="evenodd" d="M35.1644 47.5494C34.7739 47.1589 34.7739 46.5257 35.1644 46.1352L41.7143 39.5853C42.1048 39.1948 42.738 39.1948 43.1285 39.5853L51.0926 47.5494C51.3643 47.8211 51.4563 48.2245 51.3293 48.5871C51.2022 48.9497 50.8786 49.2075 50.4968 49.2503L45.4009 49.821L44.8294 54.9178C44.7866 55.2997 44.5288 55.6232 44.1661 55.7502C43.8035 55.8772 43.4002 55.7852 43.1285 55.5135L35.1644 47.5494ZM37.2857 46.8423L43.0734 52.63L43.5023 48.8046C43.5544 48.3405 43.9207 47.9742 44.3848 47.9223L48.2088 47.494L42.4214 41.7066L37.2857 46.8423Z" fill="#104D92"/>
<path d="M28.5497 54.8065L27.8901 48.9171L21.9998 48.2566L29.9639 40.2925L36.5138 46.8424L28.5497 54.8065Z" fill="#ABCEF6"/>
<path fill-rule="evenodd" clip-rule="evenodd" d="M29.2568 39.5855C29.6473 39.195 30.2804 39.195 30.671 39.5855L37.2209 46.1354C37.6114 46.5259 37.6114 47.1591 37.2209 47.5496L29.2568 55.5137C28.9851 55.7854 28.5817 55.8774 28.2191 55.7504C27.8564 55.6234 27.5986 55.2998 27.5559 54.9179L26.9852 49.822L21.8883 49.2505C21.5065 49.2077 21.183 48.9499 21.056 48.5873C20.929 48.2246 21.021 47.8213 21.2927 47.5496L29.2568 39.5855ZM29.9639 41.7068L24.1762 47.4945L28.0015 47.9235C28.4656 47.9755 28.8319 48.3419 28.8839 48.806L29.3121 52.6299L35.0996 46.8425L29.9639 41.7068Z" fill="#104D92"/>
<path d="M42.9998 41C42.9998 44.866 39.8657 48 35.9998 48C32.1338 48 28.9998 44.866 28.9998 41C28.9998 37.134 32.1338 34 35.9998 34C39.8657 34 42.9998 37.134 42.9998 41Z" fill="#ABCEF6"/>
<path fill-rule="evenodd" clip-rule="evenodd" d="M35.9998 46C38.7612 46 40.9998 43.7614 40.9998 41C40.9998 38.2386 38.7612 36 35.9998 36C33.2383 36 30.9998 38.2386 30.9998 41C30.9998 43.7614 33.2383 46 35.9998 46ZM35.9998 48C39.8657 48 42.9998 44.866 42.9998 41C42.9998 37.134 39.8657 34 35.9998 34C32.1338 34 28.9998 37.134 28.9998 41C28.9998 44.866 32.1338 48 35.9998 48Z" fill="#104D92"/>
<path d="M58 0H63.8945C68.3127 0 71.8945 3.58172 71.8945 8V13.8944C71.8945 13.8944 71.8944 13.8944 71.8945 13.8944C64.2208 13.8944 58 7.67367 58 0Z" fill="#ABCEF6"/>
<path fill-rule="evenodd" clip-rule="evenodd" d="M71.8945 13.8944V8C71.8945 3.58172 68.3127 0 63.8945 0H58C58 0.679149 58.0487 1.34692 58.1429 2C59.0184 8.07298 63.8215 12.8761 69.8945 13.7515C70.5475 13.8457 71.2153 13.8944 71.8945 13.8944ZM69.8945 11.727V8C69.8945 4.68629 67.2082 2 63.8945 2H60.1674C61.0084 6.96659 64.9279 10.8861 69.8945 11.727Z" fill="#104D92"/>
<path fill-rule="evenodd" clip-rule="evenodd" d="M7.53403e-05 13.8944V8C7.53403e-05 3.58172 3.58179 0 8.00007 0H13.8945C13.8945 0.679149 13.8458 1.34692 13.7517 2C12.8762 8.07298 8.07306 12.8761 2.00008 13.7515C1.34699 13.8457 0.679224 13.8944 7.53403e-05 13.8944ZM2.00008 11.727V8C2.00008 4.68629 4.68636 2 8.00007 2H11.7271C10.8862 6.96659 6.96668 10.8861 2.00008 11.727Z" fill="#104D92"/>
<path d="M13.894 47.8944H8C3.58172 47.8944 -3.86258e-07 44.3127 0 39.8944L5.15305e-07 34C7.67347 34.0002 13.894 40.2209 13.894 47.8944Z" fill="#ABCEF6"/>
<path fill-rule="evenodd" clip-rule="evenodd" d="M13.7511 45.8944C12.8756 39.8216 8.07277 35.0186 2 34.1429C1.34692 34.0488 0.67915 34 0 34V39.8944C0 44.3127 3.58172 47.8944 8 47.8944H13.894C13.894 47.2153 13.8452 46.5475 13.7511 45.8944ZM11.7266 45.8944C10.8856 40.928 6.96638 37.0086 2 36.1675L2 39.8944C2 43.2081 4.68629 45.8944 8 45.8944H11.7266Z" fill="#104D92"/>
<path d="M58 47.8944H63.894C68.3123 47.8944 71.894 44.3127 71.894 39.8944V34C64.2205 34.0002 58 40.2209 58 47.8944Z" fill="#ABCEF6"/>
<path fill-rule="evenodd" clip-rule="evenodd" d="M60.1674 45.8944H63.894C67.2077 45.8944 69.894 43.2081 69.894 39.8944V36.1675C64.9276 37.0086 61.0083 40.928 60.1674 45.8944ZM58.1429 45.8944C59.0183 39.8216 63.8212 35.0186 69.894 34.1429C70.5471 34.0488 71.2148 34 71.894 34V39.8944C71.894 44.3127 68.3123 47.8944 63.894 47.8944H58C58 47.2153 58.0487 46.5475 58.1429 45.8944Z" fill="#104D92"/>
</svg>
