<svg width="72" height="57" viewBox="0 0 72 57" fill="none" xmlns="http://www.w3.org/2000/svg">
<path d="M13.6336 17.5931L14.2233 17.3278V16.6812V10.163H15.9593L17.7374 11.9514L18.4465 12.6647L19.1557 11.9514L21.227 9.8681L21.5178 9.57556V9.16304V6.44826L24.8311 5.37505V9.16304V10.163H25.8311H29.3433H29.7593L30.0525 9.8681L31.5604 8.35145H34.5666H34.9825L35.2758 8.0565L36.6035 6.72101H37.1689V11.2464V11.922L37.7956 12.1741L46.8012 15.7973L46.9809 15.8696H47.1745H50.3608L53.3997 18.9261L53.6929 19.221H54.1088H55V23.2433L50.0676 28.2044L49.7767 28.4969V28.9094V33.9523L46.6376 38.6884H43.6623H43.2464L42.9531 38.9833L39.1708 42.7877L38.8799 43.0802V43.4928V46.697L34.9127 52.0874L33.8411 49.9317L33.6978 49.6435L33.4135 49.493L31.1844 48.313L33.6547 45.8282L33.9456 45.5357V45.1232V41.5906V41.207L33.6891 40.9218L31.978 39.0196L31.68 38.6884H31.2345H30.5235V32.442V31.442H29.5235H26.8311V28.9094V28.1297L26.075 27.9396L19.6266 26.3181V23.4746V21.7927L18.149 22.5961L15.0403 24.2862H11.748L9.20935 21.7328L10.5425 18.984L13.6336 17.5931Z" fill="#BBDEFB" stroke="#0D47A1" stroke-width="2"/>
<mask id="path-2-inside-1" fill="white">
<path fill-rule="evenodd" clip-rule="evenodd" d="M12.155 32L17.9297 27L17.9285 32H24C26.2091 32 28 33.7909 28 36V48C28 50.2091 26.2091 52 24 52H4C1.79086 52 0 50.2091 0 48V36C0 33.7909 1.79086 32 4 32H12.155Z"/>
</mask>
<path fill-rule="evenodd" clip-rule="evenodd" d="M12.155 32L17.9297 27L17.9285 32H24C26.2091 32 28 33.7909 28 36V48C28 50.2091 26.2091 52 24 52H4C1.79086 52 0 50.2091 0 48V36C0 33.7909 1.79086 32 4 32H12.155Z" fill="#BBDEFB"/>
<path d="M17.9297 27L19.9297 27.0005L19.9307 22.6219L16.6205 25.488L17.9297 27ZM12.155 32V34H12.9005L13.4642 33.512L12.155 32ZM17.9285 32L15.9285 31.9995L15.928 34H17.9285V32ZM16.6205 25.488L10.8459 30.488L13.4642 33.512L19.2388 28.512L16.6205 25.488ZM19.9285 32.0005L19.9297 27.0005L15.9297 26.9995L15.9285 31.9995L19.9285 32.0005ZM17.9285 34H24V30H17.9285V34ZM24 34C25.1046 34 26 34.8954 26 36H30C30 32.6863 27.3137 30 24 30V34ZM26 36V48H30V36H26ZM26 48C26 49.1046 25.1046 50 24 50V54C27.3137 54 30 51.3137 30 48H26ZM24 50H4V54H24V50ZM4 50C2.89543 50 2 49.1046 2 48H-2C-2 51.3137 0.686291 54 4 54V50ZM2 48V36H-2V48H2ZM2 36C2 34.8954 2.89543 34 4 34V30C0.686292 30 -2 32.6863 -2 36H2ZM4 34H12.155V30H4V34Z" fill="#0D47A1" mask="url(#path-2-inside-1)"/>
<path d="M18 42L12 45.4641L12 38.5359L18 42Z" stroke="#0D47A1" stroke-width="2"/>
<mask id="path-5-inside-2" fill="white">
<path fill-rule="evenodd" clip-rule="evenodd" d="M60.3108 36L54.5361 31L54.5373 36H48C45.7909 36 44 37.7909 44 40V53C44 55.2091 45.7909 57 48 57H68C70.2091 57 72 55.2091 72 53V40C72 37.7909 70.2091 36 68 36H60.3108Z"/>
</mask>
<path fill-rule="evenodd" clip-rule="evenodd" d="M60.3108 36L54.5361 31L54.5373 36H48C45.7909 36 44 37.7909 44 40V53C44 55.2091 45.7909 57 48 57H68C70.2091 57 72 55.2091 72 53V40C72 37.7909 70.2091 36 68 36H60.3108Z" fill="#BBDEFB"/>
<path d="M54.5361 31L55.8453 29.488L52.5351 26.6219L52.5361 31.0005L54.5361 31ZM60.3108 36L59.0017 37.512L59.5653 38H60.3108V36ZM54.5373 36V38H56.5378L56.5373 35.9995L54.5373 36ZM53.227 32.512L59.0017 37.512L61.62 34.488L55.8453 29.488L53.227 32.512ZM56.5373 35.9995L56.5361 30.9995L52.5361 31.0005L52.5373 36.0005L56.5373 35.9995ZM48 38H54.5373V34H48V38ZM46 40C46 38.8954 46.8954 38 48 38V34C44.6863 34 42 36.6863 42 40H46ZM46 53V40H42V53H46ZM48 55C46.8954 55 46 54.1046 46 53H42C42 56.3137 44.6863 59 48 59V55ZM68 55H48V59H68V55ZM70 53C70 54.1046 69.1046 55 68 55V59C71.3137 59 74 56.3137 74 53H70ZM70 40V53H74V40H70ZM68 38C69.1046 38 70 38.8954 70 40H74C74 36.6863 71.3137 34 68 34V38ZM60.3108 38H68V34H60.3108V38Z" fill="#0D47A1" mask="url(#path-5-inside-2)"/>
<mask id="path-7-inside-3" fill="white">
<path fill-rule="evenodd" clip-rule="evenodd" d="M54.8169 44.6899C55.2125 44.2635 55.8873 44.2635 56.283 44.6899L59.3877 48.0359L61.1067 46.1258C61.5039 45.6844 62.1961 45.6844 62.5933 46.1258L65 48.7999V51.9999C65 52.5522 64.5523 52.9999 64 52.9999H52C51.4477 52.9999 51 52.5522 51 51.9999V48.7999H51.0034L54.8169 44.6899Z"/>
</mask>
<path d="M56.283 44.6899L57.749 43.3296V43.3296L56.283 44.6899ZM54.8169 44.6899L53.3508 43.3296L53.3508 43.3296L54.8169 44.6899ZM59.3877 48.0359L57.9216 49.3962C58.3036 49.808 58.8412 50.0401 59.4029 50.0358C59.9645 50.0315 60.4985 49.7913 60.8742 49.3738L59.3877 48.0359ZM61.1067 46.1258L59.6201 44.7879L59.6201 44.7879L61.1067 46.1258ZM62.5933 46.1258L64.0799 44.7879L64.0799 44.7879L62.5933 46.1258ZM65 48.7999H67C67 48.3058 66.8171 47.8292 66.4866 47.462L65 48.7999ZM51 48.7999V46.7999C49.8954 46.7999 49 47.6953 49 48.7999H51ZM51.0034 48.7999V50.7999C51.5598 50.7999 52.091 50.5681 52.4695 50.1603L51.0034 48.7999ZM57.749 43.3296C56.562 42.0503 54.5378 42.0503 53.3508 43.3296L56.283 46.0503C55.8873 46.4767 55.2126 46.4767 54.8169 46.0503L57.749 43.3296ZM60.8537 46.6755L57.749 43.3296L54.8169 46.0503L57.9216 49.3962L60.8537 46.6755ZM60.8742 49.3738L62.5933 47.4637L59.6201 44.7879L57.9011 46.6979L60.8742 49.3738ZM62.5933 47.4637C62.1961 47.9051 61.5039 47.9051 61.1067 47.4637L64.0799 44.7879C62.8882 43.4637 60.8118 43.4637 59.6201 44.7879L62.5933 47.4637ZM61.1067 47.4637L63.5134 50.1378L66.4866 47.462L64.0799 44.7879L61.1067 47.4637ZM67 51.9999V48.7999H63V51.9999H67ZM64 54.9999C65.6569 54.9999 67 53.6568 67 51.9999H63C63 51.4476 63.4477 50.9999 64 50.9999V54.9999ZM52 54.9999H64V50.9999H52V54.9999ZM49 51.9999C49 53.6568 50.3431 54.9999 52 54.9999V50.9999C52.5523 50.9999 53 51.4476 53 51.9999H49ZM49 48.7999V51.9999H53V48.7999H49ZM51.0034 46.7999H51V50.7999H51.0034V46.7999ZM53.3508 43.3296L49.5373 47.4396L52.4695 50.1603L56.283 46.0503L53.3508 43.3296Z" fill="#0D47A1" mask="url(#path-7-inside-3)"/>
<circle cx="59.5" cy="42.5" r="1.5" fill="#0D47A1"/>
<mask id="path-10-inside-4" fill="white">
<path fill-rule="evenodd" clip-rule="evenodd" d="M48 0C45.7909 0 44 1.79086 44 4V16C44 18.2091 45.7909 20 48 20H55.001V25.9296L60.1351 20H68C70.2091 20 72 18.2091 72 16V4C72 1.79086 70.2091 0 68 0H48Z"/>
</mask>
<path fill-rule="evenodd" clip-rule="evenodd" d="M48 0C45.7909 0 44 1.79086 44 4V16C44 18.2091 45.7909 20 48 20H55.001V25.9296L60.1351 20H68C70.2091 20 72 18.2091 72 16V4C72 1.79086 70.2091 0 68 0H48Z" fill="#BBDEFB"/>
<path d="M55.001 20H57.001V18H55.001V20ZM55.001 25.9296H53.001V31.2949L56.513 27.2388L55.001 25.9296ZM60.1351 20V18H59.2213L58.6231 18.6908L60.1351 20ZM46 4C46 2.89543 46.8954 2 48 2V-2C44.6863 -2 42 0.686291 42 4H46ZM46 16V4H42V16H46ZM48 18C46.8954 18 46 17.1046 46 16H42C42 19.3137 44.6863 22 48 22V18ZM55.001 18H48V22H55.001V18ZM57.001 25.9296V20H53.001V25.9296H57.001ZM58.6231 18.6908L53.489 24.6205L56.513 27.2388L61.6471 21.3092L58.6231 18.6908ZM68 18H60.1351V22H68V18ZM70 16C70 17.1046 69.1046 18 68 18V22C71.3137 22 74 19.3137 74 16H70ZM70 4V16H74V4H70ZM68 2C69.1046 2 70 2.89543 70 4H74C74 0.686292 71.3137 -2 68 -2V2ZM48 2H68V-2H48V2Z" fill="#0D47A1" mask="url(#path-10-inside-4)"/>
<rect x="50" y="5" width="16" height="2" rx="1" fill="#0D47A1"/>
<rect x="50" y="5" width="16" height="2" rx="1" fill="#0D47A1"/>
<rect x="50" y="5" width="16" height="2" rx="1" fill="#0D47A1"/>
<rect x="50" y="9" width="16" height="2" rx="1" fill="#0D47A1"/>
<rect x="50" y="9" width="16" height="2" rx="1" fill="#0D47A1"/>
<rect x="50" y="9" width="16" height="2" rx="1" fill="#0D47A1"/>
<rect x="50" y="13" width="9" height="2" rx="1" fill="#0D47A1"/>
<rect x="50" y="13" width="9" height="2" rx="1" fill="#0D47A1"/>
<rect x="50" y="13" width="9" height="2" rx="1" fill="#0D47A1"/>
</svg>
