<svg width="56" height="72" viewBox="0 0 56 72" fill="none" xmlns="http://www.w3.org/2000/svg">
<path d="M0 12C0 9.79086 1.79086 8 4 8H48C50.2091 8 52 9.79086 52 12V68C52 70.2091 50.2091 72 48 72H4C1.79086 72 0 70.2091 0 68V12Z" fill="#BBDEFB"/>
<path fill-rule="evenodd" clip-rule="evenodd" d="M48 10H4C2.89543 10 2 10.8954 2 12V68C2 69.1046 2.89543 70 4 70H48C49.1046 70 50 69.1046 50 68V12C50 10.8954 49.1046 10 48 10ZM4 8C1.79086 8 0 9.79086 0 12V68C0 70.2091 1.79086 72 4 72H48C50.2091 72 52 70.2091 52 68V12C52 9.79086 50.2091 8 48 8H4Z" fill="#0D47A1"/>
<path d="M4 14C4 12.8954 4.89543 12 6 12H46C47.1046 12 48 12.8954 48 14V66C48 67.1046 47.1046 68 46 68H6C4.89543 68 4 67.1046 4 66V14Z" fill="#BBDEFB"/>
<path fill-rule="evenodd" clip-rule="evenodd" d="M46 14H6V66H46V14ZM6 12C4.89543 12 4 12.8954 4 14V66C4 67.1046 4.89543 68 6 68H46C47.1046 68 48 67.1046 48 66V14C48 12.8954 47.1046 12 46 12H6Z" fill="#0D47A1"/>
<path fill-rule="evenodd" clip-rule="evenodd" d="M19.0709 6C19.5561 2.60771 22.4735 0 26 0C29.5265 0 32.4439 2.60771 32.9291 6H38C39.1046 6 40 6.89543 40 8V16C40 17.1046 39.1046 18 38 18H14C12.8954 18 12 17.1046 12 16V8C12 6.89543 12.8954 6 14 6H19.0709Z" fill="#BBDEFB"/>
<path fill-rule="evenodd" clip-rule="evenodd" d="M20.8052 8H14L14 16H38V8H31.1948L30.9493 6.2832C30.6029 3.862 28.5172 2 26 2C23.4828 2 21.3971 3.862 21.0507 6.2832L20.8052 8ZM32.9291 6C32.4439 2.60771 29.5265 0 26 0C22.4735 0 19.5561 2.60771 19.0709 6H14C12.8954 6 12 6.89543 12 8V16C12 17.1046 12.8954 18 14 18H38C39.1046 18 40 17.1046 40 16V8C40 6.89543 39.1046 6 38 6H32.9291Z" fill="#0D47A1"/>
<path d="M28 7C28 8.10457 27.1046 9 26 9C24.8954 9 24 8.10457 24 7C24 5.89543 24.8954 5 26 5C27.1046 5 28 5.89543 28 7Z" fill="#0D47A1"/>
<path d="M20 28C20 25.7909 21.7909 24 24 24H52C54.2091 24 56 25.7909 56 28V68C56 70.2091 54.2091 72 52 72H24C21.7909 72 20 70.2091 20 68V28Z" fill="#BBDEFB"/>
<path fill-rule="evenodd" clip-rule="evenodd" d="M52 26H24C22.8954 26 22 26.8954 22 28V68C22 69.1046 22.8954 70 24 70H52C53.1046 70 54 69.1046 54 68V28C54 26.8954 53.1046 26 52 26ZM24 24C21.7909 24 20 25.7909 20 28V68C20 70.2091 21.7909 72 24 72H52C54.2091 72 56 70.2091 56 68V28C56 25.7909 54.2091 24 52 24H24Z" fill="#0D47A1"/>
<path d="M26 32C26 30.8954 26.8954 30 28 30H48C49.1046 30 50 30.8954 50 32V38C50 39.1046 49.1046 40 48 40H28C26.8954 40 26 39.1046 26 38V32Z" fill="#BBDEFB"/>
<path fill-rule="evenodd" clip-rule="evenodd" d="M48 32H28L28 38H48V32ZM28 30C26.8954 30 26 30.8954 26 32V38C26 39.1046 26.8954 40 28 40H48C49.1046 40 50 39.1046 50 38V32C50 30.8954 49.1046 30 48 30H28Z" fill="#0D47A1"/>
<path d="M26 46C26 44.8954 26.8954 44 28 44H30C31.1046 44 32 44.8954 32 46V48C32 49.1046 31.1046 50 30 50H28C26.8954 50 26 49.1046 26 48V46Z" fill="#BBDEFB"/>
<path fill-rule="evenodd" clip-rule="evenodd" d="M30 46H28L28 48H30V46ZM28 44C26.8954 44 26 44.8954 26 46V48C26 49.1046 26.8954 50 28 50H30C31.1046 50 32 49.1046 32 48V46C32 44.8954 31.1046 44 30 44H28Z" fill="#0D47A1"/>
<path d="M35 46C35 44.8954 35.8954 44 37 44H39C40.1046 44 41 44.8954 41 46V48C41 49.1046 40.1046 50 39 50H37C35.8954 50 35 49.1046 35 48V46Z" fill="#BBDEFB"/>
<path fill-rule="evenodd" clip-rule="evenodd" d="M39 46H37L37 48H39V46ZM37 44C35.8954 44 35 44.8954 35 46V48C35 49.1046 35.8954 50 37 50H39C40.1046 50 41 49.1046 41 48V46C41 44.8954 40.1046 44 39 44H37Z" fill="#0D47A1"/>
<path d="M44 46C44 44.8954 44.8954 44 46 44H48C49.1046 44 50 44.8954 50 46V48C50 49.1046 49.1046 50 48 50H46C44.8954 50 44 49.1046 44 48V46Z" fill="#BBDEFB"/>
<path fill-rule="evenodd" clip-rule="evenodd" d="M48 46H46L46 48H48V46ZM46 44C44.8954 44 44 44.8954 44 46V48C44 49.1046 44.8954 50 46 50H48C49.1046 50 50 49.1046 50 48V46C50 44.8954 49.1046 44 48 44H46Z" fill="#0D47A1"/>
<path d="M26 54C26 52.8954 26.8954 52 28 52H30C31.1046 52 32 52.8954 32 54V56C32 57.1046 31.1046 58 30 58H28C26.8954 58 26 57.1046 26 56V54Z" fill="#BBDEFB"/>
<path fill-rule="evenodd" clip-rule="evenodd" d="M30 54H28L28 56H30V54ZM28 52C26.8954 52 26 52.8954 26 54V56C26 57.1046 26.8954 58 28 58H30C31.1046 58 32 57.1046 32 56V54C32 52.8954 31.1046 52 30 52H28Z" fill="#0D47A1"/>
<path d="M35 54C35 52.8954 35.8954 52 37 52H39C40.1046 52 41 52.8954 41 54V56C41 57.1046 40.1046 58 39 58H37C35.8954 58 35 57.1046 35 56V54Z" fill="#BBDEFB"/>
<path fill-rule="evenodd" clip-rule="evenodd" d="M39 54H37L37 56H39V54ZM37 52C35.8954 52 35 52.8954 35 54V56C35 57.1046 35.8954 58 37 58H39C40.1046 58 41 57.1046 41 56V54C41 52.8954 40.1046 52 39 52H37Z" fill="#0D47A1"/>
<path d="M44 54C44 52.8954 44.8954 52 46 52H48C49.1046 52 50 52.8954 50 54V56C50 57.1046 49.1046 58 48 58H46C44.8954 58 44 57.1046 44 56V54Z" fill="#BBDEFB"/>
<path fill-rule="evenodd" clip-rule="evenodd" d="M48 54H46L46 56H48V54ZM46 52C44.8954 52 44 52.8954 44 54V56C44 57.1046 44.8954 58 46 58H48C49.1046 58 50 57.1046 50 56V54C50 52.8954 49.1046 52 48 52H46Z" fill="#0D47A1"/>
<path d="M26 62C26 60.8954 26.8954 60 28 60H30C31.1046 60 32 60.8954 32 62V64C32 65.1046 31.1046 66 30 66H28C26.8954 66 26 65.1046 26 64V62Z" fill="#BBDEFB"/>
<path fill-rule="evenodd" clip-rule="evenodd" d="M30 62H28L28 64H30V62ZM28 60C26.8954 60 26 60.8954 26 62V64C26 65.1046 26.8954 66 28 66H30C31.1046 66 32 65.1046 32 64V62C32 60.8954 31.1046 60 30 60H28Z" fill="#0D47A1"/>
<path d="M35 62C35 60.8954 35.8954 60 37 60H39C40.1046 60 41 60.8954 41 62V64C41 65.1046 40.1046 66 39 66H37C35.8954 66 35 65.1046 35 64V62Z" fill="#BBDEFB"/>
<path fill-rule="evenodd" clip-rule="evenodd" d="M39 62H37L37 64H39V62ZM37 60C35.8954 60 35 60.8954 35 62V64C35 65.1046 35.8954 66 37 66H39C40.1046 66 41 65.1046 41 64V62C41 60.8954 40.1046 60 39 60H37Z" fill="#0D47A1"/>
<path d="M44 62C44 60.8954 44.8954 60 46 60H48C49.1046 60 50 60.8954 50 62V64C50 65.1046 49.1046 66 48 66H46C44.8954 66 44 65.1046 44 64V62Z" fill="#BBDEFB"/>
<path fill-rule="evenodd" clip-rule="evenodd" d="M48 62H46L46 64H48V62ZM46 60C44.8954 60 44 60.8954 44 62V64C44 65.1046 44.8954 66 46 66H48C49.1046 66 50 65.1046 50 64V62C50 60.8954 49.1046 60 48 60H46Z" fill="#0D47A1"/>
</svg>
