<svg width="56" height="72" viewBox="0 0 56 72" fill="none" xmlns="http://www.w3.org/2000/svg">
<path d="M0 4C0 1.79086 1.79086 0 4 0H52C54.2091 0 56 1.79086 56 4V68C56 70.2091 54.2091 72 52 72H4C1.79086 72 0 70.2091 0 68V4Z" fill="#ABCEF6"/>
<path fill-rule="evenodd" clip-rule="evenodd" d="M52 2H4C2.89543 2 2 2.89543 2 4V68C2 69.1046 2.89543 70 4 70H52C53.1046 70 54 69.1046 54 68V4C54 2.89543 53.1046 2 52 2ZM4 0C1.79086 0 0 1.79086 0 4V68C0 70.2091 1.79086 72 4 72H52C54.2091 72 56 70.2091 56 68V4C56 1.79086 54.2091 0 52 0H4Z" fill="#104D92"/>
<path d="M0 23H56V25H0V23Z" fill="#104D92"/>
<path d="M6 8C6 6.89543 6.89543 6 8 6H16C17.1046 6 18 6.89543 18 8V16C18 17.1046 17.1046 18 16 18H8C6.89543 18 6 17.1046 6 16V8Z" fill="#ABCEF6"/>
<path fill-rule="evenodd" clip-rule="evenodd" d="M16 8H8L8 16H16V8ZM8 6C6.89543 6 6 6.89543 6 8V16C6 17.1046 6.89543 18 8 18H16C17.1046 18 18 17.1046 18 16V8C18 6.89543 17.1046 6 16 6H8Z" fill="#104D92"/>
<path d="M22 7C22 6.44772 22.4477 6 23 6H49C49.5523 6 50 6.44772 50 7C50 7.55228 49.5523 8 49 8H23C22.4477 8 22 7.55228 22 7Z" fill="#104D92"/>
<path d="M22 12C22 11.4477 22.4477 11 23 11H49C49.5523 11 50 11.4477 50 12C50 12.5523 49.5523 13 49 13H23C22.4477 13 22 12.5523 22 12Z" fill="#104D92"/>
<path d="M22 17C22 16.4477 22.4477 16 23 16H35C35.5523 16 36 16.4477 36 17C36 17.5523 35.5523 18 35 18H23C22.4477 18 22 17.5523 22 17Z" fill="#104D92"/>
<path d="M0 47H56V49H0V47Z" fill="#104D92"/>
<path d="M6 32C6 30.8954 6.89543 30 8 30H16C17.1046 30 18 30.8954 18 32V40C18 41.1046 17.1046 42 16 42H8C6.89543 42 6 41.1046 6 40V32Z" fill="#ABCEF6"/>
<path fill-rule="evenodd" clip-rule="evenodd" d="M16 32H8L8 40H16V32ZM8 30C6.89543 30 6 30.8954 6 32V40C6 41.1046 6.89543 42 8 42H16C17.1046 42 18 41.1046 18 40V32C18 30.8954 17.1046 30 16 30H8Z" fill="#104D92"/>
<path d="M22 31C22 30.4477 22.4477 30 23 30H49C49.5523 30 50 30.4477 50 31C50 31.5523 49.5523 32 49 32H23C22.4477 32 22 31.5523 22 31Z" fill="#104D92"/>
<path d="M22 36C22 35.4477 22.4477 35 23 35H49C49.5523 35 50 35.4477 50 36C50 36.5523 49.5523 37 49 37H23C22.4477 37 22 36.5523 22 36Z" fill="#104D92"/>
<path d="M22 41C22 40.4477 22.4477 40 23 40H35C35.5523 40 36 40.4477 36 41C36 41.5523 35.5523 42 35 42H23C22.4477 42 22 41.5523 22 41Z" fill="#104D92"/>
<path d="M6 56C6 54.8954 6.89543 54 8 54H16C17.1046 54 18 54.8954 18 56V64C18 65.1046 17.1046 66 16 66H8C6.89543 66 6 65.1046 6 64V56Z" fill="#ABCEF6"/>
<path fill-rule="evenodd" clip-rule="evenodd" d="M16 56H8L8 64H16V56ZM8 54C6.89543 54 6 54.8954 6 56V64C6 65.1046 6.89543 66 8 66H16C17.1046 66 18 65.1046 18 64V56C18 54.8954 17.1046 54 16 54H8Z" fill="#104D92"/>
<path d="M22 55C22 54.4477 22.4477 54 23 54H49C49.5523 54 50 54.4477 50 55C50 55.5523 49.5523 56 49 56H23C22.4477 56 22 55.5523 22 55Z" fill="#104D92"/>
<path d="M22 60C22 59.4477 22.4477 59 23 59H49C49.5523 59 50 59.4477 50 60C50 60.5523 49.5523 61 49 61H23C22.4477 61 22 60.5523 22 60Z" fill="#104D92"/>
<path d="M22 65C22 64.4477 22.4477 64 23 64H35C35.5523 64 36 64.4477 36 65C36 65.5523 35.5523 66 35 66H23C22.4477 66 22 65.5523 22 65Z" fill="#104D92"/>
</svg>
