<svg width="64" height="64" viewBox="0 0 64 64" fill="none" xmlns="http://www.w3.org/2000/svg">
<path d="M0 6C0 4.89543 0.895431 4 2 4H54C55.1046 4 56 4.89543 56 6V44C56 48.4183 52.4183 52 48 52H8C3.58172 52 0 48.4183 0 44V6Z" fill="#ABCEF6"/>
<path fill-rule="evenodd" clip-rule="evenodd" d="M54 6H2V44C2 47.3137 4.68629 50 8 50H48C51.3137 50 54 47.3137 54 44V6ZM2 4C0.895431 4 0 4.89543 0 6V44C0 48.4183 3.58172 52 8 52H48C52.4183 52 56 48.4183 56 44V6C56 4.89543 55.1046 4 54 4H2Z" fill="#104D92"/>
<path d="M12 4C12 1.79086 13.7909 0 16 0C18.2091 0 20 1.79086 20 4V8C20 10.2091 18.2091 12 16 12C13.7909 12 12 10.2091 12 8V4Z" fill="#ABCEF6"/>
<path fill-rule="evenodd" clip-rule="evenodd" d="M18 8V4C18 2.89543 17.1046 2 16 2C14.8954 2 14 2.89543 14 4V8C14 9.10457 14.8954 10 16 10C17.1046 10 18 9.10457 18 8ZM16 0C13.7909 0 12 1.79086 12 4V8C12 10.2091 13.7909 12 16 12C18.2091 12 20 10.2091 20 8V4C20 1.79086 18.2091 0 16 0Z" fill="#104D92"/>
<path d="M36 4C36 1.79086 37.7909 0 40 0C42.2091 0 44 1.79086 44 4V8C44 10.2091 42.2091 12 40 12C37.7909 12 36 10.2091 36 8V4Z" fill="#ABCEF6"/>
<path fill-rule="evenodd" clip-rule="evenodd" d="M42 8V4C42 2.89543 41.1046 2 40 2C38.8954 2 38 2.89543 38 4V8C38 9.10457 38.8954 10 40 10C41.1046 10 42 9.10457 42 8ZM40 0C37.7909 0 36 1.79086 36 4V8C36 10.2091 37.7909 12 40 12C42.2091 12 44 10.2091 44 8V4C44 1.79086 42.2091 0 40 0Z" fill="#104D92"/>
<path fill-rule="evenodd" clip-rule="evenodd" d="M54 16H2V14H54V16Z" fill="#104D92"/>
<path fill-rule="evenodd" clip-rule="evenodd" d="M18 50L18 16L20 16L20 50L18 50Z" fill="#104D92"/>
<path fill-rule="evenodd" clip-rule="evenodd" d="M36 50L36 16L38 16L38 50L36 50Z" fill="#104D92"/>
<path fill-rule="evenodd" clip-rule="evenodd" d="M56 34H0V32H56V34Z" fill="#104D92"/>
<path d="M64 46C64 55.9411 55.9411 64 46 64C36.0589 64 28 55.9411 28 46C28 36.0589 36.0589 28 46 28C55.9411 28 64 36.0589 64 46Z" fill="#ABCEF6"/>
<path fill-rule="evenodd" clip-rule="evenodd" d="M46 62C54.8366 62 62 54.8366 62 46C62 37.1634 54.8366 30 46 30C37.1634 30 30 37.1634 30 46C30 54.8366 37.1634 62 46 62ZM46 64C55.9411 64 64 55.9411 64 46C64 36.0589 55.9411 28 46 28C36.0589 28 28 36.0589 28 46C28 55.9411 36.0589 64 46 64Z" fill="#104D92"/>
<path d="M58 46C58 52.6274 52.6274 58 46 58C39.3726 58 34 52.6274 34 46C34 39.3726 39.3726 34 46 34C52.6274 34 58 39.3726 58 46Z" fill="#ABCEF6"/>
<path fill-rule="evenodd" clip-rule="evenodd" d="M46 56C51.5228 56 56 51.5228 56 46C56 40.4772 51.5228 36 46 36C40.4772 36 36 40.4772 36 46C36 51.5228 40.4772 56 46 56ZM46 58C52.6274 58 58 52.6274 58 46C58 39.3726 52.6274 34 46 34C39.3726 34 34 39.3726 34 46C34 52.6274 39.3726 58 46 58Z" fill="#104D92"/>
<path fill-rule="evenodd" clip-rule="evenodd" d="M46 40C46.5523 40 47 40.4477 47 41V45.9546L50.669 49.2567C51.0795 49.6262 51.1128 50.2585 50.7433 50.669C50.3738 51.0795 49.7415 51.1128 49.331 50.7433L45 46.8454V41C45 40.4477 45.4477 40 46 40Z" fill="#104D92"/>
</svg>
