<svg width="56" height="72" viewBox="0 0 56 72" fill="none" xmlns="http://www.w3.org/2000/svg">
<path d="M41 10H15L4 30L28 68L52 30L41 10Z" fill="#ABCEF6"/>
<path fill-rule="evenodd" clip-rule="evenodd" d="M16.1825 12L6.32115 29.9298L28 64.2546L49.6788 29.9298L39.8175 12H16.1825ZM41 10H15L4 30L28 68L52 30L41 10Z" fill="#104D92"/>
<path d="M34 30C34 33.3137 31.3137 36 28 36C24.6863 36 22 33.3137 22 30C22 26.6863 24.6863 24 28 24C31.3137 24 34 26.6863 34 30Z" fill="#1565C0"/>
<path fill-rule="evenodd" clip-rule="evenodd" d="M28 34C30.2091 34 32 32.2091 32 30C32 27.7909 30.2091 26 28 26C25.7909 26 24 27.7909 24 30C24 32.2091 25.7909 34 28 34ZM28 36C31.3137 36 34 33.3137 34 30C34 26.6863 31.3137 24 28 24C24.6863 24 22 26.6863 22 30C22 33.3137 24.6863 36 28 36Z" fill="#104D92"/>
<path fill-rule="evenodd" clip-rule="evenodd" d="M26.9819 65V35H28.9819V65H26.9819Z" fill="#104D92"/>
<path d="M10 4C10 1.79086 11.7909 0 14 0H42C44.2091 0 46 1.79086 46 4V8C46 10.2091 44.2091 12 42 12H14C11.7909 12 10 10.2091 10 8V4Z" fill="#ABCEF6"/>
<path fill-rule="evenodd" clip-rule="evenodd" d="M42 2H14C12.8954 2 12 2.89543 12 4V8C12 9.10457 12.8954 10 14 10H42C43.1046 10 44 9.10457 44 8V4C44 2.89543 43.1046 2 42 2ZM14 0C11.7909 0 10 1.79086 10 4V8C10 10.2091 11.7909 12 14 12H42C44.2091 12 46 10.2091 46 8V4C46 1.79086 44.2091 0 42 0H14Z" fill="#104D92"/>
<path fill-rule="evenodd" clip-rule="evenodd" d="M0 71C0 70.4477 0.447715 70 1 70H55C55.5523 70 56 70.4477 56 71C56 71.5523 55.5523 72 55 72H1C0.447715 72 0 71.5523 0 71Z" fill="#104D92"/>
</svg>
