<svg width="64" height="65" viewBox="0 0 64 65" fill="none" xmlns="http://www.w3.org/2000/svg">
<path d="M0 4C0 1.79086 1.79086 0 4 0H44C46.2091 0 48 1.79086 48 4V56C48 58.2091 46.2091 60 44 60H4C1.79086 60 0 58.2091 0 56V4Z" fill="#ABCEF6"/>
<path fill-rule="evenodd" clip-rule="evenodd" d="M44 2H4C2.89543 2 2 2.89543 2 4V56C2 57.1046 2.89543 58 4 58H44C45.1046 58 46 57.1046 46 56V4C46 2.89543 45.1046 2 44 2ZM4 0C1.79086 0 0 1.79086 0 4V56C0 58.2091 1.79086 60 4 60H44C46.2091 60 48 58.2091 48 56V4C48 1.79086 46.2091 0 44 0H4Z" fill="#104D92"/>
<path d="M0 4C0 1.79086 1.79086 0 4 0H44C46.2091 0 48 1.79086 48 4V50C48 52.2091 46.2091 54 44 54H0V4Z" fill="#ABCEF6"/>
<path fill-rule="evenodd" clip-rule="evenodd" d="M44 2H4C2.89543 2 2 2.89543 2 4V52H44C45.1046 52 46 51.1046 46 50V4C46 2.89543 45.1046 2 44 2ZM4 0C1.79086 0 0 1.79086 0 4V54H44C46.2091 54 48 52.2091 48 50V4C48 1.79086 46.2091 0 44 0H4Z" fill="#104D92"/>
<path fill-rule="evenodd" clip-rule="evenodd" d="M56 0C53.7909 0 52 1.79086 52 4V52L58 64L64 52V4C64 1.79086 62.2091 0 60 0H56Z" fill="#ABCEF6"/>
<path fill-rule="evenodd" clip-rule="evenodd" d="M56 2C54.8954 2 54 2.89543 54 4V51.5279L58 59.5279L62 51.5279V4C62 2.89543 61.1046 2 60 2H56ZM64 52L58 64L52 52V4C52 1.79086 53.7909 0 56 0H60C62.2091 0 64 1.79086 64 4V52Z" fill="#104D92"/>
<path d="M52 8H64V16H52V8Z" fill="#ABCEF6"/>
<path fill-rule="evenodd" clip-rule="evenodd" d="M62 10H54V14H62V10ZM52 8V16H64V8H52Z" fill="#104D92"/>
<path d="M32 0H40V54H32V0Z" fill="#ABCEF6"/>
<path fill-rule="evenodd" clip-rule="evenodd" d="M38 2H34V52H38V2ZM32 0V54H40V0H32Z" fill="#104D92"/>
<path d="M7 52H21V62.0955C21 63.7257 19.1544 64.6711 17.8314 63.7186L14 60.96L10.1686 63.7186C8.84564 64.6711 7 63.7257 7 62.0955V52Z" fill="#ABCEF6"/>
<path fill-rule="evenodd" clip-rule="evenodd" d="M14 60.96L17.8314 63.7186C19.1544 64.6711 21 63.7257 21 62.0955V52H7V62.0955C7 63.7257 8.84564 64.6711 10.1686 63.7186L14 60.96ZM9 54V62.0955L14 58.4955L19 62.0955V54H9Z" fill="#104D92"/>
<path fill-rule="evenodd" clip-rule="evenodd" d="M62 53H54V51H62V53Z" fill="#104D92"/>
</svg>
