<svg width="56" height="72" viewBox="0 0 56 72" fill="none" xmlns="http://www.w3.org/2000/svg">
<path d="M42 30C42 37.732 35.732 44 28 44C20.268 44 14 37.732 14 30C14 22.268 20.268 16 28 16C35.732 16 42 22.268 42 30Z" fill="#ABCEF6"/>
<path fill-rule="evenodd" clip-rule="evenodd" d="M28 42C34.6274 42 40 36.6274 40 30C40 23.3726 34.6274 18 28 18C21.3726 18 16 23.3726 16 30C16 36.6274 21.3726 42 28 42ZM28 44C35.732 44 42 37.732 42 30C42 22.268 35.732 16 28 16C20.268 16 14 22.268 14 30C14 37.732 20.268 44 28 44Z" fill="#104D92"/>
<path d="M52 72C52 58.7452 41.2548 48 28 48C14.7452 48 4 58.7452 4 72H52Z" fill="#ABCEF6"/>
<path fill-rule="evenodd" clip-rule="evenodd" d="M49.9103 70C48.8999 58.787 39.4761 50 28 50C16.5239 50 7.10014 58.787 6.08969 70H49.9103ZM51.9179 70C50.9016 57.6809 40.5813 48 28 48C15.4187 48 5.09845 57.6809 4.08215 70C4.02774 70.6595 4 71.3265 4 72H52C52 71.3265 51.9723 70.6595 51.9179 70Z" fill="#104D92"/>
<path d="M0 26C0 24.8954 0.895431 24 2 24H6C7.10457 24 8 24.8954 8 26V30C8 31.1046 7.10457 32 6 32H2C0.895431 32 0 31.1046 0 30V26Z" fill="#ABCEF6"/>
<path fill-rule="evenodd" clip-rule="evenodd" d="M6 26H2V30H6V26ZM2 24C0.895431 24 0 24.8954 0 26V30C0 31.1046 0.895431 32 2 32H6C7.10457 32 8 31.1046 8 30V26C8 24.8954 7.10457 24 6 24H2Z" fill="#104D92"/>
<path d="M48 26C48 24.8954 48.8954 24 50 24H54C55.1046 24 56 24.8954 56 26V30C56 31.1046 55.1046 32 54 32H50C48.8954 32 48 31.1046 48 30V26Z" fill="#ABCEF6"/>
<path fill-rule="evenodd" clip-rule="evenodd" d="M54 26H50V30H54V26ZM50 24C48.8954 24 48 24.8954 48 26V30C48 31.1046 48.8954 32 50 32H54C55.1046 32 56 31.1046 56 30V26C56 24.8954 55.1046 24 54 24H50Z" fill="#104D92"/>
<path d="M24 2C24 0.895431 24.8954 0 26 0H30C31.1046 0 32 0.895431 32 2V6C32 7.10457 31.1046 8 30 8H26C24.8954 8 24 7.10457 24 6V2Z" fill="#ABCEF6"/>
<path fill-rule="evenodd" clip-rule="evenodd" d="M30 2H26V6H30V2ZM26 0C24.8954 0 24 0.895431 24 2V6C24 7.10457 24.8954 8 26 8H30C31.1046 8 32 7.10457 32 6V2C32 0.895431 31.1046 0 30 0H26Z" fill="#104D92"/>
<path d="M14 10C14 12.2091 12.2091 14 10 14C7.79086 14 6 12.2091 6 10C6 7.79086 7.79086 6 10 6C12.2091 6 14 7.79086 14 10Z" fill="#ABCEF6"/>
<path fill-rule="evenodd" clip-rule="evenodd" d="M10 12C11.1046 12 12 11.1046 12 10C12 8.89543 11.1046 8 10 8C8.89543 8 8 8.89543 8 10C8 11.1046 8.89543 12 10 12ZM10 14C12.2091 14 14 12.2091 14 10C14 7.79086 12.2091 6 10 6C7.79086 6 6 7.79086 6 10C6 12.2091 7.79086 14 10 14Z" fill="#104D92"/>
<path d="M46.9999 8L49.598 12.5H44.4019L46.9999 8Z" fill="#ABCEF6"/>
<path fill-rule="evenodd" clip-rule="evenodd" d="M46.9999 6C47.7145 6 48.3747 6.3812 48.732 7L51.3301 11.5C51.6873 12.1188 51.6873 12.8812 51.3301 13.5C50.9728 14.1188 50.3125 14.5 49.598 14.5H44.4019C43.6873 14.5 43.0271 14.1188 42.6698 13.5C42.3125 12.8812 42.3125 12.1188 42.6698 11.5L45.2679 7C45.6251 6.3812 46.2854 6 46.9999 6ZM46.9999 8L44.4019 12.5H49.598L46.9999 8Z" fill="#104D92"/>
</svg>
