<svg width="72" height="56" viewBox="0 0 72 56" fill="none" xmlns="http://www.w3.org/2000/svg">
<rect x="1" y="17" width="70" height="38" rx="7" fill="#BBDEFB" stroke="#0D47A1" stroke-width="2"/>
<rect x="5" y="13" width="62" height="38" rx="3" fill="#BBDEFB" stroke="#0D47A1" stroke-width="2"/>
<rect x="35" y="14" width="2" height="40" fill="#0D47A1"/>
<rect x="10" y="19" width="21" height="2" rx="1" fill="#0D47A1"/>
<rect x="10" y="25" width="21" height="2" rx="1" fill="#0D47A1"/>
<rect x="10" y="31" width="21" height="2" rx="1" fill="#0D47A1"/>
<rect x="10" y="37" width="21" height="2" rx="1" fill="#0D47A1"/>
<rect x="10" y="43" width="21" height="2" rx="1" fill="#0D47A1"/>
<rect x="41" y="19" width="21" height="2" rx="1" fill="#0D47A1"/>
<rect x="41" y="25" width="21" height="2" rx="1" fill="#0D47A1"/>
<rect x="41" y="31" width="21" height="2" rx="1" fill="#0D47A1"/>
<rect x="41" y="37" width="21" height="2" rx="1" fill="#0D47A1"/>
<rect x="41" y="43" width="21" height="2" rx="1" fill="#0D47A1"/>
<mask id="path-14-inside-1" fill="white">
<path fill-rule="evenodd" clip-rule="evenodd" d="M34.4722 0C33.3736 1.2275 31.777 2 30 2C28.223 2 26.6264 1.2275 25.5278 0H24V16C24 22.6274 29.3726 28 36 28C42.6274 28 48 22.6274 48 16V0H46.4722C45.3736 1.2275 43.777 2 42 2C40.223 2 38.6264 1.2275 37.5278 0H34.4722Z"/>
</mask>
<path fill-rule="evenodd" clip-rule="evenodd" d="M34.4722 0C33.3736 1.2275 31.777 2 30 2C28.223 2 26.6264 1.2275 25.5278 0H24V16C24 22.6274 29.3726 28 36 28C42.6274 28 48 22.6274 48 16V0H46.4722C45.3736 1.2275 43.777 2 42 2C40.223 2 38.6264 1.2275 37.5278 0H34.4722Z" fill="#BBDEFB"/>
<path d="M34.4722 0V-2H33.5782L32.9819 -1.33383L34.4722 0ZM25.5278 0L27.0181 -1.33383L26.4218 -2H25.5278V0ZM24 0V-2H22V0H24ZM48 0H50V-2H48V0ZM46.4722 0V-2H45.5782L44.9819 -1.33383L46.4722 0ZM37.5278 0L39.0181 -1.33383L38.4218 -2H37.5278V0ZM30 4C32.3695 4 34.5005 2.9673 35.9625 1.33383L32.9819 -1.33383C32.2467 -0.5123 31.1845 0 30 0V4ZM24.0375 1.33383C25.4995 2.9673 27.6305 4 30 4V0C28.8155 0 27.7533 -0.5123 27.0181 -1.33383L24.0375 1.33383ZM24 2H25.5278V-2H24V2ZM26 16V0H22V16H26ZM36 26C30.4772 26 26 21.5228 26 16H22C22 23.732 28.268 30 36 30V26ZM46 16C46 21.5228 41.5228 26 36 26V30C43.732 30 50 23.732 50 16H46ZM46 0V16H50V0H46ZM46.4722 2H48V-2H46.4722V2ZM42 4C44.3695 4 46.5005 2.9673 47.9625 1.33383L44.9819 -1.33383C44.2467 -0.5123 43.1845 0 42 0V4ZM36.0375 1.33383C37.4995 2.9673 39.6305 4 42 4V0C40.8155 0 39.7533 -0.5123 39.0181 -1.33383L36.0375 1.33383ZM34.4722 2H37.5278V-2H34.4722V2Z" fill="#0D47A1" mask="url(#path-14-inside-1)"/>
<path d="M36.9511 7.69098C36.8172 7.27896 36.4332 7 36 7C35.5668 7 35.1828 7.27896 35.0489 7.69098L33.9264 11.1459H30.2937C29.8604 11.1459 29.4765 11.4249 29.3426 11.8369C29.2087 12.2489 29.3554 12.7003 29.7059 12.9549L32.6448 15.0902L31.5222 18.5451C31.3884 18.9571 31.535 19.4085 31.8855 19.6631C32.236 19.9178 32.7106 19.9178 33.0611 19.6631L36 17.5279L38.9389 19.6631C39.2894 19.9178 39.764 19.9178 40.1145 19.6631C40.465 19.4085 40.6116 18.9571 40.4778 18.5451L39.3552 15.0902L42.2941 12.9549C42.6446 12.7003 42.7913 12.2489 42.6574 11.8369C42.5235 11.4249 42.1396 11.1459 41.7063 11.1459H38.0736L36.9511 7.69098Z" fill="#BBDEFB" stroke="#0D47A1" stroke-width="2" stroke-linejoin="round"/>
</svg>
