<svg width="56" height="72" viewBox="0 0 56 72" fill="none" xmlns="http://www.w3.org/2000/svg">
<path d="M0 8C0 3.58172 3.58172 0 8 0H40C44.4183 0 48 3.58172 48 8V52C48 56.4183 44.4183 60 40 60H8C3.58172 60 0 56.4183 0 52V8Z" fill="#ABCEF6"/>
<path fill-rule="evenodd" clip-rule="evenodd" d="M40 2H8C4.68629 2 2 4.68629 2 8V52C2 55.3137 4.68629 58 8 58H40C43.3137 58 46 55.3137 46 52V8C46 4.68629 43.3137 2 40 2ZM8 0C3.58172 0 0 3.58172 0 8V52C0 56.4183 3.58172 60 8 60H40C44.4183 60 48 56.4183 48 52V8C48 3.58172 44.4183 0 40 0H8Z" fill="#104D92"/>
<path d="M4 8C4 5.79086 5.79086 4 8 4H40C42.2091 4 44 5.79086 44 8V52C44 54.2091 42.2091 56 40 56H8C5.79086 56 4 54.2091 4 52V8Z" fill="#ABCEF6"/>
<path fill-rule="evenodd" clip-rule="evenodd" d="M40 6H8C6.89543 6 6 6.89543 6 8V52C6 53.1046 6.89543 54 8 54H40C41.1046 54 42 53.1046 42 52V8C42 6.89543 41.1046 6 40 6ZM8 4C5.79086 4 4 5.79086 4 8V52C4 54.2091 5.79086 56 8 56H40C42.2091 56 44 54.2091 44 52V8C44 5.79086 42.2091 4 40 4H8Z" fill="#104D92"/>
<path fill-rule="evenodd" clip-rule="evenodd" d="M14 14V26H34V14H14ZM13 12H35C35.5523 12 36 12.3582 36 12.8V27.2C36 27.6418 35.5523 28 35 28H13C12.4477 28 12 27.6418 12 27.2V12.8C12 12.3582 12.4477 12 13 12Z" fill="#104D92"/>
<path fill-rule="evenodd" clip-rule="evenodd" d="M19.4167 19.04L13.7129 24.8377C13.3255 25.2314 12.6924 25.2366 12.2987 24.8493C11.905 24.462 11.8998 23.8288 12.2871 23.4351L18.0556 17.5716C18.2328 17.3915 18.4441 17.2477 18.6778 17.1493C18.9116 17.0509 19.1627 17 19.4167 17C19.6706 17 19.9218 17.0509 20.1555 17.1493C20.3892 17.2477 20.6005 17.3915 20.7777 17.5716L25.8333 22.7105L28.139 20.3669C28.3162 20.1868 28.5275 20.043 28.7612 19.9446C28.9949 19.8462 29.246 19.7953 29.5 19.7953C29.754 19.7953 30.0051 19.8462 30.2388 19.9446C30.4725 20.043 30.6838 20.1868 30.861 20.3669L35.7129 25.2987C36.1002 25.6924 36.095 26.3255 35.7013 26.7129C35.3076 27.1002 34.6745 27.095 34.2871 26.7013L29.5 21.8353L27.1944 24.1789C27.0172 24.359 26.8059 24.5028 26.5722 24.6012C26.3384 24.6996 26.0873 24.7505 25.8333 24.7505C25.5793 24.7505 25.3282 24.6996 25.0945 24.6012C24.8608 24.5028 24.6495 24.359 24.4723 24.1789L19.4167 19.04Z" fill="#104D92"/>
<path d="M25.5 19C26.3284 19 27 18.3284 27 17.5C27 16.6716 26.3284 16 25.5 16C24.6716 16 24 16.6716 24 17.5C24 18.3284 24.6716 19 25.5 19Z" fill="#104D92"/>
<path d="M12 33C12 32.4477 12.4477 32 13 32H35C35.5523 32 36 32.4477 36 33C36 33.5523 35.5523 34 35 34H13C12.4477 34 12 33.5523 12 33Z" fill="#104D92"/>
<path d="M12 39C12 38.4477 12.4477 38 13 38H31C31.5523 38 32 38.4477 32 39C32 39.5523 31.5523 40 31 40H13C12.4477 40 12 39.5523 12 39Z" fill="#104D92"/>
<path d="M12 45C12 44.4477 12.4477 44 13 44H31C31.5523 44 32 44.4477 32 45C32 45.5523 31.5523 46 31 46H13C12.4477 46 12 45.5523 12 45Z" fill="#104D92"/>
<path fill-rule="evenodd" clip-rule="evenodd" d="M34 32C31.7909 32 30 33.7909 30 36V48.5351C29.4117 48.1948 28.7286 48 28 48C25.7909 48 24 49.7909 24 52V64C24 68.4183 27.5817 72 32 72H48C52.4183 72 56 68.4183 56 64V56V52C56 49.7909 54.2091 48 52 48C51.2714 48 50.5883 48.1948 50 48.5351V48C50 45.7909 48.2091 44 46 44C45.2714 44 44.5883 44.1948 44 44.5351V44C44 41.7909 42.2091 40 40 40C39.2714 40 38.5883 40.1948 38 40.5351V36C38 33.7909 36.2091 32 34 32Z" fill="#ABCEF6"/>
<path fill-rule="evenodd" clip-rule="evenodd" d="M32 52.0026L28.9985 50.2663C28.7064 50.0973 28.3676 50 28 50C26.8954 50 26 50.8954 26 52V64C26 67.3137 28.6863 70 32 70H48C51.3137 70 54 67.3137 54 64V52C54 50.8954 53.1046 50 52 50C51.6324 50 51.2936 50.0973 51.0015 50.2663L48 52.0026V48C48 46.8954 47.1046 46 46 46C45.6324 46 45.2936 46.0973 45.0015 46.2663L42 48.0026V44C42 42.8954 41.1046 42 40 42C39.6324 42 39.2936 42.0973 39.0015 42.2663L36 44.0026V36C36 34.8954 35.1046 34 34 34C32.8954 34 32 34.8954 32 36V52.0026ZM38 36C38 33.7909 36.2091 32 34 32C31.7909 32 30 33.7909 30 36V48.5351C29.4117 48.1948 28.7286 48 28 48C25.7909 48 24 49.7909 24 52V64C24 68.4183 27.5817 72 32 72H48C52.4183 72 56 68.4183 56 64V52C56 49.7909 54.2091 48 52 48C51.2714 48 50.5883 48.1948 50 48.5351V48C50 47.4543 49.8907 46.9341 49.6929 46.4602C49.0897 45.0154 47.6635 44 46 44C45.2714 44 44.5883 44.1948 44 44.5351V44C44 43.4543 43.8907 42.9341 43.6929 42.4602C43.0897 41.0154 41.6635 40 40 40C39.2714 40 38.5883 40.1948 38 40.5351V36Z" fill="#104D92"/>
<path d="M36 43C36 42.4477 36.4477 42 37 42C37.5523 42 38 42.4477 38 43V52C38 52.5523 37.5523 53 37 53C36.4477 53 36 52.5523 36 52V43Z" fill="#104D92"/>
<path d="M30 50C30 49.4477 30.4477 49 31 49C31.5523 49 32 49.4477 32 50V59C32 59.5523 31.5523 60 31 60C30.4477 60 30 59.5523 30 59V50Z" fill="#104D92"/>
<path d="M42 46C42 45.4477 42.4477 45 43 45C43.5523 45 44 45.4477 44 46V52C44 52.5523 43.5523 53 43 53C42.4477 53 42 52.5523 42 52V46Z" fill="#104D92"/>
<path d="M48 50C48 49.4477 48.4477 49 49 49C49.5523 49 50 49.4477 50 50V52C50 52.5523 49.5523 53 49 53C48.4477 53 48 52.5523 48 52V50Z" fill="#104D92"/>
</svg>
