<svg width="64" height="64" viewBox="0 0 64 64" fill="none" xmlns="http://www.w3.org/2000/svg">
<path d="M0 8C0 3.58172 3.58172 0 8 0H56C60.4183 0 64 3.58172 64 8V56C64 60.4183 60.4183 64 56 64H8C3.58172 64 0 60.4183 0 56V8Z" fill="#ABCEF6"/>
<path d="M2 21H29V23H2V21Z" fill="#104D92"/>
<path d="M2 21H29V23H2V21Z" fill="#104D92"/>
<path d="M2 21H29V23H2V21Z" fill="#104D92"/>
<path d="M2 21H29V23H2V21Z" fill="#104D92"/>
<path d="M2 21H29V23H2V21Z" fill="#104D92"/>
<path d="M2 21H29V23H2V21Z" fill="#104D92"/>
<path d="M2 21H29V23H2V21Z" fill="#104D92"/>
<path d="M2 41H62V43H2V41Z" fill="#104D92"/>
<path d="M2 41H62V43H2V41Z" fill="#104D92"/>
<path d="M2 41H62V43H2V41Z" fill="#104D92"/>
<path d="M2 41H62V43H2V41Z" fill="#104D92"/>
<path d="M2 41H62V43H2V41Z" fill="#104D92"/>
<path d="M2 41H62V43H2V41Z" fill="#104D92"/>
<path d="M2 41H62V43H2V41Z" fill="#104D92"/>
<path d="M21 9H58V11H21V9Z" fill="#104D92"/>
<path d="M21 9H58V11H21V9Z" fill="#104D92"/>
<path d="M21 9H58V11H21V9Z" fill="#104D92"/>
<path d="M21 9H58V11H21V9Z" fill="#104D92"/>
<path d="M21 9H58V11H21V9Z" fill="#104D92"/>
<path d="M21 9H58V11H21V9Z" fill="#104D92"/>
<path d="M21 9H58V11H21V9Z" fill="#104D92"/>
<path d="M21 13H58V15H21V13Z" fill="#104D92"/>
<path d="M21 13H58V15H21V13Z" fill="#104D92"/>
<path d="M21 13H58V15H21V13Z" fill="#104D92"/>
<path d="M21 13H58V15H21V13Z" fill="#104D92"/>
<path d="M21 13H58V15H21V13Z" fill="#104D92"/>
<path d="M21 13H58V15H21V13Z" fill="#104D92"/>
<path d="M21 13H58V15H21V13Z" fill="#104D92"/>
<path d="M14 12L8 15.4641L8 8.53589L14 12Z" fill="#ABCEF6"/>
<path fill-rule="evenodd" clip-rule="evenodd" d="M16 12C16 12.7145 15.6188 13.3748 15 13.732L9 17.1961C8.3812 17.5534 7.6188 17.5534 7 17.1961C6.3812 16.8389 6 16.1786 6 15.4641L6 8.53589C6 7.82136 6.3812 7.1611 7 6.80384C7.6188 6.44657 8.3812 6.44657 9 6.80384L15 10.2679C15.6188 10.6252 16 11.2855 16 12ZM14 12L8 8.53589L8 15.4641L14 12Z" fill="#104D92"/>
<path d="M21 29H29V31H21V29Z" fill="#104D92"/>
<path d="M21 29H29V31H21V29Z" fill="#104D92"/>
<path d="M21 29H29V31H21V29Z" fill="#104D92"/>
<path d="M21 29H29V31H21V29Z" fill="#104D92"/>
<path d="M21 29H29V31H21V29Z" fill="#104D92"/>
<path d="M21 29H29V31H21V29Z" fill="#104D92"/>
<path d="M21 29H29V31H21V29Z" fill="#104D92"/>
<path d="M21 33H58V35H21V33Z" fill="#104D92"/>
<path d="M21 33H58V35H21V33Z" fill="#104D92"/>
<path d="M21 33H58V35H21V33Z" fill="#104D92"/>
<path d="M21 33H58V35H21V33Z" fill="#104D92"/>
<path d="M21 33H58V35H21V33Z" fill="#104D92"/>
<path d="M21 33H58V35H21V33Z" fill="#104D92"/>
<path d="M21 33H58V35H21V33Z" fill="#104D92"/>
<path d="M14 32L8 35.4641L8 28.5359L14 32Z" fill="#ABCEF6"/>
<path fill-rule="evenodd" clip-rule="evenodd" d="M16 32C16 32.7145 15.6188 33.3748 15 33.732L9 37.1961C8.3812 37.5534 7.6188 37.5534 7 37.1961C6.3812 36.8389 6 36.1786 6 35.4641L6 28.5359C6 27.8214 6.3812 27.1611 7 26.8038C7.6188 26.4466 8.3812 26.4466 9 26.8038L15 30.2679C15.6188 30.6252 16 31.2855 16 32ZM14 32L8 28.5359L8 35.4641L14 32Z" fill="#104D92"/>
<path d="M41 49H58V51H41V49Z" fill="#104D92"/>
<path d="M41 49H58V51H41V49Z" fill="#104D92"/>
<path d="M41 49H58V51H41V49Z" fill="#104D92"/>
<path d="M41 49H58V51H41V49Z" fill="#104D92"/>
<path d="M41 49H58V51H41V49Z" fill="#104D92"/>
<path d="M41 49H58V51H41V49Z" fill="#104D92"/>
<path d="M41 49H58V51H41V49Z" fill="#104D92"/>
<path d="M41 53H58V55H41V53Z" fill="#104D92"/>
<path d="M41 53H58V55H41V53Z" fill="#104D92"/>
<path d="M41 53H58V55H41V53Z" fill="#104D92"/>
<path d="M41 53H58V55H41V53Z" fill="#104D92"/>
<path d="M41 53H58V55H41V53Z" fill="#104D92"/>
<path d="M41 53H58V55H41V53Z" fill="#104D92"/>
<path d="M41 53H58V55H41V53Z" fill="#104D92"/>
<path d="M14 52L8 55.4641L8 48.5359L14 52Z" fill="#ABCEF6"/>
<path fill-rule="evenodd" clip-rule="evenodd" d="M16 52C16 52.7145 15.6188 53.3748 15 53.732L9 57.1961C8.3812 57.5534 7.6188 57.5534 7 57.1961C6.3812 56.8389 6 56.1786 6 55.4641L6 48.5359C6 47.8214 6.3812 47.1611 7 46.8038C7.6188 46.4466 8.3812 46.4466 9 46.8038L15 50.2679C15.6188 50.6252 16 51.2855 16 52ZM14 52L8 48.5359L8 55.4641L14 52Z" fill="#104D92"/>
<path fill-rule="evenodd" clip-rule="evenodd" d="M37.001 16.4514C33.4684 17.363 31 20.5492 31 24.1976V26V34V46.16C30.3538 46.0551 29.6849 46 29 46C23.4772 46 19 49.5817 19 54C19 58.4183 23.4772 62 29 62C34.5228 62 39 58.4183 39 54V31.9355L55.999 27.5486C59.5317 26.637 62 23.4508 62 19.8024V10L37.001 16.4514Z" fill="#ABCEF6"/>
<path fill-rule="evenodd" clip-rule="evenodd" d="M62 19.8025C62 23.4509 59.5317 26.6371 55.999 27.5487L39 31.9356V54.0001C39 58.4184 34.5228 62.0001 29 62.0001C23.4772 62.0001 19 58.4184 19 54.0001C19 49.5818 23.4772 46.0001 29 46.0001C29.6849 46.0001 30.3538 46.0552 31 46.1601V24.1977C31 20.5493 33.4683 17.3631 37.001 16.4515L62 10.0001V19.8025ZM29 44.0001V24.1977C29 19.6372 32.0854 15.6545 36.5012 14.5149L64 7.41846V19.8025C64 24.363 60.9146 28.3457 56.4988 29.4853L41 33.485V54.0001C41 59.9164 35.1879 64.0001 29 64.0001C22.8121 64.0001 17 59.9164 17 54.0001C17 48.0839 22.8121 44.0001 29 44.0001Z" fill="#ABCEF6"/>
<path fill-rule="evenodd" clip-rule="evenodd" d="M33 48.511L30.6794 48.1342C30.1394 48.0465 29.5777 48 29 48C24.1422 48 21 51.0797 21 54C21 56.9203 24.1422 60 29 60C33.8578 60 37 56.9203 37 54V30.3861L55.4993 25.6121C58.1487 24.9284 60 22.5387 60 19.8024V12.5817L37.5007 18.3879C34.8513 19.0716 33 21.4613 33 24.1976V48.511ZM37.001 16.4514C33.4684 17.363 31 20.5492 31 24.1976V46.16C30.3538 46.0551 29.6849 46 29 46C23.4772 46 19 49.5817 19 54C19 58.4183 23.4772 62 29 62C34.5228 62 39 58.4183 39 54V31.9355L55.999 27.5486C59.5317 26.637 62 23.4508 62 19.8024V10L37.001 16.4514Z" fill="#104D92"/>
<path fill-rule="evenodd" clip-rule="evenodd" d="M56 2H8C4.68629 2 2 4.68629 2 8V56C2 59.3137 4.68629 62 8 62H56C59.3137 62 62 59.3137 62 56V8C62 4.68629 59.3137 2 56 2ZM8 0C3.58172 0 0 3.58172 0 8V56C0 60.4183 3.58172 64 8 64H56C60.4183 64 64 60.4183 64 56V8C64 3.58172 60.4183 0 56 0H8Z" fill="#104D92"/>
</svg>
