<svg width="56" height="72" viewBox="0 0 56 72" fill="none" xmlns="http://www.w3.org/2000/svg">
<path fill-rule="evenodd" clip-rule="evenodd" d="M31 40H25V38C25 36.3431 23.6569 35 22 35H15V29H22C23.0519 29 24.0617 29.1805 25 29.5121V15H31V21.5121C31.9383 21.1805 32.9481 21 34 21H41V27H34C32.3431 27 31 28.3431 31 30V40Z" fill="#BBDEFB" stroke="#0D47A1" stroke-width="2"/>
<mask id="path-2-inside-1" fill="white">
<path fill-rule="evenodd" clip-rule="evenodd" d="M38.2459 56.25C39.3587 54.4297 40 52.2897 40 50C40 43.3726 34.6274 38 28 38C21.3726 38 16 43.3726 16 50C16 52.2897 16.6413 54.4297 17.7541 56.25H17.6077L28 72L38.3923 56.25H38.2459Z"/>
</mask>
<path fill-rule="evenodd" clip-rule="evenodd" d="M38.2459 56.25C39.3587 54.4297 40 52.2897 40 50C40 43.3726 34.6274 38 28 38C21.3726 38 16 43.3726 16 50C16 52.2897 16.6413 54.4297 17.7541 56.25H17.6077L28 72L38.3923 56.25H38.2459Z" fill="#BBDEFB"/>
<path d="M38.2459 56.25L36.5395 55.2069L34.6792 58.25H38.2459V56.25ZM17.7541 56.25V58.25H21.3208L19.4605 55.2069L17.7541 56.25ZM17.6077 56.25V54.25H13.8919L15.9383 57.3515L17.6077 56.25ZM28 72L26.3306 73.1015L28 75.6315L29.6693 73.1015L28 72ZM38.3923 56.25L40.0617 57.3515L42.1081 54.25H38.3923V56.25ZM38 50C38 51.9113 37.4658 53.6916 36.5395 55.2069L39.9523 57.2931C41.2516 55.1677 42 52.6682 42 50H38ZM28 40C33.5228 40 38 44.4772 38 50H42C42 42.268 35.732 36 28 36V40ZM18 50C18 44.4772 22.4772 40 28 40V36C20.268 36 14 42.268 14 50H18ZM19.4605 55.2069C18.5342 53.6916 18 51.9113 18 50H14C14 52.6682 14.7484 55.1677 16.0477 57.2931L19.4605 55.2069ZM17.6077 58.25H17.7541V54.25H17.6077V58.25ZM29.6694 70.8985L19.277 55.1485L15.9383 57.3515L26.3306 73.1015L29.6694 70.8985ZM36.723 55.1485L26.3307 70.8985L29.6693 73.1015L40.0617 57.3515L36.723 55.1485ZM38.2459 58.25H38.3923V54.25H38.2459V58.25Z" fill="#0D47A1" mask="url(#path-2-inside-1)"/>
<circle cx="28" cy="50" r="5" fill="#BBDEFB" stroke="#0D47A1" stroke-width="2"/>
<circle cx="8" cy="32" r="7" fill="#BBDEFB" stroke="#0D47A1" stroke-width="2"/>
<circle cx="8" cy="32" r="2" fill="#BBDEFB" stroke="#0D47A1" stroke-width="2"/>
<circle cx="48" cy="24" r="7" fill="#BBDEFB" stroke="#0D47A1" stroke-width="2"/>
<circle cx="48" cy="24" r="2" fill="#BBDEFB" stroke="#0D47A1" stroke-width="2"/>
<circle cx="28" cy="8" r="7" fill="#BBDEFB" stroke="#0D47A1" stroke-width="2"/>
<circle cx="28" cy="8" r="2" fill="#BBDEFB" stroke="#0D47A1" stroke-width="2"/>
</svg>
