<svg width="56" height="72" viewBox="0 0 56 72" fill="none" xmlns="http://www.w3.org/2000/svg">
<path d="M8 4C8 1.79086 9.79086 0 12 0H52C54.2091 0 56 1.79086 56 4V28C56 30.2091 54.2091 32 52 32H12C9.79086 32 8 30.2091 8 28V4Z" fill="#ABCEF6"/>
<path fill-rule="evenodd" clip-rule="evenodd" d="M52 2H12C10.8954 2 10 2.89543 10 4V28C10 29.1046 10.8954 30 12 30H52C53.1046 30 54 29.1046 54 28V4C54 2.89543 53.1046 2 52 2ZM12 0C9.79086 0 8 1.79086 8 4V28C8 30.2091 9.79086 32 12 32H52C54.2091 32 56 30.2091 56 28V4C56 1.79086 54.2091 0 52 0H12Z" fill="#104D92"/>
<path d="M8 42C8 40.8954 8.89543 40 10 40H54C55.1046 40 56 40.8954 56 42V46C56 47.1046 55.1046 48 54 48H10C8.89543 48 8 47.1046 8 46V42Z" fill="#ABCEF6"/>
<path fill-rule="evenodd" clip-rule="evenodd" d="M54 42H10V46H54V42ZM10 40C8.89543 40 8 40.8954 8 42V46C8 47.1046 8.89543 48 10 48H54C55.1046 48 56 47.1046 56 46V42C56 40.8954 55.1046 40 54 40H10Z" fill="#104D92"/>
<path d="M0 21C0 19.8954 0.895431 19 2 19H30C31.1046 19 32 19.8954 32 21V26C32 27.1046 31.1046 28 30 28H2C0.895431 28 0 27.1046 0 26V21Z" fill="#ABCEF6"/>
<path fill-rule="evenodd" clip-rule="evenodd" d="M30 21H2V26H30V21ZM2 19C0.895431 19 0 19.8954 0 21V26C0 27.1046 0.895431 28 2 28H30C31.1046 28 32 27.1046 32 26V21C32 19.8954 31.1046 19 30 19H2Z" fill="#104D92"/>
<path d="M19 30H25V42H19V30Z" fill="#ABCEF6"/>
<path fill-rule="evenodd" clip-rule="evenodd" d="M23 32H21V40H23V32ZM19 30V42H25V30H19Z" fill="#104D92"/>
<path d="M39 30H45V42H39V30Z" fill="#ABCEF6"/>
<path fill-rule="evenodd" clip-rule="evenodd" d="M43 32H41V40H43V32ZM39 30V42H45V30H39Z" fill="#104D92"/>
<path fill-rule="evenodd" clip-rule="evenodd" d="M11 46H17V55H47V46H53V69C53 70.6569 51.6569 72 50 72C48.3431 72 47 70.6569 47 69V61H17V69C17 70.6569 15.6569 72 14 72C12.3431 72 11 70.6569 11 69V46Z" fill="#ABCEF6"/>
<path fill-rule="evenodd" clip-rule="evenodd" d="M17 61H47V69C47 70.6569 48.3431 72 50 72C51.6569 72 53 70.6569 53 69V46H47V55H17V46H11V69C11 70.6569 12.3431 72 14 72C15.6569 72 17 70.6569 17 69V61ZM13 48V69C13 69.5523 13.4477 70 14 70C14.5523 70 15 69.5523 15 69V59H49V69C49 69.5523 49.4477 70 50 70C50.5523 70 51 69.5523 51 69V48H49V57H15V48H13Z" fill="#104D92"/>
<path fill-rule="evenodd" clip-rule="evenodd" d="M8 26H2V43C2 45.2091 3.79086 47 6 47H8H10V41H8V26Z" fill="#ABCEF6"/>
<path fill-rule="evenodd" clip-rule="evenodd" d="M10 41H8V26H2V43C2 45.2091 3.79086 47 6 47H10V41ZM8 45V43H6V28H4V43C4 44.1046 4.89543 45 6 45H8Z" fill="#104D92"/>
</svg>
