<svg width="64" height="64" viewBox="0 0 64 64" fill="none" xmlns="http://www.w3.org/2000/svg">
<path d="M0 6C0 4.89543 0.895431 4 2 4H54C55.1046 4 56 4.89543 56 6V44C56 48.4183 52.4183 52 48 52H8C3.58172 52 0 48.4183 0 44V6Z" fill="#ABCEF6"/>
<path fill-rule="evenodd" clip-rule="evenodd" d="M54 6H2V44C2 47.3137 4.68629 50 8 50H48C51.3137 50 54 47.3137 54 44V6ZM2 4C0.895431 4 0 4.89543 0 6V44C0 48.4183 3.58172 52 8 52H48C52.4183 52 56 48.4183 56 44V6C56 4.89543 55.1046 4 54 4H2Z" fill="#104D92"/>
<path d="M12 4C12 1.79086 13.7909 0 16 0C18.2091 0 20 1.79086 20 4V8C20 10.2091 18.2091 12 16 12C13.7909 12 12 10.2091 12 8V4Z" fill="#ABCEF6"/>
<path fill-rule="evenodd" clip-rule="evenodd" d="M18 8V4C18 2.89543 17.1046 2 16 2C14.8954 2 14 2.89543 14 4V8C14 9.10457 14.8954 10 16 10C17.1046 10 18 9.10457 18 8ZM16 0C13.7909 0 12 1.79086 12 4V8C12 10.2091 13.7909 12 16 12C18.2091 12 20 10.2091 20 8V4C20 1.79086 18.2091 0 16 0Z" fill="#104D92"/>
<path d="M36 4C36 1.79086 37.7909 0 40 0C42.2091 0 44 1.79086 44 4V8C44 10.2091 42.2091 12 40 12C37.7909 12 36 10.2091 36 8V4Z" fill="#ABCEF6"/>
<path fill-rule="evenodd" clip-rule="evenodd" d="M42 8V4C42 2.89543 41.1046 2 40 2C38.8954 2 38 2.89543 38 4V8C38 9.10457 38.8954 10 40 10C41.1046 10 42 9.10457 42 8ZM40 0C37.7909 0 36 1.79086 36 4V8C36 10.2091 37.7909 12 40 12C42.2091 12 44 10.2091 44 8V4C44 1.79086 42.2091 0 40 0Z" fill="#104D92"/>
<path fill-rule="evenodd" clip-rule="evenodd" d="M54 16H2V14H54V16Z" fill="#104D92"/>
<path fill-rule="evenodd" clip-rule="evenodd" d="M18 50L18 16L20 16L20 50L18 50Z" fill="#104D92"/>
<path fill-rule="evenodd" clip-rule="evenodd" d="M36 50L36 16L38 16L38 50L36 50Z" fill="#104D92"/>
<path fill-rule="evenodd" clip-rule="evenodd" d="M56 34H0V32H56V34Z" fill="#104D92"/>
<path d="M64 50C64 57.732 57.732 64 50 64C42.268 64 36 57.732 36 50C36 42.268 42.268 36 50 36C57.732 36 64 42.268 64 50Z" fill="#ABCEF6"/>
<path fill-rule="evenodd" clip-rule="evenodd" d="M50 62C56.6274 62 62 56.6274 62 50C62 43.3726 56.6274 38 50 38C43.3726 38 38 43.3726 38 50C38 56.6274 43.3726 62 50 62ZM50 64C57.732 64 64 57.732 64 50C64 42.268 57.732 36 50 36C42.268 36 36 42.268 36 50C36 57.732 42.268 64 50 64Z" fill="#104D92"/>
<path fill-rule="evenodd" clip-rule="evenodd" d="M50.1113 42C50.6636 42 51.1113 42.4477 51.1113 43L51.1113 57C51.1113 57.5523 50.6636 58 50.1113 58C49.559 58 49.1113 57.5523 49.1113 57L49.1113 43C49.1113 42.4477 49.559 42 50.1113 42Z" fill="#104D92"/>
<path fill-rule="evenodd" clip-rule="evenodd" d="M42 49.8887C42 49.3364 42.4477 48.8887 43 48.8887H57C57.5523 48.8887 58 49.3364 58 49.8887C58 50.441 57.5523 50.8887 57 50.8887H43C42.4477 50.8887 42 50.441 42 49.8887Z" fill="#104D92"/>
</svg>
