<svg width="64" height="64" viewBox="0 0 64 64" fill="none" xmlns="http://www.w3.org/2000/svg">
<path d="M0 63C0 62.4477 0.447715 62 1 62H63C63.5523 62 64 62.4477 64 63C64 63.5523 63.5523 64 63 64H1C0.447715 64 0 63.5523 0 63Z" fill="#104D92"/>
<path d="M0 12C0 7.58172 3.58172 4 8 4H56C60.4183 4 64 7.58172 64 12V36C64 40.4183 60.4183 44 56 44H8C3.58172 44 0 40.4183 0 36V12Z" fill="#ABCEF6"/>
<path fill-rule="evenodd" clip-rule="evenodd" d="M56 6H8C4.68629 6 2 8.68629 2 12V36C2 39.3137 4.68629 42 8 42H56C59.3137 42 62 39.3137 62 36V12C62 8.68629 59.3137 6 56 6ZM8 4C3.58172 4 0 7.58172 0 12V36C0 40.4183 3.58172 44 8 44H56C60.4183 44 64 40.4183 64 36V12C64 7.58172 60.4183 4 56 4H8Z" fill="#104D92"/>
<path fill-rule="evenodd" clip-rule="evenodd" d="M25.9981 34C25.9981 30.6863 28.6844 28 31.9981 28C35.3119 28 37.9981 30.6863 37.9981 34V41.9712L45.1409 34.8284C46.703 33.2663 49.2357 33.2663 50.7978 34.8284C52.3599 36.3905 52.3599 38.9232 50.7978 40.4853L37.9981 53.2849V64H25.9981V53.655L12.8283 40.4852C11.2662 38.9231 11.2662 36.3904 12.8283 34.8283C14.3904 33.2662 16.9231 33.2662 18.4852 34.8283L25.9981 42.3413V34Z" fill="#ABCEF6"/>
<path fill-rule="evenodd" clip-rule="evenodd" d="M35.9981 46.7996V34C35.9981 31.7909 34.2073 30 31.9981 30C29.789 30 27.9981 31.7909 27.9981 34V47.1697L17.071 36.2425C16.2899 35.4615 15.0236 35.4615 14.2425 36.2425C13.4615 37.0236 13.4615 38.2899 14.2425 39.071L27.9981 52.8266V62H35.9981V52.4565L49.3835 39.0711L50.7978 40.4853L37.9981 53.2849V64H25.9981V53.655L12.8283 40.4852C11.2662 38.9231 11.2662 36.3904 12.8283 34.8283C14.3904 33.2662 16.9231 33.2662 18.4852 34.8283L25.9981 42.3413V34C25.9981 30.6863 28.6844 28 31.9981 28C35.3119 28 37.9981 30.6863 37.9981 34V41.9712L45.1409 34.8284C46.703 33.2663 49.2357 33.2663 50.7978 34.8284L49.3835 36.2426C48.6025 35.4616 47.3362 35.4616 46.5551 36.2426L35.9981 46.7996ZM50.7978 34.8284C52.3599 36.3905 52.3599 38.9232 50.7978 40.4853L49.3835 39.0711C50.1646 38.29 50.1646 37.0237 49.3835 36.2426L50.7978 34.8284Z" fill="#104D92"/>
<path d="M4 4C4 1.79086 5.79086 0 8 0H56C58.2091 0 60 1.79086 60 4V36C60 38.2091 58.2091 40 56 40H8C5.79086 40 4 38.2091 4 36V4Z" fill="#ABCEF6"/>
<path fill-rule="evenodd" clip-rule="evenodd" d="M56 2H8C6.89543 2 6 2.89543 6 4V36C6 37.1046 6.89543 38 8 38H56C57.1046 38 58 37.1046 58 36V4C58 2.89543 57.1046 2 56 2ZM8 0C5.79086 0 4 1.79086 4 4V36C4 38.2091 5.79086 40 8 40H56C58.2091 40 60 38.2091 60 36V4C60 1.79086 58.2091 0 56 0H8Z" fill="#104D92"/>
<path d="M31 2H33V38H31V2Z" fill="#104D92"/>
<path d="M10 8C10 7.44772 10.4477 7 11 7H26C26.5523 7 27 7.44772 27 8C27 8.55228 26.5523 9 26 9H11C10.4477 9 10 8.55228 10 8Z" fill="#104D92"/>
<path d="M10 14C10 13.4477 10.4477 13 11 13H26C26.5523 13 27 13.4477 27 14C27 14.5523 26.5523 15 26 15H11C10.4477 15 10 14.5523 10 14Z" fill="#104D92"/>
<path d="M10 20C10 19.4477 10.4477 19 11 19H26C26.5523 19 27 19.4477 27 20C27 20.5523 26.5523 21 26 21H11C10.4477 21 10 20.5523 10 20Z" fill="#104D92"/>
<path d="M10 26C10 25.4477 10.4477 25 11 25H26C26.5523 25 27 25.4477 27 26C27 26.5523 26.5523 27 26 27H11C10.4477 27 10 26.5523 10 26Z" fill="#104D92"/>
<path d="M10 32C10 31.4477 10.4477 31 11 31H26C26.5523 31 27 31.4477 27 32C27 32.5523 26.5523 33 26 33H11C10.4477 33 10 32.5523 10 32Z" fill="#104D92"/>
<path d="M37 8C37 7.44772 37.4477 7 38 7H53C53.5523 7 54 7.44772 54 8C54 8.55228 53.5523 9 53 9H38C37.4477 9 37 8.55228 37 8Z" fill="#104D92"/>
<path d="M37 14C37 13.4477 37.4477 13 38 13H53C53.5523 13 54 13.4477 54 14C54 14.5523 53.5523 15 53 15H38C37.4477 15 37 14.5523 37 14Z" fill="#104D92"/>
<path d="M37 20C37 19.4477 37.4477 19 38 19H53C53.5523 19 54 19.4477 54 20C54 20.5523 53.5523 21 53 21H38C37.4477 21 37 20.5523 37 20Z" fill="#104D92"/>
<path d="M37 26C37 25.4477 37.4477 25 38 25H53C53.5523 25 54 25.4477 54 26C54 26.5523 53.5523 27 53 27H38C37.4477 27 37 26.5523 37 26Z" fill="#104D92"/>
<path d="M37 32C37 31.4477 37.4477 31 38 31H53C53.5523 31 54 31.4477 54 32C54 32.5523 53.5523 33 53 33H38C37.4477 33 37 32.5523 37 32Z" fill="#104D92"/>
</svg>
