<svg width="65" height="65" viewBox="0 0 65 65" fill="none" xmlns="http://www.w3.org/2000/svg">
<path d="M64 32.001C64 49.6741 49.6731 64.001 32 64.001C14.3269 64.001 0 49.6741 0 32.001C0 14.3279 14.3269 0.000976562 32 0.000976562C49.6731 0.000976562 64 14.3279 64 32.001Z" fill="#ABCEF6"/>
<path fill-rule="evenodd" clip-rule="evenodd" d="M32 62.001C48.5685 62.001 62 48.5695 62 32.001C62 15.4324 48.5685 2.00098 32 2.00098C15.4315 2.00098 2 15.4324 2 32.001C2 48.5695 15.4315 62.001 32 62.001ZM32 64.001C49.6731 64.001 64 49.6741 64 32.001C64 14.3279 49.6731 0.000976562 32 0.000976562C14.3269 0.000976562 0 14.3279 0 32.001C0 49.6741 14.3269 64.001 32 64.001Z" fill="#104D92"/>
<path fill-rule="evenodd" clip-rule="evenodd" d="M31 63L31 1L33 1L33 63L31 63Z" fill="#104D92"/>
<path fill-rule="evenodd" clip-rule="evenodd" d="M1 33L1 31L63 31V33L1 33Z" fill="#104D92"/>
<path fill-rule="evenodd" clip-rule="evenodd" d="M53.6373 54.0891C53.3541 53.8167 53.0661 53.5496 52.7732 53.288C47.2298 48.3362 39.96 45.3335 32.0003 45.3335C24.0405 45.3335 16.7707 48.3362 11.2273 53.288C10.9344 53.5497 10.6463 53.8167 10.3632 54.0891C10.1657 54.2791 9.97067 54.4717 9.77808 54.6668C9.97066 54.8619 10.1657 55.0544 10.3632 55.2444C10.6463 55.5168 10.9344 55.7839 11.2273 56.0456C16.7707 60.9974 24.0405 64.0001 32.0003 64.0001C39.96 64.0001 47.2298 60.9974 52.7732 56.0456C53.0661 55.7839 53.3542 55.5168 53.6373 55.2444C53.8348 55.0544 54.0298 54.8619 54.2224 54.6668C54.0298 54.4717 53.8347 54.2791 53.6373 54.0891ZM12.6866 54.6668C17.8643 50.0941 24.6161 47.3335 32.0003 47.3335C39.3844 47.3335 46.1362 50.0941 51.3139 54.6668C46.1362 59.2395 39.3844 62.0001 32.0003 62.0001C24.6161 62.0001 17.8643 59.2395 12.6866 54.6668Z" fill="#104D92"/>
<path fill-rule="evenodd" clip-rule="evenodd" d="M53.6373 8.75588C53.3542 8.48349 53.0661 8.2164 52.7732 7.95475C47.2298 3.00294 39.96 0.000244141 32.0003 0.000244141C24.0405 0.000244141 16.7707 3.00294 11.2273 7.95475C10.9344 8.2164 10.6463 8.4835 10.3632 8.75588C10.1657 8.94588 9.97067 9.13845 9.77808 9.33354C9.97066 9.52862 10.1657 9.72119 10.3632 9.91118C10.6463 10.1836 10.9344 10.4507 11.2273 10.7123C16.7707 15.6641 24.0405 18.6668 32.0003 18.6668C39.96 18.6668 47.2298 15.6641 52.7732 10.7123C53.0661 10.4507 53.3541 10.1836 53.6373 9.91122C53.8348 9.72122 54.0298 9.52864 54.2224 9.33354C54.0298 9.13845 53.8348 8.94588 53.6373 8.75588ZM12.6866 9.33354C17.8643 4.76087 24.6161 2.00024 32.0003 2.00024C39.3844 2.00024 46.1362 4.76087 51.3139 9.33354C46.1362 13.9062 39.3844 16.6668 32.0003 16.6668C24.6161 16.6668 17.8643 13.9062 12.6866 9.33354Z" fill="#104D92"/>
<path fill-rule="evenodd" clip-rule="evenodd" d="M31.9994 61.6029C41.5571 55.0465 47.7771 44.2223 47.7771 32C47.7771 19.7776 41.5571 8.95345 31.9994 2.39697C22.4417 8.95345 16.2217 19.7776 16.2217 32C16.2217 44.2223 22.4417 55.0465 31.9994 61.6029ZM31.9994 63.9999C21.2965 57.1887 14.2217 45.4007 14.2217 32C14.2217 18.5992 21.2965 6.8112 31.9994 0C42.7023 6.8112 49.7771 18.5992 49.7771 32C49.7771 45.4007 42.7023 57.1887 31.9994 63.9999Z" fill="#104D92"/>
<path d="M51.7509 57.4076C50.9698 56.6266 50.9698 55.3602 51.7509 54.5792L54.5793 51.7508C55.3604 50.9697 56.6267 50.9697 57.4077 51.7508L63.0646 57.4076C63.8456 58.1887 63.8456 59.455 63.0646 60.236L60.2362 63.0645C59.4551 63.8455 58.1888 63.8455 57.4077 63.0645L51.7509 57.4076Z" fill="#ABCEF6"/>
<path fill-rule="evenodd" clip-rule="evenodd" d="M55.9935 53.165L53.1651 55.9934L58.822 61.6503L61.6504 58.8218L55.9935 53.165ZM51.7509 54.5792C50.9698 55.3602 50.9698 56.6266 51.7509 57.4076L57.4077 63.0645C58.1888 63.8455 59.4551 63.8455 60.2362 63.0645L63.0646 60.236C63.8456 59.455 63.8456 58.1887 63.0646 57.4076L57.4077 51.7508C56.6267 50.9697 55.3604 50.9697 54.5793 51.7508L51.7509 54.5792Z" fill="#104D92"/>
<path d="M49 51.8284L51.8284 48.9999L56.0711 53.2426L53.2426 56.071L49 51.8284Z" fill="#ABCEF6"/>
<path fill-rule="evenodd" clip-rule="evenodd" d="M49 51.8284L53.2426 56.071L56.0711 53.2426L51.8284 48.9999L49 51.8284Z" fill="#104D92"/>
<path d="M56 40C56 48.8366 48.8366 56 40 56C31.1634 56 24 48.8366 24 40C24 31.1634 31.1634 24 40 24C48.8366 24 56 31.1634 56 40Z" fill="#ABCEF6"/>
<path fill-rule="evenodd" clip-rule="evenodd" d="M40 54C47.732 54 54 47.732 54 40C54 32.268 47.732 26 40 26C32.268 26 26 32.268 26 40C26 47.732 32.268 54 40 54ZM40 56C48.8366 56 56 48.8366 56 40C56 31.1634 48.8366 24 40 24C31.1634 24 24 31.1634 24 40C24 48.8366 31.1634 56 40 56Z" fill="#104D92"/>
<path d="M51 40C51 46.0751 46.0751 51 40 51C33.9249 51 29 46.0751 29 40C29 33.9249 33.9249 29 40 29C46.0751 29 51 33.9249 51 40Z" fill="#ABCEF6"/>
<path fill-rule="evenodd" clip-rule="evenodd" d="M40 49C44.9706 49 49 44.9706 49 40C49 35.0294 44.9706 31 40 31C35.0294 31 31 35.0294 31 40C31 44.9706 35.0294 49 40 49ZM40 51C46.0751 51 51 46.0751 51 40C51 33.9249 46.0751 29 40 29C33.9249 29 29 33.9249 29 40C29 46.0751 33.9249 51 40 51Z" fill="#104D92"/>
<path fill-rule="evenodd" clip-rule="evenodd" d="M40 35C38.1505 35 36.5343 36.0036 35.6683 37.5007C35.3917 37.9788 34.78 38.1421 34.3019 37.8656C33.8239 37.5891 33.6605 36.9773 33.9371 36.4993C35.1459 34.4096 37.4077 33 40 33C40.5522 33 41 33.4477 41 34C41 34.5523 40.5522 35 40 35Z" fill="#104D92"/>
<path d="M35 40C35 40.5523 34.5523 41 34 41C33.4477 41 33 40.5523 33 40C33 39.4477 33.4477 39 34 39C34.5523 39 35 39.4477 35 40Z" fill="#104D92"/>
</svg>
